<?xml version="1.0" encoding="UTF-8" standalone="no"?>
<!DOCTYPE svg PUBLIC "-//W3C//DTD SVG 1.1//EN" "http://www.w3.org/Graphics/SVG/1.1/DTD/svg11.dtd">
<!-- Created with Vectornator (http://vectornator.io/) -->
<svg height="100%" stroke-miterlimit="10" style="fill-rule:nonzero;clip-rule:evenodd;stroke-linecap:round;stroke-linejoin:round;" version="1.1" viewBox="156.266 430.591 687.134 95.7205" width="100%" xml:space="preserve" xmlns="http://www.w3.org/2000/svg" xmlns:xlink="http://www.w3.org/1999/xlink">
<defs/>
<g id="Layer-2">
<g opacity="1">
<path d="M186.7 488.7C187.9 474.3 187.7 459.6 188.7 445.5C188.6 444.5 187.5 442.9 186.4 443.9C185.6 446.6 185.1 449.4 184.9 452.1C184.5 458.3 184.5 470.3 184.2 476.1C183.8 482.2 183 492.8 182.6 500.1C182.6 500.4 182.9 500.6 183.2 500.6C183.4 500.5 183.7 500.4 183.9 500.2C185.3 496.6 186.4 492.8 186.7 488.7ZM187.1 437.9C193.4 437.4 199.7 437.3 206.4 437.8C206.4 436.8 206.1 436.3 205.7 435.9L204.2 435C201.2 434.5 198.3 434.3 195.4 434.3C192.4 434.3 189.4 434.5 186.4 434.6C177.3 435.1 169 437.6 160.2 438.9C159.4 438.9 158.4 439.5 158.9 440.4C159.4 441.4 160.4 442 161.4 442.2C169.7 440.2 178.3 438.6 187.1 437.9Z" fill="none" opacity="1" stroke="#000000" stroke-linecap="butt" stroke-linejoin="round" stroke-width="5"/>
<path d="M242.1 495.6C245.1 491.8 247.1 486.7 248.9 481.8C248.9 481.2 248.7 480.8 248.4 480.6C248.1 480.4 247.6 480.2 247.3 480.7C246 483.1 244.8 485.4 243.6 487.6C242.3 489.9 241 492 239.1 494.1C239 494.2 238.7 494.1 238.5 493.7C236.9 485.8 236.4 477.1 235.7 469.6C235.5 467.9 235.4 465.9 234.6 464.4C233.6 462.4 231.7 461.4 229.9 461.4C228.1 461.4 227 461.9 226.1 462.9C225.6 463.3 225.2 463.9 224.9 464.5C224.5 465.1 224.2 465.7 223.8 466.5C222 469.8 220.3 473.8 218.9 477.4C217.1 482.3 215.4 486.9 214.4 492.1C213.7 489 213.3 481.6 213.3 479.9C213.2 473.6 213.7 467.2 214.6 461.4C215.3 456.8 216.2 452.3 217.6 447.9C218.8 444.1 220.3 440.4 222.5 437C222.8 436.6 223.9 436.2 224.8 436.3C225.8 436.4 226.8 436.8 227.8 437.1C228.5 436 227.8 435.1 227.1 434.4C226 433.5 224.8 433.2 223.5 433.2C221.3 434 219.7 435.2 218.7 437C216.9 440.1 214.9 445.3 214 448.7C211.9 456.7 210.4 465.3 210.1 473.9C209.8 481.3 210.1 488.8 212 496.1L212.5 498C212.7 498.6 213 499.2 213.3 499.6C214.4 500.3 215.5 499.4 215.9 498.7C216.7 493.2 218.8 488 220.4 482.8C222 477.3 224.6 471.2 227.2 466.7C228.7 464.2 231.6 464.8 231.9 467.5C233 476.4 233.3 485.7 235 494.4C235.3 495.7 236.2 497.4 237.8 497.9C239.6 498.5 241.3 496.6 242.1 495.6Z" fill="none" opacity="1" stroke="#000000" stroke-linecap="butt" stroke-linejoin="round" stroke-width="5"/>
<path d="M281.4 490.9C282.4 489.3 283.6 486.9 283.7 485C283.7 484.6 282.8 483.6 282.3 484.1C281.1 487.5 278.6 490.4 275.6 493C274 494.4 271.9 495.7 269.7 496.5C267.4 497.4 264.9 497.6 262.5 496.2C259.9 494.7 259 491.9 258.5 489.1C260.2 488 262.1 486.7 264 485.3C265.9 483.9 267.8 482.4 269.4 480.9C269.7 480.5 270.2 480 270.6 479.6L272.1 478.2C273.2 477.2 274.3 476.1 275.2 475.1C276.3 473.8 277.2 472.1 276.8 470C275.4 466.8 272.8 463.1 269.3 461.9C266.6 461 262.4 462.2 260.2 464C257.8 466.7 256.2 470.2 255.5 473.7C254.5 478.2 254.5 483 254.8 487.5C254 487.9 253 488.6 252.3 488.9C251.9 489.1 251.4 489.2 250.8 489.4C250.2 489.5 249.6 489.7 249 490C248.5 490.8 248.9 491.7 249.3 492.1C250.6 492.7 251.5 492.7 252.6 492.4C253.3 492.2 254.4 491.6 255.2 491C255.5 492 255.8 493 256.3 493.9C256.8 495 257.6 496.1 258.8 497.4C260.9 499.6 264.1 500.7 267.4 500.4C270.5 500.1 273.5 498.6 276.2 496.5C278.2 494.9 280 493 281.4 490.9ZM269.3 465.6C271.2 466.9 272.6 469 273.5 471C273.2 473 271.3 474.4 270 475.7C268.3 477.5 266.3 479.3 264.1 480.9C262.1 482.4 260.1 483.8 258.2 485.1C258 481.3 258.1 477.5 259.1 474C259.8 471.3 260.8 468.9 262.4 466.8C264 465.3 267.3 464.9 269.3 465.6Z" fill="none" opacity="1" stroke="#000000" stroke-linecap="butt" stroke-linejoin="round" stroke-width="5"/>
<path d="M330.3 498.4C333.8 497.1 337.9 495 340.2 491.6C340.9 490.6 340.6 489.1 340.3 488.1C339.6 486.6 338.2 485.5 336.9 485.1C334.6 484.3 332.3 483.9 329.9 483.5L322.7 482.3C321.7 482.1 320.7 481.8 320 481.1C319.5 480.7 319.3 479.9 319.6 479.2C320.1 477.3 321 475.5 322 473.7C323.7 470.8 326.2 467.7 328.9 465.7C329.7 465.1 330.5 464.7 331.5 464.7C332.2 464.6 333 464.9 333.5 465.3C334 465.6 334.4 466 334.8 466.4C335.2 466.8 335.5 467.3 336 467.8C336.8 467.5 337.3 466.9 337.3 466.3C337.2 464.8 336.2 463.2 335.1 462.5C334 461.8 332.9 461.4 331.6 461.4C328.9 461.8 326.5 463.2 324.5 464.9C320.6 468.3 317.9 473.7 316.2 478C315.6 480.3 316.2 482.7 318.1 484.1C320 485.2 322.2 485.7 324.4 486C327.3 486.5 330.2 486.8 333 487.5C334.4 487.9 336 488 337 489.1C337.2 489.7 337.1 490.4 336.6 490.9C332.8 494.2 328.4 495.9 323.5 496.7C321.7 497 319.8 497.3 318 496.7C317 496.4 316.8 495.6 316.7 494.6C316.7 493.3 317.2 491.8 317.2 490.6C317.2 490.4 317 490.1 316.6 490C316.4 490 316.1 490 315.8 490.2C315 490.8 314.6 491.7 314.3 492.6C314.1 493.6 313.8 496 314.2 497.1C314.8 498.5 316.3 499.4 317.6 500C321.9 500.6 326.4 499.9 330.3 498.4Z" fill="none" opacity="1" stroke="#000000" stroke-linecap="butt" stroke-linejoin="round" stroke-width="5"/>
<path d="M371.3 493.9C373.1 493.7 376.9 492.4 378.2 491.1C378.5 490.5 378.4 489.5 377.6 489.2C374.1 490.4 371.7 491 367.2 491C362.7 491 359.7 490.1 355.7 488.3C353.6 487.3 351.7 486.2 350.8 484.2C350.7 481.4 351.7 479 353.1 476.6C354.7 474 356.7 471.7 358.9 469.5C362 466.3 365.4 463.7 369.5 463.2C370 463.5 370.3 463.8 370.6 464.2C371.1 465.1 371.2 466.1 371.4 467.1C371.7 467.5 372.7 467.5 372.9 467C373.4 465.4 373 463.6 372.6 462.1C372 461 370.8 460.4 369.7 460.2C365.1 460.6 360.8 463.1 357.2 466.4C353.4 469.9 350.4 474.3 348.6 478.5C348.4 471.9 349 465.4 350.1 459.1C351.4 451.6 353.5 444.3 355.9 437.1L355.9 434.7C355.2 433.4 353 432.5 352.3 434.2C352.1 434.7 352.2 435.3 352.2 435.9C352.2 436.4 352.2 436.9 352 437.4C349.6 444.5 347.7 452.2 346.5 460.3C345.3 468.1 344.8 476.2 345.4 484.1C345.7 488.9 346.5 493.7 347.6 498.4C347.8 498.6 347.9 498.8 348 499C348.1 499.2 348.2 499.4 348.4 499.6C348.7 499.9 349.1 500.2 349.8 500.2C350.8 499.7 351.3 499.1 351.7 498.2C352.3 497.2 352.5 495.9 352.6 494.5C351.9 494.5 351.6 494.8 351.2 495.1L350.5 495.5C350.1 494.4 349.9 493.1 349.7 491.8C349.6 490.6 349.5 489.4 349.3 488.3C352 490.3 355 492 358.1 493C362.6 494.4 366.8 494.3 371.3 493.9Z" fill="none" opacity="1" stroke="#000000" stroke-linecap="butt" stroke-linejoin="round" stroke-width="5"/>
<path d="M407.5 510.3C408.8 507.9 409.8 505.2 409.8 502.4C408.1 489.8 406.9 476.3 407.5 463.5C407.4 462.8 407.1 462.1 406.5 461.6C405.5 461.1 404.8 461.5 404.2 462C398.8 470.9 393 479.6 385.8 487.6C385.6 487.8 385.1 487.7 385.1 487.6C384.9 486.2 384.9 484.8 384.9 483.3C384.9 481.9 385 480.3 385 478.9C384.9 475.5 385.6 472.4 385.7 469.2C385.8 467.3 385.8 465.5 385.3 463.4C384.7 462.4 384 461.6 383 461.2C381.9 461 380.5 461.8 381 463.2C381.2 463.5 381.3 463.8 381.5 464L382 464.8C382.3 465.4 382.5 465.8 382.3 466.4C382.2 470.1 381.8 473.8 381.6 477.5C381.4 481.2 381.4 484.9 381.8 488.7C382.3 489.5 382.9 490.5 384.1 490.7C385.4 491 386.9 490.6 387.8 489.4C393.7 482 399.1 474.5 403.9 466.6C404.1 478.3 404.9 489.9 406.3 501.1C406.7 504.1 405.9 506.8 404.6 509.2C403.4 511.2 401.4 513.7 399.4 515.3C395.2 518.7 390.7 521 385.3 520.9C382.7 520.8 379.8 520.3 377.5 519C376.4 518.4 375.5 517.5 374.5 516.8L372.8 515.7C373.5 517.8 374.2 519 375.1 520C377.7 522.7 381.7 523.7 385.3 523.8C394.4 524.1 403.1 518.3 407.5 510.3Z" fill="none" opacity="1" stroke="#000000" stroke-linecap="butt" stroke-linejoin="round" stroke-width="5"/>
<path d="M468.7 497.6C470.3 495.8 471.6 493.6 472 491.6L472.4 489.8C472.5 489.2 472.5 488.5 471.7 487.8C470.9 488.5 470.5 489.3 470.2 490C469.9 490.7 469.7 491.5 469.3 492.2C468.5 493.3 467.7 494.6 466.6 495.5C465.6 496.3 464.6 497 463.4 496.9C462.8 496.9 461.6 495.8 461.5 495.2C459.5 488.4 460.6 474.9 461.9 464.8C462 464 462.1 463 461.4 462.2C460.7 461.8 459.2 461.4 458.7 462.2C456.2 466 454.3 469.9 452.1 473.8C449.9 477.7 447.5 481.5 444.4 485C444.1 485.4 444.2 485.8 444.5 486C444.8 486.2 445.2 486.3 445.5 486.3C446.2 486.2 447 485.7 447.5 485.3C449.9 482.7 451.8 480 453.5 477.2C455 474.7 456.4 472.3 457.8 469.7C457.1 477.9 456.7 486.1 457.8 494.3C458.1 496.3 458.7 498 460.3 499.4C461.2 500.2 463.3 500.3 464.5 500.2C466.1 499.8 467.6 498.8 468.7 497.6ZM468.9 442.2C469.5 442.5 470.2 442.9 471.2 443.2C471.4 442 470.7 441.1 470.1 440.6C465.7 436.6 460.4 434.5 454.4 434.4C453.4 435.2 453.5 437.2 454.5 437.3C458.9 438.2 463 439.3 467 441.1L468.9 442.2Z" fill="none" opacity="1" stroke="#000000" stroke-linecap="butt" stroke-linejoin="round" stroke-width="5"/>
<path d="M492.6 498.4C496.1 497.1 500.2 495 502.5 491.6C503.2 490.6 502.9 489.1 502.6 488.1C501.9 486.6 500.5 485.5 499.2 485.1C496.9 484.3 494.6 483.9 492.2 483.5L485 482.3C484 482.1 483 481.8 482.3 481.1C481.8 480.7 481.6 479.9 481.9 479.2C482.4 477.3 483.3 475.5 484.3 473.7C486 470.8 488.5 467.7 491.2 465.7C492 465.1 492.8 464.7 493.8 464.7C494.5 464.6 495.3 464.9 495.8 465.3C496.3 465.6 496.7 466 497.1 466.4C497.5 466.8 497.8 467.3 498.3 467.8C499.1 467.5 499.6 466.9 499.6 466.3C499.5 464.8 498.5 463.2 497.4 462.5C496.3 461.8 495.2 461.4 493.9 461.4C491.2 461.8 488.8 463.2 486.8 464.9C482.9 468.3 480.2 473.7 478.5 478C477.9 480.3 478.5 482.7 480.4 484.1C482.3 485.2 484.5 485.7 486.7 486C489.6 486.5 492.5 486.8 495.3 487.5C496.7 487.9 498.3 488 499.3 489.1C499.5 489.7 499.4 490.4 498.9 490.9C495.1 494.2 490.7 495.9 485.8 496.7C484 497 482.1 497.3 480.3 496.7C479.3 496.4 479.1 495.6 479 494.6C479 493.3 479.5 491.8 479.5 490.6C479.5 490.4 479.3 490.1 478.9 490C478.7 490 478.4 490 478.1 490.2C477.3 490.8 476.9 491.7 476.6 492.6C476.4 493.6 476.1 496 476.5 497.1C477.1 498.5 478.6 499.4 479.9 500C484.2 500.6 488.7 499.9 492.6 498.4Z" fill="none" opacity="1" stroke="#000000" stroke-linecap="butt" stroke-linejoin="round" stroke-width="5"/>
<path d="M563.2 464.6C563.3 464 563.4 463.1 563.3 462.4C563.2 461.9 562.9 461.5 562.6 461.4C562.2 461.3 561.8 461.4 561.6 461.8C557.7 473.8 553.4 485.6 546.6 496.4C546.4 496.5 546.1 496.4 545.9 496.2C543 491 541.4 485.6 540 479.3C538.8 474 538.5 468.3 538.3 462.5C538 462 537.6 461.4 536.8 461.2C536.2 461.3 535.3 461.6 535.1 462.3C534.9 467.9 535.2 473.4 536.2 478.7C537 483.2 538.2 487.6 539.9 491.7C541.2 494.8 542.8 498.1 545.5 500.5C546.9 500.7 548.1 500.1 548.9 499.1C555.5 488.3 560 476.7 563.2 464.6Z" fill="none" opacity="1" stroke="#000000" stroke-linecap="butt" stroke-linejoin="round" stroke-width="5"/>
<path d="M596.3 490.9C597.3 489.3 598.5 486.9 598.6 485C598.6 484.6 597.7 483.6 597.2 484.1C596 487.5 593.5 490.4 590.5 493C588.9 494.4 586.8 495.7 584.6 496.5C582.3 497.4 579.8 497.6 577.4 496.2C574.8 494.7 573.9 491.9 573.4 489.1C575.1 488 577 486.7 578.9 485.3C580.8 483.9 582.7 482.4 584.3 480.9C584.6 480.5 585.1 480 585.5 479.6L587 478.2C588.1 477.2 589.2 476.1 590.1 475.1C591.2 473.8 592.1 472.1 591.7 470C590.3 466.8 587.7 463.1 584.2 461.9C581.5 461 577.3 462.2 575.1 464C572.7 466.7 571.1 470.2 570.4 473.7C569.4 478.2 569.4 483 569.7 487.5C568.9 487.9 567.9 488.6 567.2 488.9C566.8 489.1 566.3 489.2 565.7 489.4C565.1 489.5 564.5 489.7 563.9 490C563.4 490.8 563.8 491.7 564.2 492.1C565.5 492.7 566.4 492.7 567.5 492.4C568.2 492.2 569.3 491.6 570.1 491C570.4 492 570.7 493 571.2 493.9C571.7 495 572.5 496.1 573.7 497.4C575.8 499.6 579 500.7 582.3 500.4C585.4 500.1 588.4 498.6 591.1 496.5C593.1 494.9 594.9 493 596.3 490.9ZM584.2 465.6C586.1 466.9 587.5 469 588.4 471C588.1 473 586.2 474.4 584.9 475.7C583.2 477.5 581.2 479.3 579 480.9C577 482.4 575 483.8 573.1 485.1C572.9 481.3 573 477.5 574 474C574.7 471.3 575.7 468.9 577.3 466.8C578.9 465.3 582.2 464.9 584.2 465.6Z" fill="none" opacity="1" stroke="#000000" stroke-linecap="butt" stroke-linejoin="round" stroke-width="5"/>
<path d="M630.1 464.8C630.7 464.8 631.5 464.2 631.2 463.2C629.9 462.6 628.3 462.8 627.2 463C624.6 463.5 623.4 464 620.9 464.9C618.6 465.8 615 467.9 613.2 469.5C611.1 471.4 608.6 473.8 606.8 476.7C606.7 472.7 607.1 469 608.4 466.1C608.4 465.7 608.6 465.5 608.8 465.1C609.4 464.1 610.4 463.3 610.4 461.9C609.8 461.1 609 461 608.3 461C607 461.5 606.3 462.3 605.8 463.3C605.3 464.2 604.9 465.3 604.4 466.2C603.2 470.5 602.9 474.8 603.4 479C604.1 485.8 606.5 492.3 608.8 498.8L610 500.1C610.6 500.7 611.6 500.4 611.9 499.5C611.1 496.6 610.1 493.9 609.3 491.1C608.5 488.4 607.8 485.6 607.5 482.6C608.8 479 611.1 475.9 613.8 473.3C616.5 470.7 619 468.5 621.9 467.3C624.9 466 627.1 465.4 630.1 464.8Z" fill="none" opacity="1" stroke="#000000" stroke-linecap="butt" stroke-linejoin="round" stroke-width="5"/>
<path d="M658.6 510.3C659.9 507.9 660.9 505.2 660.9 502.4C659.2 489.8 658 476.3 658.6 463.5C658.5 462.8 658.2 462.1 657.6 461.6C656.6 461.1 655.9 461.5 655.3 462C649.9 470.9 644.1 479.6 636.9 487.6C636.7 487.8 636.2 487.7 636.2 487.6C636 486.2 636 484.8 636 483.3C636 481.9 636.1 480.3 636.1 478.9C636 475.5 636.7 472.4 636.8 469.2C636.9 467.3 636.9 465.5 636.4 463.4C635.8 462.4 635.1 461.6 634.1 461.2C633 461 631.6 461.8 632.1 463.2C632.3 463.5 632.4 463.8 632.6 464L633.1 464.8C633.4 465.4 633.6 465.8 633.4 466.4C633.3 470.1 632.9 473.8 632.7 477.5C632.5 481.2 632.5 484.9 632.9 488.7C633.4 489.5 634 490.5 635.2 490.7C636.5 491 638 490.6 638.9 489.4C644.8 482 650.2 474.5 655 466.6C655.2 478.3 656 489.9 657.4 501.1C657.8 504.1 657 506.8 655.7 509.2C654.5 511.2 652.5 513.7 650.5 515.3C646.3 518.7 641.8 521 636.4 520.9C633.8 520.8 630.9 520.3 628.6 519C627.5 518.4 626.6 517.5 625.6 516.8L623.9 515.7C624.6 517.8 625.3 519 626.2 520C628.8 522.7 632.8 523.7 636.4 523.8C645.5 524.1 654.2 518.3 658.6 510.3Z" fill="none" opacity="1" stroke="#000000" stroke-linecap="butt" stroke-linejoin="round" stroke-width="5"/>
<path d="M725.8 487.3C727.7 483.9 728.5 480 727.9 475.8C727.1 470.6 723.2 465.4 718.3 463C715.2 461.4 711.9 461.2 708.5 462.4C705.9 463.4 703.4 465.7 701.6 467.9C701.5 460.3 703 444.6 706.9 438.2C706.9 438 707.1 437.7 707.3 437.5C707.9 436.8 709 436.2 709.3 435.3C709.7 433.7 707.8 433 706.8 433.1C704.1 434.1 703.3 437.1 702.4 439.5C700.2 445.3 698.1 458.2 698.1 469.2C698.1 478.7 699.7 495.5 701.6 500C702.2 501.6 702.4 501.8 702.8 501.8C703 501.8 703.3 501.6 703.5 501C703.5 500.7 703.6 500.5 703.6 500.3C703.7 500.1 703.7 499.9 703.7 499.2C704.6 499.6 706.7 499.7 707.8 499.6C715.3 498.6 722.2 493.9 725.8 487.3ZM723.1 484.8C720.1 490.7 713.9 495.6 707.6 497.5C706.2 497.9 704.6 497.8 703.5 497.4C702.8 491.6 701.6 479.7 701.6 472.9C702.9 469.9 705.6 467.4 708.6 465.8C711 464.6 713 464.7 715.4 465.5C718.5 466.6 721 468.7 722.7 471.5C724.9 475.3 725 480.9 723.1 484.8Z" fill="none" opacity="1" stroke="#000000" stroke-linecap="butt" stroke-linejoin="round" stroke-width="5"/>
<path d="M764.3 497.9C766.7 496.1 768.6 493.4 769.8 490.7C769.9 490.3 770.1 489.9 770.1 489.5C770.2 489 770.2 488.5 769.6 487.9C768.9 487.9 768.5 488.7 768.3 489.3C767.1 491.5 764.7 494.5 762.7 495.8C760.5 497.1 758.7 497.7 756 497.1C753.4 496.2 751.4 494.4 750 492.2C748 489.2 747 485.5 746.4 482C751.7 473.9 756.2 465.4 758.1 455.9C758.8 452.2 759.2 448.5 759.1 444.5C759 441.1 758.7 437.2 756.6 434.2C755.5 433.2 753.3 433.3 752.3 434.5C748.1 439.6 745.4 445.5 743.9 451.8C741.8 461 742 471.1 742.9 480.8C741.4 482.9 739.6 485 737.6 486.8L731.6 492.3C731.1 492.9 731.2 493.9 731.8 494.3C732.5 494.8 733.5 494.7 734.1 494.3C737.6 491.9 740.9 488.7 743.7 485.4C744.3 487.3 744.8 488.9 745.5 490.5C746.2 492.2 747.1 493.8 748.5 495.5C750.7 498.1 753.8 500.3 757.2 500.4C760.1 500.5 762.2 499.4 764.3 497.9ZM753.7 436.7C754.1 436.2 755.1 436.4 755.3 437.3C756.4 443.4 756.2 449.3 755 454.9C753.3 462.5 750 469.6 745.9 476C745.5 468.5 745.5 460.8 747 453.6C748.2 447.5 750.2 441.7 753.7 436.7Z" fill="none" opacity="1" stroke="#000000" stroke-linecap="butt" stroke-linejoin="round" stroke-width="5"/>
<path d="M806 496.9C806.1 496.7 806.4 496.2 806 495.9C804.2 494.6 803.2 493 802.4 490.9C801.5 488.3 801 484 801 479.3C800.9 474.6 801.2 469.4 801.4 465C801.3 464.4 800.6 463.6 799.7 463.8C799 463.8 798.7 464.4 798.4 464.9C798.4 465 798.3 465.2 798.2 465.3C796.8 469.8 795.6 474.4 793.9 478.7C792.6 482.1 791.2 485.4 789.1 488.3C788.4 489.2 787.7 490.3 787 491.3C786.2 492.3 785.4 493.3 784.5 494.1C783.1 495.4 781.5 496.2 779.7 496C778 495.6 777.3 493.9 777 492.4C776.8 487.9 777.2 483.4 777.6 478.9C778.1 473.7 778.5 468.5 778.1 463.1C777.7 462.1 776.4 460.5 774.8 461.6C775.2 467.4 774.8 473 774.3 478.6C774 482.5 773.6 486.4 773.5 490.4C773.4 493.2 774 496 776 498.2C777.9 499.7 781.2 500.1 783.3 498.7C786.3 496.7 788.7 494.2 790.7 491.4C794.2 486.5 796.2 480.7 798.1 475C797.9 481.2 798.2 488.2 800.1 493.1C800.7 494.5 802.9 496.8 805 497.3C805.4 497.3 805.8 497.1 806 496.9Z" fill="none" opacity="1" stroke="#000000" stroke-linecap="butt" stroke-linejoin="round" stroke-width="5"/>
<path d="M838.6 490.9C839.6 489.3 840.8 486.9 840.9 485C840.9 484.6 840 483.6 839.5 484.1C838.3 487.5 835.8 490.4 832.8 493C831.2 494.4 829.1 495.7 826.9 496.5C824.6 497.4 822.1 497.6 819.7 496.2C817.1 494.7 816.2 491.9 815.7 489.1C817.4 488 819.3 486.7 821.2 485.3C823.1 483.9 825 482.4 826.6 480.9C826.9 480.5 827.4 480 827.8 479.6L829.3 478.2C830.4 477.2 831.5 476.1 832.4 475.1C833.5 473.8 834.4 472.1 834 470C832.6 466.8 830 463.1 826.5 461.9C823.8 461 819.6 462.2 817.4 464C815 466.7 813.4 470.2 812.7 473.7C811.7 478.2 811.7 483 812 487.5C811.2 487.9 810.2 488.6 809.5 488.9C809.1 489.1 808.6 489.2 808 489.4C807.4 489.5 806.8 489.7 806.2 490C805.7 490.8 806.1 491.7 806.5 492.1C807.8 492.7 808.7 492.7 809.8 492.4C810.5 492.2 811.6 491.6 812.4 491C812.7 492 813 493 813.5 493.9C814 495 814.8 496.1 816 497.4C818.1 499.6 821.3 500.7 824.6 500.4C827.7 500.1 830.7 498.6 833.4 496.5C835.4 494.9 837.2 493 838.6 490.9ZM826.5 465.6C828.4 466.9 829.8 469 830.7 471C830.4 473 828.5 474.4 827.2 475.7C825.5 477.5 823.5 479.3 821.3 480.9C819.3 482.4 817.3 483.8 815.4 485.1C815.2 481.3 815.3 477.5 816.3 474C817 471.3 818 468.9 819.6 466.8C821.2 465.3 824.5 464.9 826.5 465.6Z" fill="none" opacity="1" stroke="#000000" stroke-linecap="butt" stroke-linejoin="round" stroke-width="5"/>
</g>
</g>
</svg>
