<?xml version="1.0" encoding="UTF-8" standalone="no"?>
<!DOCTYPE svg PUBLIC "-//W3C//DTD SVG 1.1//EN" "http://www.w3.org/Graphics/SVG/1.1/DTD/svg11.dtd">
<!-- Created with Vectornator (http://vectornator.io/) -->
<svg height="100%" stroke-miterlimit="10" style="fill-rule:nonzero;clip-rule:evenodd;stroke-linecap:round;stroke-linejoin:round;" version="1.1" viewBox="107.35 430.959 789.529 95.2058" width="100%" xml:space="preserve" xmlns="http://www.w3.org/2000/svg" xmlns:xlink="http://www.w3.org/1999/xlink">
<defs/>
<g id="Layer-4">
<g opacity="1">
<path d="M149.15 500.6C150.05 500.7 150.95 500.8 151.95 500.2C152.25 499.9 152.55 498.8 151.75 498.5C145.05 494.9 139.05 489.9 133.25 484.5C129.75 481.3 126.75 478 123.55 474.6C120.45 471.4 117.25 468.1 113.75 465.1C113.95 456.8 114.15 448.7 114.65 440.5C114.75 439.9 113.95 439.2 113.05 439.2C112.15 439.8 111.75 440.6 111.45 441.4L110.95 444.1L110.45 461.5C110.25 468.9 110.65 478.3 110.65 485.2C110.65 487.7 110.75 490.2 110.65 492.7C110.55 495.2 110.35 497.6 109.85 500C110.15 501.1 111.85 500.6 112.15 499.8C113.45 496.2 113.95 492.1 114.15 488.2C114.35 481.9 113.55 475.2 113.85 469.3L114.85 470L116.15 471.3C121.05 476.2 125.35 480.9 129.85 485.4C134.25 489.9 138.85 494.2 144.35 498C144.75 498.2 145.15 498.4 145.45 498.7C146.65 499.4 147.85 500.3 149.15 500.6ZM140.55 457.8C142.25 455.1 143.75 451.9 144.25 448.5C144.75 445.3 144.15 441.9 142.45 439C141.25 437 139.75 435.7 137.95 434.8C135.25 433.5 132.05 433.1 128.85 433.8C125.85 434.5 123.05 436.1 120.95 438.4C119.45 440 118.05 442.2 117.55 444.5C117.55 445.1 118.15 445.6 118.95 445.3L120.05 444.1C120.95 442.8 121.75 441.4 123.05 440.3C125.05 438.5 127.65 437.4 130.35 437C132.25 436.7 134.55 436.5 136.35 437.5C139.15 439 140.85 442.6 141.15 445.8C140.55 451.5 137.85 456.3 133.95 460.7C132.35 462.5 130.55 463.9 128.65 465.2C126.85 466.5 124.85 467.6 122.75 468.9C122.95 469.6 123.65 470.2 124.35 470C130.85 468.4 136.75 463.7 140.55 457.8Z" fill="none" opacity="1" stroke="#000000" stroke-linecap="butt" stroke-linejoin="round" stroke-width="5"/>
<path d="M187.05 499.1C187.95 499.3 189.55 499.5 189.45 498.2C185.35 494.2 184.35 490.1 182.65 484.8C181.65 481.5 180.85 478.3 180.45 474.7C180.15 473.8 179.95 473.2 179.55 472.5C179.35 470.8 179.35 468.7 178.35 467.3C177.45 464.9 175.75 462.8 173.35 461.7C172.35 461.2 171.35 461.2 170.35 461.5C169.45 461.8 168.55 462.3 167.65 462.8C161.15 468.3 156.95 475.3 154.95 482.9C154.15 485.8 153.55 489.7 153.95 493.1C154.35 495.8 155.45 498.2 157.95 499.7C160.15 501.1 163.25 500.5 165.25 498.9C171.55 493.9 175.15 486.9 177.85 480.1C178.35 482.3 178.85 484.5 179.55 486.6C181.25 491.4 182.65 495.9 187.05 499.1ZM175.65 468.4C176.25 469.5 176.95 471.3 177.25 472.3C176.55 473.3 176.45 474.5 176.25 475.6C173.65 483.4 169.55 491 162.45 496.5C161.25 496.9 159.65 496.7 158.75 495.8C157.95 494.7 157.55 493.4 157.45 491.9C157.35 490.4 157.55 488.8 157.65 487.3C158.55 482.8 160.05 478.5 162.25 474.5C164.05 471.4 166.85 467.6 169.95 465.5C170.75 465 171.55 464.7 172.55 465C173.85 465.7 174.85 467 175.65 468.4Z" fill="none" opacity="1" stroke="#000000" stroke-linecap="butt" stroke-linejoin="round" stroke-width="5"/>
<path d="M214.75 497.6C216.35 495.8 217.65 493.6 218.05 491.6L218.45 489.8C218.55 489.2 218.55 488.5 217.75 487.8C216.95 488.5 216.55 489.3 216.25 490C215.95 490.7 215.75 491.5 215.35 492.2C214.55 493.3 213.75 494.6 212.65 495.5C211.65 496.3 210.65 497 209.45 496.9C208.85 496.9 207.65 495.8 207.55 495.2C205.55 488.4 206.65 474.9 207.95 464.8C208.05 464 208.15 463 207.45 462.2C206.75 461.8 205.25 461.4 204.75 462.2C202.25 466 200.35 469.9 198.15 473.8C195.95 477.7 193.55 481.5 190.45 485C190.15 485.4 190.25 485.8 190.55 486C190.85 486.2 191.25 486.3 191.55 486.3C192.25 486.2 193.05 485.7 193.55 485.3C195.95 482.7 197.85 480 199.55 477.2C201.05 474.7 202.45 472.3 203.85 469.7C203.15 477.9 202.75 486.1 203.85 494.3C204.15 496.3 204.75 498 206.35 499.4C207.25 500.2 209.35 500.3 210.55 500.2C212.15 499.8 213.65 498.8 214.75 497.6ZM214.95 442.2C215.55 442.5 216.25 442.9 217.25 443.2C217.45 442 216.75 441.1 216.15 440.6C211.75 436.6 206.45 434.5 200.45 434.4C199.45 435.2 199.55 437.2 200.55 437.3C204.95 438.2 209.05 439.3 213.05 441.1L214.95 442.2Z" fill="none" opacity="1" stroke="#000000" stroke-linecap="butt" stroke-linejoin="round" stroke-width="5"/>
<path d="M250.25 500.1C254.35 496.6 257.25 492.4 259.35 487.8C259.45 487.4 258.75 486.5 258.25 487L254.55 491.8C253.35 493.1 252.15 494.4 250.75 495.4C251.05 491.4 251.25 487.3 251.15 483.3C251.05 479.1 251.35 474.6 250.75 470.4C250.35 467.8 249.65 465.4 248.35 463.2C247.25 462.3 246.15 461.7 244.75 461.6C243.25 461.4 242.15 462.2 241.15 462.8C237.85 465.9 235.45 469.5 233.35 473.2C231.25 477 229.55 481.2 228.05 485.3C227.35 478.3 226.95 471.2 226.05 464.2L225.55 463.2C225.05 462.1 224.35 461.1 223.05 460.9C222.15 461.1 221.95 462.2 222.05 462.7C223.15 465.3 223.35 468.2 223.55 471C223.85 476.1 224.75 484.8 224.95 491.4C224.95 493.3 225.05 496.8 225.05 498.6C225.45 500 227.45 499.8 227.85 498.7C228.55 493.9 229.55 489.1 231.15 484.6C233.05 479 235.55 473.7 239.25 469C240.25 467.8 241.35 466.1 242.65 465.3C243.75 464.7 244.85 464.6 245.75 465.5C246.15 465.8 246.35 466.3 246.55 466.8C246.75 467.3 246.85 467.8 246.95 468.4C247.85 477.1 248.05 486.5 247.45 495.2C247.55 495.5 247.55 495.8 247.55 496.1C247.45 497 247.25 498.1 247.45 499C247.75 499.9 249.15 501 250.25 500.1Z" fill="none" opacity="1" stroke="#000000" stroke-linecap="butt" stroke-linejoin="round" stroke-width="5"/>
<path d="M290.05 492.1C290.45 492.6 291.55 493.2 292.65 492.6C292.55 492.1 292.35 491.7 292.25 491.4C291.85 490.4 291.25 489.5 291.05 488.4C289.15 479.5 289.25 470.2 289.55 461C289.85 452.3 291.55 444.1 292.65 435.6C292.75 434.6 290.95 432.9 289.85 434.6C288.95 437.5 288.45 440.5 288.05 443.5C287.65 446.5 287.35 449.6 286.85 452.7C286.45 455.8 286.45 459 286.25 462.1C286.15 464.3 285.75 466.5 285.05 468.4C284.75 467.2 284.35 466.1 283.55 465.1C282.05 463.3 279.65 462 277.25 461.9C273.05 461.6 269.65 464.9 267.55 468.3C264.75 472.7 262.45 478 261.65 483.5C260.95 487.8 261.15 492.2 262.65 496.6C263.85 498.6 265.85 500 268.05 500.2C271.25 500.5 273.95 498.1 275.75 495.5C280.45 488.7 283.55 481.2 286.15 473.5C286.55 477.3 286.45 481.1 287.05 484.7C287.55 487.4 288.25 489.9 290.05 492.1ZM281.75 473.5C281.75 473.9 282.05 474.7 282.55 474.9C280.05 481.8 277.15 488.6 272.45 494.4C271.05 496.1 269.45 497.2 267.55 496.6C266.35 496 265.65 495 265.25 493.7C264.85 492.6 264.65 491.2 264.65 489.8C264.65 488.4 264.75 487 264.75 485.7C265.75 480.6 267.05 475.7 269.65 471.3C270.85 469.4 272.35 467.6 274.25 465.9C275.35 465.2 276.85 464.9 278.15 465.4C279.45 465.8 280.65 466.6 281.25 467.8C282.05 469.5 281.75 471.7 281.75 473.5Z" fill="none" opacity="1" stroke="#000000" stroke-linecap="butt" stroke-linejoin="round" stroke-width="5"/>
<path d="M325.35 464.8C325.95 464.8 326.75 464.2 326.45 463.2C325.15 462.6 323.55 462.8 322.45 463C319.85 463.5 318.65 464 316.15 464.9C313.85 465.8 310.25 467.9 308.45 469.5C306.35 471.4 303.85 473.8 302.05 476.7C301.95 472.7 302.35 469 303.65 466.1C303.65 465.7 303.85 465.5 304.05 465.1C304.65 464.1 305.65 463.3 305.65 461.9C305.05 461.1 304.25 461 303.55 461C302.25 461.5 301.55 462.3 301.05 463.3C300.55 464.2 300.15 465.3 299.65 466.2C298.45 470.5 298.15 474.8 298.65 479C299.35 485.8 301.75 492.3 304.05 498.8L305.25 500.1C305.85 500.7 306.85 500.4 307.15 499.5C306.35 496.6 305.35 493.9 304.55 491.1C303.75 488.4 303.05 485.6 302.75 482.6C304.05 479 306.35 475.9 309.05 473.3C311.75 470.7 314.25 468.5 317.15 467.3C320.15 466 322.35 465.4 325.35 464.8Z" fill="none" opacity="1" stroke="#000000" stroke-linecap="butt" stroke-linejoin="round" stroke-width="5"/>
<path d="M348.75 495.6C351.95 492.1 354.15 487.6 355.05 482.9C355.95 478 355.45 473 353.35 468.5C352.55 466.7 351.15 464.8 349.35 463.5C348.35 462.8 347.15 462.2 345.85 462C345.55 461.3 344.55 461 343.95 461.1C340.95 461.8 338.35 463.8 336.05 466C332.15 469.7 329.35 474.3 327.85 479.2C326.45 484 326.35 489.1 328.15 494.2C329.25 497.2 332.35 499.8 335.45 500.4C340.75 501.3 345.25 499.3 348.75 495.6ZM346.35 465.1C349.05 467.1 351.15 469.7 351.65 472.8C352.25 476.3 352.25 480 351.45 483.4C350.55 487.7 348.45 491.6 344.95 494.6C342.65 496.6 339.45 497.7 336.15 496.9C333.85 496.4 331.55 494.6 330.95 492.2C329.95 487.7 330.15 483.2 331.45 479.2C333.15 474.2 335.95 469.5 340.65 466.5L342.05 465.6C342.55 465.3 343.05 465 343.55 464.6C344.35 464.1 345.35 464.1 346.35 465.1Z" fill="none" opacity="1" stroke="#000000" stroke-linecap="butt" stroke-linejoin="round" stroke-width="5"/>
<path d="M384.25 489.7C387.05 485.6 388.85 480.3 388.85 475.1C388.85 471.9 388.05 468.7 386.25 465.9C384.75 463.6 382.55 462 380.05 461.4C377.15 460.8 374.25 461.4 371.75 462.6C369.05 463.9 366.55 465.9 364.65 468.2C364.35 467.8 363.85 467.3 363.55 467.2C362.85 466.7 362.05 466.5 361.45 467.4C361.35 468.1 361.35 469.1 361.65 469.7C362.35 478 362.95 490.1 362.65 495.7L362.45 495.6C361.85 495.2 361.25 494.7 360.55 494.5C359.85 494.2 359.25 495.3 359.55 495.7C359.95 496.4 360.45 497 361.05 497.4L362.65 498.6C362.55 503.2 362.55 507.6 362.25 512.1C362.05 515.9 361.75 519.6 360.95 523.4C362.05 523.6 363.35 522.6 363.85 521.7C364.85 519 365.35 515.9 365.55 512.8C365.85 508.6 365.75 504.2 366.05 500.1C369.85 500.4 373.45 499.3 376.45 497.4C379.55 495.5 382.15 492.8 384.25 489.7ZM383.05 466.9C384.65 469.1 385.45 471.8 385.45 474.7C385.55 479 384.15 483.6 382.05 486.9C378.65 492.3 372.95 497.2 366.15 496.9C366.15 488.6 365.75 480.8 365.35 472.6C367.25 469.9 369.45 467.4 372.15 465.9C374.45 464.7 376.85 464.1 379.55 464.7C380.95 465 382.15 465.7 383.05 466.9Z" fill="none" opacity="1" stroke="#000000" stroke-linecap="butt" stroke-linejoin="round" stroke-width="5"/>
<path d="M408.65 498.4C412.15 497.1 416.25 495 418.55 491.6C419.25 490.6 418.95 489.1 418.65 488.1C417.95 486.6 416.55 485.5 415.25 485.1C412.95 484.3 410.65 483.9 408.25 483.5L401.05 482.3C400.05 482.1 399.05 481.8 398.35 481.1C397.85 480.7 397.65 479.9 397.95 479.2C398.45 477.3 399.35 475.5 400.35 473.7C402.05 470.8 404.55 467.7 407.25 465.7C408.05 465.1 408.85 464.7 409.85 464.7C410.55 464.6 411.35 464.9 411.85 465.3C412.35 465.6 412.75 466 413.15 466.4C413.55 466.8 413.85 467.3 414.35 467.8C415.15 467.5 415.65 466.9 415.65 466.3C415.55 464.8 414.55 463.2 413.45 462.5C412.35 461.8 411.25 461.4 409.95 461.4C407.25 461.8 404.85 463.2 402.85 464.9C398.95 468.3 396.25 473.7 394.55 478C393.95 480.3 394.55 482.7 396.45 484.1C398.35 485.2 400.55 485.7 402.75 486C405.65 486.5 408.55 486.8 411.35 487.5C412.75 487.9 414.35 488 415.35 489.1C415.55 489.7 415.45 490.4 414.95 490.9C411.15 494.2 406.75 495.9 401.85 496.7C400.05 497 398.15 497.3 396.35 496.7C395.35 496.4 395.15 495.6 395.05 494.6C395.05 493.3 395.55 491.8 395.55 490.6C395.55 490.4 395.35 490.1 394.95 490C394.75 490 394.45 490 394.15 490.2C393.35 490.8 392.95 491.7 392.65 492.6C392.45 493.6 392.15 496 392.55 497.1C393.15 498.5 394.65 499.4 395.95 500C400.25 500.6 404.75 499.9 408.65 498.4Z" fill="none" opacity="1" stroke="#000000" stroke-linecap="butt" stroke-linejoin="round" stroke-width="5"/>
<path d="M482.55 497.9C484.95 496.1 486.85 493.4 488.05 490.7C488.15 490.3 488.35 489.9 488.35 489.5C488.45 489 488.45 488.5 487.85 487.9C487.15 487.9 486.75 488.7 486.55 489.3C485.35 491.5 482.95 494.5 480.95 495.8C478.75 497.1 476.95 497.7 474.25 497.1C471.65 496.2 469.65 494.4 468.25 492.2C466.25 489.2 465.25 485.5 464.65 482C469.95 473.9 474.45 465.4 476.35 455.9C477.05 452.2 477.45 448.5 477.35 444.5C477.25 441.1 476.95 437.2 474.85 434.2C473.75 433.2 471.55 433.3 470.55 434.5C466.35 439.6 463.65 445.5 462.15 451.8C460.05 461 460.25 471.1 461.15 480.8C459.65 482.9 457.85 485 455.85 486.8L449.85 492.3C449.35 492.9 449.45 493.9 450.05 494.3C450.75 494.8 451.75 494.7 452.35 494.3C455.85 491.9 459.15 488.7 461.95 485.4C462.55 487.3 463.05 488.9 463.75 490.5C464.45 492.2 465.35 493.8 466.75 495.5C468.95 498.1 472.05 500.3 475.45 500.4C478.35 500.5 480.45 499.4 482.55 497.9ZM471.95 436.7C472.35 436.2 473.35 436.4 473.55 437.3C474.65 443.4 474.45 449.3 473.25 454.9C471.55 462.5 468.25 469.6 464.15 476C463.75 468.5 463.75 460.8 465.25 453.6C466.45 447.5 468.45 441.7 471.95 436.7Z" fill="none" opacity="1" stroke="#000000" stroke-linecap="butt" stroke-linejoin="round" stroke-width="5"/>
<path d="M523.85 499.1C524.75 499.3 526.35 499.5 526.25 498.2C522.15 494.2 521.15 490.1 519.45 484.8C518.45 481.5 517.65 478.3 517.25 474.7C516.95 473.8 516.75 473.2 516.35 472.5C516.15 470.8 516.15 468.7 515.15 467.3C514.25 464.9 512.55 462.8 510.15 461.7C509.15 461.2 508.15 461.2 507.15 461.5C506.25 461.8 505.35 462.3 504.45 462.8C497.95 468.3 493.75 475.3 491.75 482.9C490.95 485.8 490.35 489.7 490.75 493.1C491.15 495.8 492.25 498.2 494.75 499.7C496.95 501.1 500.05 500.5 502.05 498.9C508.35 493.9 511.95 486.9 514.65 480.1C515.15 482.3 515.65 484.5 516.35 486.6C518.05 491.4 519.45 495.9 523.85 499.1ZM512.45 468.4C513.05 469.5 513.75 471.3 514.05 472.3C513.35 473.3 513.25 474.5 513.05 475.6C510.45 483.4 506.35 491 499.25 496.5C498.05 496.9 496.45 496.7 495.55 495.8C494.75 494.7 494.35 493.4 494.25 491.9C494.15 490.4 494.35 488.8 494.45 487.3C495.35 482.8 496.85 478.5 499.05 474.5C500.85 471.4 503.65 467.6 506.75 465.5C507.55 465 508.35 464.7 509.35 465C510.65 465.7 511.65 467 512.45 468.4Z" fill="none" opacity="1" stroke="#000000" stroke-linecap="butt" stroke-linejoin="round" stroke-width="5"/>
<path d="M556.05 500.1C560.15 496.6 563.05 492.4 565.15 487.8C565.25 487.4 564.55 486.5 564.05 487L560.35 491.8C559.15 493.1 557.95 494.4 556.55 495.4C556.85 491.4 557.05 487.3 556.95 483.3C556.85 479.1 557.15 474.6 556.55 470.4C556.15 467.8 555.45 465.4 554.15 463.2C553.05 462.3 551.95 461.7 550.55 461.6C549.05 461.4 547.95 462.2 546.95 462.8C543.65 465.9 541.25 469.5 539.15 473.2C537.05 477 535.35 481.2 533.85 485.3C533.15 478.3 532.75 471.2 531.85 464.2L531.35 463.2C530.85 462.1 530.15 461.1 528.85 460.9C527.95 461.1 527.75 462.2 527.85 462.7C528.95 465.3 529.15 468.2 529.35 471C529.65 476.1 530.55 484.8 530.75 491.4C530.75 493.3 530.85 496.8 530.85 498.6C531.25 500 533.25 499.8 533.65 498.7C534.35 493.9 535.35 489.1 536.95 484.6C538.85 479 541.35 473.7 545.05 469C546.05 467.8 547.15 466.1 548.45 465.3C549.55 464.7 550.65 464.6 551.55 465.5C551.95 465.8 552.15 466.3 552.35 466.8C552.55 467.3 552.65 467.8 552.75 468.4C553.65 477.1 553.85 486.5 553.25 495.2C553.35 495.5 553.35 495.8 553.35 496.1C553.25 497 553.05 498.1 553.25 499C553.55 499.9 554.95 501 556.05 500.1Z" fill="none" opacity="1" stroke="#000000" stroke-linecap="butt" stroke-linejoin="round" stroke-width="5"/>
<path d="M595.85 492.1C596.25 492.6 597.35 493.2 598.45 492.6C598.35 492.1 598.15 491.7 598.05 491.4C597.65 490.4 597.05 489.5 596.85 488.4C594.95 479.5 595.05 470.2 595.35 461C595.65 452.3 597.35 444.1 598.45 435.6C598.55 434.6 596.75 432.9 595.65 434.6C594.75 437.5 594.25 440.5 593.85 443.5C593.45 446.5 593.15 449.6 592.65 452.7C592.25 455.8 592.25 459 592.05 462.1C591.95 464.3 591.55 466.5 590.85 468.4C590.55 467.2 590.15 466.1 589.35 465.1C587.85 463.3 585.45 462 583.05 461.9C578.85 461.6 575.45 464.9 573.35 468.3C570.55 472.7 568.25 478 567.45 483.5C566.75 487.8 566.95 492.2 568.45 496.6C569.65 498.6 571.65 500 573.85 500.2C577.05 500.5 579.75 498.1 581.55 495.5C586.25 488.7 589.35 481.2 591.95 473.5C592.35 477.3 592.25 481.1 592.85 484.7C593.35 487.4 594.05 489.9 595.85 492.1ZM587.55 473.5C587.55 473.9 587.85 474.7 588.35 474.9C585.85 481.8 582.95 488.6 578.25 494.4C576.85 496.1 575.25 497.2 573.35 496.6C572.15 496 571.45 495 571.05 493.7C570.65 492.6 570.45 491.2 570.45 489.8C570.45 488.4 570.55 487 570.55 485.7C571.55 480.6 572.85 475.7 575.45 471.3C576.65 469.4 578.15 467.6 580.05 465.9C581.15 465.2 582.65 464.9 583.95 465.4C585.25 465.8 586.45 466.6 587.05 467.8C587.85 469.5 587.55 471.7 587.55 473.5Z" fill="none" opacity="1" stroke="#000000" stroke-linecap="butt" stroke-linejoin="round" stroke-width="5"/>
<path d="M652.35 495.6C655.55 492.1 657.75 487.6 658.65 482.9C659.55 478 659.05 473 656.95 468.5C656.15 466.7 654.75 464.8 652.95 463.5C651.95 462.8 650.75 462.2 649.45 462C649.15 461.3 648.15 461 647.55 461.1C644.55 461.8 641.95 463.8 639.65 466C635.75 469.7 632.95 474.3 631.45 479.2C630.05 484 629.95 489.1 631.75 494.2C632.85 497.2 635.95 499.8 639.05 500.4C644.35 501.3 648.85 499.3 652.35 495.6ZM649.95 465.1C652.65 467.1 654.75 469.7 655.25 472.8C655.85 476.3 655.85 480 655.05 483.4C654.15 487.7 652.05 491.6 648.55 494.6C646.25 496.6 643.05 497.7 639.75 496.9C637.45 496.4 635.15 494.6 634.55 492.2C633.55 487.7 633.75 483.2 635.05 479.2C636.75 474.2 639.55 469.5 644.25 466.5L645.65 465.6C646.15 465.3 646.65 465 647.15 464.6C647.95 464.1 648.95 464.1 649.95 465.1Z" fill="none" opacity="1" stroke="#000000" stroke-linecap="butt" stroke-linejoin="round" stroke-width="5"/>
<path d="M690.85 500.1C694.95 496.6 697.85 492.4 699.95 487.8C700.05 487.4 699.35 486.5 698.85 487L695.15 491.8C693.95 493.1 692.75 494.4 691.35 495.4C691.65 491.4 691.85 487.3 691.75 483.3C691.65 479.1 691.95 474.6 691.35 470.4C690.95 467.8 690.25 465.4 688.95 463.2C687.85 462.3 686.75 461.7 685.35 461.6C683.85 461.4 682.75 462.2 681.75 462.8C678.45 465.9 676.05 469.5 673.95 473.2C671.85 477 670.15 481.2 668.65 485.3C667.95 478.3 667.55 471.2 666.65 464.2L666.15 463.2C665.65 462.1 664.95 461.1 663.65 460.9C662.75 461.1 662.55 462.2 662.65 462.7C663.75 465.3 663.95 468.2 664.15 471C664.45 476.1 665.35 484.8 665.55 491.4C665.55 493.3 665.65 496.8 665.65 498.6C666.05 500 668.05 499.8 668.45 498.7C669.15 493.9 670.15 489.1 671.75 484.6C673.65 479 676.15 473.7 679.85 469C680.85 467.8 681.95 466.1 683.25 465.3C684.35 464.7 685.45 464.6 686.35 465.5C686.75 465.8 686.95 466.3 687.15 466.8C687.35 467.3 687.45 467.8 687.55 468.4C688.45 477.1 688.65 486.5 688.05 495.2C688.15 495.5 688.15 495.8 688.15 496.1C688.05 497 687.85 498.1 688.05 499C688.35 499.9 689.75 501 690.85 500.1Z" fill="none" opacity="1" stroke="#000000" stroke-linecap="butt" stroke-linejoin="round" stroke-width="5"/>
<path d="M753.15 494.5C753.95 493.8 754.75 493.1 755.35 492.3C755.75 491.7 755.55 490.5 754.95 490.5C754.25 490.9 753.55 491.3 752.85 491.8C752.25 492.1 751.65 492.5 751.15 492.7C751.15 487.4 751.45 482.4 751.95 477.3C751.75 476.1 752.35 474.8 752.05 473.6C751.75 472.8 750.95 472.1 750.05 472C749.55 472 749.05 472.2 748.55 472.4C749.05 470 749.65 467.1 748.55 464.7C747.85 463.3 746.45 462.3 745.25 461.7C743.55 461.3 741.55 461.5 740.15 462.4C737.95 463.9 736.25 465.9 734.85 467.8C732.35 471.3 730.85 475.3 730.45 479.6C730.45 482.4 731.65 485.2 734.45 486.4C737.05 487 739.25 486.3 741.15 484.9C742.75 483.7 744.15 482 745.55 480.2L748.75 475.9C748.45 482.2 747.75 488.6 747.85 494.9C743.25 498.5 738.55 502.4 735.25 507.4C733.15 510.6 730.85 514.2 731.55 518.6C732.25 520.6 733.85 522.3 735.85 523.2C737.95 524.1 740.95 523.6 742.85 522.5C746.05 520.8 748.05 518.5 749.25 515.6C750.35 512.8 750.75 509.6 750.95 506.2C751.05 503 751.05 499.6 751.05 496.3C751.65 495.7 752.45 495.1 753.15 494.5ZM737.85 509.4C740.55 505.4 743.85 502 747.65 498.8C747.75 501.1 747.85 503.6 747.75 506C747.65 508.5 747.25 511 746.45 513.2C745.45 516.2 743.35 518.8 739.95 520.3C738.55 520.6 737.15 520.3 736.15 519.5C735.15 518.7 734.95 517.5 734.85 516.2C735.25 513.7 736.45 511.5 737.85 509.4ZM745.55 465.8C746.15 467.1 746.35 468.5 746.05 470C745.95 471.1 745.55 472.2 745.15 473.3C744.75 474.5 744.25 475.6 743.85 476.7C742.85 478.5 741.75 480.5 740.15 482C739.15 483 737.85 483.5 736.25 483.4C735.45 483.1 734.55 482.5 734.35 481.7C733.85 479.3 734.15 477.1 734.95 475C735.95 472.1 738.65 467.2 741.35 465.4C742.55 464.6 744.15 464.4 745.55 465.8Z" fill="none" opacity="1" stroke="#000000" stroke-linecap="butt" stroke-linejoin="round" stroke-width="5"/>
<path d="M792.15 497.9C794.55 496.1 796.45 493.4 797.65 490.7C797.75 490.3 797.95 489.9 797.95 489.5C798.05 489 798.05 488.5 797.45 487.9C796.75 487.9 796.35 488.7 796.15 489.3C794.95 491.5 792.55 494.5 790.55 495.8C788.35 497.1 786.55 497.7 783.85 497.1C781.25 496.2 779.25 494.4 777.85 492.2C775.85 489.2 774.85 485.5 774.25 482C779.55 473.9 784.05 465.4 785.95 455.9C786.65 452.2 787.05 448.5 786.95 444.5C786.85 441.1 786.55 437.2 784.45 434.2C783.35 433.2 781.15 433.3 780.15 434.5C775.95 439.6 773.25 445.5 771.75 451.8C769.65 461 769.85 471.1 770.75 480.8C769.25 482.9 767.45 485 765.45 486.8L759.45 492.3C758.95 492.9 759.05 493.9 759.65 494.3C760.35 494.8 761.35 494.7 761.95 494.3C765.45 491.9 768.75 488.7 771.55 485.4C772.15 487.3 772.65 488.9 773.35 490.5C774.05 492.2 774.95 493.8 776.35 495.5C778.55 498.1 781.65 500.3 785.05 500.4C787.95 500.5 790.05 499.4 792.15 497.9ZM781.55 436.7C781.95 436.2 782.95 436.4 783.15 437.3C784.25 443.4 784.05 449.3 782.85 454.9C781.15 462.5 777.85 469.6 773.75 476C773.35 468.5 773.35 460.8 774.85 453.6C776.05 447.5 778.05 441.7 781.55 436.7Z" fill="none" opacity="1" stroke="#000000" stroke-linecap="butt" stroke-linejoin="round" stroke-width="5"/>
<path d="M833.45 499.1C834.35 499.3 835.95 499.5 835.85 498.2C831.75 494.2 830.75 490.1 829.05 484.8C828.05 481.5 827.25 478.3 826.85 474.7C826.55 473.8 826.35 473.2 825.95 472.5C825.75 470.8 825.75 468.7 824.75 467.3C823.85 464.9 822.15 462.8 819.75 461.7C818.75 461.2 817.75 461.2 816.75 461.5C815.85 461.8 814.95 462.3 814.05 462.8C807.55 468.3 803.35 475.3 801.35 482.9C800.55 485.8 799.95 489.7 800.35 493.1C800.75 495.8 801.85 498.2 804.35 499.7C806.55 501.1 809.65 500.5 811.65 498.9C817.95 493.9 821.55 486.9 824.25 480.1C824.75 482.3 825.25 484.5 825.95 486.6C827.65 491.4 829.05 495.9 833.45 499.1ZM822.05 468.4C822.65 469.5 823.35 471.3 823.65 472.3C822.95 473.3 822.85 474.5 822.65 475.6C820.05 483.4 815.95 491 808.85 496.5C807.65 496.9 806.05 496.7 805.15 495.8C804.35 494.7 803.95 493.4 803.85 491.9C803.75 490.4 803.95 488.8 804.05 487.3C804.95 482.8 806.45 478.5 808.65 474.5C810.45 471.4 813.25 467.6 816.35 465.5C817.15 465 817.95 464.7 818.95 465C820.25 465.7 821.25 467 822.05 468.4Z" fill="none" opacity="1" stroke="#000000" stroke-linecap="butt" stroke-linejoin="round" stroke-width="5"/>
<path d="M854.05 498.4C857.55 497.1 861.65 495 863.95 491.6C864.65 490.6 864.35 489.1 864.05 488.1C863.35 486.6 861.95 485.5 860.65 485.1C858.35 484.3 856.05 483.9 853.65 483.5L846.45 482.3C845.45 482.1 844.45 481.8 843.75 481.1C843.25 480.7 843.05 479.9 843.35 479.2C843.85 477.3 844.75 475.5 845.75 473.7C847.45 470.8 849.95 467.7 852.65 465.7C853.45 465.1 854.25 464.7 855.25 464.7C855.95 464.6 856.75 464.9 857.25 465.3C857.75 465.6 858.15 466 858.55 466.4C858.95 466.8 859.25 467.3 859.75 467.8C860.55 467.5 861.05 466.9 861.05 466.3C860.95 464.8 859.95 463.2 858.85 462.5C857.75 461.8 856.65 461.4 855.35 461.4C852.65 461.8 850.25 463.2 848.25 464.9C844.35 468.3 841.65 473.7 839.95 478C839.35 480.3 839.95 482.7 841.85 484.1C843.75 485.2 845.95 485.7 848.15 486C851.05 486.5 853.95 486.8 856.75 487.5C858.15 487.9 859.75 488 860.75 489.1C860.95 489.7 860.85 490.4 860.35 490.9C856.55 494.2 852.15 495.9 847.25 496.7C845.45 497 843.55 497.3 841.75 496.7C840.75 496.4 840.55 495.6 840.45 494.6C840.45 493.3 840.95 491.8 840.95 490.6C840.95 490.4 840.75 490.1 840.35 490C840.15 490 839.85 490 839.55 490.2C838.75 490.8 838.35 491.7 838.05 492.6C837.85 493.6 837.55 496 837.95 497.1C838.55 498.5 840.05 499.4 841.35 500C845.65 500.6 850.15 499.9 854.05 498.4Z" fill="none" opacity="1" stroke="#000000" stroke-linecap="butt" stroke-linejoin="round" stroke-width="5"/>
<path d="M884.05 498.4C887.55 497.1 891.65 495 893.95 491.6C894.65 490.6 894.35 489.1 894.05 488.1C893.35 486.6 891.95 485.5 890.65 485.1C888.35 484.3 886.05 483.9 883.65 483.5L876.45 482.3C875.45 482.1 874.45 481.8 873.75 481.1C873.25 480.7 873.05 479.9 873.35 479.2C873.85 477.3 874.75 475.5 875.75 473.7C877.45 470.8 879.95 467.7 882.65 465.7C883.45 465.1 884.25 464.7 885.25 464.7C885.95 464.6 886.75 464.9 887.25 465.3C887.75 465.6 888.15 466 888.55 466.4C888.95 466.8 889.25 467.3 889.75 467.8C890.55 467.5 891.05 466.9 891.05 466.3C890.95 464.8 889.95 463.2 888.85 462.5C887.75 461.8 886.65 461.4 885.35 461.4C882.65 461.8 880.25 463.2 878.25 464.9C874.35 468.3 871.65 473.7 869.95 478C869.35 480.3 869.95 482.7 871.85 484.1C873.75 485.2 875.95 485.7 878.15 486C881.05 486.5 883.95 486.8 886.75 487.5C888.15 487.9 889.75 488 890.75 489.1C890.95 489.7 890.85 490.4 890.35 490.9C886.55 494.2 882.15 495.9 877.25 496.7C875.45 497 873.55 497.3 871.75 496.7C870.75 496.4 870.55 495.6 870.45 494.6C870.45 493.3 870.95 491.8 870.95 490.6C870.95 490.4 870.75 490.1 870.35 490C870.15 490 869.85 490 869.55 490.2C868.75 490.8 868.35 491.7 868.05 492.6C867.85 493.6 867.55 496 867.95 497.1C868.55 498.5 870.05 499.4 871.35 500C875.65 500.6 880.15 499.9 884.05 498.4Z" fill="none" opacity="1" stroke="#000000" stroke-linecap="butt" stroke-linejoin="round" stroke-width="5"/>
</g>
</g>
</svg>
