<?xml version="1.0" encoding="UTF-8" standalone="no"?>
<!DOCTYPE svg PUBLIC "-//W3C//DTD SVG 1.1//EN" "http://www.w3.org/Graphics/SVG/1.1/DTD/svg11.dtd">
<!-- Created with Vectornator (http://vectornator.io/) -->
<svg height="100%" stroke-miterlimit="10" style="fill-rule:nonzero;clip-rule:evenodd;stroke-linecap:round;stroke-linejoin:round;" version="1.1" viewBox="46.6244 430.7 907.754 72.4142" width="100%" xml:space="preserve" xmlns="http://www.w3.org/2000/svg" xmlns:xlink="http://www.w3.org/1999/xlink">
<defs/>
<g id="Layer-6">
<g opacity="1">
<path d="M83.65 488.7C86.35 486 89.05 483 89.45 479.2C89.25 477.7 88.35 476.3 87.05 475.5C79.65 471.8 71.65 469.7 63.85 467.1C60.55 466 56.85 465.5 53.95 463.5C53.35 462.7 53.05 461.8 53.35 460.8C55.35 457 57.35 453.3 60.05 450C61.45 448.4 62.65 446.6 64.05 444.8C65.35 443.1 66.95 441.4 68.55 440C69.95 438.8 71.45 437.9 73.25 437.3C74.75 436.7 76.35 436.8 77.85 437.2C79.65 437.6 81.25 438.6 82.75 439.8C83.55 439.8 83.85 438.8 83.55 438.2C82.45 436.5 80.75 435.4 79.05 434.6C77.55 434 75.85 433.7 74.25 433.8C71.15 434.4 68.55 435.9 66.25 437.8C63.85 439.8 61.85 442.2 59.85 444.7C57.95 447.2 56.15 449.8 54.45 452C53.65 453.5 52.65 454.9 51.75 456.3C50.95 457.7 50.15 459.2 49.75 460.8C49.25 463.3 51.05 465.6 53.05 466.9C58.55 469.3 64.45 470.7 70.15 472.6C75.15 474.2 80.05 475.7 84.75 478C85.45 478.6 85.65 479.4 85.65 480.4C84.15 483.7 81.35 486.7 78.35 489.1C74.55 492.2 70.35 494.6 65.75 496C61.95 497.2 57.75 497.5 53.55 496.6C52.15 495.8 51.85 494.6 51.95 493.3C51.95 492.4 52.15 491.5 52.35 490.6C52.55 489.7 52.85 488.8 52.95 488C52.95 487.7 52.15 486.7 51.55 487.3C49.35 489.6 48.85 493 49.25 496.3C49.85 498 51.55 499 52.95 499.6C57.75 500.6 62.25 500.3 66.55 499.1C72.85 497.4 78.75 493.5 83.65 488.7Z" fill="none" opacity="1" stroke="#000000" stroke-linecap="butt" stroke-linejoin="round" stroke-width="5"/>
<path d="M126.25 495.6C129.25 491.8 131.25 486.7 133.05 481.8C133.05 481.2 132.85 480.8 132.55 480.6C132.25 480.4 131.75 480.2 131.45 480.7C130.15 483.1 128.95 485.4 127.75 487.6C126.45 489.9 125.15 492 123.25 494.1C123.15 494.2 122.85 494.1 122.65 493.7C121.05 485.8 120.55 477.1 119.85 469.6C119.65 467.9 119.55 465.9 118.75 464.4C117.75 462.4 115.85 461.4 114.05 461.4C112.25 461.4 111.15 461.9 110.25 462.9C109.75 463.3 109.35 463.9 109.05 464.5C108.65 465.1 108.35 465.7 107.95 466.5C106.15 469.8 104.45 473.8 103.05 477.4C101.25 482.3 99.55 486.9 98.55 492.1C97.85 489 97.45 481.6 97.45 479.9C97.35 473.6 97.85 467.2 98.75 461.4C99.45 456.8 100.35 452.3 101.75 447.9C102.95 444.1 104.45 440.4 106.65 437C106.95 436.6 108.05 436.2 108.95 436.3C109.95 436.4 110.95 436.8 111.95 437.1C112.65 436 111.95 435.1 111.25 434.4C110.15 433.5 108.95 433.2 107.65 433.2C105.45 434 103.85 435.2 102.85 437C101.05 440.1 99.05 445.3 98.15 448.7C96.05 456.7 94.55 465.3 94.25 473.9C93.95 481.3 94.25 488.8 96.15 496.1L96.65 498C96.85 498.6 97.15 499.2 97.45 499.6C98.55 500.3 99.65 499.4 100.05 498.7C100.85 493.2 102.95 488 104.55 482.8C106.15 477.3 108.75 471.2 111.35 466.7C112.85 464.2 115.75 464.8 116.05 467.5C117.15 476.4 117.45 485.7 119.15 494.4C119.45 495.7 120.35 497.4 121.95 497.9C123.75 498.5 125.45 496.6 126.25 495.6Z" fill="none" opacity="1" stroke="#000000" stroke-linecap="butt" stroke-linejoin="round" stroke-width="5"/>
<path d="M168.05 499.1C168.95 499.3 170.55 499.5 170.45 498.2C166.35 494.2 165.35 490.1 163.65 484.8C162.65 481.5 161.85 478.3 161.45 474.7C161.15 473.8 160.95 473.2 160.55 472.5C160.35 470.8 160.35 468.7 159.35 467.3C158.45 464.9 156.75 462.8 154.35 461.7C153.35 461.2 152.35 461.2 151.35 461.5C150.45 461.8 149.55 462.3 148.65 462.8C142.15 468.3 137.95 475.3 135.95 482.9C135.15 485.8 134.55 489.7 134.95 493.1C135.35 495.8 136.45 498.2 138.95 499.7C141.15 501.1 144.25 500.5 146.25 498.9C152.55 493.9 156.15 486.9 158.85 480.1C159.35 482.3 159.85 484.5 160.55 486.6C162.25 491.4 163.65 495.9 168.05 499.1ZM156.65 468.4C157.25 469.5 157.95 471.3 158.25 472.3C157.55 473.3 157.45 474.5 157.25 475.6C154.65 483.4 150.55 491 143.45 496.5C142.25 496.9 140.65 496.7 139.75 495.8C138.95 494.7 138.55 493.4 138.45 491.9C138.35 490.4 138.55 488.8 138.65 487.3C139.55 482.8 141.05 478.5 143.25 474.5C145.05 471.4 147.85 467.6 150.95 465.5C151.75 465 152.55 464.7 153.55 465C154.85 465.7 155.85 467 156.65 468.4Z" fill="none" opacity="1" stroke="#000000" stroke-linecap="butt" stroke-linejoin="round" stroke-width="5"/>
<path d="M201.05 492.1C201.45 492.6 202.55 493.2 203.65 492.6C203.55 492.1 203.35 491.7 203.25 491.4C202.85 490.4 202.25 489.5 202.05 488.4C200.15 479.5 200.25 470.2 200.55 461C200.85 452.3 202.55 444.1 203.65 435.6C203.75 434.6 201.95 432.9 200.85 434.6C199.95 437.5 199.45 440.5 199.05 443.5C198.65 446.5 198.35 449.6 197.85 452.7C197.45 455.8 197.45 459 197.25 462.1C197.15 464.3 196.75 466.5 196.05 468.4C195.75 467.2 195.35 466.1 194.55 465.1C193.05 463.3 190.65 462 188.25 461.9C184.05 461.6 180.65 464.9 178.55 468.3C175.75 472.7 173.45 478 172.65 483.5C171.95 487.8 172.15 492.2 173.65 496.6C174.85 498.6 176.85 500 179.05 500.2C182.25 500.5 184.95 498.1 186.75 495.5C191.45 488.7 194.55 481.2 197.15 473.5C197.55 477.3 197.45 481.1 198.05 484.7C198.55 487.4 199.25 489.9 201.05 492.1ZM192.75 473.5C192.75 473.9 193.05 474.7 193.55 474.9C191.05 481.8 188.15 488.6 183.45 494.4C182.05 496.1 180.45 497.2 178.55 496.6C177.35 496 176.65 495 176.25 493.7C175.85 492.6 175.65 491.2 175.65 489.8C175.65 488.4 175.75 487 175.75 485.7C176.75 480.6 178.05 475.7 180.65 471.3C181.85 469.4 183.35 467.6 185.25 465.9C186.35 465.2 187.85 464.9 189.15 465.4C190.45 465.8 191.65 466.6 192.25 467.8C193.05 469.5 192.75 471.7 192.75 473.5Z" fill="none" opacity="1" stroke="#000000" stroke-linecap="butt" stroke-linejoin="round" stroke-width="5"/>
<path d="M229.75 495.6C232.95 492.1 235.15 487.6 236.05 482.9C236.95 478 236.45 473 234.35 468.5C233.55 466.7 232.15 464.8 230.35 463.5C229.35 462.8 228.15 462.2 226.85 462C226.55 461.3 225.55 461 224.95 461.1C221.95 461.8 219.35 463.8 217.05 466C213.15 469.7 210.35 474.3 208.85 479.2C207.45 484 207.35 489.1 209.15 494.2C210.25 497.2 213.35 499.8 216.45 500.4C221.75 501.3 226.25 499.3 229.75 495.6ZM227.35 465.1C230.05 467.1 232.15 469.7 232.65 472.8C233.25 476.3 233.25 480 232.45 483.4C231.55 487.7 229.45 491.6 225.95 494.6C223.65 496.6 220.45 497.7 217.15 496.9C214.85 496.4 212.55 494.6 211.95 492.2C210.95 487.7 211.15 483.2 212.45 479.2C214.15 474.2 216.95 469.5 221.65 466.5L223.05 465.6C223.55 465.3 224.05 465 224.55 464.6C225.35 464.1 226.35 464.1 227.35 465.1Z" fill="none" opacity="1" stroke="#000000" stroke-linecap="butt" stroke-linejoin="round" stroke-width="5"/>
<path d="M284.75 497.6C287.15 494.9 288.55 490.7 289.05 487.2C290.05 479.4 287.15 470.4 282.55 464.1C281.55 463 280.35 461.2 278.65 461.2C278.05 461.2 276.95 461.6 277.25 462.4C280.25 466.4 282.85 470.8 284.45 475.5C285.15 477.7 285.65 479.9 285.85 482.2C286.05 485.9 285.35 489.7 283.75 493.1C282.95 494.7 281.75 496.1 280.05 496.7C278.15 497.4 276.35 496.6 274.95 495C272.35 490.8 270.65 486.2 268.95 481.6C267.95 479.9 267.55 478 265.75 477C263.95 476.2 261.95 476.3 260.65 477.6C259.15 479.7 258.05 481.8 257.05 483.9C255.55 487.1 252.95 492.1 250.65 495C249.85 496 248.85 496.6 247.45 496.3C246.75 496.1 246.15 495.4 245.95 494.8C242.25 484.2 244.25 472.1 248.55 462.1C248.65 461.2 247.75 460.9 247.15 460.9C246.35 460.9 245.35 461.4 245.05 462C242.85 466.6 241.45 471.6 240.85 476.9C240.15 482.7 240.35 488.5 241.95 494.2C242.65 496.5 243.85 498.7 246.35 499.7C248.25 500.5 250.55 500 251.95 498.5C254.25 496 255.95 493.2 257.45 490.4C258.95 487.5 260.25 484.5 261.65 481.6C261.95 481.2 262.25 480.8 262.65 480.4C262.95 480.1 263.25 479.8 263.65 479.9C264.65 480.3 265.05 481.2 265.55 482.3C266.45 484.5 267.25 486.7 268.15 489C269.05 491.2 270.05 493.5 271.25 495.6C272.75 498.2 274.95 500 278.35 500.4C280.95 500.7 283.05 499.4 284.75 497.6Z" fill="none" opacity="1" stroke="#000000" stroke-linecap="butt" stroke-linejoin="round" stroke-width="5"/>
<path d="M309.15 498.4C312.65 497.1 316.75 495 319.05 491.6C319.75 490.6 319.45 489.1 319.15 488.1C318.45 486.6 317.05 485.5 315.75 485.1C313.45 484.3 311.15 483.9 308.75 483.5L301.55 482.3C300.55 482.1 299.55 481.8 298.85 481.1C298.35 480.7 298.15 479.9 298.45 479.2C298.95 477.3 299.85 475.5 300.85 473.7C302.55 470.8 305.05 467.7 307.75 465.7C308.55 465.1 309.35 464.7 310.35 464.7C311.05 464.6 311.85 464.9 312.35 465.3C312.85 465.6 313.25 466 313.65 466.4C314.05 466.8 314.35 467.3 314.85 467.8C315.65 467.5 316.15 466.9 316.15 466.3C316.05 464.8 315.05 463.2 313.95 462.5C312.85 461.8 311.75 461.4 310.45 461.4C307.75 461.8 305.35 463.2 303.35 464.9C299.45 468.3 296.75 473.7 295.05 478C294.45 480.3 295.05 482.7 296.95 484.1C298.85 485.2 301.05 485.7 303.25 486C306.15 486.5 309.05 486.8 311.85 487.5C313.25 487.9 314.85 488 315.85 489.1C316.05 489.7 315.95 490.4 315.45 490.9C311.65 494.2 307.25 495.9 302.35 496.7C300.55 497 298.65 497.3 296.85 496.7C295.85 496.4 295.65 495.6 295.55 494.6C295.55 493.3 296.05 491.8 296.05 490.6C296.05 490.4 295.85 490.1 295.45 490C295.25 490 294.95 490 294.65 490.2C293.85 490.8 293.45 491.7 293.15 492.6C292.95 493.6 292.65 496 293.05 497.1C293.65 498.5 295.15 499.4 296.45 500C300.75 500.6 305.25 499.9 309.15 498.4Z" fill="none" opacity="1" stroke="#000000" stroke-linecap="butt" stroke-linejoin="round" stroke-width="5"/>
<path d="M402.55 499.3C402.95 499.5 403.85 499.2 403.85 498.6C402.85 489.3 402.75 479.6 401.45 470.3C401.15 469.4 401.05 468.3 400.85 467.3C400.45 464.8 399.75 462.4 396.85 461.8C395.55 461.6 394.45 462.2 393.35 463C390.55 465.2 387.15 472 385.55 475.1C382.95 480.3 380.75 485.9 378.65 491.4C378.25 488.2 377.85 485.1 377.35 482C376.75 478.8 375.05 471.5 373.85 468.9C373.15 467.3 371.95 465.8 370.15 464.7C367.75 464 365.05 464.3 363.25 466.2C360.95 469.6 359.25 473.2 357.95 476.9C356.45 481.4 355.45 486.1 354.25 490.7C354.15 490 354.15 489.2 354.15 488.4C353.95 483.7 354.45 479.3 355.35 475C356.25 470.6 357.35 466.4 358.35 462.1C358.65 461.3 357.85 460.8 357.15 460.8C356.15 461.4 355.55 462.7 355.25 463.6C352.65 470.7 350.95 478.3 350.85 486.2C350.75 490.8 350.95 495.5 353.05 499.3C353.55 499.9 354.65 499.8 354.95 499C356.75 490.1 358.95 481.3 362.55 473C363.35 471.1 364.25 469.1 366.05 467.8C366.85 467.5 367.95 467.4 368.75 467.8C369.75 468.4 370.25 469.4 370.65 470.4C373.85 479.4 375.05 488.6 376.05 498.5C376.15 499.5 376.85 499.9 377.45 499.9C378.05 499.9 378.65 499.5 378.85 498.9C381.45 491.4 384.05 483.8 387.65 476.7C389.25 473.5 391.85 468.8 394.25 466.2C394.85 465.6 395.45 465.2 396.25 465.3C396.65 465.3 397.25 466 397.35 466.5C399.55 476.2 399.25 486.9 401.05 496.8C401.15 497.1 401.25 497.5 401.45 497.9C401.65 498.4 401.95 498.9 402.55 499.3Z" fill="none" opacity="1" stroke="#000000" stroke-linecap="butt" stroke-linejoin="round" stroke-width="5"/>
<path d="M430.05 495.6C433.25 492.1 435.45 487.6 436.35 482.9C437.25 478 436.75 473 434.65 468.5C433.85 466.7 432.45 464.8 430.65 463.5C429.65 462.8 428.45 462.2 427.15 462C426.85 461.3 425.85 461 425.25 461.1C422.25 461.8 419.65 463.8 417.35 466C413.45 469.7 410.65 474.3 409.15 479.2C407.75 484 407.65 489.1 409.45 494.2C410.55 497.2 413.65 499.8 416.75 500.4C422.05 501.3 426.55 499.3 430.05 495.6ZM427.65 465.1C430.35 467.1 432.45 469.7 432.95 472.8C433.55 476.3 433.55 480 432.75 483.4C431.85 487.7 429.75 491.6 426.25 494.6C423.95 496.6 420.75 497.7 417.45 496.9C415.15 496.4 412.85 494.6 412.25 492.2C411.25 487.7 411.45 483.2 412.75 479.2C414.45 474.2 417.25 469.5 421.95 466.5L423.35 465.6C423.85 465.3 424.35 465 424.85 464.6C425.65 464.1 426.65 464.1 427.65 465.1Z" fill="none" opacity="1" stroke="#000000" stroke-linecap="butt" stroke-linejoin="round" stroke-width="5"/>
<path d="M469.75 464.6C469.85 464 469.95 463.1 469.85 462.4C469.75 461.9 469.45 461.5 469.15 461.4C468.75 461.3 468.35 461.4 468.15 461.8C464.25 473.8 459.95 485.6 453.15 496.4C452.95 496.5 452.65 496.4 452.45 496.2C449.55 491 447.95 485.6 446.55 479.3C445.35 474 445.05 468.3 444.85 462.5C444.55 462 444.15 461.4 443.35 461.2C442.75 461.3 441.85 461.6 441.65 462.3C441.45 467.9 441.75 473.4 442.75 478.7C443.55 483.2 444.75 487.6 446.45 491.7C447.75 494.8 449.35 498.1 452.05 500.5C453.45 500.7 454.65 500.1 455.45 499.1C462.05 488.3 466.55 476.7 469.75 464.6Z" fill="none" opacity="1" stroke="#000000" stroke-linecap="butt" stroke-linejoin="round" stroke-width="5"/>
<path d="M502.85 490.9C503.85 489.3 505.05 486.9 505.15 485C505.15 484.6 504.25 483.6 503.75 484.1C502.55 487.5 500.05 490.4 497.05 493C495.45 494.4 493.35 495.7 491.15 496.5C488.85 497.4 486.35 497.6 483.95 496.2C481.35 494.7 480.45 491.9 479.95 489.1C481.65 488 483.55 486.7 485.45 485.3C487.35 483.9 489.25 482.4 490.85 480.9C491.15 480.5 491.65 480 492.05 479.6L493.55 478.2C494.65 477.2 495.75 476.1 496.65 475.1C497.75 473.8 498.65 472.1 498.25 470C496.85 466.8 494.25 463.1 490.75 461.9C488.05 461 483.85 462.2 481.65 464C479.25 466.7 477.65 470.2 476.95 473.7C475.95 478.2 475.95 483 476.25 487.5C475.45 487.9 474.45 488.6 473.75 488.9C473.35 489.1 472.85 489.2 472.25 489.4C471.65 489.5 471.05 489.7 470.45 490C469.95 490.8 470.35 491.7 470.75 492.1C472.05 492.7 472.95 492.7 474.05 492.4C474.75 492.2 475.85 491.6 476.65 491C476.95 492 477.25 493 477.75 493.9C478.25 495 479.05 496.1 480.25 497.4C482.35 499.6 485.55 500.7 488.85 500.4C491.95 500.1 494.95 498.6 497.65 496.5C499.65 494.9 501.45 493 502.85 490.9ZM490.75 465.6C492.65 466.9 494.05 469 494.95 471C494.65 473 492.75 474.4 491.45 475.7C489.75 477.5 487.75 479.3 485.55 480.9C483.55 482.4 481.55 483.8 479.65 485.1C479.45 481.3 479.55 477.5 480.55 474C481.25 471.3 482.25 468.9 483.85 466.8C485.45 465.3 488.75 464.9 490.75 465.6Z" fill="none" opacity="1" stroke="#000000" stroke-linecap="butt" stroke-linejoin="round" stroke-width="5"/>
<path d="M568.65 499.1C569.55 499.3 571.15 499.5 571.05 498.2C566.95 494.2 565.95 490.1 564.25 484.8C563.25 481.5 562.45 478.3 562.05 474.7C561.75 473.8 561.55 473.2 561.15 472.5C560.95 470.8 560.95 468.7 559.95 467.3C559.05 464.9 557.35 462.8 554.95 461.7C553.95 461.2 552.95 461.2 551.95 461.5C551.05 461.8 550.15 462.3 549.25 462.8C542.75 468.3 538.55 475.3 536.55 482.9C535.75 485.8 535.15 489.7 535.55 493.1C535.95 495.8 537.05 498.2 539.55 499.7C541.75 501.1 544.85 500.5 546.85 498.9C553.15 493.9 556.75 486.9 559.45 480.1C559.95 482.3 560.45 484.5 561.15 486.6C562.85 491.4 564.25 495.9 568.65 499.1ZM557.25 468.4C557.85 469.5 558.55 471.3 558.85 472.3C558.15 473.3 558.05 474.5 557.85 475.6C555.25 483.4 551.15 491 544.05 496.5C542.85 496.9 541.25 496.7 540.35 495.8C539.55 494.7 539.15 493.4 539.05 491.9C538.95 490.4 539.15 488.8 539.25 487.3C540.15 482.8 541.65 478.5 543.85 474.5C545.65 471.4 548.45 467.6 551.55 465.5C552.35 465 553.15 464.7 554.15 465C555.45 465.7 556.45 467 557.25 468.4Z" fill="none" opacity="1" stroke="#000000" stroke-linecap="butt" stroke-linejoin="round" stroke-width="5"/>
<path d="M595.65 495.5C597.95 493.1 600.35 488.6 600.85 484.9C600.95 484.1 599.75 483.8 599.45 484.4C598.65 486.4 597.75 488.4 596.45 490.4C595.35 492.1 593.85 493.9 591.85 495.2C589.65 496.6 588.05 497.2 585.15 497C582.15 496.7 579.45 495.4 577.85 492.7C576.55 490.4 576.25 487.7 576.35 484.7C577.25 479.1 578.55 472.9 582.05 468.6C583.55 466.7 585.35 465.2 587.75 464.3C589.45 463.9 591.45 464.2 592.65 465.6C593.55 466.6 593.85 468 593.65 469.4C593.65 469.9 593.45 470.3 593.15 470.8L592.65 471.6C592.55 471.9 592.45 472.2 592.45 472.8C593.45 472.8 594.05 472.4 594.45 472C594.95 471.5 595.35 471 595.75 470.5C596.75 468.7 596.55 465.9 595.45 464.2C593.75 461.6 590.75 461 587.75 461.2C584.55 461.8 582.05 463.6 580.05 465.9C577.25 469.2 575.35 473.4 574.25 477.1C573.05 480.9 572.45 485.4 573.15 489.4C573.75 492.6 575.15 495.4 577.85 497.6C583.45 502 590.85 500.5 595.65 495.5Z" fill="none" opacity="1" stroke="#000000" stroke-linecap="butt" stroke-linejoin="round" stroke-width="5"/>
<path d="M632.45 464.8C633.05 464.8 633.85 464.2 633.55 463.2C632.25 462.6 630.65 462.8 629.55 463C626.95 463.5 625.75 464 623.25 464.9C620.95 465.8 617.35 467.9 615.55 469.5C613.45 471.4 610.95 473.8 609.15 476.7C609.05 472.7 609.45 469 610.75 466.1C610.75 465.7 610.95 465.5 611.15 465.1C611.75 464.1 612.75 463.3 612.75 461.9C612.15 461.1 611.35 461 610.65 461C609.35 461.5 608.65 462.3 608.15 463.3C607.65 464.2 607.25 465.3 606.75 466.2C605.55 470.5 605.25 474.8 605.75 479C606.45 485.8 608.85 492.3 611.15 498.8L612.35 500.1C612.95 500.7 613.95 500.4 614.25 499.5C613.45 496.6 612.45 493.9 611.65 491.1C610.85 488.4 610.15 485.6 609.85 482.6C611.15 479 613.45 475.9 616.15 473.3C618.85 470.7 621.35 468.5 624.25 467.3C627.25 466 629.45 465.4 632.45 464.8Z" fill="none" opacity="1" stroke="#000000" stroke-linecap="butt" stroke-linejoin="round" stroke-width="5"/>
<path d="M655.85 495.6C659.05 492.1 661.25 487.6 662.15 482.9C663.05 478 662.55 473 660.45 468.5C659.65 466.7 658.25 464.8 656.45 463.5C655.45 462.8 654.25 462.2 652.95 462C652.65 461.3 651.65 461 651.05 461.1C648.05 461.8 645.45 463.8 643.15 466C639.25 469.7 636.45 474.3 634.95 479.2C633.55 484 633.45 489.1 635.25 494.2C636.35 497.2 639.45 499.8 642.55 500.4C647.85 501.3 652.35 499.3 655.85 495.6ZM653.45 465.1C656.15 467.1 658.25 469.7 658.75 472.8C659.35 476.3 659.35 480 658.55 483.4C657.65 487.7 655.55 491.6 652.05 494.6C649.75 496.6 646.55 497.7 643.25 496.9C640.95 496.4 638.65 494.6 638.05 492.2C637.05 487.7 637.25 483.2 638.55 479.2C640.25 474.2 643.05 469.5 647.75 466.5L649.15 465.6C649.65 465.3 650.15 465 650.65 464.6C651.45 464.1 652.45 464.1 653.45 465.1Z" fill="none" opacity="1" stroke="#000000" stroke-linecap="butt" stroke-linejoin="round" stroke-width="5"/>
<path d="M682.75 498.4C686.25 497.1 690.35 495 692.65 491.6C693.35 490.6 693.05 489.1 692.75 488.1C692.05 486.6 690.65 485.5 689.35 485.1C687.05 484.3 684.75 483.9 682.35 483.5L675.15 482.3C674.15 482.1 673.15 481.8 672.45 481.1C671.95 480.7 671.75 479.9 672.05 479.2C672.55 477.3 673.45 475.5 674.45 473.7C676.15 470.8 678.65 467.7 681.35 465.7C682.15 465.1 682.95 464.7 683.95 464.7C684.65 464.6 685.45 464.9 685.95 465.3C686.45 465.6 686.85 466 687.25 466.4C687.65 466.8 687.95 467.3 688.45 467.8C689.25 467.5 689.75 466.9 689.75 466.3C689.65 464.8 688.65 463.2 687.55 462.5C686.45 461.8 685.35 461.4 684.05 461.4C681.35 461.8 678.95 463.2 676.95 464.9C673.05 468.3 670.35 473.7 668.65 478C668.05 480.3 668.65 482.7 670.55 484.1C672.45 485.2 674.65 485.7 676.85 486C679.75 486.5 682.65 486.8 685.45 487.5C686.85 487.9 688.45 488 689.45 489.1C689.65 489.7 689.55 490.4 689.05 490.9C685.25 494.2 680.85 495.9 675.95 496.7C674.15 497 672.25 497.3 670.45 496.7C669.45 496.4 669.25 495.6 669.15 494.6C669.15 493.3 669.65 491.8 669.65 490.6C669.65 490.4 669.45 490.1 669.05 490C668.85 490 668.55 490 668.25 490.2C667.45 490.8 667.05 491.7 666.75 492.6C666.55 493.6 666.25 496 666.65 497.1C667.25 498.5 668.75 499.4 670.05 500C674.35 500.6 678.85 499.9 682.75 498.4Z" fill="none" opacity="1" stroke="#000000" stroke-linecap="butt" stroke-linejoin="round" stroke-width="5"/>
<path d="M712.75 498.4C716.25 497.1 720.35 495 722.65 491.6C723.35 490.6 723.05 489.1 722.75 488.1C722.05 486.6 720.65 485.5 719.35 485.1C717.05 484.3 714.75 483.9 712.35 483.5L705.15 482.3C704.15 482.1 703.15 481.8 702.45 481.1C701.95 480.7 701.75 479.9 702.05 479.2C702.55 477.3 703.45 475.5 704.45 473.7C706.15 470.8 708.65 467.7 711.35 465.7C712.15 465.1 712.95 464.7 713.95 464.7C714.65 464.6 715.45 464.9 715.95 465.3C716.45 465.6 716.85 466 717.25 466.4C717.65 466.8 717.95 467.3 718.45 467.8C719.25 467.5 719.75 466.9 719.75 466.3C719.65 464.8 718.65 463.2 717.55 462.5C716.45 461.8 715.35 461.4 714.05 461.4C711.35 461.8 708.95 463.2 706.95 464.9C703.05 468.3 700.35 473.7 698.65 478C698.05 480.3 698.65 482.7 700.55 484.1C702.45 485.2 704.65 485.7 706.85 486C709.75 486.5 712.65 486.8 715.45 487.5C716.85 487.9 718.45 488 719.45 489.1C719.65 489.7 719.55 490.4 719.05 490.9C715.25 494.2 710.85 495.9 705.95 496.7C704.15 497 702.25 497.3 700.45 496.7C699.45 496.4 699.25 495.6 699.15 494.6C699.15 493.3 699.65 491.8 699.65 490.6C699.65 490.4 699.45 490.1 699.05 490C698.85 490 698.55 490 698.25 490.2C697.45 490.8 697.05 491.7 696.75 492.6C696.55 493.6 696.25 496 696.65 497.1C697.25 498.5 698.75 499.4 700.05 500C704.35 500.6 708.85 499.9 712.75 498.4Z" fill="none" opacity="1" stroke="#000000" stroke-linecap="butt" stroke-linejoin="round" stroke-width="5"/>
<path d="M798.65 497.6C801.05 494.9 802.45 490.7 802.95 487.2C803.95 479.4 801.05 470.4 796.45 464.1C795.45 463 794.25 461.2 792.55 461.2C791.95 461.2 790.85 461.6 791.15 462.4C794.15 466.4 796.75 470.8 798.35 475.5C799.05 477.7 799.55 479.9 799.75 482.2C799.95 485.9 799.25 489.7 797.65 493.1C796.85 494.7 795.65 496.1 793.95 496.7C792.05 497.4 790.25 496.6 788.85 495C786.25 490.8 784.55 486.2 782.85 481.6C781.85 479.9 781.45 478 779.65 477C777.85 476.2 775.85 476.3 774.55 477.6C773.05 479.7 771.95 481.8 770.95 483.9C769.45 487.1 766.85 492.1 764.55 495C763.75 496 762.75 496.6 761.35 496.3C760.65 496.1 760.05 495.4 759.85 494.8C756.15 484.2 758.15 472.1 762.45 462.1C762.55 461.2 761.65 460.9 761.05 460.9C760.25 460.9 759.25 461.4 758.95 462C756.75 466.6 755.35 471.6 754.75 476.9C754.05 482.7 754.25 488.5 755.85 494.2C756.55 496.5 757.75 498.7 760.25 499.7C762.15 500.5 764.45 500 765.85 498.5C768.15 496 769.85 493.2 771.35 490.4C772.85 487.5 774.15 484.5 775.55 481.6C775.85 481.2 776.15 480.8 776.55 480.4C776.85 480.1 777.15 479.8 777.55 479.9C778.55 480.3 778.95 481.2 779.45 482.3C780.35 484.5 781.15 486.7 782.05 489C782.95 491.2 783.95 493.5 785.15 495.6C786.65 498.2 788.85 500 792.25 500.4C794.85 500.7 796.95 499.4 798.65 497.6Z" fill="none" opacity="1" stroke="#000000" stroke-linecap="butt" stroke-linejoin="round" stroke-width="5"/>
<path d="M839.95 499.1C840.85 499.3 842.45 499.5 842.35 498.2C838.25 494.2 837.25 490.1 835.55 484.8C834.55 481.5 833.75 478.3 833.35 474.7C833.05 473.8 832.85 473.2 832.45 472.5C832.25 470.8 832.25 468.7 831.25 467.3C830.35 464.9 828.65 462.8 826.25 461.7C825.25 461.2 824.25 461.2 823.25 461.5C822.35 461.8 821.45 462.3 820.55 462.8C814.05 468.3 809.85 475.3 807.85 482.9C807.05 485.8 806.45 489.7 806.85 493.1C807.25 495.8 808.35 498.2 810.85 499.7C813.05 501.1 816.15 500.5 818.15 498.9C824.45 493.9 828.05 486.9 830.75 480.1C831.25 482.3 831.75 484.5 832.45 486.6C834.15 491.4 835.55 495.9 839.95 499.1ZM828.55 468.4C829.15 469.5 829.85 471.3 830.15 472.3C829.45 473.3 829.35 474.5 829.15 475.6C826.55 483.4 822.45 491 815.35 496.5C814.15 496.9 812.55 496.7 811.65 495.8C810.85 494.7 810.45 493.4 810.35 491.9C810.25 490.4 810.45 488.8 810.55 487.3C811.45 482.8 812.95 478.5 815.15 474.5C816.95 471.4 819.75 467.6 822.85 465.5C823.65 465 824.45 464.7 825.45 465C826.75 465.7 827.75 467 828.55 468.4Z" fill="none" opacity="1" stroke="#000000" stroke-linecap="butt" stroke-linejoin="round" stroke-width="5"/>
<path d="M876.65 497.9C879.05 496.1 880.95 493.4 882.15 490.7C882.25 490.3 882.45 489.9 882.45 489.5C882.55 489 882.55 488.5 881.95 487.9C881.25 487.9 880.85 488.7 880.65 489.3C879.45 491.5 877.05 494.5 875.05 495.8C872.85 497.1 871.05 497.7 868.35 497.1C865.75 496.2 863.75 494.4 862.35 492.2C860.35 489.2 859.35 485.5 858.75 482C864.05 473.9 868.55 465.4 870.45 455.9C871.15 452.2 871.55 448.5 871.45 444.5C871.35 441.1 871.05 437.2 868.95 434.2C867.85 433.2 865.65 433.3 864.65 434.5C860.45 439.6 857.75 445.5 856.25 451.8C854.15 461 854.35 471.1 855.25 480.8C853.75 482.9 851.95 485 849.95 486.8L843.95 492.3C843.45 492.9 843.55 493.9 844.15 494.3C844.85 494.8 845.85 494.7 846.45 494.3C849.95 491.9 853.25 488.7 856.05 485.4C856.65 487.3 857.15 488.9 857.85 490.5C858.55 492.2 859.45 493.8 860.85 495.5C863.05 498.1 866.15 500.3 869.55 500.4C872.45 500.5 874.55 499.4 876.65 497.9ZM866.05 436.7C866.45 436.2 867.45 436.4 867.65 437.3C868.75 443.4 868.55 449.3 867.35 454.9C865.65 462.5 862.35 469.6 858.25 476C857.85 468.5 857.85 460.8 859.35 453.6C860.55 447.5 862.55 441.7 866.05 436.7Z" fill="none" opacity="1" stroke="#000000" stroke-linecap="butt" stroke-linejoin="round" stroke-width="5"/>
<path d="M917.15 497.9C919.55 496.1 921.45 493.4 922.65 490.7C922.75 490.3 922.95 489.9 922.95 489.5C923.05 489 923.05 488.5 922.45 487.9C921.75 487.9 921.35 488.7 921.15 489.3C919.95 491.5 917.55 494.5 915.55 495.8C913.35 497.1 911.55 497.7 908.85 497.1C906.25 496.2 904.25 494.4 902.85 492.2C900.85 489.2 899.85 485.5 899.25 482C904.55 473.9 909.05 465.4 910.95 455.9C911.65 452.2 912.05 448.5 911.95 444.5C911.85 441.1 911.55 437.2 909.45 434.2C908.35 433.2 906.15 433.3 905.15 434.5C900.95 439.6 898.25 445.5 896.75 451.8C894.65 461 894.85 471.1 895.75 480.8C894.25 482.9 892.45 485 890.45 486.8L884.45 492.3C883.95 492.9 884.05 493.9 884.65 494.3C885.35 494.8 886.35 494.7 886.95 494.3C890.45 491.9 893.75 488.7 896.55 485.4C897.15 487.3 897.65 488.9 898.35 490.5C899.05 492.2 899.95 493.8 901.35 495.5C903.55 498.1 906.65 500.3 910.05 500.4C912.95 500.5 915.05 499.4 917.15 497.9ZM906.55 436.7C906.95 436.2 907.95 436.4 908.15 437.3C909.25 443.4 909.05 449.3 907.85 454.9C906.15 462.5 902.85 469.6 898.75 476C898.35 468.5 898.35 460.8 899.85 453.6C901.05 447.5 903.05 441.7 906.55 436.7Z" fill="none" opacity="1" stroke="#000000" stroke-linecap="butt" stroke-linejoin="round" stroke-width="5"/>
<path d="M941.55 498.4C945.05 497.1 949.15 495 951.45 491.6C952.15 490.6 951.85 489.1 951.55 488.1C950.85 486.6 949.45 485.5 948.15 485.1C945.85 484.3 943.55 483.9 941.15 483.5L933.95 482.3C932.95 482.1 931.95 481.8 931.25 481.1C930.75 480.7 930.55 479.9 930.85 479.2C931.35 477.3 932.25 475.5 933.25 473.7C934.95 470.8 937.45 467.7 940.15 465.7C940.95 465.1 941.75 464.7 942.75 464.7C943.45 464.6 944.25 464.9 944.75 465.3C945.25 465.6 945.65 466 946.05 466.4C946.45 466.8 946.75 467.3 947.25 467.8C948.05 467.5 948.55 466.9 948.55 466.3C948.45 464.8 947.45 463.2 946.35 462.5C945.25 461.8 944.15 461.4 942.85 461.4C940.15 461.8 937.75 463.2 935.75 464.9C931.85 468.3 929.15 473.7 927.45 478C926.85 480.3 927.45 482.7 929.35 484.1C931.25 485.2 933.45 485.7 935.65 486C938.55 486.5 941.45 486.8 944.25 487.5C945.65 487.9 947.25 488 948.25 489.1C948.45 489.7 948.35 490.4 947.85 490.9C944.05 494.2 939.65 495.9 934.75 496.7C932.95 497 931.05 497.3 929.25 496.7C928.25 496.4 928.05 495.6 927.95 494.6C927.95 493.3 928.45 491.8 928.45 490.6C928.45 490.4 928.25 490.1 927.85 490C927.65 490 927.35 490 927.05 490.2C926.25 490.8 925.85 491.7 925.55 492.6C925.35 493.6 925.05 496 925.45 497.1C926.05 498.5 927.55 499.4 928.85 500C933.15 500.6 937.65 499.9 941.55 498.4Z" fill="none" opacity="1" stroke="#000000" stroke-linecap="butt" stroke-linejoin="round" stroke-width="5"/>
</g>
</g>
</svg>
