<?xml version="1.0" encoding="UTF-8" standalone="no"?>
<!DOCTYPE svg PUBLIC "-//W3C//DTD SVG 1.1//EN" "http://www.w3.org/Graphics/SVG/1.1/DTD/svg11.dtd">
<!-- Created with Vectornator (http://vectornator.io/) -->
<svg height="100%" stroke-miterlimit="10" style="fill-rule:nonzero;clip-rule:evenodd;stroke-linecap:round;stroke-linejoin:round;" version="1.1" viewBox="14.8875 429.8 973.678 96.3656" width="100%" xml:space="preserve" xmlns="http://www.w3.org/2000/svg" xmlns:xlink="http://www.w3.org/1999/xlink">
<defs/>
<g id="Layer-8">
<g opacity="1">
<path d="M55.8 470.2C58 469.5 60.2 468.6 62.1 467.4C62.4 467.3 62.5 465.9 62 465.9C59.5 466.3 56.5 466.9 54.9 467.2C51.3 456.5 47.1 446 42.6 435.7L43 434.5C43.1 434 43.1 433.4 42.8 432.9C42.2 432.4 40.7 431.8 40.1 433C33.7 446.5 28.9 460.9 24.4 475.2C24.1 475.4 23.7 475.5 23.3 475.7L21.8 476.1C21.1 476.5 20.5 477.3 20.6 478C20.8 478.7 21.3 479 21.8 479.2C22.2 479.3 22.6 479.3 23 479.3C21.1 485.5 19.2 491.8 17.5 498.1C17.2 499.2 17.5 500.3 18.4 501.2C19 501.3 19.7 501.4 20.2 501C22.2 493.2 24.3 485.7 26.9 478.3C35.3 475.7 43.8 473.1 52.4 471.2C53.3 475.5 54.9 479.8 55.7 484.2C56.3 487.5 56.5 490.9 55.5 494.2C55.3 494.9 56.4 495.6 57 495.2C57.6 494.9 58 494.5 58.3 494C58.6 493.6 58.7 493.1 59 492.7C59.6 489.7 59.6 486.9 59.2 484.2C58.4 479.4 56.6 474.8 55.8 470.2ZM40.8 440.2C44.9 449.2 48.3 458.5 51.3 468C43.4 469.7 35.9 471.9 28.2 474.1C32 462.6 35.9 451.1 40.8 440.2Z" fill="none" opacity="1" stroke="#000000" stroke-linecap="butt" stroke-linejoin="round" stroke-width="5"/>
<path d="M118.4 464.3C119.2 464 120.3 462.6 119 461.7C116.9 461.3 114.8 461.3 112.7 461.5C110.8 461.7 108.9 462.1 107.1 462.3C107 457.5 107.4 452.7 107.4 447.9C107.4 445.1 107.8 442.5 109 440.1C109.9 438.2 111.8 436.5 113.8 436.2C114.8 436 115.8 436 116.8 436.3C117.5 436.6 118 435.7 118 435.2C116.8 433.9 115.1 433.5 113.6 433.3C110.5 433.4 107.8 435.5 106.3 438.3C104.7 441.2 104.3 444.6 104.1 448C103.9 452.8 104 458.1 103.8 463.1C100.2 464.2 95.4 466.2 92.9 467.8C91.9 468.4 91 469.3 91 470.9C91.3 471.4 91.9 472.1 92.7 471.9C96.5 469.5 99.6 467.7 103.8 466.7C103.9 475.3 104.2 491.8 104 500.1C103.9 504.1 103.4 507.8 102.3 511.4C101.2 515 99.4 518.6 97.2 521.6C96.9 522 97 522.6 97.4 522.8C97.8 523 98.4 523 99.1 522.5C101.9 520.5 104.5 515 105.3 512.4C106.5 508.6 106.9 504.5 107.2 500.4C107.4 496.4 107.2 492.3 107.2 488.3C107.2 482.5 106.8 471 107.1 465.8C111.2 464.8 114.5 464.4 118.4 464.3Z" fill="none" opacity="1" stroke="#000000" stroke-linecap="butt" stroke-linejoin="round" stroke-width="5"/>
<path d="M152.7 490.9C153.7 489.3 154.9 486.9 155 485C155 484.6 154.1 483.6 153.6 484.1C152.4 487.5 149.9 490.4 146.9 493C145.3 494.4 143.2 495.7 141 496.5C138.7 497.4 136.2 497.6 133.8 496.2C131.2 494.7 130.3 491.9 129.8 489.1C131.5 488 133.4 486.7 135.3 485.3C137.2 483.9 139.1 482.4 140.7 480.9C141 480.5 141.5 480 141.9 479.6L143.4 478.2C144.5 477.2 145.6 476.1 146.5 475.1C147.6 473.8 148.5 472.1 148.1 470C146.7 466.8 144.1 463.1 140.6 461.9C137.9 461 133.7 462.2 131.5 464C129.1 466.7 127.5 470.2 126.8 473.7C125.8 478.2 125.8 483 126.1 487.5C125.3 487.9 124.3 488.6 123.6 488.9C123.2 489.1 122.7 489.2 122.1 489.4C121.5 489.5 120.9 489.7 120.3 490C119.8 490.8 120.2 491.7 120.6 492.1C121.9 492.7 122.8 492.7 123.9 492.4C124.6 492.2 125.7 491.6 126.5 491C126.8 492 127.1 493 127.6 493.9C128.1 495 128.9 496.1 130.1 497.4C132.2 499.6 135.4 500.7 138.7 500.4C141.8 500.1 144.8 498.6 147.5 496.5C149.5 494.9 151.3 493 152.7 490.9ZM140.6 465.6C142.5 466.9 143.9 469 144.8 471C144.5 473 142.6 474.4 141.3 475.7C139.6 477.5 137.6 479.3 135.4 480.9C133.4 482.4 131.4 483.8 129.5 485.1C129.3 481.3 129.4 477.5 130.4 474C131.1 471.3 132.1 468.9 133.7 466.8C135.3 465.3 138.6 464.9 140.6 465.6Z" fill="none" opacity="1" stroke="#000000" stroke-linecap="butt" stroke-linejoin="round" stroke-width="5"/>
<path d="M190.7 499.1C191.6 499.3 193.2 499.5 193.1 498.2C189 494.2 188 490.1 186.3 484.8C185.3 481.5 184.5 478.3 184.1 474.7C183.8 473.8 183.6 473.2 183.2 472.5C183 470.8 183 468.7 182 467.3C181.1 464.9 179.4 462.8 177 461.7C176 461.2 175 461.2 174 461.5C173.1 461.8 172.2 462.3 171.3 462.8C164.8 468.3 160.6 475.3 158.6 482.9C157.8 485.8 157.2 489.7 157.6 493.1C158 495.8 159.1 498.2 161.6 499.7C163.8 501.1 166.9 500.5 168.9 498.9C175.2 493.9 178.8 486.9 181.5 480.1C182 482.3 182.5 484.5 183.2 486.6C184.9 491.4 186.3 495.9 190.7 499.1ZM179.3 468.4C179.9 469.5 180.6 471.3 180.9 472.3C180.2 473.3 180.1 474.5 179.9 475.6C177.3 483.4 173.2 491 166.1 496.5C164.9 496.9 163.3 496.7 162.4 495.8C161.6 494.7 161.2 493.4 161.1 491.9C161 490.4 161.2 488.8 161.3 487.3C162.2 482.8 163.7 478.5 165.9 474.5C167.7 471.4 170.5 467.6 173.6 465.5C174.4 465 175.2 464.7 176.2 465C177.5 465.7 178.5 467 179.3 468.4Z" fill="none" opacity="1" stroke="#000000" stroke-linecap="butt" stroke-linejoin="round" stroke-width="5"/>
<path d="M236.7 484.2C237.1 483.2 237.5 482.2 237.5 481.1C237.5 480.8 237.2 480.5 237 480.4C236.8 480.3 236.3 480.1 236.1 480.6C235.6 481.7 235 482.7 234.4 483.8C233.7 484.9 233.1 485.9 232.4 487C228.9 492.7 223 497.3 215.1 496.8C212.8 496.7 210.2 494.4 209.8 491.9C208.4 483.9 208.5 474.4 209.2 466.3C211.3 465.6 213.9 465.2 216.4 464.9C219 464.6 221.6 464.4 223.6 464.3C224.2 464 224.8 462.8 224 462.2C221.5 461.4 219.1 461.4 216.7 461.6C214.3 461.9 211.8 462.4 209.5 462.6C209.8 460.6 210.3 457.4 210.5 454.4L210.8 450.7C211 449.9 211.1 449.3 211.3 449C211.6 449.1 211.9 449.3 212.2 449.6C213.5 450.6 214.2 451.6 216.1 451.8C215.7 450.7 215.3 450 214.9 449.4C214.5 448.7 214 448.1 213.5 447.5L213 446.9C212.4 446.2 211.9 445.4 211.1 445C210.3 444.4 209.1 444.3 208.4 445.5C208 446.2 207.8 447.2 207.7 448L206 463.5C203.8 464.2 199.3 465.6 197.1 466.2C196.6 466.5 195.7 466.5 195 466.4C194 466.3 193.5 467.2 193.6 467.9C194.2 469.2 195.5 469.8 196.8 469.8C199.9 468.9 202.8 467.8 205.8 467.1C205.2 476.4 205 485.7 207 494.4C208.6 497.7 211.8 500.2 215.3 500.2C224.6 500.3 231.2 494 235.1 487C235.6 486.2 236.2 485.2 236.7 484.2Z" fill="none" opacity="1" stroke="#000000" stroke-linecap="butt" stroke-linejoin="round" stroke-width="5"/>
<path d="M272.9 495.6C275.9 491.8 277.9 486.7 279.7 481.8C279.7 481.2 279.5 480.8 279.2 480.6C278.9 480.4 278.4 480.2 278.1 480.7C276.8 483.1 275.6 485.4 274.4 487.6C273.1 489.9 271.8 492 269.9 494.1C269.8 494.2 269.5 494.1 269.3 493.7C267.7 485.8 267.2 477.1 266.5 469.6C266.3 467.9 266.2 465.9 265.4 464.4C264.4 462.4 262.5 461.4 260.7 461.4C258.9 461.4 257.8 461.9 256.9 462.9C256.4 463.3 256 463.9 255.7 464.5C255.3 465.1 255 465.7 254.6 466.5C252.8 469.8 251.1 473.8 249.7 477.4C247.9 482.3 246.2 486.9 245.2 492.1C244.5 489 244.1 481.6 244.1 479.9C244 473.6 244.5 467.2 245.4 461.4C246.1 456.8 247 452.3 248.4 447.9C249.6 444.1 251.1 440.4 253.3 437C253.6 436.6 254.7 436.2 255.6 436.3C256.6 436.4 257.6 436.8 258.6 437.1C259.3 436 258.6 435.1 257.9 434.4C256.8 433.5 255.6 433.2 254.3 433.2C252.1 434 250.5 435.2 249.5 437C247.7 440.1 245.7 445.3 244.8 448.7C242.7 456.7 241.2 465.3 240.9 473.9C240.6 481.3 240.9 488.8 242.8 496.1L243.3 498C243.5 498.6 243.8 499.2 244.1 499.6C245.2 500.3 246.3 499.4 246.7 498.7C247.5 493.2 249.6 488 251.2 482.8C252.8 477.3 255.4 471.2 258 466.7C259.5 464.2 262.4 464.8 262.7 467.5C263.8 476.4 264.1 485.7 265.8 494.4C266.1 495.7 267 497.4 268.6 497.9C270.4 498.5 272.1 496.6 272.9 495.6Z" fill="none" opacity="1" stroke="#000000" stroke-linecap="butt" stroke-linejoin="round" stroke-width="5"/>
<path d="M312.2 490.9C313.2 489.3 314.4 486.9 314.5 485C314.5 484.6 313.6 483.6 313.1 484.1C311.9 487.5 309.4 490.4 306.4 493C304.8 494.4 302.7 495.7 300.5 496.5C298.2 497.4 295.7 497.6 293.3 496.2C290.7 494.7 289.8 491.9 289.3 489.1C291 488 292.9 486.7 294.8 485.3C296.7 483.9 298.6 482.4 300.2 480.9C300.5 480.5 301 480 301.4 479.6L302.9 478.2C304 477.2 305.1 476.1 306 475.1C307.1 473.8 308 472.1 307.6 470C306.2 466.8 303.6 463.1 300.1 461.9C297.4 461 293.2 462.2 291 464C288.6 466.7 287 470.2 286.3 473.7C285.3 478.2 285.3 483 285.6 487.5C284.8 487.9 283.8 488.6 283.1 488.9C282.7 489.1 282.2 489.2 281.6 489.4C281 489.5 280.4 489.7 279.8 490C279.3 490.8 279.7 491.7 280.1 492.1C281.4 492.7 282.3 492.7 283.4 492.4C284.1 492.2 285.2 491.6 286 491C286.3 492 286.6 493 287.1 493.9C287.6 495 288.4 496.1 289.6 497.4C291.7 499.6 294.9 500.7 298.2 500.4C301.3 500.1 304.3 498.6 307 496.5C309 494.9 310.8 493 312.2 490.9ZM300.1 465.6C302 466.9 303.4 469 304.3 471C304 473 302.1 474.4 300.8 475.7C299.1 477.5 297.1 479.3 294.9 480.9C292.9 482.4 290.9 483.8 289 485.1C288.8 481.3 288.9 477.5 289.9 474C290.6 471.3 291.6 468.9 293.2 466.8C294.8 465.3 298.1 464.9 300.1 465.6Z" fill="none" opacity="1" stroke="#000000" stroke-linecap="butt" stroke-linejoin="round" stroke-width="5"/>
<path d="M346 464.8C346.6 464.8 347.4 464.2 347.1 463.2C345.8 462.6 344.2 462.8 343.1 463C340.5 463.5 339.3 464 336.8 464.9C334.5 465.8 330.9 467.9 329.1 469.5C327 471.4 324.5 473.8 322.7 476.7C322.6 472.7 323 469 324.3 466.1C324.3 465.7 324.5 465.5 324.7 465.1C325.3 464.1 326.3 463.3 326.3 461.9C325.7 461.1 324.9 461 324.2 461C322.9 461.5 322.2 462.3 321.7 463.3C321.2 464.2 320.8 465.3 320.3 466.2C319.1 470.5 318.8 474.8 319.3 479C320 485.8 322.4 492.3 324.7 498.8L325.9 500.1C326.5 500.7 327.5 500.4 327.8 499.5C327 496.6 326 493.9 325.2 491.1C324.4 488.4 323.7 485.6 323.4 482.6C324.7 479 327 475.9 329.7 473.3C332.4 470.7 334.9 468.5 337.8 467.3C340.8 466 343 465.4 346 464.8Z" fill="none" opacity="1" stroke="#000000" stroke-linecap="butt" stroke-linejoin="round" stroke-width="5"/>
<path d="M403.5 492.1C403.9 492.6 405 493.2 406.1 492.6C406 492.1 405.8 491.7 405.7 491.4C405.3 490.4 404.7 489.5 404.5 488.4C402.6 479.5 402.7 470.2 403 461C403.3 452.3 405 444.1 406.1 435.6C406.2 434.6 404.4 432.9 403.3 434.6C402.4 437.5 401.9 440.5 401.5 443.5C401.1 446.5 400.8 449.6 400.3 452.7C399.9 455.8 399.9 459 399.7 462.1C399.6 464.3 399.2 466.5 398.5 468.4C398.2 467.2 397.8 466.1 397 465.1C395.5 463.3 393.1 462 390.7 461.9C386.5 461.6 383.1 464.9 381 468.3C378.2 472.7 375.9 478 375.1 483.5C374.4 487.8 374.6 492.2 376.1 496.6C377.3 498.6 379.3 500 381.5 500.2C384.7 500.5 387.4 498.1 389.2 495.5C393.9 488.7 397 481.2 399.6 473.5C400 477.3 399.9 481.1 400.5 484.7C401 487.4 401.7 489.9 403.5 492.1ZM395.2 473.5C395.2 473.9 395.5 474.7 396 474.9C393.5 481.8 390.6 488.6 385.9 494.4C384.5 496.1 382.9 497.2 381 496.6C379.8 496 379.1 495 378.7 493.7C378.3 492.6 378.1 491.2 378.1 489.8C378.1 488.4 378.2 487 378.2 485.7C379.2 480.6 380.5 475.7 383.1 471.3C384.3 469.4 385.8 467.6 387.7 465.9C388.8 465.2 390.3 464.9 391.6 465.4C392.9 465.8 394.1 466.6 394.7 467.8C395.5 469.5 395.2 471.7 395.2 473.5Z" fill="none" opacity="1" stroke="#000000" stroke-linecap="butt" stroke-linejoin="round" stroke-width="5"/>
<path d="M438.8 464.8C439.4 464.8 440.2 464.2 439.9 463.2C438.6 462.6 437 462.8 435.9 463C433.3 463.5 432.1 464 429.6 464.9C427.3 465.8 423.7 467.9 421.9 469.5C419.8 471.4 417.3 473.8 415.5 476.7C415.4 472.7 415.8 469 417.1 466.1C417.1 465.7 417.3 465.5 417.5 465.1C418.1 464.1 419.1 463.3 419.1 461.9C418.5 461.1 417.7 461 417 461C415.7 461.5 415 462.3 414.5 463.3C414 464.2 413.6 465.3 413.1 466.2C411.9 470.5 411.6 474.8 412.1 479C412.8 485.8 415.2 492.3 417.5 498.8L418.7 500.1C419.3 500.7 420.3 500.4 420.6 499.5C419.8 496.6 418.8 493.9 418 491.1C417.2 488.4 416.5 485.6 416.2 482.6C417.5 479 419.8 475.9 422.5 473.3C425.2 470.7 427.7 468.5 430.6 467.3C433.6 466 435.8 465.4 438.8 464.8Z" fill="none" opacity="1" stroke="#000000" stroke-linecap="butt" stroke-linejoin="round" stroke-width="5"/>
<path d="M463.2 497.6C464.8 495.8 466.1 493.6 466.5 491.6L466.9 489.8C467 489.2 467 488.5 466.2 487.8C465.4 488.5 465 489.3 464.7 490C464.4 490.7 464.2 491.5 463.8 492.2C463 493.3 462.2 494.6 461.1 495.5C460.1 496.3 459.1 497 457.9 496.9C457.3 496.9 456.1 495.8 456 495.2C454 488.4 455.1 474.9 456.4 464.8C456.5 464 456.6 463 455.9 462.2C455.2 461.8 453.7 461.4 453.2 462.2C450.7 466 448.8 469.9 446.6 473.8C444.4 477.7 442 481.5 438.9 485C438.6 485.4 438.7 485.8 439 486C439.3 486.2 439.7 486.3 440 486.3C440.7 486.2 441.5 485.7 442 485.3C444.4 482.7 446.3 480 448 477.2C449.5 474.7 450.9 472.3 452.3 469.7C451.6 477.9 451.2 486.1 452.3 494.3C452.6 496.3 453.2 498 454.8 499.4C455.7 500.2 457.8 500.3 459 500.2C460.6 499.8 462.1 498.8 463.2 497.6ZM463.4 442.2C464 442.5 464.7 442.9 465.7 443.2C465.9 442 465.2 441.1 464.6 440.6C460.2 436.6 454.9 434.5 448.9 434.4C447.9 435.2 448 437.2 449 437.3C453.4 438.2 457.5 439.3 461.5 441.1L463.4 442.2Z" fill="none" opacity="1" stroke="#000000" stroke-linecap="butt" stroke-linejoin="round" stroke-width="5"/>
<path d="M496.7 464.3C497.5 464 498.6 462.6 497.3 461.7C495.2 461.3 493.1 461.3 491 461.5C489.1 461.7 487.2 462.1 485.4 462.3C485.3 457.5 485.7 452.7 485.7 447.9C485.7 445.1 486.1 442.5 487.3 440.1C488.2 438.2 490.1 436.5 492.1 436.2C493.1 436 494.1 436 495.1 436.3C495.8 436.6 496.3 435.7 496.3 435.2C495.1 433.9 493.4 433.5 491.9 433.3C488.8 433.4 486.1 435.5 484.6 438.3C483 441.2 482.6 444.6 482.4 448C482.2 452.8 482.3 458.1 482.1 463.1C478.5 464.2 473.7 466.2 471.2 467.8C470.2 468.4 469.3 469.3 469.3 470.9C469.6 471.4 470.2 472.1 471 471.9C474.8 469.5 477.9 467.7 482.1 466.7C482.2 475.3 482.5 491.8 482.3 500.1C482.2 504.1 481.7 507.8 480.6 511.4C479.5 515 477.7 518.6 475.5 521.6C475.2 522 475.3 522.6 475.7 522.8C476.1 523 476.7 523 477.4 522.5C480.2 520.5 482.8 515 483.6 512.4C484.8 508.6 485.2 504.5 485.5 500.4C485.7 496.4 485.5 492.3 485.5 488.3C485.5 482.5 485.1 471 485.4 465.8C489.5 464.8 492.8 464.4 496.7 464.3Z" fill="none" opacity="1" stroke="#000000" stroke-linecap="butt" stroke-linejoin="round" stroke-width="5"/>
<path d="M542 484.2C542.4 483.2 542.8 482.2 542.8 481.1C542.8 480.8 542.5 480.5 542.3 480.4C542.1 480.3 541.6 480.1 541.4 480.6C540.9 481.7 540.3 482.7 539.7 483.8C539 484.9 538.4 485.9 537.7 487C534.2 492.7 528.3 497.3 520.4 496.8C518.1 496.7 515.5 494.4 515.1 491.9C513.7 483.9 513.8 474.4 514.5 466.3C516.6 465.6 519.2 465.2 521.7 464.9C524.3 464.6 526.9 464.4 528.9 464.3C529.5 464 530.1 462.8 529.3 462.2C526.8 461.4 524.4 461.4 522 461.6C519.6 461.9 517.1 462.4 514.8 462.6C515.1 460.6 515.6 457.4 515.8 454.4L516.1 450.7C516.3 449.9 516.4 449.3 516.6 449C516.9 449.1 517.2 449.3 517.5 449.6C518.8 450.6 519.5 451.6 521.4 451.8C521 450.7 520.6 450 520.2 449.4C519.8 448.7 519.3 448.1 518.8 447.5L518.3 446.9C517.7 446.2 517.2 445.4 516.4 445C515.6 444.4 514.4 444.3 513.7 445.5C513.3 446.2 513.1 447.2 513 448L511.3 463.5C509.1 464.2 504.6 465.6 502.4 466.2C501.9 466.5 501 466.5 500.3 466.4C499.3 466.3 498.8 467.2 498.9 467.9C499.5 469.2 500.8 469.8 502.1 469.8C505.2 468.9 508.1 467.8 511.1 467.1C510.5 476.4 510.3 485.7 512.3 494.4C513.9 497.7 517.1 500.2 520.6 500.2C529.9 500.3 536.5 494 540.4 487C540.9 486.2 541.5 485.2 542 484.2Z" fill="none" opacity="1" stroke="#000000" stroke-linecap="butt" stroke-linejoin="round" stroke-width="5"/>
<path d="M561.1 498.4C564.6 497.1 568.7 495 571 491.6C571.7 490.6 571.4 489.1 571.1 488.1C570.4 486.6 569 485.5 567.7 485.1C565.4 484.3 563.1 483.9 560.7 483.5L553.5 482.3C552.5 482.1 551.5 481.8 550.8 481.1C550.3 480.7 550.1 479.9 550.4 479.2C550.9 477.3 551.8 475.5 552.8 473.7C554.5 470.8 557 467.7 559.7 465.7C560.5 465.1 561.3 464.7 562.3 464.7C563 464.6 563.8 464.9 564.3 465.3C564.8 465.6 565.2 466 565.6 466.4C566 466.8 566.3 467.3 566.8 467.8C567.6 467.5 568.1 466.9 568.1 466.3C568 464.8 567 463.2 565.9 462.5C564.8 461.8 563.7 461.4 562.4 461.4C559.7 461.8 557.3 463.2 555.3 464.9C551.4 468.3 548.7 473.7 547 478C546.4 480.3 547 482.7 548.9 484.1C550.8 485.2 553 485.7 555.2 486C558.1 486.5 561 486.8 563.8 487.5C565.2 487.9 566.8 488 567.8 489.1C568 489.7 567.9 490.4 567.4 490.9C563.6 494.2 559.2 495.9 554.3 496.7C552.5 497 550.6 497.3 548.8 496.7C547.8 496.4 547.6 495.6 547.5 494.6C547.5 493.3 548 491.8 548 490.6C548 490.4 547.8 490.1 547.4 490C547.2 490 546.9 490 546.6 490.2C545.8 490.8 545.4 491.7 545.1 492.6C544.9 493.6 544.6 496 545 497.1C545.6 498.5 547.1 499.4 548.4 500C552.7 500.6 557.2 499.9 561.1 498.4Z" fill="none" opacity="1" stroke="#000000" stroke-linecap="butt" stroke-linejoin="round" stroke-width="5"/>
<path d="M644.3 484.2C644.7 483.2 645.1 482.2 645.1 481.1C645.1 480.8 644.8 480.5 644.6 480.4C644.4 480.3 643.9 480.1 643.7 480.6C643.2 481.7 642.6 482.7 642 483.8C641.3 484.9 640.7 485.9 640 487C636.5 492.7 630.6 497.3 622.7 496.8C620.4 496.7 617.8 494.4 617.4 491.9C616 483.9 616.1 474.4 616.8 466.3C618.9 465.6 621.5 465.2 624 464.9C626.6 464.6 629.2 464.4 631.2 464.3C631.8 464 632.4 462.8 631.6 462.2C629.1 461.4 626.7 461.4 624.3 461.6C621.9 461.9 619.4 462.4 617.1 462.6C617.4 460.6 617.9 457.4 618.1 454.4L618.4 450.7C618.6 449.9 618.7 449.3 618.9 449C619.2 449.1 619.5 449.3 619.8 449.6C621.1 450.6 621.8 451.6 623.7 451.8C623.3 450.7 622.9 450 622.5 449.4C622.1 448.7 621.6 448.1 621.1 447.5L620.6 446.9C620 446.2 619.5 445.4 618.7 445C617.9 444.4 616.7 444.3 616 445.5C615.6 446.2 615.4 447.2 615.3 448L613.6 463.5C611.4 464.2 606.9 465.6 604.7 466.2C604.2 466.5 603.3 466.5 602.6 466.4C601.6 466.3 601.1 467.2 601.2 467.9C601.8 469.2 603.1 469.8 604.4 469.8C607.5 468.9 610.4 467.8 613.4 467.1C612.8 476.4 612.6 485.7 614.6 494.4C616.2 497.7 619.4 500.2 622.9 500.2C632.2 500.3 638.8 494 642.7 487C643.2 486.2 643.8 485.2 644.3 484.2Z" fill="none" opacity="1" stroke="#000000" stroke-linecap="butt" stroke-linejoin="round" stroke-width="5"/>
<path d="M680.5 495.6C683.5 491.8 685.5 486.7 687.3 481.8C687.3 481.2 687.1 480.8 686.8 480.6C686.5 480.4 686 480.2 685.7 480.7C684.4 483.1 683.2 485.4 682 487.6C680.7 489.9 679.4 492 677.5 494.1C677.4 494.2 677.1 494.1 676.9 493.7C675.3 485.8 674.8 477.1 674.1 469.6C673.9 467.9 673.8 465.9 673 464.4C672 462.4 670.1 461.4 668.3 461.4C666.5 461.4 665.4 461.9 664.5 462.9C664 463.3 663.6 463.9 663.3 464.5C662.9 465.1 662.6 465.7 662.2 466.5C660.4 469.8 658.7 473.8 657.3 477.4C655.5 482.3 653.8 486.9 652.8 492.1C652.1 489 651.7 481.6 651.7 479.9C651.6 473.6 652.1 467.2 653 461.4C653.7 456.8 654.6 452.3 656 447.9C657.2 444.1 658.7 440.4 660.9 437C661.2 436.6 662.3 436.2 663.2 436.3C664.2 436.4 665.2 436.8 666.2 437.1C666.9 436 666.2 435.1 665.5 434.4C664.4 433.5 663.2 433.2 661.9 433.2C659.7 434 658.1 435.2 657.1 437C655.3 440.1 653.3 445.3 652.4 448.7C650.3 456.7 648.8 465.3 648.5 473.9C648.2 481.3 648.5 488.8 650.4 496.1L650.9 498C651.1 498.6 651.4 499.2 651.7 499.6C652.8 500.3 653.9 499.4 654.3 498.7C655.1 493.2 657.2 488 658.8 482.8C660.4 477.3 663 471.2 665.6 466.7C667.1 464.2 670 464.8 670.3 467.5C671.4 476.4 671.7 485.7 673.4 494.4C673.7 495.7 674.6 497.4 676.2 497.9C678 498.5 679.7 496.6 680.5 495.6Z" fill="none" opacity="1" stroke="#000000" stroke-linecap="butt" stroke-linejoin="round" stroke-width="5"/>
<path d="M718.1 464.8C718.7 464.8 719.5 464.2 719.2 463.2C717.9 462.6 716.3 462.8 715.2 463C712.6 463.5 711.4 464 708.9 464.9C706.6 465.8 703 467.9 701.2 469.5C699.1 471.4 696.6 473.8 694.8 476.7C694.7 472.7 695.1 469 696.4 466.1C696.4 465.7 696.6 465.5 696.8 465.1C697.4 464.1 698.4 463.3 698.4 461.9C697.8 461.1 697 461 696.3 461C695 461.5 694.3 462.3 693.8 463.3C693.3 464.2 692.9 465.3 692.4 466.2C691.2 470.5 690.9 474.8 691.4 479C692.1 485.8 694.5 492.3 696.8 498.8L698 500.1C698.6 500.7 699.6 500.4 699.9 499.5C699.1 496.6 698.1 493.9 697.3 491.1C696.5 488.4 695.8 485.6 695.5 482.6C696.8 479 699.1 475.9 701.8 473.3C704.5 470.7 707 468.5 709.9 467.3C712.9 466 715.1 465.4 718.1 464.8Z" fill="none" opacity="1" stroke="#000000" stroke-linecap="butt" stroke-linejoin="round" stroke-width="5"/>
<path d="M741.5 495.6C744.7 492.1 746.9 487.6 747.8 482.9C748.7 478 748.2 473 746.1 468.5C745.3 466.7 743.9 464.8 742.1 463.5C741.1 462.8 739.9 462.2 738.6 462C738.3 461.3 737.3 461 736.7 461.1C733.7 461.8 731.1 463.8 728.8 466C724.9 469.7 722.1 474.3 720.6 479.2C719.2 484 719.1 489.1 720.9 494.2C722 497.2 725.1 499.8 728.2 500.4C733.5 501.3 738 499.3 741.5 495.6ZM739.1 465.1C741.8 467.1 743.9 469.7 744.4 472.8C745 476.3 745 480 744.2 483.4C743.3 487.7 741.2 491.6 737.7 494.6C735.4 496.6 732.2 497.7 728.9 496.9C726.6 496.4 724.3 494.6 723.7 492.2C722.7 487.7 722.9 483.2 724.2 479.2C725.9 474.2 728.7 469.5 733.4 466.5L734.8 465.6C735.3 465.3 735.8 465 736.3 464.6C737.1 464.1 738.1 464.1 739.1 465.1Z" fill="none" opacity="1" stroke="#000000" stroke-linecap="butt" stroke-linejoin="round" stroke-width="5"/>
<path d="M785.7 496.9C785.8 496.7 786.1 496.2 785.7 495.9C783.9 494.6 782.9 493 782.1 490.9C781.2 488.3 780.7 484 780.7 479.3C780.6 474.6 780.9 469.4 781.1 465C781 464.4 780.3 463.6 779.4 463.8C778.7 463.8 778.4 464.4 778.1 464.9C778.1 465 778 465.2 777.9 465.3C776.5 469.8 775.3 474.4 773.6 478.7C772.3 482.1 770.9 485.4 768.8 488.3C768.1 489.2 767.4 490.3 766.7 491.3C765.9 492.3 765.1 493.3 764.2 494.1C762.8 495.4 761.2 496.2 759.4 496C757.7 495.6 757 493.9 756.7 492.4C756.5 487.9 756.9 483.4 757.3 478.9C757.8 473.7 758.2 468.5 757.8 463.1C757.4 462.1 756.1 460.5 754.5 461.6C754.9 467.4 754.5 473 754 478.6C753.7 482.5 753.3 486.4 753.2 490.4C753.1 493.2 753.7 496 755.7 498.2C757.6 499.7 760.9 500.1 763 498.7C766 496.7 768.4 494.2 770.4 491.4C773.9 486.5 775.9 480.7 777.8 475C777.6 481.2 777.9 488.2 779.8 493.1C780.4 494.5 782.6 496.8 784.7 497.3C785.1 497.3 785.5 497.1 785.7 496.9Z" fill="none" opacity="1" stroke="#000000" stroke-linecap="butt" stroke-linejoin="round" stroke-width="5"/>
<path d="M811 494.5C811.8 493.8 812.6 493.1 813.2 492.3C813.6 491.7 813.4 490.5 812.8 490.5C812.1 490.9 811.4 491.3 810.7 491.8C810.1 492.1 809.5 492.5 809 492.7C809 487.4 809.3 482.4 809.8 477.3C809.6 476.1 810.2 474.8 809.9 473.6C809.6 472.8 808.8 472.1 807.9 472C807.4 472 806.9 472.2 806.4 472.4C806.9 470 807.5 467.1 806.4 464.7C805.7 463.3 804.3 462.3 803.1 461.7C801.4 461.3 799.4 461.5 798 462.4C795.8 463.9 794.1 465.9 792.7 467.8C790.2 471.3 788.7 475.3 788.3 479.6C788.3 482.4 789.5 485.2 792.3 486.4C794.9 487 797.1 486.3 799 484.9C800.6 483.7 802 482 803.4 480.2L806.6 475.9C806.3 482.2 805.6 488.6 805.7 494.9C801.1 498.5 796.4 502.4 793.1 507.4C791 510.6 788.7 514.2 789.4 518.6C790.1 520.6 791.7 522.3 793.7 523.2C795.8 524.1 798.8 523.6 800.7 522.5C803.9 520.8 805.9 518.5 807.1 515.6C808.2 512.8 808.6 509.6 808.8 506.2C808.9 503 808.9 499.6 808.9 496.3C809.5 495.7 810.3 495.1 811 494.5ZM795.7 509.4C798.4 505.4 801.7 502 805.5 498.8C805.6 501.1 805.7 503.6 805.6 506C805.5 508.5 805.1 511 804.3 513.2C803.3 516.2 801.2 518.8 797.8 520.3C796.4 520.6 795 520.3 794 519.5C793 518.7 792.8 517.5 792.7 516.2C793.1 513.7 794.3 511.5 795.7 509.4ZM803.4 465.8C804 467.1 804.2 468.5 803.9 470C803.8 471.1 803.4 472.2 803 473.3C802.6 474.5 802.1 475.6 801.7 476.7C800.7 478.5 799.6 480.5 798 482C797 483 795.7 483.5 794.1 483.4C793.3 483.1 792.4 482.5 792.2 481.7C791.7 479.3 792 477.1 792.8 475C793.8 472.1 796.5 467.2 799.2 465.4C800.4 464.6 802 464.4 803.4 465.8Z" fill="none" opacity="1" stroke="#000000" stroke-linecap="butt" stroke-linejoin="round" stroke-width="5"/>
<path d="M851 495.6C854 491.8 856 486.7 857.8 481.8C857.8 481.2 857.6 480.8 857.3 480.6C857 480.4 856.5 480.2 856.2 480.7C854.9 483.1 853.7 485.4 852.5 487.6C851.2 489.9 849.9 492 848 494.1C847.9 494.2 847.6 494.1 847.4 493.7C845.8 485.8 845.3 477.1 844.6 469.6C844.4 467.9 844.3 465.9 843.5 464.4C842.5 462.4 840.6 461.4 838.8 461.4C837 461.4 835.9 461.9 835 462.9C834.5 463.3 834.1 463.9 833.8 464.5C833.4 465.1 833.1 465.7 832.7 466.5C830.9 469.8 829.2 473.8 827.8 477.4C826 482.3 824.3 486.9 823.3 492.1C822.6 489 822.2 481.6 822.2 479.9C822.1 473.6 822.6 467.2 823.5 461.4C824.2 456.8 825.1 452.3 826.5 447.9C827.7 444.1 829.2 440.4 831.4 437C831.7 436.6 832.8 436.2 833.7 436.3C834.7 436.4 835.7 436.8 836.7 437.1C837.4 436 836.7 435.1 836 434.4C834.9 433.5 833.7 433.2 832.4 433.2C830.2 434 828.6 435.2 827.6 437C825.8 440.1 823.8 445.3 822.9 448.7C820.8 456.7 819.3 465.3 819 473.9C818.7 481.3 819 488.8 820.9 496.1L821.4 498C821.6 498.6 821.9 499.2 822.2 499.6C823.3 500.3 824.4 499.4 824.8 498.7C825.6 493.2 827.7 488 829.3 482.8C830.9 477.3 833.5 471.2 836.1 466.7C837.6 464.2 840.5 464.8 840.8 467.5C841.9 476.4 842.2 485.7 843.9 494.4C844.2 495.7 845.1 497.4 846.7 497.9C848.5 498.5 850.2 496.6 851 495.6Z" fill="none" opacity="1" stroke="#000000" stroke-linecap="butt" stroke-linejoin="round" stroke-width="5"/>
<path d="M920.6 499.1C921.5 499.3 923.1 499.5 923 498.2C918.9 494.2 917.9 490.1 916.2 484.8C915.2 481.5 914.4 478.3 914 474.7C913.7 473.8 913.5 473.2 913.1 472.5C912.9 470.8 912.9 468.7 911.9 467.3C911 464.9 909.3 462.8 906.9 461.7C905.9 461.2 904.9 461.2 903.9 461.5C903 461.8 902.1 462.3 901.2 462.8C894.7 468.3 890.5 475.3 888.5 482.9C887.7 485.8 887.1 489.7 887.5 493.1C887.9 495.8 889 498.2 891.5 499.7C893.7 501.1 896.8 500.5 898.8 498.9C905.1 493.9 908.7 486.9 911.4 480.1C911.9 482.3 912.4 484.5 913.1 486.6C914.8 491.4 916.2 495.9 920.6 499.1ZM909.2 468.4C909.8 469.5 910.5 471.3 910.8 472.3C910.1 473.3 910 474.5 909.8 475.6C907.2 483.4 903.1 491 896 496.5C894.8 496.9 893.2 496.7 892.3 495.8C891.5 494.7 891.1 493.4 891 491.9C890.9 490.4 891.1 488.8 891.2 487.3C892.1 482.8 893.6 478.5 895.8 474.5C897.6 471.4 900.4 467.6 903.5 465.5C904.3 465 905.1 464.7 906.1 465C907.4 465.7 908.4 467 909.2 468.4Z" fill="none" opacity="1" stroke="#000000" stroke-linecap="butt" stroke-linejoin="round" stroke-width="5"/>
<path d="M948.3 497.6C949.9 495.8 951.2 493.6 951.6 491.6L952 489.8C952.1 489.2 952.1 488.5 951.3 487.8C950.5 488.5 950.1 489.3 949.8 490C949.5 490.7 949.3 491.5 948.9 492.2C948.1 493.3 947.3 494.6 946.2 495.5C945.2 496.3 944.2 497 943 496.9C942.4 496.9 941.2 495.8 941.1 495.2C939.1 488.4 940.2 474.9 941.5 464.8C941.6 464 941.7 463 941 462.2C940.3 461.8 938.8 461.4 938.3 462.2C935.8 466 933.9 469.9 931.7 473.8C929.5 477.7 927.1 481.5 924 485C923.7 485.4 923.8 485.8 924.1 486C924.4 486.2 924.8 486.3 925.1 486.3C925.8 486.2 926.6 485.7 927.1 485.3C929.5 482.7 931.4 480 933.1 477.2C934.6 474.7 936 472.3 937.4 469.7C936.7 477.9 936.3 486.1 937.4 494.3C937.7 496.3 938.3 498 939.9 499.4C940.8 500.2 942.9 500.3 944.1 500.2C945.7 499.8 947.2 498.8 948.3 497.6ZM948.5 442.2C949.1 442.5 949.8 442.9 950.8 443.2C951 442 950.3 441.1 949.7 440.6C945.3 436.6 940 434.5 934 434.4C933 435.2 933.1 437.2 934.1 437.3C938.5 438.2 942.6 439.3 946.6 441.1L948.5 442.2Z" fill="none" opacity="1" stroke="#000000" stroke-linecap="butt" stroke-linejoin="round" stroke-width="5"/>
<path d="M984.9 464.8C985.5 464.8 986.3 464.2 986 463.2C984.7 462.6 983.1 462.8 982 463C979.4 463.5 978.2 464 975.7 464.9C973.4 465.8 969.8 467.9 968 469.5C965.9 471.4 963.4 473.8 961.6 476.7C961.5 472.7 961.9 469 963.2 466.1C963.2 465.7 963.4 465.5 963.6 465.1C964.2 464.1 965.2 463.3 965.2 461.9C964.6 461.1 963.8 461 963.1 461C961.8 461.5 961.1 462.3 960.6 463.3C960.1 464.2 959.7 465.3 959.2 466.2C958 470.5 957.7 474.8 958.2 479C958.9 485.8 961.3 492.3 963.6 498.8L964.8 500.1C965.4 500.7 966.4 500.4 966.7 499.5C965.9 496.6 964.9 493.9 964.1 491.1C963.3 488.4 962.6 485.6 962.3 482.6C963.6 479 965.9 475.9 968.6 473.3C971.3 470.7 973.8 468.5 976.7 467.3C979.7 466 981.9 465.4 984.9 464.8Z" fill="none" opacity="1" stroke="#000000" stroke-linecap="butt" stroke-linejoin="round" stroke-width="5"/>
</g>
</g>
</svg>
