<?xml version="1.0" encoding="UTF-8" standalone="no"?>
<!DOCTYPE svg PUBLIC "-//W3C//DTD SVG 1.1//EN" "http://www.w3.org/Graphics/SVG/1.1/DTD/svg11.dtd">
<!-- Created with Vectornator (http://vectornator.io/) -->
<svg height="100%" stroke-miterlimit="10" style="fill-rule:nonzero;clip-rule:evenodd;stroke-linecap:round;stroke-linejoin:round;" version="1.1" viewBox="113.266 430.7 773.634 95.6111" width="100%" xml:space="preserve" xmlns="http://www.w3.org/2000/svg" xmlns:xlink="http://www.w3.org/1999/xlink">
<defs/>
<g id="Layer-7">
<g opacity="1">
<path d="M143.7 488.7C144.9 474.3 144.7 459.6 145.7 445.5C145.6 444.5 144.5 442.9 143.4 443.9C142.6 446.6 142.1 449.4 141.9 452.1C141.5 458.3 141.5 470.3 141.2 476.1C140.8 482.2 140 492.8 139.6 500.1C139.6 500.4 139.9 500.6 140.2 500.6C140.4 500.5 140.7 500.4 140.9 500.2C142.3 496.6 143.4 492.8 143.7 488.7ZM144.1 437.9C150.4 437.4 156.7 437.3 163.4 437.8C163.4 436.8 163.1 436.3 162.7 435.9L161.2 435C158.2 434.5 155.3 434.3 152.4 434.3C149.4 434.3 146.4 434.5 143.4 434.6C134.3 435.1 126 437.6 117.2 438.9C116.4 438.9 115.4 439.5 115.9 440.4C116.4 441.4 117.4 442 118.4 442.2C126.7 440.2 135.3 438.6 144.1 437.9Z" fill="none" opacity="1" stroke="#000000" stroke-linecap="butt" stroke-linejoin="round" stroke-width="5"/>
<path d="M199.1 495.6C202.1 491.8 204.1 486.7 205.9 481.8C205.9 481.2 205.7 480.8 205.4 480.6C205.1 480.4 204.6 480.2 204.3 480.7C203 483.1 201.8 485.4 200.6 487.6C199.3 489.9 198 492 196.1 494.1C196 494.2 195.7 494.1 195.5 493.7C193.9 485.8 193.4 477.1 192.7 469.6C192.5 467.9 192.4 465.9 191.6 464.4C190.6 462.4 188.7 461.4 186.9 461.4C185.1 461.4 184 461.9 183.1 462.9C182.6 463.3 182.2 463.9 181.9 464.5C181.5 465.1 181.2 465.7 180.8 466.5C179 469.8 177.3 473.8 175.9 477.4C174.1 482.3 172.4 486.9 171.4 492.1C170.7 489 170.3 481.6 170.3 479.9C170.2 473.6 170.7 467.2 171.6 461.4C172.3 456.8 173.2 452.3 174.6 447.9C175.8 444.1 177.3 440.4 179.5 437C179.8 436.6 180.9 436.2 181.8 436.3C182.8 436.4 183.8 436.8 184.8 437.1C185.5 436 184.8 435.1 184.1 434.4C183 433.5 181.8 433.2 180.5 433.2C178.3 434 176.7 435.2 175.7 437C173.9 440.1 171.9 445.3 171 448.7C168.9 456.7 167.4 465.3 167.1 473.9C166.8 481.3 167.1 488.8 169 496.1L169.5 498C169.7 498.6 170 499.2 170.3 499.6C171.4 500.3 172.5 499.4 172.9 498.7C173.7 493.2 175.8 488 177.4 482.8C179 477.3 181.6 471.2 184.2 466.7C185.7 464.2 188.6 464.8 188.9 467.5C190 476.4 190.3 485.7 192 494.4C192.3 495.7 193.2 497.4 194.8 497.9C196.6 498.5 198.3 496.6 199.1 495.6Z" fill="none" opacity="1" stroke="#000000" stroke-linecap="butt" stroke-linejoin="round" stroke-width="5"/>
<path d="M238.4 490.9C239.4 489.3 240.6 486.9 240.7 485C240.7 484.6 239.8 483.6 239.3 484.1C238.1 487.5 235.6 490.4 232.6 493C231 494.4 228.9 495.7 226.7 496.5C224.4 497.4 221.9 497.6 219.5 496.2C216.9 494.7 216 491.9 215.5 489.1C217.2 488 219.1 486.7 221 485.3C222.9 483.9 224.8 482.4 226.4 480.9C226.7 480.5 227.2 480 227.6 479.6L229.1 478.2C230.2 477.2 231.3 476.1 232.2 475.1C233.3 473.8 234.2 472.1 233.8 470C232.4 466.8 229.8 463.1 226.3 461.9C223.6 461 219.4 462.2 217.2 464C214.8 466.7 213.2 470.2 212.5 473.7C211.5 478.2 211.5 483 211.8 487.5C211 487.9 210 488.6 209.3 488.9C208.9 489.1 208.4 489.2 207.8 489.4C207.2 489.5 206.6 489.7 206 490C205.5 490.8 205.9 491.7 206.3 492.1C207.6 492.7 208.5 492.7 209.6 492.4C210.3 492.2 211.4 491.6 212.2 491C212.5 492 212.8 493 213.3 493.9C213.8 495 214.6 496.1 215.8 497.4C217.9 499.6 221.1 500.7 224.4 500.4C227.5 500.1 230.5 498.6 233.2 496.5C235.2 494.9 237 493 238.4 490.9ZM226.3 465.6C228.2 466.9 229.6 469 230.5 471C230.2 473 228.3 474.4 227 475.7C225.3 477.5 223.3 479.3 221.1 480.9C219.1 482.4 217.1 483.8 215.2 485.1C215 481.3 215.1 477.5 216.1 474C216.8 471.3 217.8 468.9 219.4 466.8C221 465.3 224.3 464.9 226.3 465.6Z" fill="none" opacity="1" stroke="#000000" stroke-linecap="butt" stroke-linejoin="round" stroke-width="5"/>
<path d="M315.4 497.6C317.8 494.9 319.2 490.7 319.7 487.2C320.7 479.4 317.8 470.4 313.2 464.1C312.2 463 311 461.2 309.3 461.2C308.7 461.2 307.6 461.6 307.9 462.4C310.9 466.4 313.5 470.8 315.1 475.5C315.8 477.7 316.3 479.9 316.5 482.2C316.7 485.9 316 489.7 314.4 493.1C313.6 494.7 312.4 496.1 310.7 496.7C308.8 497.4 307 496.6 305.6 495C303 490.8 301.3 486.2 299.6 481.6C298.6 479.9 298.2 478 296.4 477C294.6 476.2 292.6 476.3 291.3 477.6C289.8 479.7 288.7 481.8 287.7 483.9C286.2 487.1 283.6 492.1 281.3 495C280.5 496 279.5 496.6 278.1 496.3C277.4 496.1 276.8 495.4 276.6 494.8C272.9 484.2 274.9 472.1 279.2 462.1C279.3 461.2 278.4 460.9 277.8 460.9C277 460.9 276 461.4 275.7 462C273.5 466.6 272.1 471.6 271.5 476.9C270.8 482.7 271 488.5 272.6 494.2C273.3 496.5 274.5 498.7 277 499.7C278.9 500.5 281.2 500 282.6 498.5C284.9 496 286.6 493.2 288.1 490.4C289.6 487.5 290.9 484.5 292.3 481.6C292.6 481.2 292.9 480.8 293.3 480.4C293.6 480.1 293.9 479.8 294.3 479.9C295.3 480.3 295.7 481.2 296.2 482.3C297.1 484.5 297.9 486.7 298.8 489C299.7 491.2 300.7 493.5 301.9 495.6C303.4 498.2 305.6 500 309 500.4C311.6 500.7 313.7 499.4 315.4 497.6Z" fill="none" opacity="1" stroke="#000000" stroke-linecap="butt" stroke-linejoin="round" stroke-width="5"/>
<path d="M346.9 497.6C348.5 495.8 349.8 493.6 350.2 491.6L350.6 489.8C350.7 489.2 350.7 488.5 349.9 487.8C349.1 488.5 348.7 489.3 348.4 490C348.1 490.7 347.9 491.5 347.5 492.2C346.7 493.3 345.9 494.6 344.8 495.5C343.8 496.3 342.8 497 341.6 496.9C341 496.9 339.8 495.8 339.7 495.2C337.7 488.4 338.8 474.9 340.1 464.8C340.2 464 340.3 463 339.6 462.2C338.9 461.8 337.4 461.4 336.9 462.2C334.4 466 332.5 469.9 330.3 473.8C328.1 477.7 325.7 481.5 322.6 485C322.3 485.4 322.4 485.8 322.7 486C323 486.2 323.4 486.3 323.7 486.3C324.4 486.2 325.2 485.7 325.7 485.3C328.1 482.7 330 480 331.7 477.2C333.2 474.7 334.6 472.3 336 469.7C335.3 477.9 334.9 486.1 336 494.3C336.3 496.3 336.9 498 338.5 499.4C339.4 500.2 341.5 500.3 342.7 500.2C344.3 499.8 345.8 498.8 346.9 497.6ZM347.1 442.2C347.7 442.5 348.4 442.9 349.4 443.2C349.6 442 348.9 441.1 348.3 440.6C343.9 436.6 338.6 434.5 332.6 434.4C331.6 435.2 331.7 437.2 332.7 437.3C337.1 438.2 341.2 439.3 345.2 441.1L347.1 442.2Z" fill="none" opacity="1" stroke="#000000" stroke-linecap="butt" stroke-linejoin="round" stroke-width="5"/>
<path d="M382.4 500.1C386.5 496.6 389.4 492.4 391.5 487.8C391.6 487.4 390.9 486.5 390.4 487L386.7 491.8C385.5 493.1 384.3 494.4 382.9 495.4C383.2 491.4 383.4 487.3 383.3 483.3C383.2 479.1 383.5 474.6 382.9 470.4C382.5 467.8 381.8 465.4 380.5 463.2C379.4 462.3 378.3 461.7 376.9 461.6C375.4 461.4 374.3 462.2 373.3 462.8C370 465.9 367.6 469.5 365.5 473.2C363.4 477 361.7 481.2 360.2 485.3C359.5 478.3 359.1 471.2 358.2 464.2L357.7 463.2C357.2 462.1 356.5 461.1 355.2 460.9C354.3 461.1 354.1 462.2 354.2 462.7C355.3 465.3 355.5 468.2 355.7 471C356 476.1 356.9 484.8 357.1 491.4C357.1 493.3 357.2 496.8 357.2 498.6C357.6 500 359.6 499.8 360 498.7C360.7 493.9 361.7 489.1 363.3 484.6C365.2 479 367.7 473.7 371.4 469C372.4 467.8 373.5 466.1 374.8 465.3C375.9 464.7 377 464.6 377.9 465.5C378.3 465.8 378.5 466.3 378.7 466.8C378.9 467.3 379 467.8 379.1 468.4C380 477.1 380.2 486.5 379.6 495.2C379.7 495.5 379.7 495.8 379.7 496.1C379.6 497 379.4 498.1 379.6 499C379.9 499.9 381.3 501 382.4 500.1Z" fill="none" opacity="1" stroke="#000000" stroke-linecap="butt" stroke-linejoin="round" stroke-width="5"/>
<path d="M422.2 492.1C422.6 492.6 423.7 493.2 424.8 492.6C424.7 492.1 424.5 491.7 424.4 491.4C424 490.4 423.4 489.5 423.2 488.4C421.3 479.5 421.4 470.2 421.7 461C422 452.3 423.7 444.1 424.8 435.6C424.9 434.6 423.1 432.9 422 434.6C421.1 437.5 420.6 440.5 420.2 443.5C419.8 446.5 419.5 449.6 419 452.7C418.6 455.8 418.6 459 418.4 462.1C418.3 464.3 417.9 466.5 417.2 468.4C416.9 467.2 416.5 466.1 415.7 465.1C414.2 463.3 411.8 462 409.4 461.9C405.2 461.6 401.8 464.9 399.7 468.3C396.9 472.7 394.6 478 393.8 483.5C393.1 487.8 393.3 492.2 394.8 496.6C396 498.6 398 500 400.2 500.2C403.4 500.5 406.1 498.1 407.9 495.5C412.6 488.7 415.7 481.2 418.3 473.5C418.7 477.3 418.6 481.1 419.2 484.7C419.7 487.4 420.4 489.9 422.2 492.1ZM413.9 473.5C413.9 473.9 414.2 474.7 414.7 474.9C412.2 481.8 409.3 488.6 404.6 494.4C403.2 496.1 401.6 497.2 399.7 496.6C398.5 496 397.8 495 397.4 493.7C397 492.6 396.8 491.2 396.8 489.8C396.8 488.4 396.9 487 396.9 485.7C397.9 480.6 399.2 475.7 401.8 471.3C403 469.4 404.5 467.6 406.4 465.9C407.5 465.2 409 464.9 410.3 465.4C411.6 465.8 412.8 466.6 413.4 467.8C414.2 469.5 413.9 471.7 413.9 473.5Z" fill="none" opacity="1" stroke="#000000" stroke-linecap="butt" stroke-linejoin="round" stroke-width="5"/>
<path d="M479.7 497.6C481.3 495.8 482.6 493.6 483 491.6L483.4 489.8C483.5 489.2 483.5 488.5 482.7 487.8C481.9 488.5 481.5 489.3 481.2 490C480.9 490.7 480.7 491.5 480.3 492.2C479.5 493.3 478.7 494.6 477.6 495.5C476.6 496.3 475.6 497 474.4 496.9C473.8 496.9 472.6 495.8 472.5 495.2C470.5 488.4 471.6 474.9 472.9 464.8C473 464 473.1 463 472.4 462.2C471.7 461.8 470.2 461.4 469.7 462.2C467.2 466 465.3 469.9 463.1 473.8C460.9 477.7 458.5 481.5 455.4 485C455.1 485.4 455.2 485.8 455.5 486C455.8 486.2 456.2 486.3 456.5 486.3C457.2 486.2 458 485.7 458.5 485.3C460.9 482.7 462.8 480 464.5 477.2C466 474.7 467.4 472.3 468.8 469.7C468.1 477.9 467.7 486.1 468.8 494.3C469.1 496.3 469.7 498 471.3 499.4C472.2 500.2 474.3 500.3 475.5 500.2C477.1 499.8 478.6 498.8 479.7 497.6ZM479.9 442.2C480.5 442.5 481.2 442.9 482.2 443.2C482.4 442 481.7 441.1 481.1 440.6C476.7 436.6 471.4 434.5 465.4 434.4C464.4 435.2 464.5 437.2 465.5 437.3C469.9 438.2 474 439.3 478 441.1L479.9 442.2Z" fill="none" opacity="1" stroke="#000000" stroke-linecap="butt" stroke-linejoin="round" stroke-width="5"/>
<path d="M503.6 498.4C507.1 497.1 511.2 495 513.5 491.6C514.2 490.6 513.9 489.1 513.6 488.1C512.9 486.6 511.5 485.5 510.2 485.1C507.9 484.3 505.6 483.9 503.2 483.5L496 482.3C495 482.1 494 481.8 493.3 481.1C492.8 480.7 492.6 479.9 492.9 479.2C493.4 477.3 494.3 475.5 495.3 473.7C497 470.8 499.5 467.7 502.2 465.7C503 465.1 503.8 464.7 504.8 464.7C505.5 464.6 506.3 464.9 506.8 465.3C507.3 465.6 507.7 466 508.1 466.4C508.5 466.8 508.8 467.3 509.3 467.8C510.1 467.5 510.6 466.9 510.6 466.3C510.5 464.8 509.5 463.2 508.4 462.5C507.3 461.8 506.2 461.4 504.9 461.4C502.2 461.8 499.8 463.2 497.8 464.9C493.9 468.3 491.2 473.7 489.5 478C488.9 480.3 489.5 482.7 491.4 484.1C493.3 485.2 495.5 485.7 497.7 486C500.6 486.5 503.5 486.8 506.3 487.5C507.7 487.9 509.3 488 510.3 489.1C510.5 489.7 510.4 490.4 509.9 490.9C506.1 494.2 501.7 495.9 496.8 496.7C495 497 493.1 497.3 491.3 496.7C490.3 496.4 490.1 495.6 490 494.6C490 493.3 490.5 491.8 490.5 490.6C490.5 490.4 490.3 490.1 489.9 490C489.7 490 489.4 490 489.1 490.2C488.3 490.8 487.9 491.7 487.6 492.6C487.4 493.6 487.1 496 487.5 497.1C488.1 498.5 489.6 499.4 490.9 500C495.2 500.6 499.7 499.9 503.6 498.4Z" fill="none" opacity="1" stroke="#000000" stroke-linecap="butt" stroke-linejoin="round" stroke-width="5"/>
<path d="M574.2 464.6C574.3 464 574.4 463.1 574.3 462.4C574.2 461.9 573.9 461.5 573.6 461.4C573.2 461.3 572.8 461.4 572.6 461.8C568.7 473.8 564.4 485.6 557.6 496.4C557.4 496.5 557.1 496.4 556.9 496.2C554 491 552.4 485.6 551 479.3C549.8 474 549.5 468.3 549.3 462.5C549 462 548.6 461.4 547.8 461.2C547.2 461.3 546.3 461.6 546.1 462.3C545.9 467.9 546.2 473.4 547.2 478.7C548 483.2 549.2 487.6 550.9 491.7C552.2 494.8 553.8 498.1 556.5 500.5C557.9 500.7 559.1 500.1 559.9 499.1C566.5 488.3 571 476.7 574.2 464.6Z" fill="none" opacity="1" stroke="#000000" stroke-linecap="butt" stroke-linejoin="round" stroke-width="5"/>
<path d="M607.3 490.9C608.3 489.3 609.5 486.9 609.6 485C609.6 484.6 608.7 483.6 608.2 484.1C607 487.5 604.5 490.4 601.5 493C599.9 494.4 597.8 495.7 595.6 496.5C593.3 497.4 590.8 497.6 588.4 496.2C585.8 494.7 584.9 491.9 584.4 489.1C586.1 488 588 486.7 589.9 485.3C591.8 483.9 593.7 482.4 595.3 480.9C595.6 480.5 596.1 480 596.5 479.6L598 478.2C599.1 477.2 600.2 476.1 601.1 475.1C602.2 473.8 603.1 472.1 602.7 470C601.3 466.8 598.7 463.1 595.2 461.9C592.5 461 588.3 462.2 586.1 464C583.7 466.7 582.1 470.2 581.4 473.7C580.4 478.2 580.4 483 580.7 487.5C579.9 487.9 578.9 488.6 578.2 488.9C577.8 489.1 577.3 489.2 576.7 489.4C576.1 489.5 575.5 489.7 574.9 490C574.4 490.8 574.8 491.7 575.2 492.1C576.5 492.7 577.4 492.7 578.5 492.4C579.2 492.2 580.3 491.6 581.1 491C581.4 492 581.7 493 582.2 493.9C582.7 495 583.5 496.1 584.7 497.4C586.8 499.6 590 500.7 593.3 500.4C596.4 500.1 599.4 498.6 602.1 496.5C604.1 494.9 605.9 493 607.3 490.9ZM595.2 465.6C597.1 466.9 598.5 469 599.4 471C599.1 473 597.2 474.4 595.9 475.7C594.2 477.5 592.2 479.3 590 480.9C588 482.4 586 483.8 584.1 485.1C583.9 481.3 584 477.5 585 474C585.7 471.3 586.7 468.9 588.3 466.8C589.9 465.3 593.2 464.9 595.2 465.6Z" fill="none" opacity="1" stroke="#000000" stroke-linecap="butt" stroke-linejoin="round" stroke-width="5"/>
<path d="M641.1 464.8C641.7 464.8 642.5 464.2 642.2 463.2C640.9 462.6 639.3 462.8 638.2 463C635.6 463.5 634.4 464 631.9 464.9C629.6 465.8 626 467.9 624.2 469.5C622.1 471.4 619.6 473.8 617.8 476.7C617.7 472.7 618.1 469 619.4 466.1C619.4 465.7 619.6 465.5 619.8 465.1C620.4 464.1 621.4 463.3 621.4 461.9C620.8 461.1 620 461 619.3 461C618 461.5 617.3 462.3 616.8 463.3C616.3 464.2 615.9 465.3 615.4 466.2C614.2 470.5 613.9 474.8 614.4 479C615.1 485.8 617.5 492.3 619.8 498.8L621 500.1C621.6 500.7 622.6 500.4 622.9 499.5C622.1 496.6 621.1 493.9 620.3 491.1C619.5 488.4 618.8 485.6 618.5 482.6C619.8 479 622.1 475.9 624.8 473.3C627.5 470.7 630 468.5 632.9 467.3C635.9 466 638.1 465.4 641.1 464.8Z" fill="none" opacity="1" stroke="#000000" stroke-linecap="butt" stroke-linejoin="round" stroke-width="5"/>
<path d="M669.6 510.3C670.9 507.9 671.9 505.2 671.9 502.4C670.2 489.8 669 476.3 669.6 463.5C669.5 462.8 669.2 462.1 668.6 461.6C667.6 461.1 666.9 461.5 666.3 462C660.9 470.9 655.1 479.6 647.9 487.6C647.7 487.8 647.2 487.7 647.2 487.6C647 486.2 647 484.8 647 483.3C647 481.9 647.1 480.3 647.1 478.9C647 475.5 647.7 472.4 647.8 469.2C647.9 467.3 647.9 465.5 647.4 463.4C646.8 462.4 646.1 461.6 645.1 461.2C644 461 642.6 461.8 643.1 463.2C643.3 463.5 643.4 463.8 643.6 464L644.1 464.8C644.4 465.4 644.6 465.8 644.4 466.4C644.3 470.1 643.9 473.8 643.7 477.5C643.5 481.2 643.5 484.9 643.9 488.7C644.4 489.5 645 490.5 646.2 490.7C647.5 491 649 490.6 649.9 489.4C655.8 482 661.2 474.5 666 466.6C666.2 478.3 667 489.9 668.4 501.1C668.8 504.1 668 506.8 666.7 509.2C665.5 511.2 663.5 513.7 661.5 515.3C657.3 518.7 652.8 521 647.4 520.9C644.8 520.8 641.9 520.3 639.6 519C638.5 518.4 637.6 517.5 636.6 516.8L634.9 515.7C635.6 517.8 636.3 519 637.2 520C639.8 522.7 643.8 523.7 647.4 523.8C656.5 524.1 665.2 518.3 669.6 510.3Z" fill="none" opacity="1" stroke="#000000" stroke-linecap="butt" stroke-linejoin="round" stroke-width="5"/>
<path d="M730 481.8C732.2 479.5 733.8 476.8 735 474C736.3 470.9 735.9 466.9 733.8 464.4C732.4 462.7 730.6 461.9 728.7 461.4C725.5 460.6 722.7 461.4 720.1 462.7C715.5 465.1 711.8 469.3 709.4 473.9C707.8 477 706.9 480.5 707.4 484.3C707.8 487 710.2 489.5 712.6 490.5C715 491.4 717.2 491.1 719.4 490.2C722.2 489.1 724.3 487.5 726.6 485.6C723.7 494.2 721.3 503 719.3 512C718.9 513.9 718.8 516 719.2 517.9C719.5 519.7 720.5 521.4 722 522.6C723.6 523.9 726.2 523.7 727.8 522.8C730.1 521.2 731.8 519.1 732.8 516.6C733.7 514.1 733.8 511.4 733.1 508.6C732.5 506.4 730.6 504.1 728.4 503.2C730.3 502.4 732 501.4 733.8 500.3C734.3 499.8 734.3 499 733.7 498.4L729.2 499.6C727.9 500 726.7 500.3 725.4 500.5C726.8 495 728.6 489.7 730.4 484.6C730.7 483.6 730.4 482.5 730 481.8ZM731.3 466.4C732.4 467.6 732.7 469 732.6 470.5C732.5 472.5 731.6 474.8 730.8 476.6C728.7 480 725.7 483.7 722.2 485.8C719.7 487.3 717 488 714.2 487.5C712.2 486.9 710.5 484.9 710.4 482.9C710.2 480.3 710.9 478 712.1 475.8C714.2 471.9 717.1 468.2 720.8 465.9C723 464.5 725.3 464 728 464.5C729.2 464.7 730.4 465.4 731.3 466.4ZM729.9 507.7C731.2 509.4 731.3 512.6 730.4 514.7C729.5 517 728.1 519.4 725.7 520.5C724.4 520.8 723.1 519.7 722.7 518.5C722 517.2 722.1 515.5 722.3 513.9C722.8 510.7 723.5 507.7 724.3 504.6C726.5 504.8 728.5 505.9 729.9 507.7Z" fill="none" opacity="1" stroke="#000000" stroke-linecap="butt" stroke-linejoin="round" stroke-width="5"/>
<path d="M773.5 496.9C773.6 496.7 773.9 496.2 773.5 495.9C771.7 494.6 770.7 493 769.9 490.9C769 488.3 768.5 484 768.5 479.3C768.4 474.6 768.7 469.4 768.9 465C768.8 464.4 768.1 463.6 767.2 463.8C766.5 463.8 766.2 464.4 765.9 464.9C765.9 465 765.8 465.2 765.7 465.3C764.3 469.8 763.1 474.4 761.4 478.7C760.1 482.1 758.7 485.4 756.6 488.3C755.9 489.2 755.2 490.3 754.5 491.3C753.7 492.3 752.9 493.3 752 494.1C750.6 495.4 749 496.2 747.2 496C745.5 495.6 744.8 493.9 744.5 492.4C744.3 487.9 744.7 483.4 745.1 478.9C745.6 473.7 746 468.5 745.6 463.1C745.2 462.1 743.9 460.5 742.3 461.6C742.7 467.4 742.3 473 741.8 478.6C741.5 482.5 741.1 486.4 741 490.4C740.9 493.2 741.5 496 743.5 498.2C745.4 499.7 748.7 500.1 750.8 498.7C753.8 496.7 756.2 494.2 758.2 491.4C761.7 486.5 763.7 480.7 765.6 475C765.4 481.2 765.7 488.2 767.6 493.1C768.2 494.5 770.4 496.8 772.5 497.3C772.9 497.3 773.3 497.1 773.5 496.9Z" fill="none" opacity="1" stroke="#000000" stroke-linecap="butt" stroke-linejoin="round" stroke-width="5"/>
<path d="M798.8 497.6C800.4 495.8 801.7 493.6 802.1 491.6L802.5 489.8C802.6 489.2 802.6 488.5 801.8 487.8C801 488.5 800.6 489.3 800.3 490C800 490.7 799.8 491.5 799.4 492.2C798.6 493.3 797.8 494.6 796.7 495.5C795.7 496.3 794.7 497 793.5 496.9C792.9 496.9 791.7 495.8 791.6 495.2C789.6 488.4 790.7 474.9 792 464.8C792.1 464 792.2 463 791.5 462.2C790.8 461.8 789.3 461.4 788.8 462.2C786.3 466 784.4 469.9 782.2 473.8C780 477.7 777.6 481.5 774.5 485C774.2 485.4 774.3 485.8 774.6 486C774.9 486.2 775.3 486.3 775.6 486.3C776.3 486.2 777.1 485.7 777.6 485.3C780 482.7 781.9 480 783.6 477.2C785.1 474.7 786.5 472.3 787.9 469.7C787.2 477.9 786.8 486.1 787.9 494.3C788.2 496.3 788.8 498 790.4 499.4C791.3 500.2 793.4 500.3 794.6 500.2C796.2 499.8 797.7 498.8 798.8 497.6ZM799 442.2C799.6 442.5 800.3 442.9 801.3 443.2C801.5 442 800.8 441.1 800.2 440.6C795.8 436.6 790.5 434.5 784.5 434.4C783.5 435.2 783.6 437.2 784.6 437.3C789 438.2 793.1 439.3 797.1 441.1L799 442.2Z" fill="none" opacity="1" stroke="#000000" stroke-linecap="butt" stroke-linejoin="round" stroke-width="5"/>
<path d="M837.1 490.9C838.1 489.3 839.3 486.9 839.4 485C839.4 484.6 838.5 483.6 838 484.1C836.8 487.5 834.3 490.4 831.3 493C829.7 494.4 827.6 495.7 825.4 496.5C823.1 497.4 820.6 497.6 818.2 496.2C815.6 494.7 814.7 491.9 814.2 489.1C815.9 488 817.8 486.7 819.7 485.3C821.6 483.9 823.5 482.4 825.1 480.9C825.4 480.5 825.9 480 826.3 479.6L827.8 478.2C828.9 477.2 830 476.1 830.9 475.1C832 473.8 832.9 472.1 832.5 470C831.1 466.8 828.5 463.1 825 461.9C822.3 461 818.1 462.2 815.9 464C813.5 466.7 811.9 470.2 811.2 473.7C810.2 478.2 810.2 483 810.5 487.5C809.7 487.9 808.7 488.6 808 488.9C807.6 489.1 807.1 489.2 806.5 489.4C805.9 489.5 805.3 489.7 804.7 490C804.2 490.8 804.6 491.7 805 492.1C806.3 492.7 807.2 492.7 808.3 492.4C809 492.2 810.1 491.6 810.9 491C811.2 492 811.5 493 812 493.9C812.5 495 813.3 496.1 814.5 497.4C816.6 499.6 819.8 500.7 823.1 500.4C826.2 500.1 829.2 498.6 831.9 496.5C833.9 494.9 835.7 493 837.1 490.9ZM825 465.6C826.9 466.9 828.3 469 829.2 471C828.9 473 827 474.4 825.7 475.7C824 477.5 822 479.3 819.8 480.9C817.8 482.4 815.8 483.8 813.9 485.1C813.7 481.3 813.8 477.5 814.8 474C815.5 471.3 816.5 468.9 818.1 466.8C819.7 465.3 823 464.9 825 465.6Z" fill="none" opacity="1" stroke="#000000" stroke-linecap="butt" stroke-linejoin="round" stroke-width="5"/>
<path d="M883.6 484.2C884 483.2 884.4 482.2 884.4 481.1C884.4 480.8 884.1 480.5 883.9 480.4C883.7 480.3 883.2 480.1 883 480.6C882.5 481.7 881.9 482.7 881.3 483.8C880.6 484.9 880 485.9 879.3 487C875.8 492.7 869.9 497.3 862 496.8C859.7 496.7 857.1 494.4 856.7 491.9C855.3 483.9 855.4 474.4 856.1 466.3C858.2 465.6 860.8 465.2 863.3 464.9C865.9 464.6 868.5 464.4 870.5 464.3C871.1 464 871.7 462.8 870.9 462.2C868.4 461.4 866 461.4 863.6 461.6C861.2 461.9 858.7 462.4 856.4 462.6C856.7 460.6 857.2 457.4 857.4 454.4L857.7 450.7C857.9 449.9 858 449.3 858.2 449C858.5 449.1 858.8 449.3 859.1 449.6C860.4 450.6 861.1 451.6 863 451.8C862.6 450.7 862.2 450 861.8 449.4C861.4 448.7 860.9 448.1 860.4 447.5L859.9 446.9C859.3 446.2 858.8 445.4 858 445C857.2 444.4 856 444.3 855.3 445.5C854.9 446.2 854.7 447.2 854.6 448L852.9 463.5C850.7 464.2 846.2 465.6 844 466.2C843.5 466.5 842.6 466.5 841.9 466.4C840.9 466.3 840.4 467.2 840.5 467.9C841.1 469.2 842.4 469.8 843.7 469.8C846.8 468.9 849.7 467.8 852.7 467.1C852.1 476.4 851.9 485.7 853.9 494.4C855.5 497.7 858.7 500.2 862.2 500.2C871.5 500.3 878.1 494 882 487C882.5 486.2 883.1 485.2 883.6 484.2Z" fill="none" opacity="1" stroke="#000000" stroke-linecap="butt" stroke-linejoin="round" stroke-width="5"/>
</g>
</g>
</svg>
