<?xml version="1.0" encoding="UTF-8" standalone="no"?>
<!DOCTYPE svg PUBLIC "-//W3C//DTD SVG 1.1//EN" "http://www.w3.org/Graphics/SVG/1.1/DTD/svg11.dtd">
<!-- Created with Vectornator (http://vectornator.io/) -->
<svg height="100%" stroke-miterlimit="10" style="fill-rule:nonzero;clip-rule:evenodd;stroke-linecap:round;stroke-linejoin:round;" version="1.1" viewBox="44.1375 429.8 913.022 96.5117" width="100%" xml:space="preserve" xmlns="http://www.w3.org/2000/svg" xmlns:xlink="http://www.w3.org/1999/xlink">
<defs/>
<g id="Layer-3">
<g opacity="1">
<path d="M85.05 470.2C87.25 469.5 89.45 468.6 91.35 467.4C91.65 467.3 91.75 465.9 91.25 465.9C88.75 466.3 85.75 466.9 84.15 467.2C80.55 456.5 76.35 446 71.85 435.7L72.25 434.5C72.35 434 72.35 433.4 72.05 432.9C71.45 432.4 69.95 431.8 69.35 433C62.95 446.5 58.15 460.9 53.65 475.2C53.35 475.4 52.95 475.5 52.55 475.7L51.05 476.1C50.35 476.5 49.75 477.3 49.85 478C50.05 478.7 50.55 479 51.05 479.2C51.45 479.3 51.85 479.3 52.25 479.3C50.35 485.5 48.45 491.8 46.75 498.1C46.45 499.2 46.75 500.3 47.65 501.2C48.25 501.3 48.95 501.4 49.45 501C51.45 493.2 53.55 485.7 56.15 478.3C64.55 475.7 73.05 473.1 81.65 471.2C82.55 475.5 84.15 479.8 84.95 484.2C85.55 487.5 85.75 490.9 84.75 494.2C84.55 494.9 85.65 495.6 86.25 495.2C86.85 494.9 87.25 494.5 87.55 494C87.85 493.6 87.95 493.1 88.25 492.7C88.85 489.7 88.85 486.9 88.45 484.2C87.65 479.4 85.85 474.8 85.05 470.2ZM70.05 440.2C74.15 449.2 77.55 458.5 80.55 468C72.65 469.7 65.15 471.9 57.45 474.1C61.25 462.6 65.15 451.1 70.05 440.2Z" fill="none" opacity="1" stroke="#000000" stroke-linecap="butt" stroke-linejoin="round" stroke-width="5"/>
<path d="M154.15 497.9C156.55 496.1 158.45 493.4 159.65 490.7C159.75 490.3 159.95 489.9 159.95 489.5C160.05 489 160.05 488.5 159.45 487.9C158.75 487.9 158.35 488.7 158.15 489.3C156.95 491.5 154.55 494.5 152.55 495.8C150.35 497.1 148.55 497.7 145.85 497.1C143.25 496.2 141.25 494.4 139.85 492.2C137.85 489.2 136.85 485.5 136.25 482C141.55 473.9 146.05 465.4 147.95 455.9C148.65 452.2 149.05 448.5 148.95 444.5C148.85 441.1 148.55 437.2 146.45 434.2C145.35 433.2 143.15 433.3 142.15 434.5C137.95 439.6 135.25 445.5 133.75 451.8C131.65 461 131.85 471.1 132.75 480.8C131.25 482.9 129.45 485 127.45 486.8L121.45 492.3C120.95 492.9 121.05 493.9 121.65 494.3C122.35 494.8 123.35 494.7 123.95 494.3C127.45 491.9 130.75 488.7 133.55 485.4C134.15 487.3 134.65 488.9 135.35 490.5C136.05 492.2 136.95 493.8 138.35 495.5C140.55 498.1 143.65 500.3 147.05 500.4C149.95 500.5 152.05 499.4 154.15 497.9ZM143.55 436.7C143.95 436.2 144.95 436.4 145.15 437.3C146.25 443.4 146.05 449.3 144.85 454.9C143.15 462.5 139.85 469.6 135.75 476C135.35 468.5 135.35 460.8 136.85 453.6C138.05 447.5 140.05 441.7 143.55 436.7Z" fill="none" opacity="1" stroke="#000000" stroke-linecap="butt" stroke-linejoin="round" stroke-width="5"/>
<path d="M192.95 490.9C193.95 489.3 195.15 486.9 195.25 485C195.25 484.6 194.35 483.6 193.85 484.1C192.65 487.5 190.15 490.4 187.15 493C185.55 494.4 183.45 495.7 181.25 496.5C178.95 497.4 176.45 497.6 174.05 496.2C171.45 494.7 170.55 491.9 170.05 489.1C171.75 488 173.65 486.7 175.55 485.3C177.45 483.9 179.35 482.4 180.95 480.9C181.25 480.5 181.75 480 182.15 479.6L183.65 478.2C184.75 477.2 185.85 476.1 186.75 475.1C187.85 473.8 188.75 472.1 188.35 470C186.95 466.8 184.35 463.1 180.85 461.9C178.15 461 173.95 462.2 171.75 464C169.35 466.7 167.75 470.2 167.05 473.7C166.05 478.2 166.05 483 166.35 487.5C165.55 487.9 164.55 488.6 163.85 488.9C163.45 489.1 162.95 489.2 162.35 489.4C161.75 489.5 161.15 489.7 160.55 490C160.05 490.8 160.45 491.7 160.85 492.1C162.15 492.7 163.05 492.7 164.15 492.4C164.85 492.2 165.95 491.6 166.75 491C167.05 492 167.35 493 167.85 493.9C168.35 495 169.15 496.1 170.35 497.4C172.45 499.6 175.65 500.7 178.95 500.4C182.05 500.1 185.05 498.6 187.75 496.5C189.75 494.9 191.55 493 192.95 490.9ZM180.85 465.6C182.75 466.9 184.15 469 185.05 471C184.75 473 182.85 474.4 181.55 475.7C179.85 477.5 177.85 479.3 175.65 480.9C173.65 482.4 171.65 483.8 169.75 485.1C169.55 481.3 169.65 477.5 170.65 474C171.35 471.3 172.35 468.9 173.95 466.8C175.55 465.3 178.85 464.9 180.85 465.6Z" fill="none" opacity="1" stroke="#000000" stroke-linecap="butt" stroke-linejoin="round" stroke-width="5"/>
<path d="M230.95 499.1C231.85 499.3 233.45 499.5 233.35 498.2C229.25 494.2 228.25 490.1 226.55 484.8C225.55 481.5 224.75 478.3 224.35 474.7C224.05 473.8 223.85 473.2 223.45 472.5C223.25 470.8 223.25 468.7 222.25 467.3C221.35 464.9 219.65 462.8 217.25 461.7C216.25 461.2 215.25 461.2 214.25 461.5C213.35 461.8 212.45 462.3 211.55 462.8C205.05 468.3 200.85 475.3 198.85 482.9C198.05 485.8 197.45 489.7 197.85 493.1C198.25 495.8 199.35 498.2 201.85 499.7C204.05 501.1 207.15 500.5 209.15 498.9C215.45 493.9 219.05 486.9 221.75 480.1C222.25 482.3 222.75 484.5 223.45 486.6C225.15 491.4 226.55 495.9 230.95 499.1ZM219.55 468.4C220.15 469.5 220.85 471.3 221.15 472.3C220.45 473.3 220.35 474.5 220.15 475.6C217.55 483.4 213.45 491 206.35 496.5C205.15 496.9 203.55 496.7 202.65 495.8C201.85 494.7 201.45 493.4 201.35 491.9C201.25 490.4 201.45 488.8 201.55 487.3C202.45 482.8 203.95 478.5 206.15 474.5C207.95 471.4 210.75 467.6 213.85 465.5C214.65 465 215.45 464.7 216.45 465C217.75 465.7 218.75 467 219.55 468.4Z" fill="none" opacity="1" stroke="#000000" stroke-linecap="butt" stroke-linejoin="round" stroke-width="5"/>
<path d="M261.15 464.3C261.95 464 263.05 462.6 261.75 461.7C259.65 461.3 257.55 461.3 255.45 461.5C253.55 461.7 251.65 462.1 249.85 462.3C249.75 457.5 250.15 452.7 250.15 447.9C250.15 445.1 250.55 442.5 251.75 440.1C252.65 438.2 254.55 436.5 256.55 436.2C257.55 436 258.55 436 259.55 436.3C260.25 436.6 260.75 435.7 260.75 435.2C259.55 433.9 257.85 433.5 256.35 433.3C253.25 433.4 250.55 435.5 249.05 438.3C247.45 441.2 247.05 444.6 246.85 448C246.65 452.8 246.75 458.1 246.55 463.1C242.95 464.2 238.15 466.2 235.65 467.8C234.65 468.4 233.75 469.3 233.75 470.9C234.05 471.4 234.65 472.1 235.45 471.9C239.25 469.5 242.35 467.7 246.55 466.7C246.65 475.3 246.95 491.8 246.75 500.1C246.65 504.1 246.15 507.8 245.05 511.4C243.95 515 242.15 518.6 239.95 521.6C239.65 522 239.75 522.6 240.15 522.8C240.55 523 241.15 523 241.85 522.5C244.65 520.5 247.25 515 248.05 512.4C249.25 508.6 249.65 504.5 249.95 500.4C250.15 496.4 249.95 492.3 249.95 488.3C249.95 482.5 249.55 471 249.85 465.8C253.95 464.8 257.25 464.4 261.15 464.3Z" fill="none" opacity="1" stroke="#000000" stroke-linecap="butt" stroke-linejoin="round" stroke-width="5"/>
<path d="M318.45 464.3C319.25 464 320.35 462.6 319.05 461.7C316.95 461.3 314.85 461.3 312.75 461.5C310.85 461.7 308.95 462.1 307.15 462.3C307.05 457.5 307.45 452.7 307.45 447.9C307.45 445.1 307.85 442.5 309.05 440.1C309.95 438.2 311.85 436.5 313.85 436.2C314.85 436 315.85 436 316.85 436.3C317.55 436.6 318.05 435.7 318.05 435.2C316.85 433.9 315.15 433.5 313.65 433.3C310.55 433.4 307.85 435.5 306.35 438.3C304.75 441.2 304.35 444.6 304.15 448C303.95 452.8 304.05 458.1 303.85 463.1C300.25 464.2 295.45 466.2 292.95 467.8C291.95 468.4 291.05 469.3 291.05 470.9C291.35 471.4 291.95 472.1 292.75 471.9C296.55 469.5 299.65 467.7 303.85 466.7C303.95 475.3 304.25 491.8 304.05 500.1C303.95 504.1 303.45 507.8 302.35 511.4C301.25 515 299.45 518.6 297.25 521.6C296.95 522 297.05 522.6 297.45 522.8C297.85 523 298.45 523 299.15 522.5C301.95 520.5 304.55 515 305.35 512.4C306.55 508.6 306.95 504.5 307.25 500.4C307.45 496.4 307.25 492.3 307.25 488.3C307.25 482.5 306.85 471 307.15 465.8C311.25 464.8 314.55 464.4 318.45 464.3Z" fill="none" opacity="1" stroke="#000000" stroke-linecap="butt" stroke-linejoin="round" stroke-width="5"/>
<path d="M354.45 497.9C356.85 496.1 358.75 493.4 359.95 490.7C360.05 490.3 360.25 489.9 360.25 489.5C360.35 489 360.35 488.5 359.75 487.9C359.05 487.9 358.65 488.7 358.45 489.3C357.25 491.5 354.85 494.5 352.85 495.8C350.65 497.1 348.85 497.7 346.15 497.1C343.55 496.2 341.55 494.4 340.15 492.2C338.15 489.2 337.15 485.5 336.55 482C341.85 473.9 346.35 465.4 348.25 455.9C348.95 452.2 349.35 448.5 349.25 444.5C349.15 441.1 348.85 437.2 346.75 434.2C345.65 433.2 343.45 433.3 342.45 434.5C338.25 439.6 335.55 445.5 334.05 451.8C331.95 461 332.15 471.1 333.05 480.8C331.55 482.9 329.75 485 327.75 486.8L321.75 492.3C321.25 492.9 321.35 493.9 321.95 494.3C322.65 494.8 323.65 494.7 324.25 494.3C327.75 491.9 331.05 488.7 333.85 485.4C334.45 487.3 334.95 488.9 335.65 490.5C336.35 492.2 337.25 493.8 338.65 495.5C340.85 498.1 343.95 500.3 347.35 500.4C350.25 500.5 352.35 499.4 354.45 497.9ZM343.85 436.7C344.25 436.2 345.25 436.4 345.45 437.3C346.55 443.4 346.35 449.3 345.15 454.9C343.45 462.5 340.15 469.6 336.05 476C335.65 468.5 335.65 460.8 337.15 453.6C338.35 447.5 340.35 441.7 343.85 436.7Z" fill="none" opacity="1" stroke="#000000" stroke-linecap="butt" stroke-linejoin="round" stroke-width="5"/>
<path d="M384.95 495.6C388.15 492.1 390.35 487.6 391.25 482.9C392.15 478 391.65 473 389.55 468.5C388.75 466.7 387.35 464.8 385.55 463.5C384.55 462.8 383.35 462.2 382.05 462C381.75 461.3 380.75 461 380.15 461.1C377.15 461.8 374.55 463.8 372.25 466C368.35 469.7 365.55 474.3 364.05 479.2C362.65 484 362.55 489.1 364.35 494.2C365.45 497.2 368.55 499.8 371.65 500.4C376.95 501.3 381.45 499.3 384.95 495.6ZM382.55 465.1C385.25 467.1 387.35 469.7 387.85 472.8C388.45 476.3 388.45 480 387.65 483.4C386.75 487.7 384.65 491.6 381.15 494.6C378.85 496.6 375.65 497.7 372.35 496.9C370.05 496.4 367.75 494.6 367.15 492.2C366.15 487.7 366.35 483.2 367.65 479.2C369.35 474.2 372.15 469.5 376.85 466.5L378.25 465.6C378.75 465.3 379.25 465 379.75 464.6C380.55 464.1 381.55 464.1 382.55 465.1Z" fill="none" opacity="1" stroke="#000000" stroke-linecap="butt" stroke-linejoin="round" stroke-width="5"/>
<path d="M428.75 499.1C429.65 499.3 431.25 499.5 431.15 498.2C427.05 494.2 426.05 490.1 424.35 484.8C423.35 481.5 422.55 478.3 422.15 474.7C421.85 473.8 421.65 473.2 421.25 472.5C421.05 470.8 421.05 468.7 420.05 467.3C419.15 464.9 417.45 462.8 415.05 461.7C414.05 461.2 413.05 461.2 412.05 461.5C411.15 461.8 410.25 462.3 409.35 462.8C402.85 468.3 398.65 475.3 396.65 482.9C395.85 485.8 395.25 489.7 395.65 493.1C396.05 495.8 397.15 498.2 399.65 499.7C401.85 501.1 404.95 500.5 406.95 498.9C413.25 493.9 416.85 486.9 419.55 480.1C420.05 482.3 420.55 484.5 421.25 486.6C422.95 491.4 424.35 495.9 428.75 499.1ZM417.35 468.4C417.95 469.5 418.65 471.3 418.95 472.3C418.25 473.3 418.15 474.5 417.95 475.6C415.35 483.4 411.25 491 404.15 496.5C402.95 496.9 401.35 496.7 400.45 495.8C399.65 494.7 399.25 493.4 399.15 491.9C399.05 490.4 399.25 488.8 399.35 487.3C400.25 482.8 401.75 478.5 403.95 474.5C405.75 471.4 408.55 467.6 411.65 465.5C412.45 465 413.25 464.7 414.25 465C415.55 465.7 416.55 467 417.35 468.4Z" fill="none" opacity="1" stroke="#000000" stroke-linecap="butt" stroke-linejoin="round" stroke-width="5"/>
<path d="M474.75 484.2C475.15 483.2 475.55 482.2 475.55 481.1C475.55 480.8 475.25 480.5 475.05 480.4C474.85 480.3 474.35 480.1 474.15 480.6C473.65 481.7 473.05 482.7 472.45 483.8C471.75 484.9 471.15 485.9 470.45 487C466.95 492.7 461.05 497.3 453.15 496.8C450.85 496.7 448.25 494.4 447.85 491.9C446.45 483.9 446.55 474.4 447.25 466.3C449.35 465.6 451.95 465.2 454.45 464.9C457.05 464.6 459.65 464.4 461.65 464.3C462.25 464 462.85 462.8 462.05 462.2C459.55 461.4 457.15 461.4 454.75 461.6C452.35 461.9 449.85 462.4 447.55 462.6C447.85 460.6 448.35 457.4 448.55 454.4L448.85 450.7C449.05 449.9 449.15 449.3 449.35 449C449.65 449.1 449.95 449.3 450.25 449.6C451.55 450.6 452.25 451.6 454.15 451.8C453.75 450.7 453.35 450 452.95 449.4C452.55 448.7 452.05 448.1 451.55 447.5L451.05 446.9C450.45 446.2 449.95 445.4 449.15 445C448.35 444.4 447.15 444.3 446.45 445.5C446.05 446.2 445.85 447.2 445.75 448L444.05 463.5C441.85 464.2 437.35 465.6 435.15 466.2C434.65 466.5 433.75 466.5 433.05 466.4C432.05 466.3 431.55 467.2 431.65 467.9C432.25 469.2 433.55 469.8 434.85 469.8C437.95 468.9 440.85 467.8 443.85 467.1C443.25 476.4 443.05 485.7 445.05 494.4C446.65 497.7 449.85 500.2 453.35 500.2C462.65 500.3 469.25 494 473.15 487C473.65 486.2 474.25 485.2 474.75 484.2Z" fill="none" opacity="1" stroke="#000000" stroke-linecap="butt" stroke-linejoin="round" stroke-width="5"/>
<path d="M493.85 498.4C497.35 497.1 501.45 495 503.75 491.6C504.45 490.6 504.15 489.1 503.85 488.1C503.15 486.6 501.75 485.5 500.45 485.1C498.15 484.3 495.85 483.9 493.45 483.5L486.25 482.3C485.25 482.1 484.25 481.8 483.55 481.1C483.05 480.7 482.85 479.9 483.15 479.2C483.65 477.3 484.55 475.5 485.55 473.7C487.25 470.8 489.75 467.7 492.45 465.7C493.25 465.1 494.05 464.7 495.05 464.7C495.75 464.6 496.55 464.9 497.05 465.3C497.55 465.6 497.95 466 498.35 466.4C498.75 466.8 499.05 467.3 499.55 467.8C500.35 467.5 500.85 466.9 500.85 466.3C500.75 464.8 499.75 463.2 498.65 462.5C497.55 461.8 496.45 461.4 495.15 461.4C492.45 461.8 490.05 463.2 488.05 464.9C484.15 468.3 481.45 473.7 479.75 478C479.15 480.3 479.75 482.7 481.65 484.1C483.55 485.2 485.75 485.7 487.95 486C490.85 486.5 493.75 486.8 496.55 487.5C497.95 487.9 499.55 488 500.55 489.1C500.75 489.7 500.65 490.4 500.15 490.9C496.35 494.2 491.95 495.9 487.05 496.7C485.25 497 483.35 497.3 481.55 496.7C480.55 496.4 480.35 495.6 480.25 494.6C480.25 493.3 480.75 491.8 480.75 490.6C480.75 490.4 480.55 490.1 480.15 490C479.95 490 479.65 490 479.35 490.2C478.55 490.8 478.15 491.7 477.85 492.6C477.65 493.6 477.35 496 477.75 497.1C478.35 498.5 479.85 499.4 481.15 500C485.45 500.6 489.95 499.9 493.85 498.4Z" fill="none" opacity="1" stroke="#000000" stroke-linecap="butt" stroke-linejoin="round" stroke-width="5"/>
<path d="M551.65 498.4C555.15 497.1 559.25 495 561.55 491.6C562.25 490.6 561.95 489.1 561.65 488.1C560.95 486.6 559.55 485.5 558.25 485.1C555.95 484.3 553.65 483.9 551.25 483.5L544.05 482.3C543.05 482.1 542.05 481.8 541.35 481.1C540.85 480.7 540.65 479.9 540.95 479.2C541.45 477.3 542.35 475.5 543.35 473.7C545.05 470.8 547.55 467.7 550.25 465.7C551.05 465.1 551.85 464.7 552.85 464.7C553.55 464.6 554.35 464.9 554.85 465.3C555.35 465.6 555.75 466 556.15 466.4C556.55 466.8 556.85 467.3 557.35 467.8C558.15 467.5 558.65 466.9 558.65 466.3C558.55 464.8 557.55 463.2 556.45 462.5C555.35 461.8 554.25 461.4 552.95 461.4C550.25 461.8 547.85 463.2 545.85 464.9C541.95 468.3 539.25 473.7 537.55 478C536.95 480.3 537.55 482.7 539.45 484.1C541.35 485.2 543.55 485.7 545.75 486C548.65 486.5 551.55 486.8 554.35 487.5C555.75 487.9 557.35 488 558.35 489.1C558.55 489.7 558.45 490.4 557.95 490.9C554.15 494.2 549.75 495.9 544.85 496.7C543.05 497 541.15 497.3 539.35 496.7C538.35 496.4 538.15 495.6 538.05 494.6C538.05 493.3 538.55 491.8 538.55 490.6C538.55 490.4 538.35 490.1 537.95 490C537.75 490 537.45 490 537.15 490.2C536.35 490.8 535.95 491.7 535.65 492.6C535.45 493.6 535.15 496 535.55 497.1C536.15 498.5 537.65 499.4 538.95 500C543.25 500.6 547.75 499.9 551.65 498.4Z" fill="none" opacity="1" stroke="#000000" stroke-linecap="butt" stroke-linejoin="round" stroke-width="5"/>
<path d="M597.75 497.9C600.15 496.1 602.05 493.4 603.25 490.7C603.35 490.3 603.55 489.9 603.55 489.5C603.65 489 603.65 488.5 603.05 487.9C602.35 487.9 601.95 488.7 601.75 489.3C600.55 491.5 598.15 494.5 596.15 495.8C593.95 497.1 592.15 497.7 589.45 497.1C586.85 496.2 584.85 494.4 583.45 492.2C581.45 489.2 580.45 485.5 579.85 482C585.15 473.9 589.65 465.4 591.55 455.9C592.25 452.2 592.65 448.5 592.55 444.5C592.45 441.1 592.15 437.2 590.05 434.2C588.95 433.2 586.75 433.3 585.75 434.5C581.55 439.6 578.85 445.5 577.35 451.8C575.25 461 575.45 471.1 576.35 480.8C574.85 482.9 573.05 485 571.05 486.8L565.05 492.3C564.55 492.9 564.65 493.9 565.25 494.3C565.95 494.8 566.95 494.7 567.55 494.3C571.05 491.9 574.35 488.7 577.15 485.4C577.75 487.3 578.25 488.9 578.95 490.5C579.65 492.2 580.55 493.8 581.95 495.5C584.15 498.1 587.25 500.3 590.65 500.4C593.55 500.5 595.65 499.4 597.75 497.9ZM587.15 436.7C587.55 436.2 588.55 436.4 588.75 437.3C589.85 443.4 589.65 449.3 588.45 454.9C586.75 462.5 583.45 469.6 579.35 476C578.95 468.5 578.95 460.8 580.45 453.6C581.65 447.5 583.65 441.7 587.15 436.7Z" fill="none" opacity="1" stroke="#000000" stroke-linecap="butt" stroke-linejoin="round" stroke-width="5"/>
<path d="M628.25 495.6C631.45 492.1 633.65 487.6 634.55 482.9C635.45 478 634.95 473 632.85 468.5C632.05 466.7 630.65 464.8 628.85 463.5C627.85 462.8 626.65 462.2 625.35 462C625.05 461.3 624.05 461 623.45 461.1C620.45 461.8 617.85 463.8 615.55 466C611.65 469.7 608.85 474.3 607.35 479.2C605.95 484 605.85 489.1 607.65 494.2C608.75 497.2 611.85 499.8 614.95 500.4C620.25 501.3 624.75 499.3 628.25 495.6ZM625.85 465.1C628.55 467.1 630.65 469.7 631.15 472.8C631.75 476.3 631.75 480 630.95 483.4C630.05 487.7 627.95 491.6 624.45 494.6C622.15 496.6 618.95 497.7 615.65 496.9C613.35 496.4 611.05 494.6 610.45 492.2C609.45 487.7 609.65 483.2 610.95 479.2C612.65 474.2 615.45 469.5 620.15 466.5L621.55 465.6C622.05 465.3 622.55 465 623.05 464.6C623.85 464.1 624.85 464.1 625.85 465.1Z" fill="none" opacity="1" stroke="#000000" stroke-linecap="butt" stroke-linejoin="round" stroke-width="5"/>
<path d="M683.25 497.6C685.65 494.9 687.05 490.7 687.55 487.2C688.55 479.4 685.65 470.4 681.05 464.1C680.05 463 678.85 461.2 677.15 461.2C676.55 461.2 675.45 461.6 675.75 462.4C678.75 466.4 681.35 470.8 682.95 475.5C683.65 477.7 684.15 479.9 684.35 482.2C684.55 485.9 683.85 489.7 682.25 493.1C681.45 494.7 680.25 496.1 678.55 496.7C676.65 497.4 674.85 496.6 673.45 495C670.85 490.8 669.15 486.2 667.45 481.6C666.45 479.9 666.05 478 664.25 477C662.45 476.2 660.45 476.3 659.15 477.6C657.65 479.7 656.55 481.8 655.55 483.9C654.05 487.1 651.45 492.1 649.15 495C648.35 496 647.35 496.6 645.95 496.3C645.25 496.1 644.65 495.4 644.45 494.8C640.75 484.2 642.75 472.1 647.05 462.1C647.15 461.2 646.25 460.9 645.65 460.9C644.85 460.9 643.85 461.4 643.55 462C641.35 466.6 639.95 471.6 639.35 476.9C638.65 482.7 638.85 488.5 640.45 494.2C641.15 496.5 642.35 498.7 644.85 499.7C646.75 500.5 649.05 500 650.45 498.5C652.75 496 654.45 493.2 655.95 490.4C657.45 487.5 658.75 484.5 660.15 481.6C660.45 481.2 660.75 480.8 661.15 480.4C661.45 480.1 661.75 479.8 662.15 479.9C663.15 480.3 663.55 481.2 664.05 482.3C664.95 484.5 665.75 486.7 666.65 489C667.55 491.2 668.55 493.5 669.75 495.6C671.25 498.2 673.45 500 676.85 500.4C679.45 500.7 681.55 499.4 683.25 497.6Z" fill="none" opacity="1" stroke="#000000" stroke-linecap="butt" stroke-linejoin="round" stroke-width="5"/>
<path d="M723.75 497.9C726.15 496.1 728.05 493.4 729.25 490.7C729.35 490.3 729.55 489.9 729.55 489.5C729.65 489 729.65 488.5 729.05 487.9C728.35 487.9 727.95 488.7 727.75 489.3C726.55 491.5 724.15 494.5 722.15 495.8C719.95 497.1 718.15 497.7 715.45 497.1C712.85 496.2 710.85 494.4 709.45 492.2C707.45 489.2 706.45 485.5 705.85 482C711.15 473.9 715.65 465.4 717.55 455.9C718.25 452.2 718.65 448.5 718.55 444.5C718.45 441.1 718.15 437.2 716.05 434.2C714.95 433.2 712.75 433.3 711.75 434.5C707.55 439.6 704.85 445.5 703.35 451.8C701.25 461 701.45 471.1 702.35 480.8C700.85 482.9 699.05 485 697.05 486.8L691.05 492.3C690.55 492.9 690.65 493.9 691.25 494.3C691.95 494.8 692.95 494.7 693.55 494.3C697.05 491.9 700.35 488.7 703.15 485.4C703.75 487.3 704.25 488.9 704.95 490.5C705.65 492.2 706.55 493.8 707.95 495.5C710.15 498.1 713.25 500.3 716.65 500.4C719.55 500.5 721.65 499.4 723.75 497.9ZM713.15 436.7C713.55 436.2 714.55 436.4 714.75 437.3C715.85 443.4 715.65 449.3 714.45 454.9C712.75 462.5 709.45 469.6 705.35 476C704.95 468.5 704.95 460.8 706.45 453.6C707.65 447.5 709.65 441.7 713.15 436.7Z" fill="none" opacity="1" stroke="#000000" stroke-linecap="butt" stroke-linejoin="round" stroke-width="5"/>
<path d="M759.35 510.3C760.65 507.9 761.65 505.2 761.65 502.4C759.95 489.8 758.75 476.3 759.35 463.5C759.25 462.8 758.95 462.1 758.35 461.6C757.35 461.1 756.65 461.5 756.05 462C750.65 470.9 744.85 479.6 737.65 487.6C737.45 487.8 736.95 487.7 736.95 487.6C736.75 486.2 736.75 484.8 736.75 483.3C736.75 481.9 736.85 480.3 736.85 478.9C736.75 475.5 737.45 472.4 737.55 469.2C737.65 467.3 737.65 465.5 737.15 463.4C736.55 462.4 735.85 461.6 734.85 461.2C733.75 461 732.35 461.8 732.85 463.2C733.05 463.5 733.15 463.8 733.35 464L733.85 464.8C734.15 465.4 734.35 465.8 734.15 466.4C734.05 470.1 733.65 473.8 733.45 477.5C733.25 481.2 733.25 484.9 733.65 488.7C734.15 489.5 734.75 490.5 735.95 490.7C737.25 491 738.75 490.6 739.65 489.4C745.55 482 750.95 474.5 755.75 466.6C755.95 478.3 756.75 489.9 758.15 501.1C758.55 504.1 757.75 506.8 756.45 509.2C755.25 511.2 753.25 513.7 751.25 515.3C747.05 518.7 742.55 521 737.15 520.9C734.55 520.8 731.65 520.3 729.35 519C728.25 518.4 727.35 517.5 726.35 516.8L724.65 515.7C725.35 517.8 726.05 519 726.95 520C729.55 522.7 733.55 523.7 737.15 523.8C746.25 524.1 754.95 518.3 759.35 510.3Z" fill="none" opacity="1" stroke="#000000" stroke-linecap="butt" stroke-linejoin="round" stroke-width="5"/>
<path d="M825.85 492.1C826.25 492.6 827.35 493.2 828.45 492.6C828.35 492.1 828.15 491.7 828.05 491.4C827.65 490.4 827.05 489.5 826.85 488.4C824.95 479.5 825.05 470.2 825.35 461C825.65 452.3 827.35 444.1 828.45 435.6C828.55 434.6 826.75 432.9 825.65 434.6C824.75 437.5 824.25 440.5 823.85 443.5C823.45 446.5 823.15 449.6 822.65 452.7C822.25 455.8 822.25 459 822.05 462.1C821.95 464.3 821.55 466.5 820.85 468.4C820.55 467.2 820.15 466.1 819.35 465.1C817.85 463.3 815.45 462 813.05 461.9C808.85 461.6 805.45 464.9 803.35 468.3C800.55 472.7 798.25 478 797.45 483.5C796.75 487.8 796.95 492.2 798.45 496.6C799.65 498.6 801.65 500 803.85 500.2C807.05 500.5 809.75 498.1 811.55 495.5C816.25 488.7 819.35 481.2 821.95 473.5C822.35 477.3 822.25 481.1 822.85 484.7C823.35 487.4 824.05 489.9 825.85 492.1ZM817.55 473.5C817.55 473.9 817.85 474.7 818.35 474.9C815.85 481.8 812.95 488.6 808.25 494.4C806.85 496.1 805.25 497.2 803.35 496.6C802.15 496 801.45 495 801.05 493.7C800.65 492.6 800.45 491.2 800.45 489.8C800.45 488.4 800.55 487 800.55 485.7C801.55 480.6 802.85 475.7 805.45 471.3C806.65 469.4 808.15 467.6 810.05 465.9C811.15 465.2 812.65 464.9 813.95 465.4C815.25 465.8 816.45 466.6 817.05 467.8C817.85 469.5 817.55 471.7 817.55 473.5Z" fill="none" opacity="1" stroke="#000000" stroke-linecap="butt" stroke-linejoin="round" stroke-width="5"/>
<path d="M854.55 495.6C857.75 492.1 859.95 487.6 860.85 482.9C861.75 478 861.25 473 859.15 468.5C858.35 466.7 856.95 464.8 855.15 463.5C854.15 462.8 852.95 462.2 851.65 462C851.35 461.3 850.35 461 849.75 461.1C846.75 461.8 844.15 463.8 841.85 466C837.95 469.7 835.15 474.3 833.65 479.2C832.25 484 832.15 489.1 833.95 494.2C835.05 497.2 838.15 499.8 841.25 500.4C846.55 501.3 851.05 499.3 854.55 495.6ZM852.15 465.1C854.85 467.1 856.95 469.7 857.45 472.8C858.05 476.3 858.05 480 857.25 483.4C856.35 487.7 854.25 491.6 850.75 494.6C848.45 496.6 845.25 497.7 841.95 496.9C839.65 496.4 837.35 494.6 836.75 492.2C835.75 487.7 835.95 483.2 837.25 479.2C838.95 474.2 841.75 469.5 846.45 466.5L847.85 465.6C848.35 465.3 848.85 465 849.35 464.6C850.15 464.1 851.15 464.1 852.15 465.1Z" fill="none" opacity="1" stroke="#000000" stroke-linecap="butt" stroke-linejoin="round" stroke-width="5"/>
<path d="M909.55 497.6C911.95 494.9 913.35 490.7 913.85 487.2C914.85 479.4 911.95 470.4 907.35 464.1C906.35 463 905.15 461.2 903.45 461.2C902.85 461.2 901.75 461.6 902.05 462.4C905.05 466.4 907.65 470.8 909.25 475.5C909.95 477.7 910.45 479.9 910.65 482.2C910.85 485.9 910.15 489.7 908.55 493.1C907.75 494.7 906.55 496.1 904.85 496.7C902.95 497.4 901.15 496.6 899.75 495C897.15 490.8 895.45 486.2 893.75 481.6C892.75 479.9 892.35 478 890.55 477C888.75 476.2 886.75 476.3 885.45 477.6C883.95 479.7 882.85 481.8 881.85 483.9C880.35 487.1 877.75 492.1 875.45 495C874.65 496 873.65 496.6 872.25 496.3C871.55 496.1 870.95 495.4 870.75 494.8C867.05 484.2 869.05 472.1 873.35 462.1C873.45 461.2 872.55 460.9 871.95 460.9C871.15 460.9 870.15 461.4 869.85 462C867.65 466.6 866.25 471.6 865.65 476.9C864.95 482.7 865.15 488.5 866.75 494.2C867.45 496.5 868.65 498.7 871.15 499.7C873.05 500.5 875.35 500 876.75 498.5C879.05 496 880.75 493.2 882.25 490.4C883.75 487.5 885.05 484.5 886.45 481.6C886.75 481.2 887.05 480.8 887.45 480.4C887.75 480.1 888.05 479.8 888.45 479.9C889.45 480.3 889.85 481.2 890.35 482.3C891.25 484.5 892.05 486.7 892.95 489C893.85 491.2 894.85 493.5 896.05 495.6C897.55 498.2 899.75 500 903.15 500.4C905.75 500.7 907.85 499.4 909.55 497.6Z" fill="none" opacity="1" stroke="#000000" stroke-linecap="butt" stroke-linejoin="round" stroke-width="5"/>
<path d="M945.55 500.1C949.65 496.6 952.55 492.4 954.65 487.8C954.75 487.4 954.05 486.5 953.55 487L949.85 491.8C948.65 493.1 947.45 494.4 946.05 495.4C946.35 491.4 946.55 487.3 946.45 483.3C946.35 479.1 946.65 474.6 946.05 470.4C945.65 467.8 944.95 465.4 943.65 463.2C942.55 462.3 941.45 461.7 940.05 461.6C938.55 461.4 937.45 462.2 936.45 462.8C933.15 465.9 930.75 469.5 928.65 473.2C926.55 477 924.85 481.2 923.35 485.3C922.65 478.3 922.25 471.2 921.35 464.2L920.85 463.2C920.35 462.1 919.65 461.1 918.35 460.9C917.45 461.1 917.25 462.2 917.35 462.7C918.45 465.3 918.65 468.2 918.85 471C919.15 476.1 920.05 484.8 920.25 491.4C920.25 493.3 920.35 496.8 920.35 498.6C920.75 500 922.75 499.8 923.15 498.7C923.85 493.9 924.85 489.1 926.45 484.6C928.35 479 930.85 473.7 934.55 469C935.55 467.8 936.65 466.1 937.95 465.3C939.05 464.7 940.15 464.6 941.05 465.5C941.45 465.8 941.65 466.3 941.85 466.8C942.05 467.3 942.15 467.8 942.25 468.4C943.15 477.1 943.35 486.5 942.75 495.2C942.85 495.5 942.85 495.8 942.85 496.1C942.75 497 942.55 498.1 942.75 499C943.05 499.9 944.45 501 945.55 500.1Z" fill="none" opacity="1" stroke="#000000" stroke-linecap="butt" stroke-linejoin="round" stroke-width="5"/>
</g>
</g>
</svg>
