<?xml version="1.0" encoding="UTF-8" standalone="no"?>
<!DOCTYPE svg PUBLIC "-//W3C//DTD SVG 1.1//EN" "http://www.w3.org/Graphics/SVG/1.1/DTD/svg11.dtd">
<!-- Created with Vectornator (http://vectornator.io/) -->
<svg height="100%" stroke-miterlimit="10" style="fill-rule:nonzero;clip-rule:evenodd;stroke-linecap:round;stroke-linejoin:round;" version="1.1" viewBox="74.9917 430.568 852.208 95.7434" width="100%" xml:space="preserve" xmlns="http://www.w3.org/2000/svg" xmlns:xlink="http://www.w3.org/1999/xlink">
<defs/>
<g id="Layer-12">
<g opacity="1">
<path d="M116 479.9C118.2 476.2 118.4 469.8 116.3 466.6C114.5 463.7 112.1 461.7 109.1 460.8C105.9 459.9 102.3 459.9 98.9 460.3C102 457.7 105.2 453.9 106.4 451.1C107.8 447.6 108.6 443.4 106.7 439.6C105.3 436.8 103.3 435 100.7 434C96.8 432.4 89.8 433.1 85.7 434.3L83.8 435.2C81.9 436.1 79.8 437.6 79.5 440C79.5 440.6 79.9 441.7 80.8 441.3L83 439.3C83.6 438.9 84.2 438.5 84.8 438.2C80.8 446.9 78.6 457.5 77.8 467.8C77 478.5 77.8 489.7 79.7 499.8C80 501.1 81.3 501.4 82.2 501.5C89 500.2 96.6 497.9 102.4 494C107.7 490.5 112.8 485.1 116 479.9ZM113.1 467.7C114.6 469.9 114.9 473.6 113.8 476.1C111.4 481.8 105.9 487.7 100.1 491.5C95.2 494.8 88.5 496.8 82.9 498.2C81.2 488.7 80.6 478.4 81.3 468.6C82.1 457.6 84.4 446.4 88.7 436.9C91.7 436.5 97.2 436.2 99.8 437.3C102.1 438.3 103.5 440 104.2 442.5C104.9 445.3 104.2 448.5 102.9 451C101.1 454.2 97.8 457.6 94.8 460C93.6 461 92 462 90.5 462.8C88.9 463.7 87.4 464.5 85.9 465.5C84.9 466.7 86.4 469.4 88.3 468C90.2 466.5 93 465.3 94.5 464.8C98.1 463.6 102 462.9 105.6 463.5C108.4 463.9 111.5 465.3 113.1 467.7Z" fill="none" opacity="1" stroke="#000000" stroke-linecap="butt" stroke-linejoin="round" stroke-width="5"/>
<path d="M149.1 464.8C149.7 464.8 150.5 464.2 150.2 463.2C148.9 462.6 147.3 462.8 146.2 463C143.6 463.5 142.4 464 139.9 464.9C137.6 465.8 134 467.9 132.2 469.5C130.1 471.4 127.6 473.8 125.8 476.7C125.7 472.7 126.1 469 127.4 466.1C127.4 465.7 127.6 465.5 127.8 465.1C128.4 464.1 129.4 463.3 129.4 461.9C128.8 461.1 128 461 127.3 461C126 461.5 125.3 462.3 124.8 463.3C124.3 464.2 123.9 465.3 123.4 466.2C122.2 470.5 121.9 474.8 122.4 479C123.1 485.8 125.5 492.3 127.8 498.8L129 500.1C129.6 500.7 130.6 500.4 130.9 499.5C130.1 496.6 129.1 493.9 128.3 491.1C127.5 488.4 126.8 485.6 126.5 482.6C127.8 479 130.1 475.9 132.8 473.3C135.5 470.7 138 468.5 140.9 467.3C143.9 466 146.1 465.4 149.1 464.8Z" fill="none" opacity="1" stroke="#000000" stroke-linecap="butt" stroke-linejoin="round" stroke-width="5"/>
<path d="M183.3 499.1C184.2 499.3 185.8 499.5 185.7 498.2C181.6 494.2 180.6 490.1 178.9 484.8C177.9 481.5 177.1 478.3 176.7 474.7C176.4 473.8 176.2 473.2 175.8 472.5C175.6 470.8 175.6 468.7 174.6 467.3C173.7 464.9 172 462.8 169.6 461.7C168.6 461.2 167.6 461.2 166.6 461.5C165.7 461.8 164.8 462.3 163.9 462.8C157.4 468.3 153.2 475.3 151.2 482.9C150.4 485.8 149.8 489.7 150.2 493.1C150.6 495.8 151.7 498.2 154.2 499.7C156.4 501.1 159.5 500.5 161.5 498.9C167.8 493.9 171.4 486.9 174.1 480.1C174.6 482.3 175.1 484.5 175.8 486.6C177.5 491.4 178.9 495.9 183.3 499.1ZM171.9 468.4C172.5 469.5 173.2 471.3 173.5 472.3C172.8 473.3 172.7 474.5 172.5 475.6C169.9 483.4 165.8 491 158.7 496.5C157.5 496.9 155.9 496.7 155 495.8C154.2 494.7 153.8 493.4 153.7 491.9C153.6 490.4 153.8 488.8 153.9 487.3C154.8 482.8 156.3 478.5 158.5 474.5C160.3 471.4 163.1 467.6 166.2 465.5C167 465 167.8 464.7 168.8 465C170.1 465.7 171.1 467 171.9 468.4Z" fill="none" opacity="1" stroke="#000000" stroke-linecap="butt" stroke-linejoin="round" stroke-width="5"/>
<path d="M215.5 500.1C219.6 496.6 222.5 492.4 224.6 487.8C224.7 487.4 224 486.5 223.5 487L219.8 491.8C218.6 493.1 217.4 494.4 216 495.4C216.3 491.4 216.5 487.3 216.4 483.3C216.3 479.1 216.6 474.6 216 470.4C215.6 467.8 214.9 465.4 213.6 463.2C212.5 462.3 211.4 461.7 210 461.6C208.5 461.4 207.4 462.2 206.4 462.8C203.1 465.9 200.7 469.5 198.6 473.2C196.5 477 194.8 481.2 193.3 485.3C192.6 478.3 192.2 471.2 191.3 464.2L190.8 463.2C190.3 462.1 189.6 461.1 188.3 460.9C187.4 461.1 187.2 462.2 187.3 462.7C188.4 465.3 188.6 468.2 188.8 471C189.1 476.1 190 484.8 190.2 491.4C190.2 493.3 190.3 496.8 190.3 498.6C190.7 500 192.7 499.8 193.1 498.7C193.8 493.9 194.8 489.1 196.4 484.6C198.3 479 200.8 473.7 204.5 469C205.5 467.8 206.6 466.1 207.9 465.3C209 464.7 210.1 464.6 211 465.5C211.4 465.8 211.6 466.3 211.8 466.8C212 467.3 212.1 467.8 212.2 468.4C213.1 477.1 213.3 486.5 212.7 495.2C212.8 495.5 212.8 495.8 212.8 496.1C212.7 497 212.5 498.1 212.7 499C213 499.9 214.4 501 215.5 500.1Z" fill="none" opacity="1" stroke="#000000" stroke-linecap="butt" stroke-linejoin="round" stroke-width="5"/>
<path d="M249.3 495.5C251.6 493.1 254 488.6 254.5 484.9C254.6 484.1 253.4 483.8 253.1 484.4C252.3 486.4 251.4 488.4 250.1 490.4C249 492.1 247.5 493.9 245.5 495.2C243.3 496.6 241.7 497.2 238.8 497C235.8 496.7 233.1 495.4 231.5 492.7C230.2 490.4 229.9 487.7 230 484.7C230.9 479.1 232.2 472.9 235.7 468.6C237.2 466.7 239 465.2 241.4 464.3C243.1 463.9 245.1 464.2 246.3 465.6C247.2 466.6 247.5 468 247.3 469.4C247.3 469.9 247.1 470.3 246.8 470.8L246.3 471.6C246.2 471.9 246.1 472.2 246.1 472.8C247.1 472.8 247.7 472.4 248.1 472C248.6 471.5 249 471 249.4 470.5C250.4 468.7 250.2 465.9 249.1 464.2C247.4 461.6 244.4 461 241.4 461.2C238.2 461.8 235.7 463.6 233.7 465.9C230.9 469.2 229 473.4 227.9 477.1C226.7 480.9 226.1 485.4 226.8 489.4C227.4 492.6 228.8 495.4 231.5 497.6C237.1 502 244.5 500.5 249.3 495.5Z" fill="none" opacity="1" stroke="#000000" stroke-linecap="butt" stroke-linejoin="round" stroke-width="5"/>
<path d="M290.5 495.6C293.5 491.8 295.5 486.7 297.3 481.8C297.3 481.2 297.1 480.8 296.8 480.6C296.5 480.4 296 480.2 295.7 480.7C294.4 483.1 293.2 485.4 292 487.6C290.7 489.9 289.4 492 287.5 494.1C287.4 494.2 287.1 494.1 286.9 493.7C285.3 485.8 284.8 477.1 284.1 469.6C283.9 467.9 283.8 465.9 283 464.4C282 462.4 280.1 461.4 278.3 461.4C276.5 461.4 275.4 461.9 274.5 462.9C274 463.3 273.6 463.9 273.3 464.5C272.9 465.1 272.6 465.7 272.2 466.5C270.4 469.8 268.7 473.8 267.3 477.4C265.5 482.3 263.8 486.9 262.8 492.1C262.1 489 261.7 481.6 261.7 479.9C261.6 473.6 262.1 467.2 263 461.4C263.7 456.8 264.6 452.3 266 447.9C267.2 444.1 268.7 440.4 270.9 437C271.2 436.6 272.3 436.2 273.2 436.3C274.2 436.4 275.2 436.8 276.2 437.1C276.9 436 276.2 435.1 275.5 434.4C274.4 433.5 273.2 433.2 271.9 433.2C269.7 434 268.1 435.2 267.1 437C265.3 440.1 263.3 445.3 262.4 448.7C260.3 456.7 258.8 465.3 258.5 473.9C258.2 481.3 258.5 488.8 260.4 496.1L260.9 498C261.1 498.6 261.4 499.2 261.7 499.6C262.8 500.3 263.9 499.4 264.3 498.7C265.1 493.2 267.2 488 268.8 482.8C270.4 477.3 273 471.2 275.6 466.7C277.1 464.2 280 464.8 280.3 467.5C281.4 476.4 281.7 485.7 283.4 494.4C283.7 495.7 284.6 497.4 286.2 497.9C288 498.5 289.7 496.6 290.5 495.6Z" fill="none" opacity="1" stroke="#000000" stroke-linecap="butt" stroke-linejoin="round" stroke-width="5"/>
<path d="M329.8 490.9C330.8 489.3 332 486.9 332.1 485C332.1 484.6 331.2 483.6 330.7 484.1C329.5 487.5 327 490.4 324 493C322.4 494.4 320.3 495.7 318.1 496.5C315.8 497.4 313.3 497.6 310.9 496.2C308.3 494.7 307.4 491.9 306.9 489.1C308.6 488 310.5 486.7 312.4 485.3C314.3 483.9 316.2 482.4 317.8 480.9C318.1 480.5 318.6 480 319 479.6L320.5 478.2C321.6 477.2 322.7 476.1 323.6 475.1C324.7 473.8 325.6 472.1 325.2 470C323.8 466.8 321.2 463.1 317.7 461.9C315 461 310.8 462.2 308.6 464C306.2 466.7 304.6 470.2 303.9 473.7C302.9 478.2 302.9 483 303.2 487.5C302.4 487.9 301.4 488.6 300.7 488.9C300.3 489.1 299.8 489.2 299.2 489.4C298.6 489.5 298 489.7 297.4 490C296.9 490.8 297.3 491.7 297.7 492.1C299 492.7 299.9 492.7 301 492.4C301.7 492.2 302.8 491.6 303.6 491C303.9 492 304.2 493 304.7 493.9C305.2 495 306 496.1 307.2 497.4C309.3 499.6 312.5 500.7 315.8 500.4C318.9 500.1 321.9 498.6 324.6 496.5C326.6 494.9 328.4 493 329.8 490.9ZM317.7 465.6C319.6 466.9 321 469 321.9 471C321.6 473 319.7 474.4 318.4 475.7C316.7 477.5 314.7 479.3 312.5 480.9C310.5 482.4 308.5 483.8 306.6 485.1C306.4 481.3 306.5 477.5 307.5 474C308.2 471.3 309.2 468.9 310.8 466.8C312.4 465.3 315.7 464.9 317.7 465.6Z" fill="none" opacity="1" stroke="#000000" stroke-linecap="butt" stroke-linejoin="round" stroke-width="5"/>
<path d="M350.9 498.4C354.4 497.1 358.5 495 360.8 491.6C361.5 490.6 361.2 489.1 360.9 488.1C360.2 486.6 358.8 485.5 357.5 485.1C355.2 484.3 352.9 483.9 350.5 483.5L343.3 482.3C342.3 482.1 341.3 481.8 340.6 481.1C340.1 480.7 339.9 479.9 340.2 479.2C340.7 477.3 341.6 475.5 342.6 473.7C344.3 470.8 346.8 467.7 349.5 465.7C350.3 465.1 351.1 464.7 352.1 464.7C352.8 464.6 353.6 464.9 354.1 465.3C354.6 465.6 355 466 355.4 466.4C355.8 466.8 356.1 467.3 356.6 467.8C357.4 467.5 357.9 466.9 357.9 466.3C357.8 464.8 356.8 463.2 355.7 462.5C354.6 461.8 353.5 461.4 352.2 461.4C349.5 461.8 347.1 463.2 345.1 464.9C341.2 468.3 338.5 473.7 336.8 478C336.2 480.3 336.8 482.7 338.7 484.1C340.6 485.2 342.8 485.7 345 486C347.9 486.5 350.8 486.8 353.6 487.5C355 487.9 356.6 488 357.6 489.1C357.8 489.7 357.7 490.4 357.2 490.9C353.4 494.2 349 495.9 344.1 496.7C342.3 497 340.4 497.3 338.6 496.7C337.6 496.4 337.4 495.6 337.3 494.6C337.3 493.3 337.8 491.8 337.8 490.6C337.8 490.4 337.6 490.1 337.2 490C337 490 336.7 490 336.4 490.2C335.6 490.8 335.2 491.7 334.9 492.6C334.7 493.6 334.4 496 334.8 497.1C335.4 498.5 336.9 499.4 338.2 500C342.5 500.6 347 499.9 350.9 498.4Z" fill="none" opacity="1" stroke="#000000" stroke-linecap="butt" stroke-linejoin="round" stroke-width="5"/>
<path d="M408.7 498.4C412.2 497.1 416.3 495 418.6 491.6C419.3 490.6 419 489.1 418.7 488.1C418 486.6 416.6 485.5 415.3 485.1C413 484.3 410.7 483.9 408.3 483.5L401.1 482.3C400.1 482.1 399.1 481.8 398.4 481.1C397.9 480.7 397.7 479.9 398 479.2C398.5 477.3 399.4 475.5 400.4 473.7C402.1 470.8 404.6 467.7 407.3 465.7C408.1 465.1 408.9 464.7 409.9 464.7C410.6 464.6 411.4 464.9 411.9 465.3C412.4 465.6 412.8 466 413.2 466.4C413.6 466.8 413.9 467.3 414.4 467.8C415.2 467.5 415.7 466.9 415.7 466.3C415.6 464.8 414.6 463.2 413.5 462.5C412.4 461.8 411.3 461.4 410 461.4C407.3 461.8 404.9 463.2 402.9 464.9C399 468.3 396.3 473.7 394.6 478C394 480.3 394.6 482.7 396.5 484.1C398.4 485.2 400.6 485.7 402.8 486C405.7 486.5 408.6 486.8 411.4 487.5C412.8 487.9 414.4 488 415.4 489.1C415.6 489.7 415.5 490.4 415 490.9C411.2 494.2 406.8 495.9 401.9 496.7C400.1 497 398.2 497.3 396.4 496.7C395.4 496.4 395.2 495.6 395.1 494.6C395.1 493.3 395.6 491.8 395.6 490.6C395.6 490.4 395.4 490.1 395 490C394.8 490 394.5 490 394.2 490.2C393.4 490.8 393 491.7 392.7 492.6C392.5 493.6 392.2 496 392.6 497.1C393.2 498.5 394.7 499.4 396 500C400.3 500.6 404.8 499.9 408.7 498.4Z" fill="none" opacity="1" stroke="#000000" stroke-linecap="butt" stroke-linejoin="round" stroke-width="5"/>
<path d="M466.8 497.6C469.2 494.9 470.6 490.7 471.1 487.2C472.1 479.4 469.2 470.4 464.6 464.1C463.6 463 462.4 461.2 460.7 461.2C460.1 461.2 459 461.6 459.3 462.4C462.3 466.4 464.9 470.8 466.5 475.5C467.2 477.7 467.7 479.9 467.9 482.2C468.1 485.9 467.4 489.7 465.8 493.1C465 494.7 463.8 496.1 462.1 496.7C460.2 497.4 458.4 496.6 457 495C454.4 490.8 452.7 486.2 451 481.6C450 479.9 449.6 478 447.8 477C446 476.2 444 476.3 442.7 477.6C441.2 479.7 440.1 481.8 439.1 483.9C437.6 487.1 435 492.1 432.7 495C431.9 496 430.9 496.6 429.5 496.3C428.8 496.1 428.2 495.4 428 494.8C424.3 484.2 426.3 472.1 430.6 462.1C430.7 461.2 429.8 460.9 429.2 460.9C428.4 460.9 427.4 461.4 427.1 462C424.9 466.6 423.5 471.6 422.9 476.9C422.2 482.7 422.4 488.5 424 494.2C424.7 496.5 425.9 498.7 428.4 499.7C430.3 500.5 432.6 500 434 498.5C436.3 496 438 493.2 439.5 490.4C441 487.5 442.3 484.5 443.7 481.6C444 481.2 444.3 480.8 444.7 480.4C445 480.1 445.3 479.8 445.7 479.9C446.7 480.3 447.1 481.2 447.6 482.3C448.5 484.5 449.3 486.7 450.2 489C451.1 491.2 452.1 493.5 453.3 495.6C454.8 498.2 457 500 460.4 500.4C463 500.7 465.1 499.4 466.8 497.6Z" fill="none" opacity="1" stroke="#000000" stroke-linecap="butt" stroke-linejoin="round" stroke-width="5"/>
<path d="M508.1 499.1C509 499.3 510.6 499.5 510.5 498.2C506.4 494.2 505.4 490.1 503.7 484.8C502.7 481.5 501.9 478.3 501.5 474.7C501.2 473.8 501 473.2 500.6 472.5C500.4 470.8 500.4 468.7 499.4 467.3C498.5 464.9 496.8 462.8 494.4 461.7C493.4 461.2 492.4 461.2 491.4 461.5C490.5 461.8 489.6 462.3 488.7 462.8C482.2 468.3 478 475.3 476 482.9C475.2 485.8 474.6 489.7 475 493.1C475.4 495.8 476.5 498.2 479 499.7C481.2 501.1 484.3 500.5 486.3 498.9C492.6 493.9 496.2 486.9 498.9 480.1C499.4 482.3 499.9 484.5 500.6 486.6C502.3 491.4 503.7 495.9 508.1 499.1ZM496.7 468.4C497.3 469.5 498 471.3 498.3 472.3C497.6 473.3 497.5 474.5 497.3 475.6C494.7 483.4 490.6 491 483.5 496.5C482.3 496.9 480.7 496.7 479.8 495.8C479 494.7 478.6 493.4 478.5 491.9C478.4 490.4 478.6 488.8 478.7 487.3C479.6 482.8 481.1 478.5 483.3 474.5C485.1 471.4 487.9 467.6 491 465.5C491.8 465 492.6 464.7 493.6 465C494.9 465.7 495.9 467 496.7 468.4Z" fill="none" opacity="1" stroke="#000000" stroke-linecap="butt" stroke-linejoin="round" stroke-width="5"/>
<path d="M539.9 510.3C541.2 507.9 542.2 505.2 542.2 502.4C540.5 489.8 539.3 476.3 539.9 463.5C539.8 462.8 539.5 462.1 538.9 461.6C537.9 461.1 537.2 461.5 536.6 462C531.2 470.9 525.4 479.6 518.2 487.6C518 487.8 517.5 487.7 517.5 487.6C517.3 486.2 517.3 484.8 517.3 483.3C517.3 481.9 517.4 480.3 517.4 478.9C517.3 475.5 518 472.4 518.1 469.2C518.2 467.3 518.2 465.5 517.7 463.4C517.1 462.4 516.4 461.6 515.4 461.2C514.3 461 512.9 461.8 513.4 463.2C513.6 463.5 513.7 463.8 513.9 464L514.4 464.8C514.7 465.4 514.9 465.8 514.7 466.4C514.6 470.1 514.2 473.8 514 477.5C513.8 481.2 513.8 484.9 514.2 488.7C514.7 489.5 515.3 490.5 516.5 490.7C517.8 491 519.3 490.6 520.2 489.4C526.1 482 531.5 474.5 536.3 466.6C536.5 478.3 537.3 489.9 538.7 501.1C539.1 504.1 538.3 506.8 537 509.2C535.8 511.2 533.8 513.7 531.8 515.3C527.6 518.7 523.1 521 517.7 520.9C515.1 520.8 512.2 520.3 509.9 519C508.8 518.4 507.9 517.5 506.9 516.8L505.2 515.7C505.9 517.8 506.6 519 507.5 520C510.1 522.7 514.1 523.7 517.7 523.8C526.8 524.1 535.5 518.3 539.9 510.3Z" fill="none" opacity="1" stroke="#000000" stroke-linecap="butt" stroke-linejoin="round" stroke-width="5"/>
<path d="M601.1 497.6C602.7 495.8 604 493.6 604.4 491.6L604.8 489.8C604.9 489.2 604.9 488.5 604.1 487.8C603.3 488.5 602.9 489.3 602.6 490C602.3 490.7 602.1 491.5 601.7 492.2C600.9 493.3 600.1 494.6 599 495.5C598 496.3 597 497 595.8 496.9C595.2 496.9 594 495.8 593.9 495.2C591.9 488.4 593 474.9 594.3 464.8C594.4 464 594.5 463 593.8 462.2C593.1 461.8 591.6 461.4 591.1 462.2C588.6 466 586.7 469.9 584.5 473.8C582.3 477.7 579.9 481.5 576.8 485C576.5 485.4 576.6 485.8 576.9 486C577.2 486.2 577.6 486.3 577.9 486.3C578.6 486.2 579.4 485.7 579.9 485.3C582.3 482.7 584.2 480 585.9 477.2C587.4 474.7 588.8 472.3 590.2 469.7C589.5 477.9 589.1 486.1 590.2 494.3C590.5 496.3 591.1 498 592.7 499.4C593.6 500.2 595.7 500.3 596.9 500.2C598.5 499.8 600 498.8 601.1 497.6ZM601.3 442.2C601.9 442.5 602.6 442.9 603.6 443.2C603.8 442 603.1 441.1 602.5 440.6C598.1 436.6 592.8 434.5 586.8 434.4C585.8 435.2 585.9 437.2 586.9 437.3C591.3 438.2 595.4 439.3 599.4 441.1L601.3 442.2Z" fill="none" opacity="1" stroke="#000000" stroke-linecap="butt" stroke-linejoin="round" stroke-width="5"/>
<path d="M636.6 500.1C640.7 496.6 643.6 492.4 645.7 487.8C645.8 487.4 645.1 486.5 644.6 487L640.9 491.8C639.7 493.1 638.5 494.4 637.1 495.4C637.4 491.4 637.6 487.3 637.5 483.3C637.4 479.1 637.7 474.6 637.1 470.4C636.7 467.8 636 465.4 634.7 463.2C633.6 462.3 632.5 461.7 631.1 461.6C629.6 461.4 628.5 462.2 627.5 462.8C624.2 465.9 621.8 469.5 619.7 473.2C617.6 477 615.9 481.2 614.4 485.3C613.7 478.3 613.3 471.2 612.4 464.2L611.9 463.2C611.4 462.1 610.7 461.1 609.4 460.9C608.5 461.1 608.3 462.2 608.4 462.7C609.5 465.3 609.7 468.2 609.9 471C610.2 476.1 611.1 484.8 611.3 491.4C611.3 493.3 611.4 496.8 611.4 498.6C611.8 500 613.8 499.8 614.2 498.7C614.9 493.9 615.9 489.1 617.5 484.6C619.4 479 621.9 473.7 625.6 469C626.6 467.8 627.7 466.1 629 465.3C630.1 464.7 631.2 464.6 632.1 465.5C632.5 465.8 632.7 466.3 632.9 466.8C633.1 467.3 633.2 467.8 633.3 468.4C634.2 477.1 634.4 486.5 633.8 495.2C633.9 495.5 633.9 495.8 633.9 496.1C633.8 497 633.6 498.1 633.8 499C634.1 499.9 635.5 501 636.6 500.1Z" fill="none" opacity="1" stroke="#000000" stroke-linecap="butt" stroke-linejoin="round" stroke-width="5"/>
<path d="M704.5 464.8C705.1 464.8 705.9 464.2 705.6 463.2C704.3 462.6 702.7 462.8 701.6 463C699 463.5 697.8 464 695.3 464.9C693 465.8 689.4 467.9 687.6 469.5C685.5 471.4 683 473.8 681.2 476.7C681.1 472.7 681.5 469 682.8 466.1C682.8 465.7 683 465.5 683.2 465.1C683.8 464.1 684.8 463.3 684.8 461.9C684.2 461.1 683.4 461 682.7 461C681.4 461.5 680.7 462.3 680.2 463.3C679.7 464.2 679.3 465.3 678.8 466.2C677.6 470.5 677.3 474.8 677.8 479C678.5 485.8 680.9 492.3 683.2 498.8L684.4 500.1C685 500.7 686 500.4 686.3 499.5C685.5 496.6 684.5 493.9 683.7 491.1C682.9 488.4 682.2 485.6 681.9 482.6C683.2 479 685.5 475.9 688.2 473.3C690.9 470.7 693.4 468.5 696.3 467.3C699.3 466 701.5 465.4 704.5 464.8Z" fill="none" opacity="1" stroke="#000000" stroke-linecap="butt" stroke-linejoin="round" stroke-width="5"/>
<path d="M738.9 495.6C741.9 491.8 743.9 486.7 745.7 481.8C745.7 481.2 745.5 480.8 745.2 480.6C744.9 480.4 744.4 480.2 744.1 480.7C742.8 483.1 741.6 485.4 740.4 487.6C739.1 489.9 737.8 492 735.9 494.1C735.8 494.2 735.5 494.1 735.3 493.7C733.7 485.8 733.2 477.1 732.5 469.6C732.3 467.9 732.2 465.9 731.4 464.4C730.4 462.4 728.5 461.4 726.7 461.4C724.9 461.4 723.8 461.9 722.9 462.9C722.4 463.3 722 463.9 721.7 464.5C721.3 465.1 721 465.7 720.6 466.5C718.8 469.8 717.1 473.8 715.7 477.4C713.9 482.3 712.2 486.9 711.2 492.1C710.5 489 710.1 481.6 710.1 479.9C710 473.6 710.5 467.2 711.4 461.4C712.1 456.8 713 452.3 714.4 447.9C715.6 444.1 717.1 440.4 719.3 437C719.6 436.6 720.7 436.2 721.6 436.3C722.6 436.4 723.6 436.8 724.6 437.1C725.3 436 724.6 435.1 723.9 434.4C722.8 433.5 721.6 433.2 720.3 433.2C718.1 434 716.5 435.2 715.5 437C713.7 440.1 711.7 445.3 710.8 448.7C708.7 456.7 707.2 465.3 706.9 473.9C706.6 481.3 706.9 488.8 708.8 496.1L709.3 498C709.5 498.6 709.8 499.2 710.1 499.6C711.2 500.3 712.3 499.4 712.7 498.7C713.5 493.2 715.6 488 717.2 482.8C718.8 477.3 721.4 471.2 724 466.7C725.5 464.2 728.4 464.8 728.7 467.5C729.8 476.4 730.1 485.7 731.8 494.4C732.1 495.7 733 497.4 734.6 497.9C736.4 498.5 738.1 496.6 738.9 495.6Z" fill="none" opacity="1" stroke="#000000" stroke-linecap="butt" stroke-linejoin="round" stroke-width="5"/>
<path d="M775 510.3C776.3 507.9 777.3 505.2 777.3 502.4C775.6 489.8 774.4 476.3 775 463.5C774.9 462.8 774.6 462.1 774 461.6C773 461.1 772.3 461.5 771.7 462C766.3 470.9 760.5 479.6 753.3 487.6C753.1 487.8 752.6 487.7 752.6 487.6C752.4 486.2 752.4 484.8 752.4 483.3C752.4 481.9 752.5 480.3 752.5 478.9C752.4 475.5 753.1 472.4 753.2 469.2C753.3 467.3 753.3 465.5 752.8 463.4C752.2 462.4 751.5 461.6 750.5 461.2C749.4 461 748 461.8 748.5 463.2C748.7 463.5 748.8 463.8 749 464L749.5 464.8C749.8 465.4 750 465.8 749.8 466.4C749.7 470.1 749.3 473.8 749.1 477.5C748.9 481.2 748.9 484.9 749.3 488.7C749.8 489.5 750.4 490.5 751.6 490.7C752.9 491 754.4 490.6 755.3 489.4C761.2 482 766.6 474.5 771.4 466.6C771.6 478.3 772.4 489.9 773.8 501.1C774.2 504.1 773.4 506.8 772.1 509.2C770.9 511.2 768.9 513.7 766.9 515.3C762.7 518.7 758.2 521 752.8 520.9C750.2 520.8 747.3 520.3 745 519C743.9 518.4 743 517.5 742 516.8L740.3 515.7C741 517.8 741.7 519 742.6 520C745.2 522.7 749.2 523.7 752.8 523.8C761.9 524.1 770.6 518.3 775 510.3Z" fill="none" opacity="1" stroke="#000000" stroke-linecap="butt" stroke-linejoin="round" stroke-width="5"/>
<path d="M826.7 484.2C827.1 483.2 827.5 482.2 827.5 481.1C827.5 480.8 827.2 480.5 827 480.4C826.8 480.3 826.3 480.1 826.1 480.6C825.6 481.7 825 482.7 824.4 483.8C823.7 484.9 823.1 485.9 822.4 487C818.9 492.7 813 497.3 805.1 496.8C802.8 496.7 800.2 494.4 799.8 491.9C798.4 483.9 798.5 474.4 799.2 466.3C801.3 465.6 803.9 465.2 806.4 464.9C809 464.6 811.6 464.4 813.6 464.3C814.2 464 814.8 462.8 814 462.2C811.5 461.4 809.1 461.4 806.7 461.6C804.3 461.9 801.8 462.4 799.5 462.6C799.8 460.6 800.3 457.4 800.5 454.4L800.8 450.7C801 449.9 801.1 449.3 801.3 449C801.6 449.1 801.9 449.3 802.2 449.6C803.5 450.6 804.2 451.6 806.1 451.8C805.7 450.7 805.3 450 804.9 449.4C804.5 448.7 804 448.1 803.5 447.5L803 446.9C802.4 446.2 801.9 445.4 801.1 445C800.3 444.4 799.1 444.3 798.4 445.5C798 446.2 797.8 447.2 797.7 448L796 463.5C793.8 464.2 789.3 465.6 787.1 466.2C786.6 466.5 785.7 466.5 785 466.4C784 466.3 783.5 467.2 783.6 467.9C784.2 469.2 785.5 469.8 786.8 469.8C789.9 468.9 792.8 467.8 795.8 467.1C795.2 476.4 795 485.7 797 494.4C798.6 497.7 801.8 500.2 805.3 500.2C814.6 500.3 821.2 494 825.1 487C825.6 486.2 826.2 485.2 826.7 484.2Z" fill="none" opacity="1" stroke="#000000" stroke-linecap="butt" stroke-linejoin="round" stroke-width="5"/>
<path d="M862.9 495.6C865.9 491.8 867.9 486.7 869.7 481.8C869.7 481.2 869.5 480.8 869.2 480.6C868.9 480.4 868.4 480.2 868.1 480.7C866.8 483.1 865.6 485.4 864.4 487.6C863.1 489.9 861.8 492 859.9 494.1C859.8 494.2 859.5 494.1 859.3 493.7C857.7 485.8 857.2 477.1 856.5 469.6C856.3 467.9 856.2 465.9 855.4 464.4C854.4 462.4 852.5 461.4 850.7 461.4C848.9 461.4 847.8 461.9 846.9 462.9C846.4 463.3 846 463.9 845.7 464.5C845.3 465.1 845 465.7 844.6 466.5C842.8 469.8 841.1 473.8 839.7 477.4C837.9 482.3 836.2 486.9 835.2 492.1C834.5 489 834.1 481.6 834.1 479.9C834 473.6 834.5 467.2 835.4 461.4C836.1 456.8 837 452.3 838.4 447.9C839.6 444.1 841.1 440.4 843.3 437C843.6 436.6 844.7 436.2 845.6 436.3C846.6 436.4 847.6 436.8 848.6 437.1C849.3 436 848.6 435.1 847.9 434.4C846.8 433.5 845.6 433.2 844.3 433.2C842.1 434 840.5 435.2 839.5 437C837.7 440.1 835.7 445.3 834.8 448.7C832.7 456.7 831.2 465.3 830.9 473.9C830.6 481.3 830.9 488.8 832.8 496.1L833.3 498C833.5 498.6 833.8 499.2 834.1 499.6C835.2 500.3 836.3 499.4 836.7 498.7C837.5 493.2 839.6 488 841.2 482.8C842.8 477.3 845.4 471.2 848 466.7C849.5 464.2 852.4 464.8 852.7 467.5C853.8 476.4 854.1 485.7 855.8 494.4C856.1 495.7 857 497.4 858.6 497.9C860.4 498.5 862.1 496.6 862.9 495.6Z" fill="none" opacity="1" stroke="#000000" stroke-linecap="butt" stroke-linejoin="round" stroke-width="5"/>
<path d="M923.4 499.3C923.8 499.5 924.7 499.2 924.7 498.6C923.7 489.3 923.6 479.6 922.3 470.3C922 469.4 921.9 468.3 921.7 467.3C921.3 464.8 920.6 462.4 917.7 461.8C916.4 461.6 915.3 462.2 914.2 463C911.4 465.2 908 472 906.4 475.1C903.8 480.3 901.6 485.9 899.5 491.4C899.1 488.2 898.7 485.1 898.2 482C897.6 478.8 895.9 471.5 894.7 468.9C894 467.3 892.8 465.8 891 464.7C888.6 464 885.9 464.3 884.1 466.2C881.8 469.6 880.1 473.2 878.8 476.9C877.3 481.4 876.3 486.1 875.1 490.7C875 490 875 489.2 875 488.4C874.8 483.7 875.3 479.3 876.2 475C877.1 470.6 878.2 466.4 879.2 462.1C879.5 461.3 878.7 460.8 878 460.8C877 461.4 876.4 462.7 876.1 463.6C873.5 470.7 871.8 478.3 871.7 486.2C871.6 490.8 871.8 495.5 873.9 499.3C874.4 499.9 875.5 499.8 875.8 499C877.6 490.1 879.8 481.3 883.4 473C884.2 471.1 885.1 469.1 886.9 467.8C887.7 467.5 888.8 467.4 889.6 467.8C890.6 468.4 891.1 469.4 891.5 470.4C894.7 479.4 895.9 488.6 896.9 498.5C897 499.5 897.7 499.9 898.3 499.9C898.9 499.9 899.5 499.5 899.7 498.9C902.3 491.4 904.9 483.8 908.5 476.7C910.1 473.5 912.7 468.8 915.1 466.2C915.7 465.6 916.3 465.2 917.1 465.3C917.5 465.3 918.1 466 918.2 466.5C920.4 476.2 920.1 486.9 921.9 496.8C922 497.1 922.1 497.5 922.3 497.9C922.5 498.4 922.8 498.9 923.4 499.3Z" fill="none" opacity="1" stroke="#000000" stroke-linecap="butt" stroke-linejoin="round" stroke-width="5"/>
</g>
</g>
</svg>
