<?xml version="1.0" encoding="UTF-8" standalone="no"?>
<!DOCTYPE svg PUBLIC "-//W3C//DTD SVG 1.1//EN" "http://www.w3.org/Graphics/SVG/1.1/DTD/svg11.dtd">
<!-- Created with Vectornator (http://vectornator.io/) -->
<svg height="100%" stroke-miterlimit="10" style="fill-rule:nonzero;clip-rule:evenodd;stroke-linecap:round;stroke-linejoin:round;" version="1.1" viewBox="19.6214 430.7 961.833 95.2258" width="100%" xml:space="preserve" xmlns="http://www.w3.org/2000/svg" xmlns:xlink="http://www.w3.org/1999/xlink">
<defs/>
<g id="Layer-10">
<g opacity="1">
<path d="M66.05 489.9C68.35 487.6 70.65 484.4 71.85 481.7C72.15 480.6 71.45 479.2 70.25 480C68.65 482.7 66.75 485.3 64.45 487.5C57.05 494.7 49.45 498.5 39.65 496.7C35.35 495.9 31.35 493.6 28.75 489.7C25.85 485.3 25.15 480.2 25.65 474.8C26.15 468.3 28.45 461.5 30.95 456.1C33.45 450.6 37.45 444.7 42.55 440.8C45.05 438.9 48.55 437.5 51.75 436.9C53.75 436.5 56.05 436.8 57.75 437.6C59.75 438.5 61.65 440 63.35 441.8C63.75 442.2 64.65 441.8 64.95 441.2L64.75 439.9C64.75 439.5 64.65 439.1 64.45 438.7C61.65 434.9 56.85 433 52.35 433.4C49.15 433.7 45.65 434.8 42.95 436.4C38.95 438.8 35.45 442.2 32.75 446.2C27.25 454.4 23.45 463.4 22.35 473.5C21.85 478 22.15 482.4 23.45 486.5C24.85 490.8 27.65 494.4 31.95 497.1C36.45 499.9 41.85 500.7 47.05 500.1C54.75 499.2 60.25 495.6 66.05 489.9Z" fill="none" opacity="1" stroke="#000000" stroke-linecap="butt" stroke-linejoin="round" stroke-width="5"/>
<path d="M106.35 497.9C108.75 496.1 110.65 493.4 111.85 490.7C111.95 490.3 112.15 489.9 112.15 489.5C112.25 489 112.25 488.5 111.65 487.9C110.95 487.9 110.55 488.7 110.35 489.3C109.15 491.5 106.75 494.5 104.75 495.8C102.55 497.1 100.75 497.7 98.05 497.1C95.45 496.2 93.45 494.4 92.05 492.2C90.05 489.2 89.05 485.5 88.45 482C93.75 473.9 98.25 465.4 100.15 455.9C100.85 452.2 101.25 448.5 101.15 444.5C101.05 441.1 100.75 437.2 98.65 434.2C97.55 433.2 95.35 433.3 94.35 434.5C90.15 439.6 87.45 445.5 85.95 451.8C83.85 461 84.05 471.1 84.95 480.8C83.45 482.9 81.65 485 79.65 486.8L73.65 492.3C73.15 492.9 73.25 493.9 73.85 494.3C74.55 494.8 75.55 494.7 76.15 494.3C79.65 491.9 82.95 488.7 85.75 485.4C86.35 487.3 86.85 488.9 87.55 490.5C88.25 492.2 89.15 493.8 90.55 495.5C92.75 498.1 95.85 500.3 99.25 500.4C102.15 500.5 104.25 499.4 106.35 497.9ZM95.75 436.7C96.15 436.2 97.15 436.4 97.35 437.3C98.45 443.4 98.25 449.3 97.05 454.9C95.35 462.5 92.05 469.6 87.95 476C87.55 468.5 87.55 460.8 89.05 453.6C90.25 447.5 92.25 441.7 95.75 436.7Z" fill="none" opacity="1" stroke="#000000" stroke-linecap="butt" stroke-linejoin="round" stroke-width="5"/>
<path d="M136.85 495.6C140.05 492.1 142.25 487.6 143.15 482.9C144.05 478 143.55 473 141.45 468.5C140.65 466.7 139.25 464.8 137.45 463.5C136.45 462.8 135.25 462.2 133.95 462C133.65 461.3 132.65 461 132.05 461.1C129.05 461.8 126.45 463.8 124.15 466C120.25 469.7 117.45 474.3 115.95 479.2C114.55 484 114.45 489.1 116.25 494.2C117.35 497.2 120.45 499.8 123.55 500.4C128.85 501.3 133.35 499.3 136.85 495.6ZM134.45 465.1C137.15 467.1 139.25 469.7 139.75 472.8C140.35 476.3 140.35 480 139.55 483.4C138.65 487.7 136.55 491.6 133.05 494.6C130.75 496.6 127.55 497.7 124.25 496.9C121.95 496.4 119.65 494.6 119.05 492.2C118.05 487.7 118.25 483.2 119.55 479.2C121.25 474.2 124.05 469.5 128.75 466.5L130.15 465.6C130.65 465.3 131.15 465 131.65 464.6C132.45 464.1 133.45 464.1 134.45 465.1Z" fill="none" opacity="1" stroke="#000000" stroke-linecap="butt" stroke-linejoin="round" stroke-width="5"/>
<path d="M181.05 496.9C181.15 496.7 181.45 496.2 181.05 495.9C179.25 494.6 178.25 493 177.45 490.9C176.55 488.3 176.05 484 176.05 479.3C175.95 474.6 176.25 469.4 176.45 465C176.35 464.4 175.65 463.6 174.75 463.8C174.05 463.8 173.75 464.4 173.45 464.9C173.45 465 173.35 465.2 173.25 465.3C171.85 469.8 170.65 474.4 168.95 478.7C167.65 482.1 166.25 485.4 164.15 488.3C163.45 489.2 162.75 490.3 162.05 491.3C161.25 492.3 160.45 493.3 159.55 494.1C158.15 495.4 156.55 496.2 154.75 496C153.05 495.6 152.35 493.9 152.05 492.4C151.85 487.9 152.25 483.4 152.65 478.9C153.15 473.7 153.55 468.5 153.15 463.1C152.75 462.1 151.45 460.5 149.85 461.6C150.25 467.4 149.85 473 149.35 478.6C149.05 482.5 148.65 486.4 148.55 490.4C148.45 493.2 149.05 496 151.05 498.2C152.95 499.7 156.25 500.1 158.35 498.7C161.35 496.7 163.75 494.2 165.75 491.4C169.25 486.5 171.25 480.7 173.15 475C172.95 481.2 173.25 488.2 175.15 493.1C175.75 494.5 177.95 496.8 180.05 497.3C180.45 497.3 180.85 497.1 181.05 496.9Z" fill="none" opacity="1" stroke="#000000" stroke-linecap="butt" stroke-linejoin="round" stroke-width="5"/>
<path d="M211.65 492.1C212.05 492.6 213.15 493.2 214.25 492.6C214.15 492.1 213.95 491.7 213.85 491.4C213.45 490.4 212.85 489.5 212.65 488.4C210.75 479.5 210.85 470.2 211.15 461C211.45 452.3 213.15 444.1 214.25 435.6C214.35 434.6 212.55 432.9 211.45 434.6C210.55 437.5 210.05 440.5 209.65 443.5C209.25 446.5 208.95 449.6 208.45 452.7C208.05 455.8 208.05 459 207.85 462.1C207.75 464.3 207.35 466.5 206.65 468.4C206.35 467.2 205.95 466.1 205.15 465.1C203.65 463.3 201.25 462 198.85 461.9C194.65 461.6 191.25 464.9 189.15 468.3C186.35 472.7 184.05 478 183.25 483.5C182.55 487.8 182.75 492.2 184.25 496.6C185.45 498.6 187.45 500 189.65 500.2C192.85 500.5 195.55 498.1 197.35 495.5C202.05 488.7 205.15 481.2 207.75 473.5C208.15 477.3 208.05 481.1 208.65 484.7C209.15 487.4 209.85 489.9 211.65 492.1ZM203.35 473.5C203.35 473.9 203.65 474.7 204.15 474.9C201.65 481.8 198.75 488.6 194.05 494.4C192.65 496.1 191.05 497.2 189.15 496.6C187.95 496 187.25 495 186.85 493.7C186.45 492.6 186.25 491.2 186.25 489.8C186.25 488.4 186.35 487 186.35 485.7C187.35 480.6 188.65 475.7 191.25 471.3C192.45 469.4 193.95 467.6 195.85 465.9C196.95 465.2 198.45 464.9 199.75 465.4C201.05 465.8 202.25 466.6 202.85 467.8C203.65 469.5 203.35 471.7 203.35 473.5Z" fill="none" opacity="1" stroke="#000000" stroke-linecap="butt" stroke-linejoin="round" stroke-width="5"/>
<path d="M234.25 498.4C237.75 497.1 241.85 495 244.15 491.6C244.85 490.6 244.55 489.1 244.25 488.1C243.55 486.6 242.15 485.5 240.85 485.1C238.55 484.3 236.25 483.9 233.85 483.5L226.65 482.3C225.65 482.1 224.65 481.8 223.95 481.1C223.45 480.7 223.25 479.9 223.55 479.2C224.05 477.3 224.95 475.5 225.95 473.7C227.65 470.8 230.15 467.7 232.85 465.7C233.65 465.1 234.45 464.7 235.45 464.7C236.15 464.6 236.95 464.9 237.45 465.3C237.95 465.6 238.35 466 238.75 466.4C239.15 466.8 239.45 467.3 239.95 467.8C240.75 467.5 241.25 466.9 241.25 466.3C241.15 464.8 240.15 463.2 239.05 462.5C237.95 461.8 236.85 461.4 235.55 461.4C232.85 461.8 230.45 463.2 228.45 464.9C224.55 468.3 221.85 473.7 220.15 478C219.55 480.3 220.15 482.7 222.05 484.1C223.95 485.2 226.15 485.7 228.35 486C231.25 486.5 234.15 486.8 236.95 487.5C238.35 487.9 239.95 488 240.95 489.1C241.15 489.7 241.05 490.4 240.55 490.9C236.75 494.2 232.35 495.9 227.45 496.7C225.65 497 223.75 497.3 221.95 496.7C220.95 496.4 220.75 495.6 220.65 494.6C220.65 493.3 221.15 491.8 221.15 490.6C221.15 490.4 220.95 490.1 220.55 490C220.35 490 220.05 490 219.75 490.2C218.95 490.8 218.55 491.7 218.25 492.6C218.05 493.6 217.75 496 218.15 497.1C218.75 498.5 220.25 499.4 221.55 500C225.85 500.6 230.35 499.9 234.25 498.4Z" fill="none" opacity="1" stroke="#000000" stroke-linecap="butt" stroke-linejoin="round" stroke-width="5"/>
<path d="M300.65 489.7C303.45 485.6 305.25 480.3 305.25 475.1C305.25 471.9 304.45 468.7 302.65 465.9C301.15 463.6 298.95 462 296.45 461.4C293.55 460.8 290.65 461.4 288.15 462.6C285.45 463.9 282.95 465.9 281.05 468.2C280.75 467.8 280.25 467.3 279.95 467.2C279.25 466.7 278.45 466.5 277.85 467.4C277.75 468.1 277.75 469.1 278.05 469.7C278.75 478 279.35 490.1 279.05 495.7L278.85 495.6C278.25 495.2 277.65 494.7 276.95 494.5C276.25 494.2 275.65 495.3 275.95 495.7C276.35 496.4 276.85 497 277.45 497.4L279.05 498.6C278.95 503.2 278.95 507.6 278.65 512.1C278.45 515.9 278.15 519.6 277.35 523.4C278.45 523.6 279.75 522.6 280.25 521.7C281.25 519 281.75 515.9 281.95 512.8C282.25 508.6 282.15 504.2 282.45 500.1C286.25 500.4 289.85 499.3 292.85 497.4C295.95 495.5 298.55 492.8 300.65 489.7ZM299.45 466.9C301.05 469.1 301.85 471.8 301.85 474.7C301.95 479 300.55 483.6 298.45 486.9C295.05 492.3 289.35 497.2 282.55 496.9C282.55 488.6 282.15 480.8 281.75 472.6C283.65 469.9 285.85 467.4 288.55 465.9C290.85 464.7 293.25 464.1 295.95 464.7C297.35 465 298.55 465.7 299.45 466.9Z" fill="none" opacity="1" stroke="#000000" stroke-linecap="butt" stroke-linejoin="round" stroke-width="5"/>
<path d="M341.95 499.1C342.85 499.3 344.45 499.5 344.35 498.2C340.25 494.2 339.25 490.1 337.55 484.8C336.55 481.5 335.75 478.3 335.35 474.7C335.05 473.8 334.85 473.2 334.45 472.5C334.25 470.8 334.25 468.7 333.25 467.3C332.35 464.9 330.65 462.8 328.25 461.7C327.25 461.2 326.25 461.2 325.25 461.5C324.35 461.8 323.45 462.3 322.55 462.8C316.05 468.3 311.85 475.3 309.85 482.9C309.05 485.8 308.45 489.7 308.85 493.1C309.25 495.8 310.35 498.2 312.85 499.7C315.05 501.1 318.15 500.5 320.15 498.9C326.45 493.9 330.05 486.9 332.75 480.1C333.25 482.3 333.75 484.5 334.45 486.6C336.15 491.4 337.55 495.9 341.95 499.1ZM330.55 468.4C331.15 469.5 331.85 471.3 332.15 472.3C331.45 473.3 331.35 474.5 331.15 475.6C328.55 483.4 324.45 491 317.35 496.5C316.15 496.9 314.55 496.7 313.65 495.8C312.85 494.7 312.45 493.4 312.35 491.9C312.25 490.4 312.45 488.8 312.55 487.3C313.45 482.8 314.95 478.5 317.15 474.5C318.95 471.4 321.75 467.6 324.85 465.5C325.65 465 326.45 464.7 327.45 465C328.75 465.7 329.75 467 330.55 468.4Z" fill="none" opacity="1" stroke="#000000" stroke-linecap="butt" stroke-linejoin="round" stroke-width="5"/>
<path d="M362.55 498.4C366.05 497.1 370.15 495 372.45 491.6C373.15 490.6 372.85 489.1 372.55 488.1C371.85 486.6 370.45 485.5 369.15 485.1C366.85 484.3 364.55 483.9 362.15 483.5L354.95 482.3C353.95 482.1 352.95 481.8 352.25 481.1C351.75 480.7 351.55 479.9 351.85 479.2C352.35 477.3 353.25 475.5 354.25 473.7C355.95 470.8 358.45 467.7 361.15 465.7C361.95 465.1 362.75 464.7 363.75 464.7C364.45 464.6 365.25 464.9 365.75 465.3C366.25 465.6 366.65 466 367.05 466.4C367.45 466.8 367.75 467.3 368.25 467.8C369.05 467.5 369.55 466.9 369.55 466.3C369.45 464.8 368.45 463.2 367.35 462.5C366.25 461.8 365.15 461.4 363.85 461.4C361.15 461.8 358.75 463.2 356.75 464.9C352.85 468.3 350.15 473.7 348.45 478C347.85 480.3 348.45 482.7 350.35 484.1C352.25 485.2 354.45 485.7 356.65 486C359.55 486.5 362.45 486.8 365.25 487.5C366.65 487.9 368.25 488 369.25 489.1C369.45 489.7 369.35 490.4 368.85 490.9C365.05 494.2 360.65 495.9 355.75 496.7C353.95 497 352.05 497.3 350.25 496.7C349.25 496.4 349.05 495.6 348.95 494.6C348.95 493.3 349.45 491.8 349.45 490.6C349.45 490.4 349.25 490.1 348.85 490C348.65 490 348.35 490 348.05 490.2C347.25 490.8 346.85 491.7 346.55 492.6C346.35 493.6 346.05 496 346.45 497.1C347.05 498.5 348.55 499.4 349.85 500C354.15 500.6 358.65 499.9 362.55 498.4Z" fill="none" opacity="1" stroke="#000000" stroke-linecap="butt" stroke-linejoin="round" stroke-width="5"/>
<path d="M392.55 498.4C396.05 497.1 400.15 495 402.45 491.6C403.15 490.6 402.85 489.1 402.55 488.1C401.85 486.6 400.45 485.5 399.15 485.1C396.85 484.3 394.55 483.9 392.15 483.5L384.95 482.3C383.95 482.1 382.95 481.8 382.25 481.1C381.75 480.7 381.55 479.9 381.85 479.2C382.35 477.3 383.25 475.5 384.25 473.7C385.95 470.8 388.45 467.7 391.15 465.7C391.95 465.1 392.75 464.7 393.75 464.7C394.45 464.6 395.25 464.9 395.75 465.3C396.25 465.6 396.65 466 397.05 466.4C397.45 466.8 397.75 467.3 398.25 467.8C399.05 467.5 399.55 466.9 399.55 466.3C399.45 464.8 398.45 463.2 397.35 462.5C396.25 461.8 395.15 461.4 393.85 461.4C391.15 461.8 388.75 463.2 386.75 464.9C382.85 468.3 380.15 473.7 378.45 478C377.85 480.3 378.45 482.7 380.35 484.1C382.25 485.2 384.45 485.7 386.65 486C389.55 486.5 392.45 486.8 395.25 487.5C396.65 487.9 398.25 488 399.25 489.1C399.45 489.7 399.35 490.4 398.85 490.9C395.05 494.2 390.65 495.9 385.75 496.7C383.95 497 382.05 497.3 380.25 496.7C379.25 496.4 379.05 495.6 378.95 494.6C378.95 493.3 379.45 491.8 379.45 490.6C379.45 490.4 379.25 490.1 378.85 490C378.65 490 378.35 490 378.05 490.2C377.25 490.8 376.85 491.7 376.55 492.6C376.35 493.6 376.05 496 376.45 497.1C377.05 498.5 378.55 499.4 379.85 500C384.15 500.6 388.65 499.9 392.55 498.4Z" fill="none" opacity="1" stroke="#000000" stroke-linecap="butt" stroke-linejoin="round" stroke-width="5"/>
<path d="M478.45 497.6C480.85 494.9 482.25 490.7 482.75 487.2C483.75 479.4 480.85 470.4 476.25 464.1C475.25 463 474.05 461.2 472.35 461.2C471.75 461.2 470.65 461.6 470.95 462.4C473.95 466.4 476.55 470.8 478.15 475.5C478.85 477.7 479.35 479.9 479.55 482.2C479.75 485.9 479.05 489.7 477.45 493.1C476.65 494.7 475.45 496.1 473.75 496.7C471.85 497.4 470.05 496.6 468.65 495C466.05 490.8 464.35 486.2 462.65 481.6C461.65 479.9 461.25 478 459.45 477C457.65 476.2 455.65 476.3 454.35 477.6C452.85 479.7 451.75 481.8 450.75 483.9C449.25 487.1 446.65 492.1 444.35 495C443.55 496 442.55 496.6 441.15 496.3C440.45 496.1 439.85 495.4 439.65 494.8C435.95 484.2 437.95 472.1 442.25 462.1C442.35 461.2 441.45 460.9 440.85 460.9C440.05 460.9 439.05 461.4 438.75 462C436.55 466.6 435.15 471.6 434.55 476.9C433.85 482.7 434.05 488.5 435.65 494.2C436.35 496.5 437.55 498.7 440.05 499.7C441.95 500.5 444.25 500 445.65 498.5C447.95 496 449.65 493.2 451.15 490.4C452.65 487.5 453.95 484.5 455.35 481.6C455.65 481.2 455.95 480.8 456.35 480.4C456.65 480.1 456.95 479.8 457.35 479.9C458.35 480.3 458.75 481.2 459.25 482.3C460.15 484.5 460.95 486.7 461.85 489C462.75 491.2 463.75 493.5 464.95 495.6C466.45 498.2 468.65 500 472.05 500.4C474.65 500.7 476.75 499.4 478.45 497.6Z" fill="none" opacity="1" stroke="#000000" stroke-linecap="butt" stroke-linejoin="round" stroke-width="5"/>
<path d="M509.95 497.6C511.55 495.8 512.85 493.6 513.25 491.6L513.65 489.8C513.75 489.2 513.75 488.5 512.95 487.8C512.15 488.5 511.75 489.3 511.45 490C511.15 490.7 510.95 491.5 510.55 492.2C509.75 493.3 508.95 494.6 507.85 495.5C506.85 496.3 505.85 497 504.65 496.9C504.05 496.9 502.85 495.8 502.75 495.2C500.75 488.4 501.85 474.9 503.15 464.8C503.25 464 503.35 463 502.65 462.2C501.95 461.8 500.45 461.4 499.95 462.2C497.45 466 495.55 469.9 493.35 473.8C491.15 477.7 488.75 481.5 485.65 485C485.35 485.4 485.45 485.8 485.75 486C486.05 486.2 486.45 486.3 486.75 486.3C487.45 486.2 488.25 485.7 488.75 485.3C491.15 482.7 493.05 480 494.75 477.2C496.25 474.7 497.65 472.3 499.05 469.7C498.35 477.9 497.95 486.1 499.05 494.3C499.35 496.3 499.95 498 501.55 499.4C502.45 500.2 504.55 500.3 505.75 500.2C507.35 499.8 508.85 498.8 509.95 497.6ZM510.15 442.2C510.75 442.5 511.45 442.9 512.45 443.2C512.65 442 511.95 441.1 511.35 440.6C506.95 436.6 501.65 434.5 495.65 434.4C494.65 435.2 494.75 437.2 495.75 437.3C500.15 438.2 504.25 439.3 508.25 441.1L510.15 442.2Z" fill="none" opacity="1" stroke="#000000" stroke-linecap="butt" stroke-linejoin="round" stroke-width="5"/>
<path d="M559.25 484.2C559.65 483.2 560.05 482.2 560.05 481.1C560.05 480.8 559.75 480.5 559.55 480.4C559.35 480.3 558.85 480.1 558.65 480.6C558.15 481.7 557.55 482.7 556.95 483.8C556.25 484.9 555.65 485.9 554.95 487C551.45 492.7 545.55 497.3 537.65 496.8C535.35 496.7 532.75 494.4 532.35 491.9C530.95 483.9 531.05 474.4 531.75 466.3C533.85 465.6 536.45 465.2 538.95 464.9C541.55 464.6 544.15 464.4 546.15 464.3C546.75 464 547.35 462.8 546.55 462.2C544.05 461.4 541.65 461.4 539.25 461.6C536.85 461.9 534.35 462.4 532.05 462.6C532.35 460.6 532.85 457.4 533.05 454.4L533.35 450.7C533.55 449.9 533.65 449.3 533.85 449C534.15 449.1 534.45 449.3 534.75 449.6C536.05 450.6 536.75 451.6 538.65 451.8C538.25 450.7 537.85 450 537.45 449.4C537.05 448.7 536.55 448.1 536.05 447.5L535.55 446.9C534.95 446.2 534.45 445.4 533.65 445C532.85 444.4 531.65 444.3 530.95 445.5C530.55 446.2 530.35 447.2 530.25 448L528.55 463.5C526.35 464.2 521.85 465.6 519.65 466.2C519.15 466.5 518.25 466.5 517.55 466.4C516.55 466.3 516.05 467.2 516.15 467.9C516.75 469.2 518.05 469.8 519.35 469.8C522.45 468.9 525.35 467.8 528.35 467.1C527.75 476.4 527.55 485.7 529.55 494.4C531.15 497.7 534.35 500.2 537.85 500.2C547.15 500.3 553.75 494 557.65 487C558.15 486.2 558.75 485.2 559.25 484.2Z" fill="none" opacity="1" stroke="#000000" stroke-linecap="butt" stroke-linejoin="round" stroke-width="5"/>
<path d="M595.45 495.6C598.45 491.8 600.45 486.7 602.25 481.8C602.25 481.2 602.05 480.8 601.75 480.6C601.45 480.4 600.95 480.2 600.65 480.7C599.35 483.1 598.15 485.4 596.95 487.6C595.65 489.9 594.35 492 592.45 494.1C592.35 494.2 592.05 494.1 591.85 493.7C590.25 485.8 589.75 477.1 589.05 469.6C588.85 467.9 588.75 465.9 587.95 464.4C586.95 462.4 585.05 461.4 583.25 461.4C581.45 461.4 580.35 461.9 579.45 462.9C578.95 463.3 578.55 463.9 578.25 464.5C577.85 465.1 577.55 465.7 577.15 466.5C575.35 469.8 573.65 473.8 572.25 477.4C570.45 482.3 568.75 486.9 567.75 492.1C567.05 489 566.65 481.6 566.65 479.9C566.55 473.6 567.05 467.2 567.95 461.4C568.65 456.8 569.55 452.3 570.95 447.9C572.15 444.1 573.65 440.4 575.85 437C576.15 436.6 577.25 436.2 578.15 436.3C579.15 436.4 580.15 436.8 581.15 437.1C581.85 436 581.15 435.1 580.45 434.4C579.35 433.5 578.15 433.2 576.85 433.2C574.65 434 573.05 435.2 572.05 437C570.25 440.1 568.25 445.3 567.35 448.7C565.25 456.7 563.75 465.3 563.45 473.9C563.15 481.3 563.45 488.8 565.35 496.1L565.85 498C566.05 498.6 566.35 499.2 566.65 499.6C567.75 500.3 568.85 499.4 569.25 498.7C570.05 493.2 572.15 488 573.75 482.8C575.35 477.3 577.95 471.2 580.55 466.7C582.05 464.2 584.95 464.8 585.25 467.5C586.35 476.4 586.65 485.7 588.35 494.4C588.65 495.7 589.55 497.4 591.15 497.9C592.95 498.5 594.65 496.6 595.45 495.6Z" fill="none" opacity="1" stroke="#000000" stroke-linecap="butt" stroke-linejoin="round" stroke-width="5"/>
<path d="M626.45 495.6C629.65 492.1 631.85 487.6 632.75 482.9C633.65 478 633.15 473 631.05 468.5C630.25 466.7 628.85 464.8 627.05 463.5C626.05 462.8 624.85 462.2 623.55 462C623.25 461.3 622.25 461 621.65 461.1C618.65 461.8 616.05 463.8 613.75 466C609.85 469.7 607.05 474.3 605.55 479.2C604.15 484 604.05 489.1 605.85 494.2C606.95 497.2 610.05 499.8 613.15 500.4C618.45 501.3 622.95 499.3 626.45 495.6ZM624.05 465.1C626.75 467.1 628.85 469.7 629.35 472.8C629.95 476.3 629.95 480 629.15 483.4C628.25 487.7 626.15 491.6 622.65 494.6C620.35 496.6 617.15 497.7 613.85 496.9C611.55 496.4 609.25 494.6 608.65 492.2C607.65 487.7 607.85 483.2 609.15 479.2C610.85 474.2 613.65 469.5 618.35 466.5L619.75 465.6C620.25 465.3 620.75 465 621.25 464.6C622.05 464.1 623.05 464.1 624.05 465.1Z" fill="none" opacity="1" stroke="#000000" stroke-linecap="butt" stroke-linejoin="round" stroke-width="5"/>
<path d="M670.65 496.9C670.75 496.7 671.05 496.2 670.65 495.9C668.85 494.6 667.85 493 667.05 490.9C666.15 488.3 665.65 484 665.65 479.3C665.55 474.6 665.85 469.4 666.05 465C665.95 464.4 665.25 463.6 664.35 463.8C663.65 463.8 663.35 464.4 663.05 464.9C663.05 465 662.95 465.2 662.85 465.3C661.45 469.8 660.25 474.4 658.55 478.7C657.25 482.1 655.85 485.4 653.75 488.3C653.05 489.2 652.35 490.3 651.65 491.3C650.85 492.3 650.05 493.3 649.15 494.1C647.75 495.4 646.15 496.2 644.35 496C642.65 495.6 641.95 493.9 641.65 492.4C641.45 487.9 641.85 483.4 642.25 478.9C642.75 473.7 643.15 468.5 642.75 463.1C642.35 462.1 641.05 460.5 639.45 461.6C639.85 467.4 639.45 473 638.95 478.6C638.65 482.5 638.25 486.4 638.15 490.4C638.05 493.2 638.65 496 640.65 498.2C642.55 499.7 645.85 500.1 647.95 498.7C650.95 496.7 653.35 494.2 655.35 491.4C658.85 486.5 660.85 480.7 662.75 475C662.55 481.2 662.85 488.2 664.75 493.1C665.35 494.5 667.55 496.8 669.65 497.3C670.05 497.3 670.45 497.1 670.65 496.9Z" fill="none" opacity="1" stroke="#000000" stroke-linecap="butt" stroke-linejoin="round" stroke-width="5"/>
<path d="M714.25 484.2C714.65 483.2 715.05 482.2 715.05 481.1C715.05 480.8 714.75 480.5 714.55 480.4C714.35 480.3 713.85 480.1 713.65 480.6C713.15 481.7 712.55 482.7 711.95 483.8C711.25 484.9 710.65 485.9 709.95 487C706.45 492.7 700.55 497.3 692.65 496.8C690.35 496.7 687.75 494.4 687.35 491.9C685.95 483.9 686.05 474.4 686.75 466.3C688.85 465.6 691.45 465.2 693.95 464.9C696.55 464.6 699.15 464.4 701.15 464.3C701.75 464 702.35 462.8 701.55 462.2C699.05 461.4 696.65 461.4 694.25 461.6C691.85 461.9 689.35 462.4 687.05 462.6C687.35 460.6 687.85 457.4 688.05 454.4L688.35 450.7C688.55 449.9 688.65 449.3 688.85 449C689.15 449.1 689.45 449.3 689.75 449.6C691.05 450.6 691.75 451.6 693.65 451.8C693.25 450.7 692.85 450 692.45 449.4C692.05 448.7 691.55 448.1 691.05 447.5L690.55 446.9C689.95 446.2 689.45 445.4 688.65 445C687.85 444.4 686.65 444.3 685.95 445.5C685.55 446.2 685.35 447.2 685.25 448L683.55 463.5C681.35 464.2 676.85 465.6 674.65 466.2C674.15 466.5 673.25 466.5 672.55 466.4C671.55 466.3 671.05 467.2 671.15 467.9C671.75 469.2 673.05 469.8 674.35 469.8C677.45 468.9 680.35 467.8 683.35 467.1C682.75 476.4 682.55 485.7 684.55 494.4C686.15 497.7 689.35 500.2 692.85 500.2C702.15 500.3 708.75 494 712.65 487C713.15 486.2 713.75 485.2 714.25 484.2Z" fill="none" opacity="1" stroke="#000000" stroke-linecap="butt" stroke-linejoin="round" stroke-width="5"/>
<path d="M778.05 499.1C778.95 499.3 780.55 499.5 780.45 498.2C776.35 494.2 775.35 490.1 773.65 484.8C772.65 481.5 771.85 478.3 771.45 474.7C771.15 473.8 770.95 473.2 770.55 472.5C770.35 470.8 770.35 468.7 769.35 467.3C768.45 464.9 766.75 462.8 764.35 461.7C763.35 461.2 762.35 461.2 761.35 461.5C760.45 461.8 759.55 462.3 758.65 462.8C752.15 468.3 747.95 475.3 745.95 482.9C745.15 485.8 744.55 489.7 744.95 493.1C745.35 495.8 746.45 498.2 748.95 499.7C751.15 501.1 754.25 500.5 756.25 498.9C762.55 493.9 766.15 486.9 768.85 480.1C769.35 482.3 769.85 484.5 770.55 486.6C772.25 491.4 773.65 495.9 778.05 499.1ZM766.65 468.4C767.25 469.5 767.95 471.3 768.25 472.3C767.55 473.3 767.45 474.5 767.25 475.6C764.65 483.4 760.55 491 753.45 496.5C752.25 496.9 750.65 496.7 749.75 495.8C748.95 494.7 748.55 493.4 748.45 491.9C748.35 490.4 748.55 488.8 748.65 487.3C749.55 482.8 751.05 478.5 753.25 474.5C755.05 471.4 757.85 467.6 760.95 465.5C761.75 465 762.55 464.7 763.55 465C764.85 465.7 765.85 467 766.65 468.4Z" fill="none" opacity="1" stroke="#000000" stroke-linecap="butt" stroke-linejoin="round" stroke-width="5"/>
<path d="M826.45 498.4C829.95 497.1 834.05 495 836.35 491.6C837.05 490.6 836.75 489.1 836.45 488.1C835.75 486.6 834.35 485.5 833.05 485.1C830.75 484.3 828.45 483.9 826.05 483.5L818.85 482.3C817.85 482.1 816.85 481.8 816.15 481.1C815.65 480.7 815.45 479.9 815.75 479.2C816.25 477.3 817.15 475.5 818.15 473.7C819.85 470.8 822.35 467.7 825.05 465.7C825.85 465.1 826.65 464.7 827.65 464.7C828.35 464.6 829.15 464.9 829.65 465.3C830.15 465.6 830.55 466 830.95 466.4C831.35 466.8 831.65 467.3 832.15 467.8C832.95 467.5 833.45 466.9 833.45 466.3C833.35 464.8 832.35 463.2 831.25 462.5C830.15 461.8 829.05 461.4 827.75 461.4C825.05 461.8 822.65 463.2 820.65 464.9C816.75 468.3 814.05 473.7 812.35 478C811.75 480.3 812.35 482.7 814.25 484.1C816.15 485.2 818.35 485.7 820.55 486C823.45 486.5 826.35 486.8 829.15 487.5C830.55 487.9 832.15 488 833.15 489.1C833.35 489.7 833.25 490.4 832.75 490.9C828.95 494.2 824.55 495.9 819.65 496.7C817.85 497 815.95 497.3 814.15 496.7C813.15 496.4 812.95 495.6 812.85 494.6C812.85 493.3 813.35 491.8 813.35 490.6C813.35 490.4 813.15 490.1 812.75 490C812.55 490 812.25 490 811.95 490.2C811.15 490.8 810.75 491.7 810.45 492.6C810.25 493.6 809.95 496 810.35 497.1C810.95 498.5 812.45 499.4 813.75 500C818.05 500.6 822.55 499.9 826.45 498.4Z" fill="none" opacity="1" stroke="#000000" stroke-linecap="butt" stroke-linejoin="round" stroke-width="5"/>
<path d="M862.55 495.6C865.75 492.1 867.95 487.6 868.85 482.9C869.75 478 869.25 473 867.15 468.5C866.35 466.7 864.95 464.8 863.15 463.5C862.15 462.8 860.95 462.2 859.65 462C859.35 461.3 858.35 461 857.75 461.1C854.75 461.8 852.15 463.8 849.85 466C845.95 469.7 843.15 474.3 841.65 479.2C840.25 484 840.15 489.1 841.95 494.2C843.05 497.2 846.15 499.8 849.25 500.4C854.55 501.3 859.05 499.3 862.55 495.6ZM860.15 465.1C862.85 467.1 864.95 469.7 865.45 472.8C866.05 476.3 866.05 480 865.25 483.4C864.35 487.7 862.25 491.6 858.75 494.6C856.45 496.6 853.25 497.7 849.95 496.9C847.65 496.4 845.35 494.6 844.75 492.2C843.75 487.7 843.95 483.2 845.25 479.2C846.95 474.2 849.75 469.5 854.45 466.5L855.85 465.6C856.35 465.3 856.85 465 857.35 464.6C858.15 464.1 859.15 464.1 860.15 465.1Z" fill="none" opacity="1" stroke="#000000" stroke-linecap="butt" stroke-linejoin="round" stroke-width="5"/>
<path d="M906.75 496.9C906.85 496.7 907.15 496.2 906.75 495.9C904.95 494.6 903.95 493 903.15 490.9C902.25 488.3 901.75 484 901.75 479.3C901.65 474.6 901.95 469.4 902.15 465C902.05 464.4 901.35 463.6 900.45 463.8C899.75 463.8 899.45 464.4 899.15 464.9C899.15 465 899.05 465.2 898.95 465.3C897.55 469.8 896.35 474.4 894.65 478.7C893.35 482.1 891.95 485.4 889.85 488.3C889.15 489.2 888.45 490.3 887.75 491.3C886.95 492.3 886.15 493.3 885.25 494.1C883.85 495.4 882.25 496.2 880.45 496C878.75 495.6 878.05 493.9 877.75 492.4C877.55 487.9 877.95 483.4 878.35 478.9C878.85 473.7 879.25 468.5 878.85 463.1C878.45 462.1 877.15 460.5 875.55 461.6C875.95 467.4 875.55 473 875.05 478.6C874.75 482.5 874.35 486.4 874.25 490.4C874.15 493.2 874.75 496 876.75 498.2C878.65 499.7 881.95 500.1 884.05 498.7C887.05 496.7 889.45 494.2 891.45 491.4C894.95 486.5 896.95 480.7 898.85 475C898.65 481.2 898.95 488.2 900.85 493.1C901.45 494.5 903.65 496.8 905.75 497.3C906.15 497.3 906.55 497.1 906.75 496.9Z" fill="none" opacity="1" stroke="#000000" stroke-linecap="butt" stroke-linejoin="round" stroke-width="5"/>
<path d="M936.55 500.1C940.65 496.6 943.55 492.4 945.65 487.8C945.75 487.4 945.05 486.5 944.55 487L940.85 491.8C939.65 493.1 938.45 494.4 937.05 495.4C937.35 491.4 937.55 487.3 937.45 483.3C937.35 479.1 937.65 474.6 937.05 470.4C936.65 467.8 935.95 465.4 934.65 463.2C933.55 462.3 932.45 461.7 931.05 461.6C929.55 461.4 928.45 462.2 927.45 462.8C924.15 465.9 921.75 469.5 919.65 473.2C917.55 477 915.85 481.2 914.35 485.3C913.65 478.3 913.25 471.2 912.35 464.2L911.85 463.2C911.35 462.1 910.65 461.1 909.35 460.9C908.45 461.1 908.25 462.2 908.35 462.7C909.45 465.3 909.65 468.2 909.85 471C910.15 476.1 911.05 484.8 911.25 491.4C911.25 493.3 911.35 496.8 911.35 498.6C911.75 500 913.75 499.8 914.15 498.7C914.85 493.9 915.85 489.1 917.45 484.6C919.35 479 921.85 473.7 925.55 469C926.55 467.8 927.65 466.1 928.95 465.3C930.05 464.7 931.15 464.6 932.05 465.5C932.45 465.8 932.65 466.3 932.85 466.8C933.05 467.3 933.15 467.8 933.25 468.4C934.15 477.1 934.35 486.5 933.75 495.2C933.85 495.5 933.85 495.8 933.85 496.1C933.75 497 933.55 498.1 933.75 499C934.05 499.9 935.45 501 936.55 500.1Z" fill="none" opacity="1" stroke="#000000" stroke-linecap="butt" stroke-linejoin="round" stroke-width="5"/>
<path d="M976.35 492.1C976.75 492.6 977.85 493.2 978.95 492.6C978.85 492.1 978.65 491.7 978.55 491.4C978.15 490.4 977.55 489.5 977.35 488.4C975.45 479.5 975.55 470.2 975.85 461C976.15 452.3 977.85 444.1 978.95 435.6C979.05 434.6 977.25 432.9 976.15 434.6C975.25 437.5 974.75 440.5 974.35 443.5C973.95 446.5 973.65 449.6 973.15 452.7C972.75 455.8 972.75 459 972.55 462.1C972.45 464.3 972.05 466.5 971.35 468.4C971.05 467.2 970.65 466.1 969.85 465.1C968.35 463.3 965.95 462 963.55 461.9C959.35 461.6 955.95 464.9 953.85 468.3C951.05 472.7 948.75 478 947.95 483.5C947.25 487.8 947.45 492.2 948.95 496.6C950.15 498.6 952.15 500 954.35 500.2C957.55 500.5 960.25 498.1 962.05 495.5C966.75 488.7 969.85 481.2 972.45 473.5C972.85 477.3 972.75 481.1 973.35 484.7C973.85 487.4 974.55 489.9 976.35 492.1ZM968.05 473.5C968.05 473.9 968.35 474.7 968.85 474.9C966.35 481.8 963.45 488.6 958.75 494.4C957.35 496.1 955.75 497.2 953.85 496.6C952.65 496 951.95 495 951.55 493.7C951.15 492.6 950.95 491.2 950.95 489.8C950.95 488.4 951.05 487 951.05 485.7C952.05 480.6 953.35 475.7 955.95 471.3C957.15 469.4 958.65 467.6 960.55 465.9C961.65 465.2 963.15 464.9 964.45 465.4C965.75 465.8 966.95 466.6 967.55 467.8C968.35 469.5 968.05 471.7 968.05 473.5Z" fill="none" opacity="1" stroke="#000000" stroke-linecap="butt" stroke-linejoin="round" stroke-width="5"/>
</g>
</g>
</svg>
