<?xml version="1.0" encoding="UTF-8" standalone="no"?>
<!DOCTYPE svg PUBLIC "-//W3C//DTD SVG 1.1//EN" "http://www.w3.org/Graphics/SVG/1.1/DTD/svg11.dtd">
<!-- Created with Vectornator (http://vectornator.io/) -->
<svg height="100%" stroke-miterlimit="10" style="fill-rule:nonzero;clip-rule:evenodd;stroke-linecap:round;stroke-linejoin:round;" version="1.1" viewBox="85.7875 429.8 824.013 96.5117" width="100%" xml:space="preserve" xmlns="http://www.w3.org/2000/svg" xmlns:xlink="http://www.w3.org/1999/xlink">
<defs/>
<g id="Layer-5">
<g opacity="1">
<path d="M126.7 470.2C128.9 469.5 131.1 468.6 133 467.4C133.3 467.3 133.4 465.9 132.9 465.9C130.4 466.3 127.4 466.9 125.8 467.2C122.2 456.5 118 446 113.5 435.7L113.9 434.5C114 434 114 433.4 113.7 432.9C113.1 432.4 111.6 431.8 111 433C104.6 446.5 99.8 460.9 95.3 475.2C95 475.4 94.6 475.5 94.2 475.7L92.7 476.1C92 476.5 91.4 477.3 91.5 478C91.7 478.7 92.2 479 92.7 479.2C93.1 479.3 93.5 479.3 93.9 479.3C92 485.5 90.1 491.8 88.4 498.1C88.1 499.2 88.4 500.3 89.3 501.2C89.9 501.3 90.6 501.4 91.1 501C93.1 493.2 95.2 485.7 97.8 478.3C106.2 475.7 114.7 473.1 123.3 471.2C124.2 475.5 125.8 479.8 126.6 484.2C127.2 487.5 127.4 490.9 126.4 494.2C126.2 494.9 127.3 495.6 127.9 495.2C128.5 494.9 128.9 494.5 129.2 494C129.5 493.6 129.6 493.1 129.9 492.7C130.5 489.7 130.5 486.9 130.1 484.2C129.3 479.4 127.5 474.8 126.7 470.2ZM111.7 440.2C115.8 449.2 119.2 458.5 122.2 468C114.3 469.7 106.8 471.9 99.1 474.1C102.9 462.6 106.8 451.1 111.7 440.2Z" fill="none" opacity="1" stroke="#000000" stroke-linecap="butt" stroke-linejoin="round" stroke-width="5"/>
<path d="M186.1 495.5C188.4 493.1 190.8 488.6 191.3 484.9C191.4 484.1 190.2 483.8 189.9 484.4C189.1 486.4 188.2 488.4 186.9 490.4C185.8 492.1 184.3 493.9 182.3 495.2C180.1 496.6 178.5 497.2 175.6 497C172.6 496.7 169.9 495.4 168.3 492.7C167 490.4 166.7 487.7 166.8 484.7C167.7 479.1 169 472.9 172.5 468.6C174 466.7 175.8 465.2 178.2 464.3C179.9 463.9 181.9 464.2 183.1 465.6C184 466.6 184.3 468 184.1 469.4C184.1 469.9 183.9 470.3 183.6 470.8L183.1 471.6C183 471.9 182.9 472.2 182.9 472.8C183.9 472.8 184.5 472.4 184.9 472C185.4 471.5 185.8 471 186.2 470.5C187.2 468.7 187 465.9 185.9 464.2C184.2 461.6 181.2 461 178.2 461.2C175 461.8 172.5 463.6 170.5 465.9C167.7 469.2 165.8 473.4 164.7 477.1C163.5 480.9 162.9 485.4 163.6 489.4C164.2 492.6 165.6 495.4 168.3 497.6C173.9 502 181.3 500.5 186.1 495.5Z" fill="none" opacity="1" stroke="#000000" stroke-linecap="butt" stroke-linejoin="round" stroke-width="5"/>
<path d="M227.1 499.1C228 499.3 229.6 499.5 229.5 498.2C225.4 494.2 224.4 490.1 222.7 484.8C221.7 481.5 220.9 478.3 220.5 474.7C220.2 473.8 220 473.2 219.6 472.5C219.4 470.8 219.4 468.7 218.4 467.3C217.5 464.9 215.8 462.8 213.4 461.7C212.4 461.2 211.4 461.2 210.4 461.5C209.5 461.8 208.6 462.3 207.7 462.8C201.2 468.3 197 475.3 195 482.9C194.2 485.8 193.6 489.7 194 493.1C194.4 495.8 195.5 498.2 198 499.7C200.2 501.1 203.3 500.5 205.3 498.9C211.6 493.9 215.2 486.9 217.9 480.1C218.4 482.3 218.9 484.5 219.6 486.6C221.3 491.4 222.7 495.9 227.1 499.1ZM215.7 468.4C216.3 469.5 217 471.3 217.3 472.3C216.6 473.3 216.5 474.5 216.3 475.6C213.7 483.4 209.6 491 202.5 496.5C201.3 496.9 199.7 496.7 198.8 495.8C198 494.7 197.6 493.4 197.5 491.9C197.4 490.4 197.6 488.8 197.7 487.3C198.6 482.8 200.1 478.5 202.3 474.5C204.1 471.4 206.9 467.6 210 465.5C210.8 465 211.6 464.7 212.6 465C213.9 465.7 214.9 467 215.7 468.4Z" fill="none" opacity="1" stroke="#000000" stroke-linecap="butt" stroke-linejoin="round" stroke-width="5"/>
<path d="M259.3 500.1C263.4 496.6 266.3 492.4 268.4 487.8C268.5 487.4 267.8 486.5 267.3 487L263.6 491.8C262.4 493.1 261.2 494.4 259.8 495.4C260.1 491.4 260.3 487.3 260.2 483.3C260.1 479.1 260.4 474.6 259.8 470.4C259.4 467.8 258.7 465.4 257.4 463.2C256.3 462.3 255.2 461.7 253.8 461.6C252.3 461.4 251.2 462.2 250.2 462.8C246.9 465.9 244.5 469.5 242.4 473.2C240.3 477 238.6 481.2 237.1 485.3C236.4 478.3 236 471.2 235.1 464.2L234.6 463.2C234.1 462.1 233.4 461.1 232.1 460.9C231.2 461.1 231 462.2 231.1 462.7C232.2 465.3 232.4 468.2 232.6 471C232.9 476.1 233.8 484.8 234 491.4C234 493.3 234.1 496.8 234.1 498.6C234.5 500 236.5 499.8 236.9 498.7C237.6 493.9 238.6 489.1 240.2 484.6C242.1 479 244.6 473.7 248.3 469C249.3 467.8 250.4 466.1 251.7 465.3C252.8 464.7 253.9 464.6 254.8 465.5C255.2 465.8 255.4 466.3 255.6 466.8C255.8 467.3 255.9 467.8 256 468.4C256.9 477.1 257.1 486.5 256.5 495.2C256.6 495.5 256.6 495.8 256.6 496.1C256.5 497 256.3 498.1 256.5 499C256.8 499.9 258.2 501 259.3 500.1Z" fill="none" opacity="1" stroke="#000000" stroke-linecap="butt" stroke-linejoin="round" stroke-width="5"/>
<path d="M299.1 492.1C299.5 492.6 300.6 493.2 301.7 492.6C301.6 492.1 301.4 491.7 301.3 491.4C300.9 490.4 300.3 489.5 300.1 488.4C298.2 479.5 298.3 470.2 298.6 461C298.9 452.3 300.6 444.1 301.7 435.6C301.8 434.6 300 432.9 298.9 434.6C298 437.5 297.5 440.5 297.1 443.5C296.7 446.5 296.4 449.6 295.9 452.7C295.5 455.8 295.5 459 295.3 462.1C295.2 464.3 294.8 466.5 294.1 468.4C293.8 467.2 293.4 466.1 292.6 465.1C291.1 463.3 288.7 462 286.3 461.9C282.1 461.6 278.7 464.9 276.6 468.3C273.8 472.7 271.5 478 270.7 483.5C270 487.8 270.2 492.2 271.7 496.6C272.9 498.6 274.9 500 277.1 500.2C280.3 500.5 283 498.1 284.8 495.5C289.5 488.7 292.6 481.2 295.2 473.5C295.6 477.3 295.5 481.1 296.1 484.7C296.6 487.4 297.3 489.9 299.1 492.1ZM290.8 473.5C290.8 473.9 291.1 474.7 291.6 474.9C289.1 481.8 286.2 488.6 281.5 494.4C280.1 496.1 278.5 497.2 276.6 496.6C275.4 496 274.7 495 274.3 493.7C273.9 492.6 273.7 491.2 273.7 489.8C273.7 488.4 273.8 487 273.8 485.7C274.8 480.6 276.1 475.7 278.7 471.3C279.9 469.4 281.4 467.6 283.3 465.9C284.4 465.2 285.9 464.9 287.2 465.4C288.5 465.8 289.7 466.6 290.3 467.8C291.1 469.5 290.8 471.7 290.8 473.5Z" fill="none" opacity="1" stroke="#000000" stroke-linecap="butt" stroke-linejoin="round" stroke-width="5"/>
<path d="M337.8 497.9C340.2 496.1 342.1 493.4 343.3 490.7C343.4 490.3 343.6 489.9 343.6 489.5C343.7 489 343.7 488.5 343.1 487.9C342.4 487.9 342 488.7 341.8 489.3C340.6 491.5 338.2 494.5 336.2 495.8C334 497.1 332.2 497.7 329.5 497.1C326.9 496.2 324.9 494.4 323.5 492.2C321.5 489.2 320.5 485.5 319.9 482C325.2 473.9 329.7 465.4 331.6 455.9C332.3 452.2 332.7 448.5 332.6 444.5C332.5 441.1 332.2 437.2 330.1 434.2C329 433.2 326.8 433.3 325.8 434.5C321.6 439.6 318.9 445.5 317.4 451.8C315.3 461 315.5 471.1 316.4 480.8C314.9 482.9 313.1 485 311.1 486.8L305.1 492.3C304.6 492.9 304.7 493.9 305.3 494.3C306 494.8 307 494.7 307.6 494.3C311.1 491.9 314.4 488.7 317.2 485.4C317.8 487.3 318.3 488.9 319 490.5C319.7 492.2 320.6 493.8 322 495.5C324.2 498.1 327.3 500.3 330.7 500.4C333.6 500.5 335.7 499.4 337.8 497.9ZM327.2 436.7C327.6 436.2 328.6 436.4 328.8 437.3C329.9 443.4 329.7 449.3 328.5 454.9C326.8 462.5 323.5 469.6 319.4 476C319 468.5 319 460.8 320.5 453.6C321.7 447.5 323.7 441.7 327.2 436.7Z" fill="none" opacity="1" stroke="#000000" stroke-linecap="butt" stroke-linejoin="round" stroke-width="5"/>
<path d="M376.6 490.9C377.6 489.3 378.8 486.9 378.9 485C378.9 484.6 378 483.6 377.5 484.1C376.3 487.5 373.8 490.4 370.8 493C369.2 494.4 367.1 495.7 364.9 496.5C362.6 497.4 360.1 497.6 357.7 496.2C355.1 494.7 354.2 491.9 353.7 489.1C355.4 488 357.3 486.7 359.2 485.3C361.1 483.9 363 482.4 364.6 480.9C364.9 480.5 365.4 480 365.8 479.6L367.3 478.2C368.4 477.2 369.5 476.1 370.4 475.1C371.5 473.8 372.4 472.1 372 470C370.6 466.8 368 463.1 364.5 461.9C361.8 461 357.6 462.2 355.4 464C353 466.7 351.4 470.2 350.7 473.7C349.7 478.2 349.7 483 350 487.5C349.2 487.9 348.2 488.6 347.5 488.9C347.1 489.1 346.6 489.2 346 489.4C345.4 489.5 344.8 489.7 344.2 490C343.7 490.8 344.1 491.7 344.5 492.1C345.8 492.7 346.7 492.7 347.8 492.4C348.5 492.2 349.6 491.6 350.4 491C350.7 492 351 493 351.5 493.9C352 495 352.8 496.1 354 497.4C356.1 499.6 359.3 500.7 362.6 500.4C365.7 500.1 368.7 498.6 371.4 496.5C373.4 494.9 375.2 493 376.6 490.9ZM364.5 465.6C366.4 466.9 367.8 469 368.7 471C368.4 473 366.5 474.4 365.2 475.7C363.5 477.5 361.5 479.3 359.3 480.9C357.3 482.4 355.3 483.8 353.4 485.1C353.2 481.3 353.3 477.5 354.3 474C355 471.3 356 468.9 357.6 466.8C359.2 465.3 362.5 464.9 364.5 465.6Z" fill="none" opacity="1" stroke="#000000" stroke-linecap="butt" stroke-linejoin="round" stroke-width="5"/>
<path d="M435.1 464.3C435.9 464 437 462.6 435.7 461.7C433.6 461.3 431.5 461.3 429.4 461.5C427.5 461.7 425.6 462.1 423.8 462.3C423.7 457.5 424.1 452.7 424.1 447.9C424.1 445.1 424.5 442.5 425.7 440.1C426.6 438.2 428.5 436.5 430.5 436.2C431.5 436 432.5 436 433.5 436.3C434.2 436.6 434.7 435.7 434.7 435.2C433.5 433.9 431.8 433.5 430.3 433.3C427.2 433.4 424.5 435.5 423 438.3C421.4 441.2 421 444.6 420.8 448C420.6 452.8 420.7 458.1 420.5 463.1C416.9 464.2 412.1 466.2 409.6 467.8C408.6 468.4 407.7 469.3 407.7 470.9C408 471.4 408.6 472.1 409.4 471.9C413.2 469.5 416.3 467.7 420.5 466.7C420.6 475.3 420.9 491.8 420.7 500.1C420.6 504.1 420.1 507.8 419 511.4C417.9 515 416.1 518.6 413.9 521.6C413.6 522 413.7 522.6 414.1 522.8C414.5 523 415.1 523 415.8 522.5C418.6 520.5 421.2 515 422 512.4C423.2 508.6 423.6 504.5 423.9 500.4C424.1 496.4 423.9 492.3 423.9 488.3C423.9 482.5 423.5 471 423.8 465.8C427.9 464.8 431.2 464.4 435.1 464.3Z" fill="none" opacity="1" stroke="#000000" stroke-linecap="butt" stroke-linejoin="round" stroke-width="5"/>
<path d="M471.1 497.9C473.5 496.1 475.4 493.4 476.6 490.7C476.7 490.3 476.9 489.9 476.9 489.5C477 489 477 488.5 476.4 487.9C475.7 487.9 475.3 488.7 475.1 489.3C473.9 491.5 471.5 494.5 469.5 495.8C467.3 497.1 465.5 497.7 462.8 497.1C460.2 496.2 458.2 494.4 456.8 492.2C454.8 489.2 453.8 485.5 453.2 482C458.5 473.9 463 465.4 464.9 455.9C465.6 452.2 466 448.5 465.9 444.5C465.8 441.1 465.5 437.2 463.4 434.2C462.3 433.2 460.1 433.3 459.1 434.5C454.9 439.6 452.2 445.5 450.7 451.8C448.6 461 448.8 471.1 449.7 480.8C448.2 482.9 446.4 485 444.4 486.8L438.4 492.3C437.9 492.9 438 493.9 438.6 494.3C439.3 494.8 440.3 494.7 440.9 494.3C444.4 491.9 447.7 488.7 450.5 485.4C451.1 487.3 451.6 488.9 452.3 490.5C453 492.2 453.9 493.8 455.3 495.5C457.5 498.1 460.6 500.3 464 500.4C466.9 500.5 469 499.4 471.1 497.9ZM460.5 436.7C460.9 436.2 461.9 436.4 462.1 437.3C463.2 443.4 463 449.3 461.8 454.9C460.1 462.5 456.8 469.6 452.7 476C452.3 468.5 452.3 460.8 453.8 453.6C455 447.5 457 441.7 460.5 436.7Z" fill="none" opacity="1" stroke="#000000" stroke-linecap="butt" stroke-linejoin="round" stroke-width="5"/>
<path d="M502.6 497.6C504.2 495.8 505.5 493.6 505.9 491.6L506.3 489.8C506.4 489.2 506.4 488.5 505.6 487.8C504.8 488.5 504.4 489.3 504.1 490C503.8 490.7 503.6 491.5 503.2 492.2C502.4 493.3 501.6 494.6 500.5 495.5C499.5 496.3 498.5 497 497.3 496.9C496.7 496.9 495.5 495.8 495.4 495.2C493.4 488.4 494.5 474.9 495.8 464.8C495.9 464 496 463 495.3 462.2C494.6 461.8 493.1 461.4 492.6 462.2C490.1 466 488.2 469.9 486 473.8C483.8 477.7 481.4 481.5 478.3 485C478 485.4 478.1 485.8 478.4 486C478.7 486.2 479.1 486.3 479.4 486.3C480.1 486.2 480.9 485.7 481.4 485.3C483.8 482.7 485.7 480 487.4 477.2C488.9 474.7 490.3 472.3 491.7 469.7C491 477.9 490.6 486.1 491.7 494.3C492 496.3 492.6 498 494.2 499.4C495.1 500.2 497.2 500.3 498.4 500.2C500 499.8 501.5 498.8 502.6 497.6ZM502.8 442.2C503.4 442.5 504.1 442.9 505.1 443.2C505.3 442 504.6 441.1 504 440.6C499.6 436.6 494.3 434.5 488.3 434.4C487.3 435.2 487.4 437.2 488.4 437.3C492.8 438.2 496.9 439.3 500.9 441.1L502.8 442.2Z" fill="none" opacity="1" stroke="#000000" stroke-linecap="butt" stroke-linejoin="round" stroke-width="5"/>
<path d="M532.9 495.5C535.2 493.1 537.6 488.6 538.1 484.9C538.2 484.1 537 483.8 536.7 484.4C535.9 486.4 535 488.4 533.7 490.4C532.6 492.1 531.1 493.9 529.1 495.2C526.9 496.6 525.3 497.2 522.4 497C519.4 496.7 516.7 495.4 515.1 492.7C513.8 490.4 513.5 487.7 513.6 484.7C514.5 479.1 515.8 472.9 519.3 468.6C520.8 466.7 522.6 465.2 525 464.3C526.7 463.9 528.7 464.2 529.9 465.6C530.8 466.6 531.1 468 530.9 469.4C530.9 469.9 530.7 470.3 530.4 470.8L529.9 471.6C529.8 471.9 529.7 472.2 529.7 472.8C530.7 472.8 531.3 472.4 531.7 472C532.2 471.5 532.6 471 533 470.5C534 468.7 533.8 465.9 532.7 464.2C531 461.6 528 461 525 461.2C521.8 461.8 519.3 463.6 517.3 465.9C514.5 469.2 512.6 473.4 511.5 477.1C510.3 480.9 509.7 485.4 510.4 489.4C511 492.6 512.4 495.4 515.1 497.6C520.7 502 528.1 500.5 532.9 495.5Z" fill="none" opacity="1" stroke="#000000" stroke-linecap="butt" stroke-linejoin="round" stroke-width="5"/>
<path d="M568 493.9C569.8 493.7 573.6 492.4 574.9 491.1C575.2 490.5 575.1 489.5 574.3 489.2C570.8 490.4 568.4 491 563.9 491C559.4 491 556.4 490.1 552.4 488.3C550.3 487.3 548.4 486.2 547.5 484.2C547.4 481.4 548.4 479 549.8 476.6C551.4 474 553.4 471.7 555.6 469.5C558.7 466.3 562.1 463.7 566.2 463.2C566.7 463.5 567 463.8 567.3 464.2C567.8 465.1 567.9 466.1 568.1 467.1C568.4 467.5 569.4 467.5 569.6 467C570.1 465.4 569.7 463.6 569.3 462.1C568.7 461 567.5 460.4 566.4 460.2C561.8 460.6 557.5 463.1 553.9 466.4C550.1 469.9 547.1 474.3 545.3 478.5C545.1 471.9 545.7 465.4 546.8 459.1C548.1 451.6 550.2 444.3 552.6 437.1L552.6 434.7C551.9 433.4 549.7 432.5 549 434.2C548.8 434.7 548.9 435.3 548.9 435.9C548.9 436.4 548.9 436.9 548.7 437.4C546.3 444.5 544.4 452.2 543.2 460.3C542 468.1 541.5 476.2 542.1 484.1C542.4 488.9 543.2 493.7 544.3 498.4C544.5 498.6 544.6 498.8 544.7 499C544.8 499.2 544.9 499.4 545.1 499.6C545.4 499.9 545.8 500.2 546.5 500.2C547.5 499.7 548 499.1 548.4 498.2C549 497.2 549.2 495.9 549.3 494.5C548.6 494.5 548.3 494.8 547.9 495.1L547.2 495.5C546.8 494.4 546.6 493.1 546.4 491.8C546.3 490.6 546.2 489.4 546 488.3C548.7 490.3 551.7 492 554.8 493C559.3 494.4 563.5 494.3 568 493.9Z" fill="none" opacity="1" stroke="#000000" stroke-linecap="butt" stroke-linejoin="round" stroke-width="5"/>
<path d="M607.4 490.9C608.4 489.3 609.6 486.9 609.7 485C609.7 484.6 608.8 483.6 608.3 484.1C607.1 487.5 604.6 490.4 601.6 493C600 494.4 597.9 495.7 595.7 496.5C593.4 497.4 590.9 497.6 588.5 496.2C585.9 494.7 585 491.9 584.5 489.1C586.2 488 588.1 486.7 590 485.3C591.9 483.9 593.8 482.4 595.4 480.9C595.7 480.5 596.2 480 596.6 479.6L598.1 478.2C599.2 477.2 600.3 476.1 601.2 475.1C602.3 473.8 603.2 472.1 602.8 470C601.4 466.8 598.8 463.1 595.3 461.9C592.6 461 588.4 462.2 586.2 464C583.8 466.7 582.2 470.2 581.5 473.7C580.5 478.2 580.5 483 580.8 487.5C580 487.9 579 488.6 578.3 488.9C577.9 489.1 577.4 489.2 576.8 489.4C576.2 489.5 575.6 489.7 575 490C574.5 490.8 574.9 491.7 575.3 492.1C576.6 492.7 577.5 492.7 578.6 492.4C579.3 492.2 580.4 491.6 581.2 491C581.5 492 581.8 493 582.3 493.9C582.8 495 583.6 496.1 584.8 497.4C586.9 499.6 590.1 500.7 593.4 500.4C596.5 500.1 599.5 498.6 602.2 496.5C604.2 494.9 606 493 607.4 490.9ZM595.3 465.6C597.2 466.9 598.6 469 599.5 471C599.2 473 597.3 474.4 596 475.7C594.3 477.5 592.3 479.3 590.1 480.9C588.1 482.4 586.1 483.8 584.2 485.1C584 481.3 584.1 477.5 585.1 474C585.8 471.3 586.8 468.9 588.4 466.8C590 465.3 593.3 464.9 595.3 465.6Z" fill="none" opacity="1" stroke="#000000" stroke-linecap="butt" stroke-linejoin="round" stroke-width="5"/>
<path d="M641.2 464.8C641.8 464.8 642.6 464.2 642.3 463.2C641 462.6 639.4 462.8 638.3 463C635.7 463.5 634.5 464 632 464.9C629.7 465.8 626.1 467.9 624.3 469.5C622.2 471.4 619.7 473.8 617.9 476.7C617.8 472.7 618.2 469 619.5 466.1C619.5 465.7 619.7 465.5 619.9 465.1C620.5 464.1 621.5 463.3 621.5 461.9C620.9 461.1 620.1 461 619.4 461C618.1 461.5 617.4 462.3 616.9 463.3C616.4 464.2 616 465.3 615.5 466.2C614.3 470.5 614 474.8 614.5 479C615.2 485.8 617.6 492.3 619.9 498.8L621.1 500.1C621.7 500.7 622.7 500.4 623 499.5C622.2 496.6 621.2 493.9 620.4 491.1C619.6 488.4 618.9 485.6 618.6 482.6C619.9 479 622.2 475.9 624.9 473.3C627.6 470.7 630.1 468.5 633 467.3C636 466 638.2 465.4 641.2 464.8Z" fill="none" opacity="1" stroke="#000000" stroke-linecap="butt" stroke-linejoin="round" stroke-width="5"/>
<path d="M658.5 498.4C662 497.1 666.1 495 668.4 491.6C669.1 490.6 668.8 489.1 668.5 488.1C667.8 486.6 666.4 485.5 665.1 485.1C662.8 484.3 660.5 483.9 658.1 483.5L650.9 482.3C649.9 482.1 648.9 481.8 648.2 481.1C647.7 480.7 647.5 479.9 647.8 479.2C648.3 477.3 649.2 475.5 650.2 473.7C651.9 470.8 654.4 467.7 657.1 465.7C657.9 465.1 658.7 464.7 659.7 464.7C660.4 464.6 661.2 464.9 661.7 465.3C662.2 465.6 662.6 466 663 466.4C663.4 466.8 663.7 467.3 664.2 467.8C665 467.5 665.5 466.9 665.5 466.3C665.4 464.8 664.4 463.2 663.3 462.5C662.2 461.8 661.1 461.4 659.8 461.4C657.1 461.8 654.7 463.2 652.7 464.9C648.8 468.3 646.1 473.7 644.4 478C643.8 480.3 644.4 482.7 646.3 484.1C648.2 485.2 650.4 485.7 652.6 486C655.5 486.5 658.4 486.8 661.2 487.5C662.6 487.9 664.2 488 665.2 489.1C665.4 489.7 665.3 490.4 664.8 490.9C661 494.2 656.6 495.9 651.7 496.7C649.9 497 648 497.3 646.2 496.7C645.2 496.4 645 495.6 644.9 494.6C644.9 493.3 645.4 491.8 645.4 490.6C645.4 490.4 645.2 490.1 644.8 490C644.6 490 644.3 490 644 490.2C643.2 490.8 642.8 491.7 642.5 492.6C642.3 493.6 642 496 642.4 497.1C643 498.5 644.5 499.4 645.8 500C650.1 500.6 654.6 499.9 658.5 498.4Z" fill="none" opacity="1" stroke="#000000" stroke-linecap="butt" stroke-linejoin="round" stroke-width="5"/>
<path d="M716.3 498.4C719.8 497.1 723.9 495 726.2 491.6C726.9 490.6 726.6 489.1 726.3 488.1C725.6 486.6 724.2 485.5 722.9 485.1C720.6 484.3 718.3 483.9 715.9 483.5L708.7 482.3C707.7 482.1 706.7 481.8 706 481.1C705.5 480.7 705.3 479.9 705.6 479.2C706.1 477.3 707 475.5 708 473.7C709.7 470.8 712.2 467.7 714.9 465.7C715.7 465.1 716.5 464.7 717.5 464.7C718.2 464.6 719 464.9 719.5 465.3C720 465.6 720.4 466 720.8 466.4C721.2 466.8 721.5 467.3 722 467.8C722.8 467.5 723.3 466.9 723.3 466.3C723.2 464.8 722.2 463.2 721.1 462.5C720 461.8 718.9 461.4 717.6 461.4C714.9 461.8 712.5 463.2 710.5 464.9C706.6 468.3 703.9 473.7 702.2 478C701.6 480.3 702.2 482.7 704.1 484.1C706 485.2 708.2 485.7 710.4 486C713.3 486.5 716.2 486.8 719 487.5C720.4 487.9 722 488 723 489.1C723.2 489.7 723.1 490.4 722.6 490.9C718.8 494.2 714.4 495.9 709.5 496.7C707.7 497 705.8 497.3 704 496.7C703 496.4 702.8 495.6 702.7 494.6C702.7 493.3 703.2 491.8 703.2 490.6C703.2 490.4 703 490.1 702.6 490C702.4 490 702.1 490 701.8 490.2C701 490.8 700.6 491.7 700.3 492.6C700.1 493.6 699.8 496 700.2 497.1C700.8 498.5 702.3 499.4 703.6 500C707.9 500.6 712.4 499.9 716.3 498.4Z" fill="none" opacity="1" stroke="#000000" stroke-linecap="butt" stroke-linejoin="round" stroke-width="5"/>
<path d="M752.4 495.6C755.6 492.1 757.8 487.6 758.7 482.9C759.6 478 759.1 473 757 468.5C756.2 466.7 754.8 464.8 753 463.5C752 462.8 750.8 462.2 749.5 462C749.2 461.3 748.2 461 747.6 461.1C744.6 461.8 742 463.8 739.7 466C735.8 469.7 733 474.3 731.5 479.2C730.1 484 730 489.1 731.8 494.2C732.9 497.2 736 499.8 739.1 500.4C744.4 501.3 748.9 499.3 752.4 495.6ZM750 465.1C752.7 467.1 754.8 469.7 755.3 472.8C755.9 476.3 755.9 480 755.1 483.4C754.2 487.7 752.1 491.6 748.6 494.6C746.3 496.6 743.1 497.7 739.8 496.9C737.5 496.4 735.2 494.6 734.6 492.2C733.6 487.7 733.8 483.2 735.1 479.2C736.8 474.2 739.6 469.5 744.3 466.5L745.7 465.6C746.2 465.3 746.7 465 747.2 464.6C748 464.1 749 464.1 750 465.1Z" fill="none" opacity="1" stroke="#000000" stroke-linecap="butt" stroke-linejoin="round" stroke-width="5"/>
<path d="M788.9 464.3C789.7 464 790.8 462.6 789.5 461.7C787.4 461.3 785.3 461.3 783.2 461.5C781.3 461.7 779.4 462.1 777.6 462.3C777.5 457.5 777.9 452.7 777.9 447.9C777.9 445.1 778.3 442.5 779.5 440.1C780.4 438.2 782.3 436.5 784.3 436.2C785.3 436 786.3 436 787.3 436.3C788 436.6 788.5 435.7 788.5 435.2C787.3 433.9 785.6 433.5 784.1 433.3C781 433.4 778.3 435.5 776.8 438.3C775.2 441.2 774.8 444.6 774.6 448C774.4 452.8 774.5 458.1 774.3 463.1C770.7 464.2 765.9 466.2 763.4 467.8C762.4 468.4 761.5 469.3 761.5 470.9C761.8 471.4 762.4 472.1 763.2 471.9C767 469.5 770.1 467.7 774.3 466.7C774.4 475.3 774.7 491.8 774.5 500.1C774.4 504.1 773.9 507.8 772.8 511.4C771.7 515 769.9 518.6 767.7 521.6C767.4 522 767.5 522.6 767.9 522.8C768.3 523 768.9 523 769.6 522.5C772.4 520.5 775 515 775.8 512.4C777 508.6 777.4 504.5 777.7 500.4C777.9 496.4 777.7 492.3 777.7 488.3C777.7 482.5 777.3 471 777.6 465.8C781.7 464.8 785 464.4 788.9 464.3Z" fill="none" opacity="1" stroke="#000000" stroke-linecap="butt" stroke-linejoin="round" stroke-width="5"/>
<path d="M834.2 484.2C834.6 483.2 835 482.2 835 481.1C835 480.8 834.7 480.5 834.5 480.4C834.3 480.3 833.8 480.1 833.6 480.6C833.1 481.7 832.5 482.7 831.9 483.8C831.2 484.9 830.6 485.9 829.9 487C826.4 492.7 820.5 497.3 812.6 496.8C810.3 496.7 807.7 494.4 807.3 491.9C805.9 483.9 806 474.4 806.7 466.3C808.8 465.6 811.4 465.2 813.9 464.9C816.5 464.6 819.1 464.4 821.1 464.3C821.7 464 822.3 462.8 821.5 462.2C819 461.4 816.6 461.4 814.2 461.6C811.8 461.9 809.3 462.4 807 462.6C807.3 460.6 807.8 457.4 808 454.4L808.3 450.7C808.5 449.9 808.6 449.3 808.8 449C809.1 449.1 809.4 449.3 809.7 449.6C811 450.6 811.7 451.6 813.6 451.8C813.2 450.7 812.8 450 812.4 449.4C812 448.7 811.5 448.1 811 447.5L810.5 446.9C809.9 446.2 809.4 445.4 808.6 445C807.8 444.4 806.6 444.3 805.9 445.5C805.5 446.2 805.3 447.2 805.2 448L803.5 463.5C801.3 464.2 796.8 465.6 794.6 466.2C794.1 466.5 793.2 466.5 792.5 466.4C791.5 466.3 791 467.2 791.1 467.9C791.7 469.2 793 469.8 794.3 469.8C797.4 468.9 800.3 467.8 803.3 467.1C802.7 476.4 802.5 485.7 804.5 494.4C806.1 497.7 809.3 500.2 812.8 500.2C822.1 500.3 828.7 494 832.6 487C833.1 486.2 833.7 485.2 834.2 484.2Z" fill="none" opacity="1" stroke="#000000" stroke-linecap="butt" stroke-linejoin="round" stroke-width="5"/>
<path d="M869.4 497.9C871.8 496.1 873.7 493.4 874.9 490.7C875 490.3 875.2 489.9 875.2 489.5C875.3 489 875.3 488.5 874.7 487.9C874 487.9 873.6 488.7 873.4 489.3C872.2 491.5 869.8 494.5 867.8 495.8C865.6 497.1 863.8 497.7 861.1 497.1C858.5 496.2 856.5 494.4 855.1 492.2C853.1 489.2 852.1 485.5 851.5 482C856.8 473.9 861.3 465.4 863.2 455.9C863.9 452.2 864.3 448.5 864.2 444.5C864.1 441.1 863.8 437.2 861.7 434.2C860.6 433.2 858.4 433.3 857.4 434.5C853.2 439.6 850.5 445.5 849 451.8C846.9 461 847.1 471.1 848 480.8C846.5 482.9 844.7 485 842.7 486.8L836.7 492.3C836.2 492.9 836.3 493.9 836.9 494.3C837.6 494.8 838.6 494.7 839.2 494.3C842.7 491.9 846 488.7 848.8 485.4C849.4 487.3 849.9 488.9 850.6 490.5C851.3 492.2 852.2 493.8 853.6 495.5C855.8 498.1 858.9 500.3 862.3 500.4C865.2 500.5 867.3 499.4 869.4 497.9ZM858.8 436.7C859.2 436.2 860.2 436.4 860.4 437.3C861.5 443.4 861.3 449.3 860.1 454.9C858.4 462.5 855.1 469.6 851 476C850.6 468.5 850.6 460.8 852.1 453.6C853.3 447.5 855.3 441.7 858.8 436.7Z" fill="none" opacity="1" stroke="#000000" stroke-linecap="butt" stroke-linejoin="round" stroke-width="5"/>
<path d="M905 510.3C906.3 507.9 907.3 505.2 907.3 502.4C905.6 489.8 904.4 476.3 905 463.5C904.9 462.8 904.6 462.1 904 461.6C903 461.1 902.3 461.5 901.7 462C896.3 470.9 890.5 479.6 883.3 487.6C883.1 487.8 882.6 487.7 882.6 487.6C882.4 486.2 882.4 484.8 882.4 483.3C882.4 481.9 882.5 480.3 882.5 478.9C882.4 475.5 883.1 472.4 883.2 469.2C883.3 467.3 883.3 465.5 882.8 463.4C882.2 462.4 881.5 461.6 880.5 461.2C879.4 461 878 461.8 878.5 463.2C878.7 463.5 878.8 463.8 879 464L879.5 464.8C879.8 465.4 880 465.8 879.8 466.4C879.7 470.1 879.3 473.8 879.1 477.5C878.9 481.2 878.9 484.9 879.3 488.7C879.8 489.5 880.4 490.5 881.6 490.7C882.9 491 884.4 490.6 885.3 489.4C891.2 482 896.6 474.5 901.4 466.6C901.6 478.3 902.4 489.9 903.8 501.1C904.2 504.1 903.4 506.8 902.1 509.2C900.9 511.2 898.9 513.7 896.9 515.3C892.7 518.7 888.2 521 882.8 520.9C880.2 520.8 877.3 520.3 875 519C873.9 518.4 873 517.5 872 516.8L870.3 515.7C871 517.8 871.7 519 872.6 520C875.2 522.7 879.2 523.7 882.8 523.8C891.9 524.1 900.6 518.3 905 510.3Z" fill="none" opacity="1" stroke="#000000" stroke-linecap="butt" stroke-linejoin="round" stroke-width="5"/>
</g>
</g>
</svg>
