<?xml version="1.0" encoding="UTF-8" standalone="no"?>
<!DOCTYPE svg PUBLIC "-//W3C//DTD SVG 1.1//EN" "http://www.w3.org/Graphics/SVG/1.1/DTD/svg11.dtd">
<!-- Created with Vectornator (http://vectornator.io/) -->
<svg height="100%" stroke-miterlimit="10" style="fill-rule:nonzero;clip-rule:evenodd;stroke-linecap:round;stroke-linejoin:round;" version="1.1" viewBox="135.266 430.7 729.644 95.465" width="100%" xml:space="preserve" xmlns="http://www.w3.org/2000/svg" xmlns:xlink="http://www.w3.org/1999/xlink">
<defs/>
<g id="Layer-9">
<g opacity="1">
<path d="M165.7 488.7C166.9 474.3 166.7 459.6 167.7 445.5C167.6 444.5 166.5 442.9 165.4 443.9C164.6 446.6 164.1 449.4 163.9 452.1C163.5 458.3 163.5 470.3 163.2 476.1C162.8 482.2 162 492.8 161.6 500.1C161.6 500.4 161.9 500.6 162.2 500.6C162.4 500.5 162.7 500.4 162.9 500.2C164.3 496.6 165.4 492.8 165.7 488.7ZM166.1 437.9C172.4 437.4 178.7 437.3 185.4 437.8C185.4 436.8 185.1 436.3 184.7 435.9L183.2 435C180.2 434.5 177.3 434.3 174.4 434.3C171.4 434.3 168.4 434.5 165.4 434.6C156.3 435.1 148 437.6 139.2 438.9C138.4 438.9 137.4 439.5 137.9 440.4C138.4 441.4 139.4 442 140.4 442.2C148.7 440.2 157.3 438.6 166.1 437.9Z" fill="none" opacity="1" stroke="#000000" stroke-linecap="butt" stroke-linejoin="round" stroke-width="5"/>
<path d="M221.1 495.6C224.1 491.8 226.1 486.7 227.9 481.8C227.9 481.2 227.7 480.8 227.4 480.6C227.1 480.4 226.6 480.2 226.3 480.7C225 483.1 223.8 485.4 222.6 487.6C221.3 489.9 220 492 218.1 494.1C218 494.2 217.7 494.1 217.5 493.7C215.9 485.8 215.4 477.1 214.7 469.6C214.5 467.9 214.4 465.9 213.6 464.4C212.6 462.4 210.7 461.4 208.9 461.4C207.1 461.4 206 461.9 205.1 462.9C204.6 463.3 204.2 463.9 203.9 464.5C203.5 465.1 203.2 465.7 202.8 466.5C201 469.8 199.3 473.8 197.9 477.4C196.1 482.3 194.4 486.9 193.4 492.1C192.7 489 192.3 481.6 192.3 479.9C192.2 473.6 192.7 467.2 193.6 461.4C194.3 456.8 195.2 452.3 196.6 447.9C197.8 444.1 199.3 440.4 201.5 437C201.8 436.6 202.9 436.2 203.8 436.3C204.8 436.4 205.8 436.8 206.8 437.1C207.5 436 206.8 435.1 206.1 434.4C205 433.5 203.8 433.2 202.5 433.2C200.3 434 198.7 435.2 197.7 437C195.9 440.1 193.9 445.3 193 448.7C190.9 456.7 189.4 465.3 189.1 473.9C188.8 481.3 189.1 488.8 191 496.1L191.5 498C191.7 498.6 192 499.2 192.3 499.6C193.4 500.3 194.5 499.4 194.9 498.7C195.7 493.2 197.8 488 199.4 482.8C201 477.3 203.6 471.2 206.2 466.7C207.7 464.2 210.6 464.8 210.9 467.5C212 476.4 212.3 485.7 214 494.4C214.3 495.7 215.2 497.4 216.8 497.9C218.6 498.5 220.3 496.6 221.1 495.6Z" fill="none" opacity="1" stroke="#000000" stroke-linecap="butt" stroke-linejoin="round" stroke-width="5"/>
<path d="M260.4 490.9C261.4 489.3 262.6 486.9 262.7 485C262.7 484.6 261.8 483.6 261.3 484.1C260.1 487.5 257.6 490.4 254.6 493C253 494.4 250.9 495.7 248.7 496.5C246.4 497.4 243.9 497.6 241.5 496.2C238.9 494.7 238 491.9 237.5 489.1C239.2 488 241.1 486.7 243 485.3C244.9 483.9 246.8 482.4 248.4 480.9C248.7 480.5 249.2 480 249.6 479.6L251.1 478.2C252.2 477.2 253.3 476.1 254.2 475.1C255.3 473.8 256.2 472.1 255.8 470C254.4 466.8 251.8 463.1 248.3 461.9C245.6 461 241.4 462.2 239.2 464C236.8 466.7 235.2 470.2 234.5 473.7C233.5 478.2 233.5 483 233.8 487.5C233 487.9 232 488.6 231.3 488.9C230.9 489.1 230.4 489.2 229.8 489.4C229.2 489.5 228.6 489.7 228 490C227.5 490.8 227.9 491.7 228.3 492.1C229.6 492.7 230.5 492.7 231.6 492.4C232.3 492.2 233.4 491.6 234.2 491C234.5 492 234.8 493 235.3 493.9C235.8 495 236.6 496.1 237.8 497.4C239.9 499.6 243.1 500.7 246.4 500.4C249.5 500.1 252.5 498.6 255.2 496.5C257.2 494.9 259 493 260.4 490.9ZM248.3 465.6C250.2 466.9 251.6 469 252.5 471C252.2 473 250.3 474.4 249 475.7C247.3 477.5 245.3 479.3 243.1 480.9C241.1 482.4 239.1 483.8 237.2 485.1C237 481.3 237.1 477.5 238.1 474C238.8 471.3 239.8 468.9 241.4 466.8C243 465.3 246.3 464.9 248.3 465.6Z" fill="none" opacity="1" stroke="#000000" stroke-linecap="butt" stroke-linejoin="round" stroke-width="5"/>
<path d="M309.3 498.4C312.8 497.1 316.9 495 319.2 491.6C319.9 490.6 319.6 489.1 319.3 488.1C318.6 486.6 317.2 485.5 315.9 485.1C313.6 484.3 311.3 483.9 308.9 483.5L301.7 482.3C300.7 482.1 299.7 481.8 299 481.1C298.5 480.7 298.3 479.9 298.6 479.2C299.1 477.3 300 475.5 301 473.7C302.7 470.8 305.2 467.7 307.9 465.7C308.7 465.1 309.5 464.7 310.5 464.7C311.2 464.6 312 464.9 312.5 465.3C313 465.6 313.4 466 313.8 466.4C314.2 466.8 314.5 467.3 315 467.8C315.8 467.5 316.3 466.9 316.3 466.3C316.2 464.8 315.2 463.2 314.1 462.5C313 461.8 311.9 461.4 310.6 461.4C307.9 461.8 305.5 463.2 303.5 464.9C299.6 468.3 296.9 473.7 295.2 478C294.6 480.3 295.2 482.7 297.1 484.1C299 485.2 301.2 485.7 303.4 486C306.3 486.5 309.2 486.8 312 487.5C313.4 487.9 315 488 316 489.1C316.2 489.7 316.1 490.4 315.6 490.9C311.8 494.2 307.4 495.9 302.5 496.7C300.7 497 298.8 497.3 297 496.7C296 496.4 295.8 495.6 295.7 494.6C295.7 493.3 296.2 491.8 296.2 490.6C296.2 490.4 296 490.1 295.6 490C295.4 490 295.1 490 294.8 490.2C294 490.8 293.6 491.7 293.3 492.6C293.1 493.6 292.8 496 293.2 497.1C293.8 498.5 295.3 499.4 296.6 500C300.9 500.6 305.4 499.9 309.3 498.4Z" fill="none" opacity="1" stroke="#000000" stroke-linecap="butt" stroke-linejoin="round" stroke-width="5"/>
<path d="M356.6 496.9C356.7 496.7 357 496.2 356.6 495.9C354.8 494.6 353.8 493 353 490.9C352.1 488.3 351.6 484 351.6 479.3C351.5 474.6 351.8 469.4 352 465C351.9 464.4 351.2 463.6 350.3 463.8C349.6 463.8 349.3 464.4 349 464.9C349 465 348.9 465.2 348.8 465.3C347.4 469.8 346.2 474.4 344.5 478.7C343.2 482.1 341.8 485.4 339.7 488.3C339 489.2 338.3 490.3 337.6 491.3C336.8 492.3 336 493.3 335.1 494.1C333.7 495.4 332.1 496.2 330.3 496C328.6 495.6 327.9 493.9 327.6 492.4C327.4 487.9 327.8 483.4 328.2 478.9C328.7 473.7 329.1 468.5 328.7 463.1C328.3 462.1 327 460.5 325.4 461.6C325.8 467.4 325.4 473 324.9 478.6C324.6 482.5 324.2 486.4 324.1 490.4C324 493.2 324.6 496 326.6 498.2C328.5 499.7 331.8 500.1 333.9 498.7C336.9 496.7 339.3 494.2 341.3 491.4C344.8 486.5 346.8 480.7 348.7 475C348.5 481.2 348.8 488.2 350.7 493.1C351.3 494.5 353.5 496.8 355.6 497.3C356 497.3 356.4 497.1 356.6 496.9Z" fill="none" opacity="1" stroke="#000000" stroke-linecap="butt" stroke-linejoin="round" stroke-width="5"/>
<path d="M386.4 500.1C390.5 496.6 393.4 492.4 395.5 487.8C395.6 487.4 394.9 486.5 394.4 487L390.7 491.8C389.5 493.1 388.3 494.4 386.9 495.4C387.2 491.4 387.4 487.3 387.3 483.3C387.2 479.1 387.5 474.6 386.9 470.4C386.5 467.8 385.8 465.4 384.5 463.2C383.4 462.3 382.3 461.7 380.9 461.6C379.4 461.4 378.3 462.2 377.3 462.8C374 465.9 371.6 469.5 369.5 473.2C367.4 477 365.7 481.2 364.2 485.3C363.5 478.3 363.1 471.2 362.2 464.2L361.7 463.2C361.2 462.1 360.5 461.1 359.2 460.9C358.3 461.1 358.1 462.2 358.2 462.7C359.3 465.3 359.5 468.2 359.7 471C360 476.1 360.9 484.8 361.1 491.4C361.1 493.3 361.2 496.8 361.2 498.6C361.6 500 363.6 499.8 364 498.7C364.7 493.9 365.7 489.1 367.3 484.6C369.2 479 371.7 473.7 375.4 469C376.4 467.8 377.5 466.1 378.8 465.3C379.9 464.7 381 464.6 381.9 465.5C382.3 465.8 382.5 466.3 382.7 466.8C382.9 467.3 383 467.8 383.1 468.4C384 477.1 384.2 486.5 383.6 495.2C383.7 495.5 383.7 495.8 383.7 496.1C383.6 497 383.4 498.1 383.6 499C383.9 499.9 385.3 501 386.4 500.1Z" fill="none" opacity="1" stroke="#000000" stroke-linecap="butt" stroke-linejoin="round" stroke-width="5"/>
<path d="M448.7 497.6C450.3 495.8 451.6 493.6 452 491.6L452.4 489.8C452.5 489.2 452.5 488.5 451.7 487.8C450.9 488.5 450.5 489.3 450.2 490C449.9 490.7 449.7 491.5 449.3 492.2C448.5 493.3 447.7 494.6 446.6 495.5C445.6 496.3 444.6 497 443.4 496.9C442.8 496.9 441.6 495.8 441.5 495.2C439.5 488.4 440.6 474.9 441.9 464.8C442 464 442.1 463 441.4 462.2C440.7 461.8 439.2 461.4 438.7 462.2C436.2 466 434.3 469.9 432.1 473.8C429.9 477.7 427.5 481.5 424.4 485C424.1 485.4 424.2 485.8 424.5 486C424.8 486.2 425.2 486.3 425.5 486.3C426.2 486.2 427 485.7 427.5 485.3C429.9 482.7 431.8 480 433.5 477.2C435 474.7 436.4 472.3 437.8 469.7C437.1 477.9 436.7 486.1 437.8 494.3C438.1 496.3 438.7 498 440.3 499.4C441.2 500.2 443.3 500.3 444.5 500.2C446.1 499.8 447.6 498.8 448.7 497.6ZM448.9 442.2C449.5 442.5 450.2 442.9 451.2 443.2C451.4 442 450.7 441.1 450.1 440.6C445.7 436.6 440.4 434.5 434.4 434.4C433.4 435.2 433.5 437.2 434.5 437.3C438.9 438.2 443 439.3 447 441.1L448.9 442.2Z" fill="none" opacity="1" stroke="#000000" stroke-linecap="butt" stroke-linejoin="round" stroke-width="5"/>
<path d="M472.6 498.4C476.1 497.1 480.2 495 482.5 491.6C483.2 490.6 482.9 489.1 482.6 488.1C481.9 486.6 480.5 485.5 479.2 485.1C476.9 484.3 474.6 483.9 472.2 483.5L465 482.3C464 482.1 463 481.8 462.3 481.1C461.8 480.7 461.6 479.9 461.9 479.2C462.4 477.3 463.3 475.5 464.3 473.7C466 470.8 468.5 467.7 471.2 465.7C472 465.1 472.8 464.7 473.8 464.7C474.5 464.6 475.3 464.9 475.8 465.3C476.3 465.6 476.7 466 477.1 466.4C477.5 466.8 477.8 467.3 478.3 467.8C479.1 467.5 479.6 466.9 479.6 466.3C479.5 464.8 478.5 463.2 477.4 462.5C476.3 461.8 475.2 461.4 473.9 461.4C471.2 461.8 468.8 463.2 466.8 464.9C462.9 468.3 460.2 473.7 458.5 478C457.9 480.3 458.5 482.7 460.4 484.1C462.3 485.2 464.5 485.7 466.7 486C469.6 486.5 472.5 486.8 475.3 487.5C476.7 487.9 478.3 488 479.3 489.1C479.5 489.7 479.4 490.4 478.9 490.9C475.1 494.2 470.7 495.9 465.8 496.7C464 497 462.1 497.3 460.3 496.7C459.3 496.4 459.1 495.6 459 494.6C459 493.3 459.5 491.8 459.5 490.6C459.5 490.4 459.3 490.1 458.9 490C458.7 490 458.4 490 458.1 490.2C457.3 490.8 456.9 491.7 456.6 492.6C456.4 493.6 456.1 496 456.5 497.1C457.1 498.5 458.6 499.4 459.9 500C464.2 500.6 468.7 499.9 472.6 498.4Z" fill="none" opacity="1" stroke="#000000" stroke-linecap="butt" stroke-linejoin="round" stroke-width="5"/>
<path d="M537.5 494.5C538.3 493.8 539.1 493.1 539.7 492.3C540.1 491.7 539.9 490.5 539.3 490.5C538.6 490.9 537.9 491.3 537.2 491.8C536.6 492.1 536 492.5 535.5 492.7C535.5 487.4 535.8 482.4 536.3 477.3C536.1 476.1 536.7 474.8 536.4 473.6C536.1 472.8 535.3 472.1 534.4 472C533.9 472 533.4 472.2 532.9 472.4C533.4 470 534 467.1 532.9 464.7C532.2 463.3 530.8 462.3 529.6 461.7C527.9 461.3 525.9 461.5 524.5 462.4C522.3 463.9 520.6 465.9 519.2 467.8C516.7 471.3 515.2 475.3 514.8 479.6C514.8 482.4 516 485.2 518.8 486.4C521.4 487 523.6 486.3 525.5 484.9C527.1 483.7 528.5 482 529.9 480.2L533.1 475.9C532.8 482.2 532.1 488.6 532.2 494.9C527.6 498.5 522.9 502.4 519.6 507.4C517.5 510.6 515.2 514.2 515.9 518.6C516.6 520.6 518.2 522.3 520.2 523.2C522.3 524.1 525.3 523.6 527.2 522.5C530.4 520.8 532.4 518.5 533.6 515.6C534.7 512.8 535.1 509.6 535.3 506.2C535.4 503 535.4 499.6 535.4 496.3C536 495.7 536.8 495.1 537.5 494.5ZM522.2 509.4C524.9 505.4 528.2 502 532 498.8C532.1 501.1 532.2 503.6 532.1 506C532 508.5 531.6 511 530.8 513.2C529.8 516.2 527.7 518.8 524.3 520.3C522.9 520.6 521.5 520.3 520.5 519.5C519.5 518.7 519.3 517.5 519.2 516.2C519.6 513.7 520.8 511.5 522.2 509.4ZM529.9 465.8C530.5 467.1 530.7 468.5 530.4 470C530.3 471.1 529.9 472.2 529.5 473.3C529.1 474.5 528.6 475.6 528.2 476.7C527.2 478.5 526.1 480.5 524.5 482C523.5 483 522.2 483.5 520.6 483.4C519.8 483.1 518.9 482.5 518.7 481.7C518.2 479.3 518.5 477.1 519.3 475C520.3 472.1 523 467.2 525.7 465.4C526.9 464.6 528.5 464.4 529.9 465.8Z" fill="none" opacity="1" stroke="#000000" stroke-linecap="butt" stroke-linejoin="round" stroke-width="5"/>
<path d="M566.5 495.6C569.7 492.1 571.9 487.6 572.8 482.9C573.7 478 573.2 473 571.1 468.5C570.3 466.7 568.9 464.8 567.1 463.5C566.1 462.8 564.9 462.2 563.6 462C563.3 461.3 562.3 461 561.7 461.1C558.7 461.8 556.1 463.8 553.8 466C549.9 469.7 547.1 474.3 545.6 479.2C544.2 484 544.1 489.1 545.9 494.2C547 497.2 550.1 499.8 553.2 500.4C558.5 501.3 563 499.3 566.5 495.6ZM564.1 465.1C566.8 467.1 568.9 469.7 569.4 472.8C570 476.3 570 480 569.2 483.4C568.3 487.7 566.2 491.6 562.7 494.6C560.4 496.6 557.2 497.7 553.9 496.9C551.6 496.4 549.3 494.6 548.7 492.2C547.7 487.7 547.9 483.2 549.2 479.2C550.9 474.2 553.7 469.5 558.4 466.5L559.8 465.6C560.3 465.3 560.8 465 561.3 464.6C562.1 464.1 563.1 464.1 564.1 465.1Z" fill="none" opacity="1" stroke="#000000" stroke-linecap="butt" stroke-linejoin="round" stroke-width="5"/>
<path d="M600.5 497.6C602.1 495.8 603.4 493.6 603.8 491.6L604.2 489.8C604.3 489.2 604.3 488.5 603.5 487.8C602.7 488.5 602.3 489.3 602 490C601.7 490.7 601.5 491.5 601.1 492.2C600.3 493.3 599.5 494.6 598.4 495.5C597.4 496.3 596.4 497 595.2 496.9C594.6 496.9 593.4 495.8 593.3 495.2C591.3 488.4 592.4 474.9 593.7 464.8C593.8 464 593.9 463 593.2 462.2C592.5 461.8 591 461.4 590.5 462.2C588 466 586.1 469.9 583.9 473.8C581.7 477.7 579.3 481.5 576.2 485C575.9 485.4 576 485.8 576.3 486C576.6 486.2 577 486.3 577.3 486.3C578 486.2 578.8 485.7 579.3 485.3C581.7 482.7 583.6 480 585.3 477.2C586.8 474.7 588.2 472.3 589.6 469.7C588.9 477.9 588.5 486.1 589.6 494.3C589.9 496.3 590.5 498 592.1 499.4C593 500.2 595.1 500.3 596.3 500.2C597.9 499.8 599.4 498.8 600.5 497.6ZM600.7 442.2C601.3 442.5 602 442.9 603 443.2C603.2 442 602.5 441.1 601.9 440.6C597.5 436.6 592.2 434.5 586.2 434.4C585.2 435.2 585.3 437.2 586.3 437.3C590.7 438.2 594.8 439.3 598.8 441.1L600.7 442.2Z" fill="none" opacity="1" stroke="#000000" stroke-linecap="butt" stroke-linejoin="round" stroke-width="5"/>
<path d="M636 500.1C640.1 496.6 643 492.4 645.1 487.8C645.2 487.4 644.5 486.5 644 487L640.3 491.8C639.1 493.1 637.9 494.4 636.5 495.4C636.8 491.4 637 487.3 636.9 483.3C636.8 479.1 637.1 474.6 636.5 470.4C636.1 467.8 635.4 465.4 634.1 463.2C633 462.3 631.9 461.7 630.5 461.6C629 461.4 627.9 462.2 626.9 462.8C623.6 465.9 621.2 469.5 619.1 473.2C617 477 615.3 481.2 613.8 485.3C613.1 478.3 612.7 471.2 611.8 464.2L611.3 463.2C610.8 462.1 610.1 461.1 608.8 460.9C607.9 461.1 607.7 462.2 607.8 462.7C608.9 465.3 609.1 468.2 609.3 471C609.6 476.1 610.5 484.8 610.7 491.4C610.7 493.3 610.8 496.8 610.8 498.6C611.2 500 613.2 499.8 613.6 498.7C614.3 493.9 615.3 489.1 616.9 484.6C618.8 479 621.3 473.7 625 469C626 467.8 627.1 466.1 628.4 465.3C629.5 464.7 630.6 464.6 631.5 465.5C631.9 465.8 632.1 466.3 632.3 466.8C632.5 467.3 632.6 467.8 632.7 468.4C633.6 477.1 633.8 486.5 633.2 495.2C633.3 495.5 633.3 495.8 633.3 496.1C633.2 497 633 498.1 633.2 499C633.5 499.9 634.9 501 636 500.1Z" fill="none" opacity="1" stroke="#000000" stroke-linecap="butt" stroke-linejoin="round" stroke-width="5"/>
<path d="M670.5 494.5C671.3 493.8 672.1 493.1 672.7 492.3C673.1 491.7 672.9 490.5 672.3 490.5C671.6 490.9 670.9 491.3 670.2 491.8C669.6 492.1 669 492.5 668.5 492.7C668.5 487.4 668.8 482.4 669.3 477.3C669.1 476.1 669.7 474.8 669.4 473.6C669.1 472.8 668.3 472.1 667.4 472C666.9 472 666.4 472.2 665.9 472.4C666.4 470 667 467.1 665.9 464.7C665.2 463.3 663.8 462.3 662.6 461.7C660.9 461.3 658.9 461.5 657.5 462.4C655.3 463.9 653.6 465.9 652.2 467.8C649.7 471.3 648.2 475.3 647.8 479.6C647.8 482.4 649 485.2 651.8 486.4C654.4 487 656.6 486.3 658.5 484.9C660.1 483.7 661.5 482 662.9 480.2L666.1 475.9C665.8 482.2 665.1 488.6 665.2 494.9C660.6 498.5 655.9 502.4 652.6 507.4C650.5 510.6 648.2 514.2 648.9 518.6C649.6 520.6 651.2 522.3 653.2 523.2C655.3 524.1 658.3 523.6 660.2 522.5C663.4 520.8 665.4 518.5 666.6 515.6C667.7 512.8 668.1 509.6 668.3 506.2C668.4 503 668.4 499.6 668.4 496.3C669 495.7 669.8 495.1 670.5 494.5ZM655.2 509.4C657.9 505.4 661.2 502 665 498.8C665.1 501.1 665.2 503.6 665.1 506C665 508.5 664.6 511 663.8 513.2C662.8 516.2 660.7 518.8 657.3 520.3C655.9 520.6 654.5 520.3 653.5 519.5C652.5 518.7 652.3 517.5 652.2 516.2C652.6 513.7 653.8 511.5 655.2 509.4ZM662.9 465.8C663.5 467.1 663.7 468.5 663.4 470C663.3 471.1 662.9 472.2 662.5 473.3C662.1 474.5 661.6 475.6 661.2 476.7C660.2 478.5 659.1 480.5 657.5 482C656.5 483 655.2 483.5 653.6 483.4C652.8 483.1 651.9 482.5 651.7 481.7C651.2 479.3 651.5 477.1 652.3 475C653.3 472.1 656 467.2 658.7 465.4C659.9 464.6 661.5 464.4 662.9 465.8Z" fill="none" opacity="1" stroke="#000000" stroke-linecap="butt" stroke-linejoin="round" stroke-width="5"/>
<path d="M733.6 492.1C734 492.6 735.1 493.2 736.2 492.6C736.1 492.1 735.9 491.7 735.8 491.4C735.4 490.4 734.8 489.5 734.6 488.4C732.7 479.5 732.8 470.2 733.1 461C733.4 452.3 735.1 444.1 736.2 435.6C736.3 434.6 734.5 432.9 733.4 434.6C732.5 437.5 732 440.5 731.6 443.5C731.2 446.5 730.9 449.6 730.4 452.7C730 455.8 730 459 729.8 462.1C729.7 464.3 729.3 466.5 728.6 468.4C728.3 467.2 727.9 466.1 727.1 465.1C725.6 463.3 723.2 462 720.8 461.9C716.6 461.6 713.2 464.9 711.1 468.3C708.3 472.7 706 478 705.2 483.5C704.5 487.8 704.7 492.2 706.2 496.6C707.4 498.6 709.4 500 711.6 500.2C714.8 500.5 717.5 498.1 719.3 495.5C724 488.7 727.1 481.2 729.7 473.5C730.1 477.3 730 481.1 730.6 484.7C731.1 487.4 731.8 489.9 733.6 492.1ZM725.3 473.5C725.3 473.9 725.6 474.7 726.1 474.9C723.6 481.8 720.7 488.6 716 494.4C714.6 496.1 713 497.2 711.1 496.6C709.9 496 709.2 495 708.8 493.7C708.4 492.6 708.2 491.2 708.2 489.8C708.2 488.4 708.3 487 708.3 485.7C709.3 480.6 710.6 475.7 713.2 471.3C714.4 469.4 715.9 467.6 717.8 465.9C718.9 465.2 720.4 464.9 721.7 465.4C723 465.8 724.2 466.6 724.8 467.8C725.6 469.5 725.3 471.7 725.3 473.5Z" fill="none" opacity="1" stroke="#000000" stroke-linecap="butt" stroke-linejoin="round" stroke-width="5"/>
<path d="M762.3 495.6C765.5 492.1 767.7 487.6 768.6 482.9C769.5 478 769 473 766.9 468.5C766.1 466.7 764.7 464.8 762.9 463.5C761.9 462.8 760.7 462.2 759.4 462C759.1 461.3 758.1 461 757.5 461.1C754.5 461.8 751.9 463.8 749.6 466C745.7 469.7 742.9 474.3 741.4 479.2C740 484 739.9 489.1 741.7 494.2C742.8 497.2 745.9 499.8 749 500.4C754.3 501.3 758.8 499.3 762.3 495.6ZM759.9 465.1C762.6 467.1 764.7 469.7 765.2 472.8C765.8 476.3 765.8 480 765 483.4C764.1 487.7 762 491.6 758.5 494.6C756.2 496.6 753 497.7 749.7 496.9C747.4 496.4 745.1 494.6 744.5 492.2C743.5 487.7 743.7 483.2 745 479.2C746.7 474.2 749.5 469.5 754.2 466.5L755.6 465.6C756.1 465.3 756.6 465 757.1 464.6C757.9 464.1 758.9 464.1 759.9 465.1Z" fill="none" opacity="1" stroke="#000000" stroke-linecap="butt" stroke-linejoin="round" stroke-width="5"/>
<path d="M817.3 497.6C819.7 494.9 821.1 490.7 821.6 487.2C822.6 479.4 819.7 470.4 815.1 464.1C814.1 463 812.9 461.2 811.2 461.2C810.6 461.2 809.5 461.6 809.8 462.4C812.8 466.4 815.4 470.8 817 475.5C817.7 477.7 818.2 479.9 818.4 482.2C818.6 485.9 817.9 489.7 816.3 493.1C815.5 494.7 814.3 496.1 812.6 496.7C810.7 497.4 808.9 496.6 807.5 495C804.9 490.8 803.2 486.2 801.5 481.6C800.5 479.9 800.1 478 798.3 477C796.5 476.2 794.5 476.3 793.2 477.6C791.7 479.7 790.6 481.8 789.6 483.9C788.1 487.1 785.5 492.1 783.2 495C782.4 496 781.4 496.6 780 496.3C779.3 496.1 778.7 495.4 778.5 494.8C774.8 484.2 776.8 472.1 781.1 462.1C781.2 461.2 780.3 460.9 779.7 460.9C778.9 460.9 777.9 461.4 777.6 462C775.4 466.6 774 471.6 773.4 476.9C772.7 482.7 772.9 488.5 774.5 494.2C775.2 496.5 776.4 498.7 778.9 499.7C780.8 500.5 783.1 500 784.5 498.5C786.8 496 788.5 493.2 790 490.4C791.5 487.5 792.8 484.5 794.2 481.6C794.5 481.2 794.8 480.8 795.2 480.4C795.5 480.1 795.8 479.8 796.2 479.9C797.2 480.3 797.6 481.2 798.1 482.3C799 484.5 799.8 486.7 800.7 489C801.6 491.2 802.6 493.5 803.8 495.6C805.3 498.2 807.5 500 810.9 500.4C813.5 500.7 815.6 499.4 817.3 497.6Z" fill="none" opacity="1" stroke="#000000" stroke-linecap="butt" stroke-linejoin="round" stroke-width="5"/>
<path d="M853.3 500.1C857.4 496.6 860.3 492.4 862.4 487.8C862.5 487.4 861.8 486.5 861.3 487L857.6 491.8C856.4 493.1 855.2 494.4 853.8 495.4C854.1 491.4 854.3 487.3 854.2 483.3C854.1 479.1 854.4 474.6 853.8 470.4C853.4 467.8 852.7 465.4 851.4 463.2C850.3 462.3 849.2 461.7 847.8 461.6C846.3 461.4 845.2 462.2 844.2 462.8C840.9 465.9 838.5 469.5 836.4 473.2C834.3 477 832.6 481.2 831.1 485.3C830.4 478.3 830 471.2 829.1 464.2L828.6 463.2C828.1 462.1 827.4 461.1 826.1 460.9C825.2 461.1 825 462.2 825.1 462.7C826.2 465.3 826.4 468.2 826.6 471C826.9 476.1 827.8 484.8 828 491.4C828 493.3 828.1 496.8 828.1 498.6C828.5 500 830.5 499.8 830.9 498.7C831.6 493.9 832.6 489.1 834.2 484.6C836.1 479 838.6 473.7 842.3 469C843.3 467.8 844.4 466.1 845.7 465.3C846.8 464.7 847.9 464.6 848.8 465.5C849.2 465.8 849.4 466.3 849.6 466.8C849.8 467.3 849.9 467.8 850 468.4C850.9 477.1 851.1 486.5 850.5 495.2C850.6 495.5 850.6 495.8 850.6 496.1C850.5 497 850.3 498.1 850.5 499C850.8 499.9 852.2 501 853.3 500.1Z" fill="none" opacity="1" stroke="#000000" stroke-linecap="butt" stroke-linejoin="round" stroke-width="5"/>
</g>
</g>
</svg>
