<?xml version="1.0" encoding="UTF-8" standalone="no"?>
<!DOCTYPE svg PUBLIC "-//W3C//DTD SVG 1.1//EN" "http://www.w3.org/Graphics/SVG/1.1/DTD/svg11.dtd">
<!-- Created with Vectornator (http://vectornator.io/) -->
<svg height="100%" stroke-miterlimit="10" style="fill-rule:nonzero;clip-rule:evenodd;stroke-linecap:round;stroke-linejoin:round;" version="1.1" viewBox="65.1375 429.8 869.641 95.6256" width="100%" xml:space="preserve" xmlns="http://www.w3.org/2000/svg" xmlns:xlink="http://www.w3.org/1999/xlink">
<defs/>
<g id="Layer-11">
<g opacity="1">
<path d="M106.05 470.2C108.25 469.5 110.45 468.6 112.35 467.4C112.65 467.3 112.75 465.9 112.25 465.9C109.75 466.3 106.75 466.9 105.15 467.2C101.55 456.5 97.35 446 92.85 435.7L93.25 434.5C93.35 434 93.35 433.4 93.05 432.9C92.45 432.4 90.95 431.8 90.35 433C83.95 446.5 79.15 460.9 74.65 475.2C74.35 475.4 73.95 475.5 73.55 475.7L72.05 476.1C71.35 476.5 70.75 477.3 70.85 478C71.05 478.7 71.55 479 72.05 479.2C72.45 479.3 72.85 479.3 73.25 479.3C71.35 485.5 69.45 491.8 67.75 498.1C67.45 499.2 67.75 500.3 68.65 501.2C69.25 501.3 69.95 501.4 70.45 501C72.45 493.2 74.55 485.7 77.15 478.3C85.55 475.7 94.05 473.1 102.65 471.2C103.55 475.5 105.15 479.8 105.95 484.2C106.55 487.5 106.75 490.9 105.75 494.2C105.55 494.9 106.65 495.6 107.25 495.2C107.85 494.9 108.25 494.5 108.55 494C108.85 493.6 108.95 493.1 109.25 492.7C109.85 489.7 109.85 486.9 109.45 484.2C108.65 479.4 106.85 474.8 106.05 470.2ZM91.05 440.2C95.15 449.2 98.55 458.5 101.55 468C93.65 469.7 86.15 471.9 78.45 474.1C82.25 462.6 86.15 451.1 91.05 440.2Z" fill="none" opacity="1" stroke="#000000" stroke-linecap="butt" stroke-linejoin="round" stroke-width="5"/>
<path d="M159.05 498.4C162.55 497.1 166.65 495 168.95 491.6C169.65 490.6 169.35 489.1 169.05 488.1C168.35 486.6 166.95 485.5 165.65 485.1C163.35 484.3 161.05 483.9 158.65 483.5L151.45 482.3C150.45 482.1 149.45 481.8 148.75 481.1C148.25 480.7 148.05 479.9 148.35 479.2C148.85 477.3 149.75 475.5 150.75 473.7C152.45 470.8 154.95 467.7 157.65 465.7C158.45 465.1 159.25 464.7 160.25 464.7C160.95 464.6 161.75 464.9 162.25 465.3C162.75 465.6 163.15 466 163.55 466.4C163.95 466.8 164.25 467.3 164.75 467.8C165.55 467.5 166.05 466.9 166.05 466.3C165.95 464.8 164.95 463.2 163.85 462.5C162.75 461.8 161.65 461.4 160.35 461.4C157.65 461.8 155.25 463.2 153.25 464.9C149.35 468.3 146.65 473.7 144.95 478C144.35 480.3 144.95 482.7 146.85 484.1C148.75 485.2 150.95 485.7 153.15 486C156.05 486.5 158.95 486.8 161.75 487.5C163.15 487.9 164.75 488 165.75 489.1C165.95 489.7 165.85 490.4 165.35 490.9C161.55 494.2 157.15 495.9 152.25 496.7C150.45 497 148.55 497.3 146.75 496.7C145.75 496.4 145.55 495.6 145.45 494.6C145.45 493.3 145.95 491.8 145.95 490.6C145.95 490.4 145.75 490.1 145.35 490C145.15 490 144.85 490 144.55 490.2C143.75 490.8 143.35 491.7 143.05 492.6C142.85 493.6 142.55 496 142.95 497.1C143.55 498.5 145.05 499.4 146.35 500C150.65 500.6 155.15 499.9 159.05 498.4Z" fill="none" opacity="1" stroke="#000000" stroke-linecap="butt" stroke-linejoin="round" stroke-width="5"/>
<path d="M214.45 484.2C214.85 483.2 215.25 482.2 215.25 481.1C215.25 480.8 214.95 480.5 214.75 480.4C214.55 480.3 214.05 480.1 213.85 480.6C213.35 481.7 212.75 482.7 212.15 483.8C211.45 484.9 210.85 485.9 210.15 487C206.65 492.7 200.75 497.3 192.85 496.8C190.55 496.7 187.95 494.4 187.55 491.9C186.15 483.9 186.25 474.4 186.95 466.3C189.05 465.6 191.65 465.2 194.15 464.9C196.75 464.6 199.35 464.4 201.35 464.3C201.95 464 202.55 462.8 201.75 462.2C199.25 461.4 196.85 461.4 194.45 461.6C192.05 461.9 189.55 462.4 187.25 462.6C187.55 460.6 188.05 457.4 188.25 454.4L188.55 450.7C188.75 449.9 188.85 449.3 189.05 449C189.35 449.1 189.65 449.3 189.95 449.6C191.25 450.6 191.95 451.6 193.85 451.8C193.45 450.7 193.05 450 192.65 449.4C192.25 448.7 191.75 448.1 191.25 447.5L190.75 446.9C190.15 446.2 189.65 445.4 188.85 445C188.05 444.4 186.85 444.3 186.15 445.5C185.75 446.2 185.55 447.2 185.45 448L183.75 463.5C181.55 464.2 177.05 465.6 174.85 466.2C174.35 466.5 173.45 466.5 172.75 466.4C171.75 466.3 171.25 467.2 171.35 467.9C171.95 469.2 173.25 469.8 174.55 469.8C177.65 468.9 180.55 467.8 183.55 467.1C182.95 476.4 182.75 485.7 184.75 494.4C186.35 497.7 189.55 500.2 193.05 500.2C202.35 500.3 208.95 494 212.85 487C213.35 486.2 213.95 485.2 214.45 484.2Z" fill="none" opacity="1" stroke="#000000" stroke-linecap="butt" stroke-linejoin="round" stroke-width="5"/>
<path d="M246.25 464.8C246.85 464.8 247.65 464.2 247.35 463.2C246.05 462.6 244.45 462.8 243.35 463C240.75 463.5 239.55 464 237.05 464.9C234.75 465.8 231.15 467.9 229.35 469.5C227.25 471.4 224.75 473.8 222.95 476.7C222.85 472.7 223.25 469 224.55 466.1C224.55 465.7 224.75 465.5 224.95 465.1C225.55 464.1 226.55 463.3 226.55 461.9C225.95 461.1 225.15 461 224.45 461C223.15 461.5 222.45 462.3 221.95 463.3C221.45 464.2 221.05 465.3 220.55 466.2C219.35 470.5 219.05 474.8 219.55 479C220.25 485.8 222.65 492.3 224.95 498.8L226.15 500.1C226.75 500.7 227.75 500.4 228.05 499.5C227.25 496.6 226.25 493.9 225.45 491.1C224.65 488.4 223.95 485.6 223.65 482.6C224.95 479 227.25 475.9 229.95 473.3C232.65 470.7 235.15 468.5 238.05 467.3C241.05 466 243.25 465.4 246.25 464.8Z" fill="none" opacity="1" stroke="#000000" stroke-linecap="butt" stroke-linejoin="round" stroke-width="5"/>
<path d="M277.95 490.9C278.95 489.3 280.15 486.9 280.25 485C280.25 484.6 279.35 483.6 278.85 484.1C277.65 487.5 275.15 490.4 272.15 493C270.55 494.4 268.45 495.7 266.25 496.5C263.95 497.4 261.45 497.6 259.05 496.2C256.45 494.7 255.55 491.9 255.05 489.1C256.75 488 258.65 486.7 260.55 485.3C262.45 483.9 264.35 482.4 265.95 480.9C266.25 480.5 266.75 480 267.15 479.6L268.65 478.2C269.75 477.2 270.85 476.1 271.75 475.1C272.85 473.8 273.75 472.1 273.35 470C271.95 466.8 269.35 463.1 265.85 461.9C263.15 461 258.95 462.2 256.75 464C254.35 466.7 252.75 470.2 252.05 473.7C251.05 478.2 251.05 483 251.35 487.5C250.55 487.9 249.55 488.6 248.85 488.9C248.45 489.1 247.95 489.2 247.35 489.4C246.75 489.5 246.15 489.7 245.55 490C245.05 490.8 245.45 491.7 245.85 492.1C247.15 492.7 248.05 492.7 249.15 492.4C249.85 492.2 250.95 491.6 251.75 491C252.05 492 252.35 493 252.85 493.9C253.35 495 254.15 496.1 255.35 497.4C257.45 499.6 260.65 500.7 263.95 500.4C267.05 500.1 270.05 498.6 272.75 496.5C274.75 494.9 276.55 493 277.95 490.9ZM265.85 465.6C267.75 466.9 269.15 469 270.05 471C269.75 473 267.85 474.4 266.55 475.7C264.85 477.5 262.85 479.3 260.65 480.9C258.65 482.4 256.65 483.8 254.75 485.1C254.55 481.3 254.65 477.5 255.65 474C256.35 471.3 257.35 468.9 258.95 466.8C260.55 465.3 263.85 464.9 265.85 465.6Z" fill="none" opacity="1" stroke="#000000" stroke-linecap="butt" stroke-linejoin="round" stroke-width="5"/>
<path d="M315.95 499.1C316.85 499.3 318.45 499.5 318.35 498.2C314.25 494.2 313.25 490.1 311.55 484.8C310.55 481.5 309.75 478.3 309.35 474.7C309.05 473.8 308.85 473.2 308.45 472.5C308.25 470.8 308.25 468.7 307.25 467.3C306.35 464.9 304.65 462.8 302.25 461.7C301.25 461.2 300.25 461.2 299.25 461.5C298.35 461.8 297.45 462.3 296.55 462.8C290.05 468.3 285.85 475.3 283.85 482.9C283.05 485.8 282.45 489.7 282.85 493.1C283.25 495.8 284.35 498.2 286.85 499.7C289.05 501.1 292.15 500.5 294.15 498.9C300.45 493.9 304.05 486.9 306.75 480.1C307.25 482.3 307.75 484.5 308.45 486.6C310.15 491.4 311.55 495.9 315.95 499.1ZM304.55 468.4C305.15 469.5 305.85 471.3 306.15 472.3C305.45 473.3 305.35 474.5 305.15 475.6C302.55 483.4 298.45 491 291.35 496.5C290.15 496.9 288.55 496.7 287.65 495.8C286.85 494.7 286.45 493.4 286.35 491.9C286.25 490.4 286.45 488.8 286.55 487.3C287.45 482.8 288.95 478.5 291.15 474.5C292.95 471.4 295.75 467.6 298.85 465.5C299.65 465 300.45 464.7 301.45 465C302.75 465.7 303.75 467 304.55 468.4Z" fill="none" opacity="1" stroke="#000000" stroke-linecap="butt" stroke-linejoin="round" stroke-width="5"/>
<path d="M372.15 499.3C372.55 499.5 373.45 499.2 373.45 498.6C372.45 489.3 372.35 479.6 371.05 470.3C370.75 469.4 370.65 468.3 370.45 467.3C370.05 464.8 369.35 462.4 366.45 461.8C365.15 461.6 364.05 462.2 362.95 463C360.15 465.2 356.75 472 355.15 475.1C352.55 480.3 350.35 485.9 348.25 491.4C347.85 488.2 347.45 485.1 346.95 482C346.35 478.8 344.65 471.5 343.45 468.9C342.75 467.3 341.55 465.8 339.75 464.7C337.35 464 334.65 464.3 332.85 466.2C330.55 469.6 328.85 473.2 327.55 476.9C326.05 481.4 325.05 486.1 323.85 490.7C323.75 490 323.75 489.2 323.75 488.4C323.55 483.7 324.05 479.3 324.95 475C325.85 470.6 326.95 466.4 327.95 462.1C328.25 461.3 327.45 460.8 326.75 460.8C325.75 461.4 325.15 462.7 324.85 463.6C322.25 470.7 320.55 478.3 320.45 486.2C320.35 490.8 320.55 495.5 322.65 499.3C323.15 499.9 324.25 499.8 324.55 499C326.35 490.1 328.55 481.3 332.15 473C332.95 471.1 333.85 469.1 335.65 467.8C336.45 467.5 337.55 467.4 338.35 467.8C339.35 468.4 339.85 469.4 340.25 470.4C343.45 479.4 344.65 488.6 345.65 498.5C345.75 499.5 346.45 499.9 347.05 499.9C347.65 499.9 348.25 499.5 348.45 498.9C351.05 491.4 353.65 483.8 357.25 476.7C358.85 473.5 361.45 468.8 363.85 466.2C364.45 465.6 365.05 465.2 365.85 465.3C366.25 465.3 366.85 466 366.95 466.5C369.15 476.2 368.85 486.9 370.65 496.8C370.75 497.1 370.85 497.5 371.05 497.9C371.25 498.4 371.55 498.9 372.15 499.3Z" fill="none" opacity="1" stroke="#000000" stroke-linecap="butt" stroke-linejoin="round" stroke-width="5"/>
<path d="M430.95 464.3C431.75 464 432.85 462.6 431.55 461.7C429.45 461.3 427.35 461.3 425.25 461.5C423.35 461.7 421.45 462.1 419.65 462.3C419.55 457.5 419.95 452.7 419.95 447.9C419.95 445.1 420.35 442.5 421.55 440.1C422.45 438.2 424.35 436.5 426.35 436.2C427.35 436 428.35 436 429.35 436.3C430.05 436.6 430.55 435.7 430.55 435.2C429.35 433.9 427.65 433.5 426.15 433.3C423.05 433.4 420.35 435.5 418.85 438.3C417.25 441.2 416.85 444.6 416.65 448C416.45 452.8 416.55 458.1 416.35 463.1C412.75 464.2 407.95 466.2 405.45 467.8C404.45 468.4 403.55 469.3 403.55 470.9C403.85 471.4 404.45 472.1 405.25 471.9C409.05 469.5 412.15 467.7 416.35 466.7C416.45 475.3 416.75 491.8 416.55 500.1C416.45 504.1 415.95 507.8 414.85 511.4C413.75 515 411.95 518.6 409.75 521.6C409.45 522 409.55 522.6 409.95 522.8C410.35 523 410.95 523 411.65 522.5C414.45 520.5 417.05 515 417.85 512.4C419.05 508.6 419.45 504.5 419.75 500.4C419.95 496.4 419.75 492.3 419.75 488.3C419.75 482.5 419.35 471 419.65 465.8C423.75 464.8 427.05 464.4 430.95 464.3Z" fill="none" opacity="1" stroke="#000000" stroke-linecap="butt" stroke-linejoin="round" stroke-width="5"/>
<path d="M466.95 497.9C469.35 496.1 471.25 493.4 472.45 490.7C472.55 490.3 472.75 489.9 472.75 489.5C472.85 489 472.85 488.5 472.25 487.9C471.55 487.9 471.15 488.7 470.95 489.3C469.75 491.5 467.35 494.5 465.35 495.8C463.15 497.1 461.35 497.7 458.65 497.1C456.05 496.2 454.05 494.4 452.65 492.2C450.65 489.2 449.65 485.5 449.05 482C454.35 473.9 458.85 465.4 460.75 455.9C461.45 452.2 461.85 448.5 461.75 444.5C461.65 441.1 461.35 437.2 459.25 434.2C458.15 433.2 455.95 433.3 454.95 434.5C450.75 439.6 448.05 445.5 446.55 451.8C444.45 461 444.65 471.1 445.55 480.8C444.05 482.9 442.25 485 440.25 486.8L434.25 492.3C433.75 492.9 433.85 493.9 434.45 494.3C435.15 494.8 436.15 494.7 436.75 494.3C440.25 491.9 443.55 488.7 446.35 485.4C446.95 487.3 447.45 488.9 448.15 490.5C448.85 492.2 449.75 493.8 451.15 495.5C453.35 498.1 456.45 500.3 459.85 500.4C462.75 500.5 464.85 499.4 466.95 497.9ZM456.35 436.7C456.75 436.2 457.75 436.4 457.95 437.3C459.05 443.4 458.85 449.3 457.65 454.9C455.95 462.5 452.65 469.6 448.55 476C448.15 468.5 448.15 460.8 449.65 453.6C450.85 447.5 452.85 441.7 456.35 436.7Z" fill="none" opacity="1" stroke="#000000" stroke-linecap="butt" stroke-linejoin="round" stroke-width="5"/>
<path d="M497.45 495.6C500.65 492.1 502.85 487.6 503.75 482.9C504.65 478 504.15 473 502.05 468.5C501.25 466.7 499.85 464.8 498.05 463.5C497.05 462.8 495.85 462.2 494.55 462C494.25 461.3 493.25 461 492.65 461.1C489.65 461.8 487.05 463.8 484.75 466C480.85 469.7 478.05 474.3 476.55 479.2C475.15 484 475.05 489.1 476.85 494.2C477.95 497.2 481.05 499.8 484.15 500.4C489.45 501.3 493.95 499.3 497.45 495.6ZM495.05 465.1C497.75 467.1 499.85 469.7 500.35 472.8C500.95 476.3 500.95 480 500.15 483.4C499.25 487.7 497.15 491.6 493.65 494.6C491.35 496.6 488.15 497.7 484.85 496.9C482.55 496.4 480.25 494.6 479.65 492.2C478.65 487.7 478.85 483.2 480.15 479.2C481.85 474.2 484.65 469.5 489.35 466.5L490.75 465.6C491.25 465.3 491.75 465 492.25 464.6C493.05 464.1 494.05 464.1 495.05 465.1Z" fill="none" opacity="1" stroke="#000000" stroke-linecap="butt" stroke-linejoin="round" stroke-width="5"/>
<path d="M552.45 497.6C554.85 494.9 556.25 490.7 556.75 487.2C557.75 479.4 554.85 470.4 550.25 464.1C549.25 463 548.05 461.2 546.35 461.2C545.75 461.2 544.65 461.6 544.95 462.4C547.95 466.4 550.55 470.8 552.15 475.5C552.85 477.7 553.35 479.9 553.55 482.2C553.75 485.9 553.05 489.7 551.45 493.1C550.65 494.7 549.45 496.1 547.75 496.7C545.85 497.4 544.05 496.6 542.65 495C540.05 490.8 538.35 486.2 536.65 481.6C535.65 479.9 535.25 478 533.45 477C531.65 476.2 529.65 476.3 528.35 477.6C526.85 479.7 525.75 481.8 524.75 483.9C523.25 487.1 520.65 492.1 518.35 495C517.55 496 516.55 496.6 515.15 496.3C514.45 496.1 513.85 495.4 513.65 494.8C509.95 484.2 511.95 472.1 516.25 462.1C516.35 461.2 515.45 460.9 514.85 460.9C514.05 460.9 513.05 461.4 512.75 462C510.55 466.6 509.15 471.6 508.55 476.9C507.85 482.7 508.05 488.5 509.65 494.2C510.35 496.5 511.55 498.7 514.05 499.7C515.95 500.5 518.25 500 519.65 498.5C521.95 496 523.65 493.2 525.15 490.4C526.65 487.5 527.95 484.5 529.35 481.6C529.65 481.2 529.95 480.8 530.35 480.4C530.65 480.1 530.95 479.8 531.35 479.9C532.35 480.3 532.75 481.2 533.25 482.3C534.15 484.5 534.95 486.7 535.85 489C536.75 491.2 537.75 493.5 538.95 495.6C540.45 498.2 542.65 500 546.05 500.4C548.65 500.7 550.75 499.4 552.45 497.6Z" fill="none" opacity="1" stroke="#000000" stroke-linecap="butt" stroke-linejoin="round" stroke-width="5"/>
<path d="M576.85 498.4C580.35 497.1 584.45 495 586.75 491.6C587.45 490.6 587.15 489.1 586.85 488.1C586.15 486.6 584.75 485.5 583.45 485.1C581.15 484.3 578.85 483.9 576.45 483.5L569.25 482.3C568.25 482.1 567.25 481.8 566.55 481.1C566.05 480.7 565.85 479.9 566.15 479.2C566.65 477.3 567.55 475.5 568.55 473.7C570.25 470.8 572.75 467.7 575.45 465.7C576.25 465.1 577.05 464.7 578.05 464.7C578.75 464.6 579.55 464.9 580.05 465.3C580.55 465.6 580.95 466 581.35 466.4C581.75 466.8 582.05 467.3 582.55 467.8C583.35 467.5 583.85 466.9 583.85 466.3C583.75 464.8 582.75 463.2 581.65 462.5C580.55 461.8 579.45 461.4 578.15 461.4C575.45 461.8 573.05 463.2 571.05 464.9C567.15 468.3 564.45 473.7 562.75 478C562.15 480.3 562.75 482.7 564.65 484.1C566.55 485.2 568.75 485.7 570.95 486C573.85 486.5 576.75 486.8 579.55 487.5C580.95 487.9 582.55 488 583.55 489.1C583.75 489.7 583.65 490.4 583.15 490.9C579.35 494.2 574.95 495.9 570.05 496.7C568.25 497 566.35 497.3 564.55 496.7C563.55 496.4 563.35 495.6 563.25 494.6C563.25 493.3 563.75 491.8 563.75 490.6C563.75 490.4 563.55 490.1 563.15 490C562.95 490 562.65 490 562.35 490.2C561.55 490.8 561.15 491.7 560.85 492.6C560.65 493.6 560.35 496 560.75 497.1C561.35 498.5 562.85 499.4 564.15 500C568.45 500.6 572.95 499.9 576.85 498.4Z" fill="none" opacity="1" stroke="#000000" stroke-linecap="butt" stroke-linejoin="round" stroke-width="5"/>
<path d="M640.75 495.6C643.95 492.1 646.15 487.6 647.05 482.9C647.95 478 647.45 473 645.35 468.5C644.55 466.7 643.15 464.8 641.35 463.5C640.35 462.8 639.15 462.2 637.85 462C637.55 461.3 636.55 461 635.95 461.1C632.95 461.8 630.35 463.8 628.05 466C624.15 469.7 621.35 474.3 619.85 479.2C618.45 484 618.35 489.1 620.15 494.2C621.25 497.2 624.35 499.8 627.45 500.4C632.75 501.3 637.25 499.3 640.75 495.6ZM638.35 465.1C641.05 467.1 643.15 469.7 643.65 472.8C644.25 476.3 644.25 480 643.45 483.4C642.55 487.7 640.45 491.6 636.95 494.6C634.65 496.6 631.45 497.7 628.15 496.9C625.85 496.4 623.55 494.6 622.95 492.2C621.95 487.7 622.15 483.2 623.45 479.2C625.15 474.2 627.95 469.5 632.65 466.5L634.05 465.6C634.55 465.3 635.05 465 635.55 464.6C636.35 464.1 637.35 464.1 638.35 465.1Z" fill="none" opacity="1" stroke="#000000" stroke-linecap="butt" stroke-linejoin="round" stroke-width="5"/>
<path d="M680.45 464.6C680.55 464 680.65 463.1 680.55 462.4C680.45 461.9 680.15 461.5 679.85 461.4C679.45 461.3 679.05 461.4 678.85 461.8C674.95 473.8 670.65 485.6 663.85 496.4C663.65 496.5 663.35 496.4 663.15 496.2C660.25 491 658.65 485.6 657.25 479.3C656.05 474 655.75 468.3 655.55 462.5C655.25 462 654.85 461.4 654.05 461.2C653.45 461.3 652.55 461.6 652.35 462.3C652.15 467.9 652.45 473.4 653.45 478.7C654.25 483.2 655.45 487.6 657.15 491.7C658.45 494.8 660.05 498.1 662.75 500.5C664.15 500.7 665.35 500.1 666.15 499.1C672.75 488.3 677.25 476.7 680.45 464.6Z" fill="none" opacity="1" stroke="#000000" stroke-linecap="butt" stroke-linejoin="round" stroke-width="5"/>
<path d="M713.55 490.9C714.55 489.3 715.75 486.9 715.85 485C715.85 484.6 714.95 483.6 714.45 484.1C713.25 487.5 710.75 490.4 707.75 493C706.15 494.4 704.05 495.7 701.85 496.5C699.55 497.4 697.05 497.6 694.65 496.2C692.05 494.7 691.15 491.9 690.65 489.1C692.35 488 694.25 486.7 696.15 485.3C698.05 483.9 699.95 482.4 701.55 480.9C701.85 480.5 702.35 480 702.75 479.6L704.25 478.2C705.35 477.2 706.45 476.1 707.35 475.1C708.45 473.8 709.35 472.1 708.95 470C707.55 466.8 704.95 463.1 701.45 461.9C698.75 461 694.55 462.2 692.35 464C689.95 466.7 688.35 470.2 687.65 473.7C686.65 478.2 686.65 483 686.95 487.5C686.15 487.9 685.15 488.6 684.45 488.9C684.05 489.1 683.55 489.2 682.95 489.4C682.35 489.5 681.75 489.7 681.15 490C680.65 490.8 681.05 491.7 681.45 492.1C682.75 492.7 683.65 492.7 684.75 492.4C685.45 492.2 686.55 491.6 687.35 491C687.65 492 687.95 493 688.45 493.9C688.95 495 689.75 496.1 690.95 497.4C693.05 499.6 696.25 500.7 699.55 500.4C702.65 500.1 705.65 498.6 708.35 496.5C710.35 494.9 712.15 493 713.55 490.9ZM701.45 465.6C703.35 466.9 704.75 469 705.65 471C705.35 473 703.45 474.4 702.15 475.7C700.45 477.5 698.45 479.3 696.25 480.9C694.25 482.4 692.25 483.8 690.35 485.1C690.15 481.3 690.25 477.5 691.25 474C691.95 471.3 692.95 468.9 694.55 466.8C696.15 465.3 699.45 464.9 701.45 465.6Z" fill="none" opacity="1" stroke="#000000" stroke-linecap="butt" stroke-linejoin="round" stroke-width="5"/>
<path d="M747.35 464.8C747.95 464.8 748.75 464.2 748.45 463.2C747.15 462.6 745.55 462.8 744.45 463C741.85 463.5 740.65 464 738.15 464.9C735.85 465.8 732.25 467.9 730.45 469.5C728.35 471.4 725.85 473.8 724.05 476.7C723.95 472.7 724.35 469 725.65 466.1C725.65 465.7 725.85 465.5 726.05 465.1C726.65 464.1 727.65 463.3 727.65 461.9C727.05 461.1 726.25 461 725.55 461C724.25 461.5 723.55 462.3 723.05 463.3C722.55 464.2 722.15 465.3 721.65 466.2C720.45 470.5 720.15 474.8 720.65 479C721.35 485.8 723.75 492.3 726.05 498.8L727.25 500.1C727.85 500.7 728.85 500.4 729.15 499.5C728.35 496.6 727.35 493.9 726.55 491.1C725.75 488.4 725.05 485.6 724.75 482.6C726.05 479 728.35 475.9 731.05 473.3C733.75 470.7 736.25 468.5 739.15 467.3C742.15 466 744.35 465.4 747.35 464.8Z" fill="none" opacity="1" stroke="#000000" stroke-linecap="butt" stroke-linejoin="round" stroke-width="5"/>
<path d="M805.15 464.8C805.75 464.8 806.55 464.2 806.25 463.2C804.95 462.6 803.35 462.8 802.25 463C799.65 463.5 798.45 464 795.95 464.9C793.65 465.8 790.05 467.9 788.25 469.5C786.15 471.4 783.65 473.8 781.85 476.7C781.75 472.7 782.15 469 783.45 466.1C783.45 465.7 783.65 465.5 783.85 465.1C784.45 464.1 785.45 463.3 785.45 461.9C784.85 461.1 784.05 461 783.35 461C782.05 461.5 781.35 462.3 780.85 463.3C780.35 464.2 779.95 465.3 779.45 466.2C778.25 470.5 777.95 474.8 778.45 479C779.15 485.8 781.55 492.3 783.85 498.8L785.05 500.1C785.65 500.7 786.65 500.4 786.95 499.5C786.15 496.6 785.15 493.9 784.35 491.1C783.55 488.4 782.85 485.6 782.55 482.6C783.85 479 786.15 475.9 788.85 473.3C791.55 470.7 794.05 468.5 796.95 467.3C799.95 466 802.15 465.4 805.15 464.8Z" fill="none" opacity="1" stroke="#000000" stroke-linecap="butt" stroke-linejoin="round" stroke-width="5"/>
<path d="M828.55 495.6C831.75 492.1 833.95 487.6 834.85 482.9C835.75 478 835.25 473 833.15 468.5C832.35 466.7 830.95 464.8 829.15 463.5C828.15 462.8 826.95 462.2 825.65 462C825.35 461.3 824.35 461 823.75 461.1C820.75 461.8 818.15 463.8 815.85 466C811.95 469.7 809.15 474.3 807.65 479.2C806.25 484 806.15 489.1 807.95 494.2C809.05 497.2 812.15 499.8 815.25 500.4C820.55 501.3 825.05 499.3 828.55 495.6ZM826.15 465.1C828.85 467.1 830.95 469.7 831.45 472.8C832.05 476.3 832.05 480 831.25 483.4C830.35 487.7 828.25 491.6 824.75 494.6C822.45 496.6 819.25 497.7 815.95 496.9C813.65 496.4 811.35 494.6 810.75 492.2C809.75 487.7 809.95 483.2 811.25 479.2C812.95 474.2 815.75 469.5 820.45 466.5L821.85 465.6C822.35 465.3 822.85 465 823.35 464.6C824.15 464.1 825.15 464.1 826.15 465.1Z" fill="none" opacity="1" stroke="#000000" stroke-linecap="butt" stroke-linejoin="round" stroke-width="5"/>
<path d="M861.85 495.5C864.15 493.1 866.55 488.6 867.05 484.9C867.15 484.1 865.95 483.8 865.65 484.4C864.85 486.4 863.95 488.4 862.65 490.4C861.55 492.1 860.05 493.9 858.05 495.2C855.85 496.6 854.25 497.2 851.35 497C848.35 496.7 845.65 495.4 844.05 492.7C842.75 490.4 842.45 487.7 842.55 484.7C843.45 479.1 844.75 472.9 848.25 468.6C849.75 466.7 851.55 465.2 853.95 464.3C855.65 463.9 857.65 464.2 858.85 465.6C859.75 466.6 860.05 468 859.85 469.4C859.85 469.9 859.65 470.3 859.35 470.8L858.85 471.6C858.75 471.9 858.65 472.2 858.65 472.8C859.65 472.8 860.25 472.4 860.65 472C861.15 471.5 861.55 471 861.95 470.5C862.95 468.7 862.75 465.9 861.65 464.2C859.95 461.6 856.95 461 853.95 461.2C850.75 461.8 848.25 463.6 846.25 465.9C843.45 469.2 841.55 473.4 840.45 477.1C839.25 480.9 838.65 485.4 839.35 489.4C839.95 492.6 841.35 495.4 844.05 497.6C849.65 502 857.05 500.5 861.85 495.5Z" fill="none" opacity="1" stroke="#000000" stroke-linecap="butt" stroke-linejoin="round" stroke-width="5"/>
<path d="M896.95 493.9C898.75 493.7 902.55 492.4 903.85 491.1C904.15 490.5 904.05 489.5 903.25 489.2C899.75 490.4 897.35 491 892.85 491C888.35 491 885.35 490.1 881.35 488.3C879.25 487.3 877.35 486.2 876.45 484.2C876.35 481.4 877.35 479 878.75 476.6C880.35 474 882.35 471.7 884.55 469.5C887.65 466.3 891.05 463.7 895.15 463.2C895.65 463.5 895.95 463.8 896.25 464.2C896.75 465.1 896.85 466.1 897.05 467.1C897.35 467.5 898.35 467.5 898.55 467C899.05 465.4 898.65 463.6 898.25 462.1C897.65 461 896.45 460.4 895.35 460.2C890.75 460.6 886.45 463.1 882.85 466.4C879.05 469.9 876.05 474.3 874.25 478.5C874.05 471.9 874.65 465.4 875.75 459.1C877.05 451.6 879.15 444.3 881.55 437.1L881.55 434.7C880.85 433.4 878.65 432.5 877.95 434.2C877.75 434.7 877.85 435.3 877.85 435.9C877.85 436.4 877.85 436.9 877.65 437.4C875.25 444.5 873.35 452.2 872.15 460.3C870.95 468.1 870.45 476.2 871.05 484.1C871.35 488.9 872.15 493.7 873.25 498.4C873.45 498.6 873.55 498.8 873.65 499C873.75 499.2 873.85 499.4 874.05 499.6C874.35 499.9 874.75 500.2 875.45 500.2C876.45 499.7 876.95 499.1 877.35 498.2C877.95 497.2 878.15 495.9 878.25 494.5C877.55 494.5 877.25 494.8 876.85 495.1L876.15 495.5C875.75 494.4 875.55 493.1 875.35 491.8C875.25 490.6 875.15 489.4 874.95 488.3C877.65 490.3 880.65 492 883.75 493C888.25 494.4 892.45 494.3 896.95 493.9Z" fill="none" opacity="1" stroke="#000000" stroke-linecap="butt" stroke-linejoin="round" stroke-width="5"/>
<path d="M921.95 498.4C925.45 497.1 929.55 495 931.85 491.6C932.55 490.6 932.25 489.1 931.95 488.1C931.25 486.6 929.85 485.5 928.55 485.1C926.25 484.3 923.95 483.9 921.55 483.5L914.35 482.3C913.35 482.1 912.35 481.8 911.65 481.1C911.15 480.7 910.95 479.9 911.25 479.2C911.75 477.3 912.65 475.5 913.65 473.7C915.35 470.8 917.85 467.7 920.55 465.7C921.35 465.1 922.15 464.7 923.15 464.7C923.85 464.6 924.65 464.9 925.15 465.3C925.65 465.6 926.05 466 926.45 466.4C926.85 466.8 927.15 467.3 927.65 467.8C928.45 467.5 928.95 466.9 928.95 466.3C928.85 464.8 927.85 463.2 926.75 462.5C925.65 461.8 924.55 461.4 923.25 461.4C920.55 461.8 918.15 463.2 916.15 464.9C912.25 468.3 909.55 473.7 907.85 478C907.25 480.3 907.85 482.7 909.75 484.1C911.65 485.2 913.85 485.7 916.05 486C918.95 486.5 921.85 486.8 924.65 487.5C926.05 487.9 927.65 488 928.65 489.1C928.85 489.7 928.75 490.4 928.25 490.9C924.45 494.2 920.05 495.9 915.15 496.7C913.35 497 911.45 497.3 909.65 496.7C908.65 496.4 908.45 495.6 908.35 494.6C908.35 493.3 908.85 491.8 908.85 490.6C908.85 490.4 908.65 490.1 908.25 490C908.05 490 907.75 490 907.45 490.2C906.65 490.8 906.25 491.7 905.95 492.6C905.75 493.6 905.45 496 905.85 497.1C906.45 498.5 907.95 499.4 909.25 500C913.55 500.6 918.05 499.9 921.95 498.4Z" fill="none" opacity="1" stroke="#000000" stroke-linecap="butt" stroke-linejoin="round" stroke-width="5"/>
</g>
</g>
</svg>
