<?xml version="1.0" encoding="UTF-8" standalone="no"?>
<!DOCTYPE svg PUBLIC "-//W3C//DTD SVG 1.1//EN" "http://www.w3.org/Graphics/SVG/1.1/DTD/svg11.dtd">
<!-- Created with Vectornator (http://vectornator.io/) -->
<svg height="100%" stroke-miterlimit="10" style="fill-rule:nonzero;clip-rule:evenodd;stroke-linecap:round;stroke-linejoin:round;" version="1.1" viewBox="27.9841 34.6873 1307.32 1308.63" width="100%" xml:space="preserve" xmlns="http://www.w3.org/2000/svg" xmlns:xlink="http://www.w3.org/1999/xlink">
<defs/>
<g id="Layer-3">
<g opacity="1">
<path d="M671.779 98.5215C644.08 137.744 625.038 178.75 614.651 221.538C604.264 264.327 599.07 317.812 599.07 381.995C599.07 446.178 604.264 499.664 614.651 542.452C619.844 563.846 625.038 585.241 630.231 606.635C616.382 583.458 602.533 560.281 588.684 537.104C560.985 490.749 533.287 431.915 505.588 360.601C477.89 289.287 448.46 235.801 417.3 200.144C386.139 164.487 349.785 143.093 308.237 135.961C266.689 128.83 238.991 137.744 225.142 162.704C211.293 187.664 192.25 201.927 168.014 205.493C143.778 209.058 128.197 223.321 121.273 248.281C114.348 273.241 102.23 287.504 84.9186 291.07C67.6071 294.635 55.4891 312.464 48.5645 344.555C41.6399 376.647 45.1022 405.172 58.9514 430.132C72.8006 455.092 109.155 494.315 168.014 547.801C226.873 601.286 285.732 640.509 344.591 665.469C374.021 677.949 403.45 690.429 432.88 702.909C398.257 715.389 363.634 727.869 329.011 740.349C259.765 765.309 207.83 788.486 173.207 809.88C138.584 831.274 109.155 854.452 84.9186 879.411C60.6825 904.371 45.1022 936.463 38.1776 975.686C31.2529 1014.91 31.2529 1039.87 38.1776 1050.57C45.1022 1061.26 60.6825 1070.18 84.9186 1077.31C109.155 1084.44 123.004 1102.27 126.466 1130.79C129.929 1159.32 148.971 1175.37 183.594 1178.93C218.217 1182.5 238.991 1193.19 245.916 1211.02C252.84 1228.85 270.152 1241.33 297.85 1248.46C325.549 1255.59 353.247 1248.46 380.945 1227.07C408.644 1205.67 450.191 1145.06 505.588 1045.22C533.287 995.297 560.985 945.377 588.684 895.457C583.49 932.897 578.297 970.337 573.103 1007.78C562.716 1082.66 566.179 1152.19 583.49 1216.37C600.802 1280.55 618.113 1317.99 635.425 1328.69C652.736 1339.39 673.51 1341.17 697.746 1334.04C721.982 1326.91 754.874 1326.91 796.422 1334.04C837.969 1341.17 869.13 1334.04 889.904 1312.64C910.678 1291.25 929.72 1280.55 947.032 1280.55C964.343 1280.55 979.924 1273.42 993.773 1259.16C1007.62 1244.9 1014.55 1225.29 1014.55 1200.33C1014.55 1175.37 1007.62 1143.27 993.773 1104.05C979.924 1064.83 953.956 1016.69 915.871 959.64C896.828 931.114 877.786 902.589 858.743 874.063C895.097 890.109 931.451 906.154 967.806 922.2C1040.51 954.291 1101.1 968.554 1149.58 964.988C1198.05 961.423 1225.75 952.508 1232.67 938.246C1239.6 923.983 1255.18 909.72 1279.41 895.457C1303.65 881.194 1314.04 854.452 1310.57 815.229C1307.11 776.006 1310.57 752.829 1320.96 745.697C1331.35 738.566 1333.08 724.303 1326.15 702.909C1319.23 681.515 1317.5 651.206 1320.96 611.983C1324.42 572.761 1314.04 544.235 1289.8 526.406C1265.56 508.578 1227.48 499.664 1175.54 499.664C1123.61 499.664 1066.48 506.795 1004.16 521.058C972.999 528.189 941.838 535.321 910.678 542.452C927.989 524.624 945.301 506.795 962.612 488.966C997.235 453.309 1021.47 421.218 1035.32 392.692C1049.17 364.167 1057.83 330.292 1061.29 291.07C1064.75 251.847 1061.29 223.321 1050.9 205.493C1040.51 187.664 1024.93 175.184 1004.16 168.053C983.386 160.921 967.806 146.659 957.419 125.264C947.032 103.87 926.258 93.1729 895.097 93.1729C863.937 93.1729 837.969 84.2586 817.195 66.4301C796.422 48.6015 773.917 39.6873 749.681 39.6873C725.444 39.6873 699.477 59.2987 671.779 98.5215Z" fill="none" opacity="1" stroke="#000000" stroke-linecap="butt" stroke-linejoin="round" stroke-width="10"/>
<path d="M754.874 71.7786C775.648 71.7786 794.69 80.6929 812.002 98.5215C829.314 116.35 851.818 123.481 879.517 119.916C907.215 116.35 927.989 127.047 941.838 152.007C955.688 176.967 971.268 191.23 988.579 194.796C1005.89 198.361 1018.01 205.493 1024.93 216.19C1031.86 226.887 1033.59 251.847 1030.13 291.07C1026.66 330.292 1014.55 367.732 993.773 403.389C972.999 439.047 926.258 485.401 853.55 542.452C817.195 570.978 780.841 599.503 744.487 628.029C744.487 622.681 744.487 617.332 744.487 611.983C744.487 601.286 761.799 570.978 796.422 521.058C831.045 471.138 862.205 440.829 889.904 430.132C917.602 419.435 931.451 405.172 931.451 387.344C931.451 369.515 924.527 355.252 910.678 344.555C896.828 333.858 881.248 332.075 863.937 339.207C846.625 346.338 836.238 365.95 832.776 398.041C829.314 430.132 806.809 472.921 765.261 526.406C744.487 553.149 723.713 579.892 702.939 606.635C708.133 576.326 713.326 546.018 718.52 515.709C728.907 455.092 742.756 421.218 760.067 414.087C777.379 406.955 786.035 396.258 786.035 381.995C786.035 367.732 779.11 355.252 765.261 344.555C751.412 333.858 737.563 330.292 723.713 333.858C709.864 337.424 702.939 358.818 702.939 398.041C702.939 437.264 696.015 483.618 682.166 537.104C675.241 563.846 668.316 590.589 661.392 617.332C656.198 597.721 651.005 578.109 645.812 558.498C635.425 519.275 630.231 462.224 630.231 387.344C630.231 312.464 635.425 255.413 645.812 216.19C656.198 176.967 671.779 143.093 692.553 114.567C713.326 86.0415 734.1 71.7786 754.874 71.7786Z" fill="none" opacity="1" stroke="#000000" stroke-linecap="butt" stroke-linejoin="round" stroke-width="10"/>
<path d="M303.044 162.704C334.204 166.27 361.903 180.533 386.139 205.493C410.375 230.453 443.267 289.287 484.814 381.995C526.362 474.704 545.405 524.624 541.942 531.755C540.211 535.321 538.48 538.886 536.749 542.452C526.362 533.538 515.975 524.624 505.588 515.709C484.814 497.881 465.772 474.704 448.46 446.178C431.149 417.652 412.106 408.738 391.332 419.435C370.559 430.132 360.172 442.612 360.172 456.875C360.172 471.138 379.214 483.618 417.3 494.315C455.385 505.012 493.47 529.972 531.556 569.195C550.598 588.806 569.641 608.418 588.684 628.029C580.028 629.812 571.372 631.595 562.716 633.378C545.405 636.943 517.706 631.595 479.621 617.332C441.536 603.069 424.224 588.806 427.686 574.543C431.149 560.281 429.418 547.801 422.493 537.104C415.568 526.406 399.988 522.841 375.752 526.406C351.516 529.972 337.667 540.669 334.204 558.498C330.742 576.326 334.204 590.589 344.591 601.286C354.978 611.983 367.096 615.549 380.945 611.983C394.795 608.418 406.913 611.983 417.3 622.681C427.686 633.378 451.923 644.075 490.008 654.772C509.051 660.12 528.093 665.469 547.136 670.818C528.093 670.818 509.051 670.818 490.008 670.818C451.923 670.818 410.375 661.903 365.365 644.075C320.355 626.246 282.27 606.635 251.109 585.241C219.948 563.846 183.594 529.972 142.047 483.618C100.499 437.264 79.7252 398.041 79.7252 365.95C79.7252 333.858 90.1121 314.247 110.886 307.115C131.66 299.984 143.778 285.721 147.24 264.327C150.702 242.933 162.82 232.236 183.594 232.236C204.368 232.236 221.68 219.756 235.529 194.796C249.378 169.836 271.883 159.138 303.044 162.704Z" fill="none" opacity="1" stroke="#000000" stroke-linecap="butt" stroke-linejoin="round" stroke-width="10"/>
<path d="M1175.54 531.755C1227.48 531.755 1260.37 537.104 1274.22 547.801C1288.07 558.498 1293.26 581.675 1289.8 617.332C1286.34 652.989 1288.07 681.515 1294.99 702.909C1301.92 724.303 1300.19 738.566 1289.8 745.697C1279.41 752.829 1275.95 774.223 1279.41 809.88C1282.88 845.537 1274.22 868.714 1253.45 879.411C1232.67 890.109 1218.82 902.589 1211.9 916.851C1204.97 931.114 1191.12 940.029 1170.35 943.594C1149.58 947.16 1114.95 941.811 1066.48 927.549C1018.01 913.286 960.881 890.109 895.097 858.017C829.314 825.926 786.035 799.183 765.261 777.789C754.874 767.092 744.487 756.395 734.1 745.697C765.261 752.829 796.422 759.96 827.582 767.092C889.904 781.355 924.527 795.617 931.451 809.88C938.376 824.143 953.956 829.492 978.192 825.926C1002.43 822.36 1014.55 808.097 1014.55 783.137C1014.55 758.177 1009.35 742.132 998.966 735C988.579 727.869 966.074 729.652 931.451 740.349C896.828 751.046 855.281 745.697 806.809 724.303C782.572 713.606 758.336 702.909 734.1 692.212C777.379 688.646 820.658 685.08 863.937 681.515C950.494 674.383 998.966 676.166 1009.35 686.863C1019.74 697.56 1033.59 702.909 1050.9 702.909C1068.21 702.909 1080.33 690.429 1087.25 665.469C1094.18 640.509 1094.18 624.463 1087.25 617.332C1080.33 610.201 1068.21 606.635 1050.9 606.635C1033.59 606.635 1021.47 613.766 1014.55 628.029C1007.62 642.292 962.612 649.423 879.517 649.423C837.969 649.423 796.422 649.423 754.874 649.423C786.035 635.16 817.195 620.898 848.356 606.635C910.678 578.109 967.806 558.498 1019.74 547.801C1071.67 537.104 1123.61 531.755 1175.54 531.755Z" fill="none" opacity="1" stroke="#000000" stroke-linecap="butt" stroke-linejoin="round" stroke-width="10"/>
<path d="M557.523 708.258C567.91 710.04 578.297 711.823 588.684 713.606C559.254 729.652 529.824 745.697 500.395 761.743C441.536 793.834 398.257 808.097 370.559 804.532C342.86 800.966 323.817 806.314 313.431 820.577C303.044 834.84 301.312 850.886 308.237 868.714C315.162 886.543 329.011 895.457 349.785 895.457C370.559 895.457 386.139 884.76 396.526 863.366C406.913 841.972 441.536 817.012 500.395 788.486C529.824 774.223 559.254 759.96 588.684 745.697C569.641 767.092 550.598 788.486 531.556 809.88C493.47 852.669 464.041 877.629 443.267 884.76C422.493 891.891 415.568 907.937 422.493 932.897C429.418 957.857 441.536 970.337 458.847 970.337C476.159 970.337 488.277 966.771 495.201 959.64C502.126 952.508 505.588 936.463 505.588 911.503C505.588 886.543 526.362 854.452 567.91 815.229C588.684 795.617 609.457 776.006 630.231 756.395C592.146 825.926 554.061 895.457 515.975 964.988C439.805 1104.05 391.332 1182.5 370.559 1200.33C349.785 1218.15 332.473 1227.07 318.624 1227.07C304.775 1227.07 290.926 1216.37 277.076 1194.98C263.227 1173.58 238.991 1161.1 204.368 1157.54C169.745 1153.97 150.702 1137.93 147.24 1109.4C143.778 1080.87 128.197 1059.48 100.499 1045.22C72.8006 1030.95 60.6825 1009.56 64.1448 981.034C67.6071 952.508 81.4563 925.766 105.692 900.806C129.929 875.846 164.552 850.886 209.561 825.926C254.571 800.966 318.624 774.223 401.719 745.697C484.814 717.172 536.749 704.692 557.523 708.258Z" fill="none" opacity="1" stroke="#000000" stroke-linecap="butt" stroke-linejoin="round" stroke-width="10"/>
<path d="M661.392 767.092C664.854 797.4 668.316 827.709 671.779 858.017C678.703 918.634 673.51 956.074 656.198 970.337C638.887 984.6 631.962 998.863 635.425 1013.13C638.887 1027.39 649.274 1038.09 666.585 1045.22C683.897 1052.35 697.746 1052.35 708.133 1045.22C718.52 1038.09 721.982 998.863 718.52 927.549C716.789 891.891 715.058 856.234 713.326 820.577C723.713 849.103 734.1 877.629 744.487 906.154C765.261 963.206 772.186 1000.65 765.261 1018.47C758.336 1036.3 756.605 1055.91 760.067 1077.31C763.53 1098.7 773.917 1111.18 791.228 1114.75C808.54 1118.31 822.389 1114.75 832.776 1104.05C843.163 1093.35 848.356 1080.87 848.356 1066.61C848.356 1052.35 841.432 1041.65 827.582 1034.52C813.733 1027.39 796.422 986.383 775.648 911.503C765.261 874.063 754.874 836.623 744.487 799.183C770.454 827.709 796.422 856.234 822.389 884.76C874.323 941.811 914.14 1000.65 941.838 1061.26C969.537 1121.88 983.386 1166.45 983.386 1194.98C983.386 1223.5 969.537 1241.33 941.838 1248.46C914.14 1255.59 889.904 1269.86 869.13 1291.25C848.356 1312.64 824.12 1317.99 796.422 1307.3C768.723 1296.6 739.294 1294.82 708.133 1301.95C676.972 1309.08 652.736 1301.95 635.425 1280.55C618.113 1259.16 605.995 1214.59 599.07 1146.84C592.146 1079.09 600.802 998.863 625.038 906.154C637.156 859.8 649.274 813.446 661.392 767.092Z" fill="none" opacity="1" stroke="#000000" stroke-linecap="butt" stroke-linejoin="round" stroke-width="10"/>
</g>
</g>
</svg>
