<?xml version="1.0" encoding="UTF-8" standalone="no"?>
<!DOCTYPE svg PUBLIC "-//W3C//DTD SVG 1.1//EN" "http://www.w3.org/Graphics/SVG/1.1/DTD/svg11.dtd">
<!-- Created with Vectornator (http://vectornator.io/) -->
<svg height="100%" stroke-miterlimit="10" style="fill-rule:nonzero;clip-rule:evenodd;stroke-linecap:round;stroke-linejoin:round;" version="1.1" viewBox="22.0724 23.7544 1312.71 1318.63" width="100%" xml:space="preserve" xmlns="http://www.w3.org/2000/svg" xmlns:xlink="http://www.w3.org/1999/xlink">
<defs/>
<g id="Layer-6">
<g opacity="1">
<path d="M532.187 34.6227C499.334 42.4471 461.006 62.0081 417.202 93.3058C373.398 124.603 329.594 144.164 285.79 151.989C241.986 159.813 210.958 171.55 192.706 187.199C174.455 202.847 154.378 236.101 132.476 286.96C110.574 337.818 99.6228 392.589 99.6228 451.272C99.6228 509.955 92.3221 545.165 77.7208 556.902C63.1195 568.638 50.3433 588.199 39.3923 615.585C28.4413 642.97 24.791 680.136 28.4413 727.083C32.0916 774.029 41.2175 811.195 55.8188 838.58C70.4201 865.966 90.497 887.483 116.049 903.132C141.602 918.78 152.553 952.034 148.902 1002.89C145.252 1053.75 148.902 1090.92 159.853 1114.39C170.804 1137.86 192.706 1157.42 225.559 1173.07C258.412 1188.72 282.139 1210.24 296.741 1237.62C311.342 1265.01 331.419 1288.48 356.971 1308.04C382.524 1327.61 417.202 1337.39 461.006 1337.39C504.81 1337.39 543.138 1325.65 575.991 1302.18C608.844 1278.7 647.173 1266.97 690.977 1266.97C734.781 1266.97 765.809 1274.79 784.06 1290.44C802.312 1306.09 847.941 1310 920.948 1302.18C993.955 1294.35 1050.53 1272.83 1090.69 1237.62C1130.84 1202.42 1154.57 1167.21 1161.87 1132C1169.17 1096.79 1187.42 1073.31 1216.62 1061.58C1245.83 1049.84 1269.55 1026.37 1287.81 991.156C1306.06 955.946 1318.83 887.483 1326.13 785.766C1333.44 684.048 1329.79 615.585 1315.18 580.375C1300.58 545.165 1287.81 525.604 1276.86 521.692C1271.38 519.736 1265.9 517.78 1260.43 515.824C1265.9 504.087 1271.38 492.35 1276.86 480.614C1287.81 457.141 1291.46 423.887 1287.81 380.853C1284.16 337.818 1269.55 288.916 1244 234.145C1218.45 179.374 1189.25 138.296 1156.39 110.911C1123.54 83.5252 1050.53 73.7447 937.374 81.5691C824.214 89.3936 758.508 85.4814 740.256 69.8325C722.005 54.1837 690.977 42.4471 647.173 34.6227C603.369 26.7983 565.04 26.7983 532.187 34.6227Z" fill="none" opacity="1" stroke="#000000" stroke-linecap="butt" stroke-linejoin="round" stroke-width="10"/>
<path d="M619.795 63.9642C659.949 67.8764 689.152 77.6569 707.403 93.3058C716.529 101.13 725.655 108.955 734.781 116.779C723.83 120.691 712.879 124.603 701.928 128.516C680.026 136.34 659.949 153.945 641.697 181.33C623.446 208.716 601.544 226.321 575.991 234.145C550.439 241.969 524.887 259.574 499.334 286.96C473.782 314.345 435.453 335.862 384.349 351.511C333.244 367.16 298.566 384.765 280.314 404.326C262.063 423.887 252.937 439.536 252.937 451.272C252.937 463.009 232.86 474.745 192.706 486.482C172.629 492.35 152.553 498.219 132.476 504.087C134.301 472.789 136.126 441.492 137.951 410.194C141.602 347.599 154.378 298.696 176.28 263.487C198.182 228.277 232.86 204.804 280.314 193.067C327.769 181.33 369.747 161.769 406.251 134.384C442.754 106.998 477.432 87.4375 510.285 75.7008C543.138 63.9642 579.642 60.052 619.795 63.9642Z" fill="none" opacity="1" stroke="#000000" stroke-linecap="butt" stroke-linejoin="round" stroke-width="10"/>
<path d="M1063.31 99.1741C1092.51 103.086 1119.89 116.779 1145.44 140.252C1171 163.725 1196.55 204.804 1222.1 263.487C1247.65 322.17 1258.6 371.072 1254.95 410.194C1253.13 429.755 1251.3 449.316 1249.48 468.877C1233.05 447.36 1216.62 425.843 1200.2 404.326C1167.35 361.292 1139.97 333.906 1118.07 322.17C1096.16 310.433 1072.44 279.135 1046.88 228.277C1021.33 177.418 1001.26 148.077 986.654 140.252C979.353 136.34 972.053 132.428 964.752 128.516C973.878 122.647 983.004 116.779 992.129 110.911C1010.38 99.1741 1034.11 95.2619 1063.31 99.1741Z" fill="none" opacity="1" stroke="#000000" stroke-linecap="butt" stroke-linejoin="round" stroke-width="10"/>
<path d="M909.997 146.12C961.102 165.681 999.43 200.891 1024.98 251.75C1050.53 302.609 1074.26 333.906 1096.16 345.643C1118.07 357.379 1141.79 380.853 1167.35 416.062C1192.9 451.272 1203.85 498.219 1200.2 556.902C1196.55 615.585 1180.12 678.18 1150.92 744.687C1121.72 811.195 1094.34 862.054 1068.79 897.263C1043.23 932.473 1017.68 957.902 992.129 973.551C966.577 989.2 939.2 995.068 909.997 991.156C895.396 989.2 880.794 987.244 866.193 985.288C873.494 983.332 880.794 981.376 888.095 979.42C902.696 975.507 920.948 959.859 942.85 932.473C964.752 905.088 977.528 860.097 981.178 797.502C984.829 734.907 993.955 686.004 1008.56 650.795C1023.16 615.585 1028.63 582.331 1024.98 551.033C1021.33 519.736 1010.38 492.35 992.129 468.877C973.878 445.404 946.5 425.843 909.997 410.194C873.494 394.545 853.417 373.028 849.766 345.643C846.116 318.257 835.165 294.784 816.913 275.223C798.662 255.662 765.809 241.969 718.354 234.145C694.627 230.233 670.9 226.321 647.173 222.408C654.474 212.628 661.774 202.847 669.075 193.067C683.676 173.506 714.704 155.901 762.158 140.252C809.613 124.603 858.892 126.559 909.997 146.12Z" fill="none" opacity="1" stroke="#000000" stroke-linecap="butt" stroke-linejoin="round" stroke-width="10"/>
<path d="M663.599 257.618C711.054 257.618 749.382 269.355 778.585 292.828C807.788 316.301 822.389 333.906 822.389 345.643C822.389 351.511 822.389 357.379 822.389 363.248C802.312 357.379 782.235 351.511 762.158 345.643C722.005 333.906 689.152 333.906 663.599 345.643C638.047 357.379 616.145 380.853 597.893 416.062C579.642 451.272 559.565 472.789 537.663 480.614C515.761 488.438 499.334 500.175 488.383 515.824C477.432 531.472 470.132 560.814 466.481 603.848C462.831 646.882 450.055 676.224 428.153 691.873C406.251 707.522 384.349 711.434 362.447 703.609C340.545 695.785 318.643 674.268 296.741 639.058C274.839 603.848 267.538 562.77 274.839 515.824C282.139 468.877 296.741 435.623 318.643 416.062C340.545 396.501 373.398 380.853 417.202 369.116C461.006 357.379 501.16 335.862 537.663 304.565C574.166 273.267 616.145 257.618 663.599 257.618Z" fill="none" opacity="1" stroke="#000000" stroke-linecap="butt" stroke-linejoin="round" stroke-width="10"/>
<path d="M745.732 369.116C774.935 373.028 815.088 388.677 866.193 416.062C917.298 443.448 951.976 470.833 970.227 498.219C988.479 525.604 995.78 556.902 992.129 592.112C988.479 627.321 981.178 654.707 970.227 674.268C959.276 693.829 953.801 729.039 953.801 779.897C953.801 830.756 939.2 873.79 909.997 909C880.794 944.21 851.592 961.815 822.389 961.815C793.186 961.815 765.809 950.078 740.256 926.605C727.48 914.868 714.704 903.132 701.928 891.395C720.18 883.571 738.431 875.746 756.683 867.922C793.186 852.273 815.088 838.58 822.389 826.844C829.69 815.107 836.99 770.117 844.291 691.873C851.592 613.629 842.466 562.77 816.913 539.297C791.361 515.824 749.382 498.219 690.977 486.482C661.774 480.614 632.572 474.745 603.369 468.877C610.67 455.184 617.97 441.492 625.271 427.799C639.872 400.414 656.299 382.809 674.55 374.984C692.802 367.16 716.529 365.204 745.732 369.116Z" fill="none" opacity="1" stroke="#000000" stroke-linecap="butt" stroke-linejoin="round" stroke-width="10"/>
<path d="M641.697 504.087C667.25 511.911 685.501 523.648 696.452 539.297C701.928 547.121 707.403 554.946 712.879 562.77C701.928 560.814 690.977 558.858 680.026 556.902C658.124 552.99 638.047 558.858 619.795 574.507C601.544 590.155 590.593 611.673 586.942 639.058C583.292 666.443 590.593 691.873 608.844 715.346C617.97 727.083 627.096 738.819 636.222 750.556C621.621 754.468 607.019 758.38 592.418 762.292C563.215 770.117 539.488 760.336 521.236 732.951C502.985 705.565 493.859 670.356 493.859 627.321C493.859 584.287 499.334 554.946 510.285 539.297C521.236 523.648 539.488 511.911 565.04 504.087C590.593 496.263 616.145 496.263 641.697 504.087Z" fill="none" opacity="1" stroke="#000000" stroke-linecap="butt" stroke-linejoin="round" stroke-width="10"/>
<path d="M214.608 504.087C225.559 504.087 236.51 531.472 247.461 586.243C258.412 641.014 280.314 680.136 313.167 703.609C346.02 727.083 360.622 764.248 356.971 815.107C353.321 865.966 355.146 899.219 362.447 914.868C369.747 930.517 393.475 946.166 433.628 961.815C473.782 977.463 493.859 1012.67 493.859 1067.44C493.859 1094.83 493.859 1122.21 493.859 1149.6C473.782 1143.73 453.705 1137.86 433.628 1132C393.475 1120.26 364.272 1104.61 346.02 1085.05C327.769 1065.49 311.342 1036.15 296.741 997.024C282.139 957.902 249.286 928.561 198.182 909C147.077 889.439 110.574 862.054 88.6718 826.844C66.7698 791.634 59.4691 744.687 66.7698 686.004C74.0705 627.321 97.7976 582.331 137.951 551.033C178.105 519.736 203.657 504.087 214.608 504.087Z" fill="none" opacity="1" stroke="#000000" stroke-linecap="butt" stroke-linejoin="round" stroke-width="10"/>
<path d="M734.781 539.297C749.382 545.165 763.984 551.033 778.585 556.902C807.788 568.638 820.564 609.716 816.913 680.136C813.263 750.556 804.137 793.59 789.536 809.239C774.935 824.888 756.683 834.668 734.781 838.58C712.879 842.493 690.977 834.668 669.075 815.107C658.124 805.327 647.173 795.546 636.222 785.766C654.474 768.161 672.725 750.556 690.977 732.951C727.48 697.741 743.907 656.663 740.256 609.716C738.431 586.243 736.606 562.77 734.781 539.297Z" fill="none" opacity="1" stroke="#000000" stroke-linecap="butt" stroke-linejoin="round" stroke-width="10"/>
<path d="M1238.53 539.297C1244 541.253 1249.48 543.209 1254.95 545.165C1265.9 549.077 1276.86 564.726 1287.81 592.112C1298.76 619.497 1300.58 686.004 1293.28 791.634C1285.98 897.263 1275.03 961.815 1260.43 985.288C1245.83 1008.76 1227.58 1024.41 1205.67 1032.23C1194.72 1036.15 1183.77 1040.06 1172.82 1043.97C1174.65 1018.54 1176.47 993.112 1178.3 967.683C1181.95 916.824 1178.3 875.746 1167.35 844.449C1156.39 813.151 1161.87 777.941 1183.77 738.819C1205.67 699.697 1220.28 656.663 1227.58 609.716C1231.23 586.243 1234.88 562.77 1238.53 539.297Z" fill="none" opacity="1" stroke="#000000" stroke-linecap="butt" stroke-linejoin="round" stroke-width="10"/>
<path d="M685.501 597.98C703.753 605.804 712.879 621.453 712.879 644.926C712.879 668.399 707.403 686.004 696.452 697.741C685.501 709.478 669.075 709.478 647.173 697.741C625.271 686.004 616.145 668.399 619.795 644.926C623.446 621.453 630.746 605.804 641.697 597.98C652.648 590.155 667.25 590.155 685.501 597.98Z" fill="none" opacity="1" stroke="#000000" stroke-linecap="butt" stroke-linejoin="round" stroke-width="10"/>
<path d="M455.53 703.609C466.481 703.609 481.083 719.258 499.334 750.556C517.586 781.853 541.313 799.458 570.516 803.37C599.719 807.283 623.446 817.063 641.697 832.712C659.949 848.361 670.9 865.966 674.55 885.527C678.201 905.088 690.977 928.561 712.879 955.946C723.83 969.639 734.781 983.332 745.732 997.024C736.606 1002.89 727.48 1008.76 718.354 1014.63C700.103 1026.37 674.55 1032.23 641.697 1032.23C608.844 1032.23 581.467 1022.45 559.565 1002.89C537.663 983.332 506.635 965.727 466.481 950.078C426.328 934.429 402.6 903.132 395.3 856.185C387.999 809.239 393.475 772.073 411.726 744.687C429.978 717.302 444.579 703.609 455.53 703.609Z" fill="none" opacity="1" stroke="#000000" stroke-linecap="butt" stroke-linejoin="round" stroke-width="10"/>
<path d="M1129.02 856.185C1134.49 871.834 1139.97 887.483 1145.44 903.132C1156.39 934.429 1160.04 963.771 1156.39 991.156C1152.74 1018.54 1134.49 1047.88 1101.64 1079.18C1068.79 1110.48 1026.81 1128.08 975.703 1132C924.598 1135.91 875.319 1153.51 827.864 1184.81C780.41 1216.11 740.256 1233.71 707.403 1237.62C674.55 1241.54 641.697 1235.67 608.844 1220.02C575.991 1204.37 552.264 1182.85 537.663 1155.47C523.062 1128.08 515.761 1100.7 515.761 1073.31C515.761 1059.62 515.761 1045.93 515.761 1032.23C543.138 1038.1 570.516 1043.97 597.893 1049.84C652.648 1061.58 690.977 1063.53 712.879 1055.71C734.781 1047.88 751.207 1036.15 762.158 1020.5C773.109 1004.85 785.886 997.024 800.487 997.024C815.088 997.024 827.864 1002.89 838.815 1014.63C849.766 1026.37 877.144 1030.28 920.948 1026.37C964.752 1022.45 1003.08 1006.81 1035.93 979.42C1068.79 952.034 1092.51 924.649 1107.11 897.263C1114.42 883.571 1121.72 869.878 1129.02 856.185Z" fill="none" opacity="1" stroke="#000000" stroke-linecap="butt" stroke-linejoin="round" stroke-width="10"/>
<path d="M176.28 938.341C192.706 946.166 209.133 953.99 225.559 961.815C258.412 977.463 278.489 1000.94 285.79 1032.23C293.09 1063.53 307.692 1090.92 329.594 1114.39C351.496 1137.86 389.824 1155.47 444.579 1167.21C499.334 1178.94 537.663 1198.5 559.565 1225.89C570.516 1239.58 581.467 1253.27 592.418 1266.97C574.166 1274.79 555.915 1282.62 537.663 1290.44C501.16 1306.09 464.656 1310 428.153 1302.18C391.649 1294.35 358.796 1268.92 329.594 1225.89C300.391 1182.85 271.188 1155.47 241.986 1143.73C212.783 1132 194.531 1094.83 187.231 1032.23C183.58 1000.94 179.93 969.639 176.28 938.341Z" fill="none" opacity="1" stroke="#000000" stroke-linecap="butt" stroke-linejoin="round" stroke-width="10"/>
<path d="M1129.02 1114.39C1132.67 1114.39 1136.32 1114.39 1139.97 1114.39C1138.14 1122.21 1136.32 1130.04 1134.49 1137.86C1130.84 1153.51 1107.11 1178.94 1063.31 1214.15C1019.51 1249.36 962.927 1266.97 893.57 1266.97C858.892 1266.97 824.214 1266.97 789.536 1266.97C791.361 1261.1 793.186 1255.23 795.011 1249.36C798.662 1237.62 816.913 1221.98 849.766 1202.42C882.619 1182.85 922.773 1171.12 970.227 1167.21C1017.68 1163.29 1054.19 1153.51 1079.74 1137.86C1105.29 1122.21 1121.72 1114.39 1129.02 1114.39Z" fill="none" opacity="1" stroke="#000000" stroke-linecap="butt" stroke-linejoin="round" stroke-width="10"/>
</g>
</g>
</svg>
