<?xml version="1.0" encoding="UTF-8" standalone="no"?>
<!DOCTYPE svg PUBLIC "-//W3C//DTD SVG 1.1//EN" "http://www.w3.org/Graphics/SVG/1.1/DTD/svg11.dtd">
<!-- Created with Vectornator (http://vectornator.io/) -->
<svg height="100%" stroke-miterlimit="10" style="fill-rule:nonzero;clip-rule:evenodd;stroke-linecap:round;stroke-linejoin:round;" version="1.1" viewBox="30.0742 12.5742 1322.45 1322.11" width="100%" xml:space="preserve" xmlns="http://www.w3.org/2000/svg" xmlns:xlink="http://www.w3.org/1999/xlink">
<defs/>
<g id="Layer-1">
<g opacity="1">
<path d="M776.819 17.5742C796.431 17.5742 814.081 23.4515 829.771 35.2061C845.46 46.9607 857.227 80.2654 865.072 135.12C872.917 189.975 863.111 264.421 835.654 358.457C808.198 452.494 778.78 521.063 747.401 564.163C731.712 585.713 716.023 607.263 700.333 628.813C700.333 568.081 700.333 507.349 700.333 446.617C700.333 385.885 700.333 325.153 700.333 264.421C694.45 264.421 688.566 264.421 682.683 264.421C670.915 264.421 661.11 325.153 653.265 446.617C649.343 507.349 645.42 568.081 641.498 628.813C621.886 593.549 602.274 558.285 582.663 523.022C543.439 452.494 523.827 380.007 523.827 305.562C523.827 231.116 529.711 180.179 541.478 152.752C553.245 125.325 580.701 109.652 623.847 105.734C666.993 101.815 698.372 86.1427 717.984 58.7153C737.595 31.2879 757.207 17.5742 776.819 17.5742Z" fill="none" opacity="1" stroke="#000000" stroke-linecap="butt" stroke-linejoin="round" stroke-width="10"/>
<path d="M947.441 76.3472C963.131 76.3472 978.82 86.1427 994.51 105.734C1010.2 125.325 1027.85 135.12 1047.46 135.12C1067.07 135.12 1082.76 152.752 1094.53 188.016C1100.41 205.648 1106.3 223.28 1112.18 240.911C1088.65 248.748 1065.11 256.584 1041.58 264.421C994.51 280.093 953.325 303.603 918.024 334.948C900.373 350.621 882.722 366.294 865.072 381.967C872.917 352.58 880.761 323.194 888.606 293.807C904.295 235.034 910.179 188.016 906.257 152.752C902.334 117.488 904.295 95.9382 912.14 88.1018C919.985 80.2654 931.752 76.3472 947.441 76.3472Z" fill="none" opacity="1" stroke="#000000" stroke-linecap="butt" stroke-linejoin="round" stroke-width="10"/>
<path d="M400.273 135.12C419.885 135.12 437.536 144.916 453.225 164.507C468.914 184.098 480.681 236.993 488.526 323.194C496.371 409.394 514.021 477.962 541.478 528.899C555.206 554.367 568.934 579.836 582.663 605.304C555.206 593.549 527.75 581.795 500.293 570.04C445.38 546.531 382.623 505.39 312.02 446.617C241.418 387.844 204.156 344.744 200.233 317.316C196.311 289.889 213.961 272.257 253.185 264.421C292.409 256.584 321.826 233.075 341.438 193.893C361.05 154.711 380.661 135.12 400.273 135.12Z" fill="none" opacity="1" stroke="#000000" stroke-linecap="butt" stroke-linejoin="round" stroke-width="10"/>
<path d="M1118.06 282.053C1153.36 285.971 1171.02 303.603 1171.02 334.948C1171.02 366.294 1188.67 389.803 1223.97 405.476C1259.27 421.149 1274.96 442.699 1271.04 470.126C1267.11 497.553 1253.38 523.022 1229.85 546.531C1206.32 570.04 1178.86 587.672 1147.48 599.427C1116.1 611.181 1053.34 620.977 959.208 628.813C912.14 632.731 865.072 636.649 818.004 640.568C851.344 619.018 884.684 597.467 918.024 575.917C984.704 532.817 1020 503.431 1023.93 487.758C1025.89 479.922 1027.85 472.085 1029.81 464.249C1025.89 464.249 1021.97 464.249 1018.04 464.249C1010.2 464.249 994.51 476.003 970.975 499.512C947.441 523.022 906.257 548.49 847.421 575.917C818.004 589.631 788.586 603.345 759.168 617.058C774.858 587.672 790.547 558.285 806.237 528.899C837.615 470.126 870.955 423.108 906.257 387.844C941.558 352.58 976.859 325.153 1012.16 305.562C1047.46 285.971 1082.76 278.134 1118.06 282.053Z" fill="none" opacity="1" stroke="#000000" stroke-linecap="butt" stroke-linejoin="round" stroke-width="10"/>
<path d="M147.281 317.316C162.971 321.235 176.699 338.866 188.466 370.212C200.233 401.558 227.69 434.862 270.836 470.126C292.409 487.758 313.981 505.39 335.554 523.022C304.176 515.185 272.797 507.349 241.418 499.512C178.66 483.84 133.553 477.962 106.097 481.881C92.3686 483.84 78.6403 485.799 64.9121 487.758C68.8344 462.29 72.7568 436.821 76.6792 411.353C84.5239 360.416 94.3297 331.03 106.097 323.194C117.864 315.357 131.592 313.398 147.281 317.316Z" fill="none" opacity="1" stroke="#000000" stroke-linecap="butt" stroke-linejoin="round" stroke-width="10"/>
<path d="M235.534 534.776C325.749 550.449 402.234 570.04 464.992 593.549C496.371 605.304 527.75 617.058 559.128 628.813C523.827 640.568 488.526 652.322 453.225 664.077C382.623 687.586 343.399 707.177 335.554 722.85C331.632 730.686 327.71 738.523 323.787 746.359C357.127 734.604 390.467 722.85 423.807 711.095C490.487 687.586 539.517 677.79 570.896 681.709C586.585 683.668 602.274 685.627 617.964 687.586C586.585 715.013 555.206 742.441 523.827 769.868C461.07 824.723 390.467 865.864 312.02 893.291C233.573 920.719 186.505 928.555 170.816 916.801C155.126 905.046 153.165 871.741 164.932 816.886C176.699 762.032 157.087 716.972 106.097 681.709C55.1062 646.445 31.5721 615.099 35.4945 587.672C39.4168 560.245 51.1839 540.654 70.7956 528.899C90.4074 517.144 145.32 519.103 235.534 534.776Z" fill="none" opacity="1" stroke="#000000" stroke-linecap="butt" stroke-linejoin="round" stroke-width="10"/>
<path d="M1306.34 564.163C1333.79 575.917 1347.52 589.631 1347.52 605.304C1347.52 620.977 1339.68 638.609 1323.99 658.199C1308.3 677.79 1304.38 703.259 1312.22 734.604C1320.06 765.95 1318.1 787.5 1306.34 799.255C1294.57 811.009 1282.8 816.886 1271.04 816.886C1259.27 816.886 1235.73 797.296 1200.43 758.114C1165.13 718.932 1131.79 693.463 1100.41 681.709C1084.72 675.831 1069.03 669.954 1053.34 664.077C1076.88 656.24 1100.41 648.404 1123.95 640.568C1171.02 624.895 1206.32 605.304 1229.85 581.795C1253.38 558.285 1278.88 552.408 1306.34 564.163Z" fill="none" opacity="1" stroke="#000000" stroke-linecap="butt" stroke-linejoin="round" stroke-width="10"/>
<path d="M794.47 664.077C827.81 664.077 861.15 664.077 894.49 664.077C961.17 664.077 1018.04 675.831 1065.11 699.341C1112.18 722.85 1159.25 760.073 1206.32 811.009C1253.38 861.946 1280.84 907.005 1288.69 946.187C1296.53 985.369 1296.53 1008.88 1288.69 1016.71C1280.84 1024.55 1259.27 1028.47 1223.97 1028.47C1188.67 1028.47 1167.09 1042.18 1159.25 1069.61C1155.33 1083.32 1151.4 1097.04 1147.48 1110.75C1123.95 1100.96 1100.41 1091.16 1076.88 1081.36C1029.81 1061.77 972.937 1018.67 906.257 952.064C839.577 885.455 794.47 828.641 770.935 781.623C747.401 734.604 739.557 707.177 747.401 699.341C755.246 691.504 767.013 691.504 782.703 699.341C798.392 707.177 833.693 736.563 888.606 787.5C943.519 838.437 974.898 863.905 982.742 863.905C986.665 863.905 990.587 863.905 994.51 863.905C994.51 858.028 994.51 852.15 994.51 846.273C994.51 834.518 961.17 801.214 894.49 746.359C861.15 718.932 827.81 691.504 794.47 664.077Z" fill="none" opacity="1" stroke="#000000" stroke-linecap="butt" stroke-linejoin="round" stroke-width="10"/>
<path d="M688.566 734.604C710.139 777.705 731.712 820.805 753.285 863.905C796.431 950.105 823.887 1034.35 835.654 1116.63C847.421 1198.91 845.46 1249.85 829.771 1269.44C814.081 1289.03 780.741 1294.91 729.751 1287.07C678.76 1279.23 645.42 1283.15 629.731 1298.82C614.041 1314.5 596.391 1324.29 576.779 1328.21C557.167 1332.13 539.517 1328.21 523.827 1316.46C508.138 1304.7 502.254 1263.56 506.177 1193.03C510.099 1122.51 533.633 1030.43 576.779 916.801C598.352 859.987 619.925 803.173 641.498 746.359C643.459 795.336 645.42 844.314 647.381 893.291C651.304 991.246 659.148 1040.22 670.915 1040.22C676.799 1040.22 682.683 1040.22 688.566 1040.22C688.566 989.287 688.566 938.351 688.566 887.414C688.566 836.477 688.566 785.541 688.566 734.604Z" fill="none" opacity="1" stroke="#000000" stroke-linecap="butt" stroke-linejoin="round" stroke-width="10"/>
<path d="M594.43 758.114C570.896 832.559 547.361 907.005 523.827 981.451C476.759 1130.34 445.38 1204.79 429.691 1204.79C414.001 1204.79 392.428 1189.12 364.972 1157.77C337.516 1126.42 306.137 1104.87 270.836 1093.12C235.534 1081.36 215.923 1061.77 212 1034.35C208.078 1006.92 210.039 987.328 217.884 975.573C225.729 963.819 261.03 948.146 323.787 928.555C386.545 908.964 447.341 875.659 506.177 828.641C535.594 805.132 565.012 781.623 594.43 758.114Z" fill="none" opacity="1" stroke="#000000" stroke-linecap="butt" stroke-linejoin="round" stroke-width="10"/>
<path d="M829.771 934.432C865.072 961.86 900.373 989.287 935.674 1016.71C1006.28 1071.57 1039.62 1114.67 1035.69 1146.02C1031.77 1177.36 1018.04 1194.99 994.51 1198.91C970.975 1202.83 951.364 1212.62 935.674 1228.3C919.985 1243.97 906.257 1249.85 894.49 1245.93C882.722 1242.01 878.8 1224.38 882.722 1193.03C886.645 1161.69 878.8 1110.75 859.188 1040.22C849.382 1004.96 839.577 969.696 829.771 934.432Z" fill="none" opacity="1" stroke="#000000" stroke-linecap="butt" stroke-linejoin="round" stroke-width="10"/>
</g>
</g>
</svg>
