<?xml version="1.0" encoding="UTF-8" standalone="no"?>
<!DOCTYPE svg PUBLIC "-//W3C//DTD SVG 1.1//EN" "http://www.w3.org/Graphics/SVG/1.1/DTD/svg11.dtd">
<!-- Created with Vectornator (http://vectornator.io/) -->
<svg height="100%" stroke-miterlimit="10" style="fill-rule:nonzero;clip-rule:evenodd;stroke-linecap:round;stroke-linejoin:round;" version="1.1" viewBox="16.9028 12.8463 1331.7 1336.69" width="100%" xml:space="preserve" xmlns="http://www.w3.org/2000/svg" xmlns:xlink="http://www.w3.org/1999/xlink">
<defs/>
<g id="Layer-2">
<g opacity="1">
<path d="M605.958 68.7819C596.714 88.8474 587.47 108.913 578.227 128.979C572.681 121.682 567.134 114.385 561.588 107.089C550.496 92.4957 524.614 79.7267 483.942 68.7819C443.27 57.8371 413.69 59.6612 395.203 74.2543C376.716 88.8474 367.472 116.21 367.472 156.341C367.472 176.406 367.472 196.472 367.472 216.537C345.287 212.889 323.103 209.241 300.918 205.592C256.549 198.296 228.818 200.12 217.725 211.065C206.633 222.01 199.238 238.427 195.541 260.317C191.843 282.206 193.692 302.272 201.087 320.513C204.784 329.634 208.482 338.755 212.179 347.875C201.087 347.875 189.995 347.875 178.902 347.875C156.718 347.875 138.23 356.996 123.44 375.237C108.651 393.479 103.105 413.544 106.802 435.434C110.499 457.324 125.289 481.038 151.171 506.575C164.112 519.344 177.054 532.113 189.995 544.882C164.112 546.707 138.23 548.531 112.348 550.355C60.5838 554.003 31.0042 570.42 23.6093 599.607C16.2144 628.793 32.853 656.155 73.5249 681.693C93.8609 694.462 114.197 707.231 134.533 720C121.592 734.593 108.651 749.186 95.7096 763.779C69.8275 792.965 58.7351 816.679 62.4326 834.921C66.13 853.162 79.0711 869.579 101.256 884.172C123.44 898.766 156.718 907.886 201.087 911.535C223.272 913.359 245.456 915.183 267.641 917.007C254.7 931.6 241.759 946.193 228.818 960.786C202.936 989.973 188.146 1019.16 184.448 1048.35C180.751 1077.53 184.448 1097.6 195.541 1108.54C206.633 1119.49 228.818 1124.96 262.095 1124.96C295.372 1124.96 334.195 1112.19 378.565 1086.65C400.749 1073.88 422.934 1061.11 445.119 1048.35C437.724 1070.23 430.329 1092.12 422.934 1114.01C408.144 1157.79 402.598 1197.92 406.295 1234.41C409.993 1270.89 430.329 1289.13 467.303 1289.13C504.278 1289.13 539.404 1270.89 572.681 1234.41C589.319 1216.17 605.958 1197.92 622.596 1179.68C624.445 1199.75 626.294 1219.81 628.142 1239.88C631.84 1280.01 648.478 1309.2 678.058 1327.44C707.638 1345.68 731.671 1349.33 750.158 1338.38C768.645 1327.44 783.435 1301.9 794.528 1261.77C800.074 1241.7 805.62 1221.64 811.166 1201.57C824.107 1214.34 837.048 1227.11 849.989 1239.88C875.872 1265.42 903.602 1280.01 933.182 1283.66C962.762 1287.31 983.098 1281.84 994.19 1267.24C1005.28 1252.65 1008.98 1219.81 1005.28 1168.74C1003.43 1143.2 1001.58 1117.66 999.736 1092.12C1016.37 1103.07 1033.01 1114.01 1049.65 1124.96C1082.93 1146.85 1110.66 1154.15 1132.84 1146.85C1155.03 1139.55 1167.97 1121.31 1171.67 1092.12C1175.36 1062.94 1166.12 1030.1 1143.94 993.621C1132.84 975.379 1121.75 957.138 1110.66 938.897C1138.39 940.721 1166.12 942.545 1193.85 944.369C1249.31 948.017 1282.59 944.369 1293.68 933.424C1304.78 922.479 1310.32 904.238 1310.32 878.7C1310.32 853.162 1304.78 831.272 1293.68 813.031C1288.14 803.91 1282.59 794.79 1277.04 785.669C1288.14 780.197 1299.23 774.724 1310.32 769.252C1332.51 758.307 1343.6 743.714 1343.6 725.472C1343.6 707.231 1325.11 685.341 1288.14 659.803C1269.65 647.034 1251.16 634.265 1232.68 621.496C1245.62 614.2 1258.56 606.903 1271.5 599.607C1297.38 585.014 1314.02 564.948 1321.41 539.41C1328.81 513.872 1325.11 490.158 1310.32 468.269C1295.53 446.379 1275.2 431.786 1249.31 424.489C1236.37 420.841 1223.43 417.193 1210.49 413.544C1216.04 397.127 1221.58 380.71 1227.13 364.293C1238.22 331.458 1234.52 304.096 1216.04 282.206C1197.55 260.317 1167.97 249.372 1127.3 249.372C1086.63 249.372 1047.8 262.141 1010.83 287.679C992.341 300.448 973.854 313.217 955.367 325.986C960.913 300.448 966.459 274.91 972.005 249.372C983.098 198.296 981.249 152.692 966.459 112.561C951.669 72.4302 927.636 52.3646 894.359 52.3646C861.082 52.3646 833.351 65.1336 811.166 90.6716C800.074 103.441 788.981 116.21 777.889 128.979C772.343 112.561 766.797 96.144 761.251 79.7267C750.158 46.8922 726.125 26.8267 689.15 19.5301C652.176 12.2336 624.445 28.6508 605.958 68.7819Z" fill="none" opacity="1" stroke="#000000" stroke-linecap="butt" stroke-linejoin="round" stroke-width="10"/>
<path d="M700.243 52.3646C722.427 66.9578 737.217 87.0233 744.612 112.561C752.007 138.099 746.461 216.537 727.974 347.875C718.73 413.544 709.486 479.213 700.243 544.882C690.999 497.455 681.755 450.027 672.512 402.6C654.025 307.744 639.235 251.196 628.142 232.954C617.05 214.713 611.504 189.175 611.504 156.341C611.504 123.506 620.747 94.3199 639.235 68.7819C657.722 43.2439 678.058 37.7715 700.243 52.3646Z" fill="none" opacity="1" stroke="#000000" stroke-linecap="butt" stroke-linejoin="round" stroke-width="10"/>
<path d="M910.997 85.1992C933.182 92.4957 946.123 116.21 949.821 156.341C953.518 196.472 935.031 267.613 894.359 369.765C853.687 471.917 824.107 530.289 805.62 544.882C787.133 559.476 770.494 563.124 755.704 555.827C740.915 548.531 739.066 501.103 750.158 413.544C761.251 325.986 776.04 254.844 794.528 200.12C813.015 145.396 831.502 110.737 849.989 96.144C868.477 81.5509 888.813 77.9026 910.997 85.1992Z" fill="none" opacity="1" stroke="#000000" stroke-linecap="butt" stroke-linejoin="round" stroke-width="10"/>
<path d="M461.757 90.6716C487.639 94.3199 517.219 118.034 550.496 161.813C583.773 205.592 611.504 276.734 633.689 375.237C655.873 473.741 666.966 528.465 666.966 539.41C666.966 550.355 659.571 559.476 644.781 566.772C629.991 574.069 600.412 554.003 556.042 506.575C511.673 459.148 476.547 411.72 450.665 364.293C424.783 316.865 408.144 265.789 400.749 211.065C393.354 156.341 395.203 121.682 406.295 107.089C417.388 92.4957 435.875 87.0233 461.757 90.6716Z" fill="none" opacity="1" stroke="#000000" stroke-linecap="butt" stroke-linejoin="round" stroke-width="10"/>
<path d="M278.733 227.482C300.918 227.482 323.103 234.779 345.287 249.372C367.472 263.965 384.111 287.679 395.203 320.513C406.295 353.348 426.631 391.655 456.211 435.434C471.001 457.324 485.791 479.213 500.58 501.103C483.942 486.51 467.303 471.917 450.665 457.324C417.388 428.137 374.867 400.775 323.103 375.237C271.338 349.699 241.759 324.161 234.364 298.624C226.969 273.086 226.969 254.844 234.364 243.899C241.759 232.954 256.549 227.482 278.733 227.482Z" fill="none" opacity="1" stroke="#000000" stroke-linecap="butt" stroke-linejoin="round" stroke-width="10"/>
<path d="M1155.03 282.206C1184.61 289.503 1199.4 307.744 1199.4 336.93C1199.4 366.117 1155.03 398.951 1066.29 435.434C977.551 471.917 918.392 501.103 888.813 522.993C874.023 533.938 859.233 544.882 844.443 555.827C861.082 526.641 877.72 497.455 894.359 468.269C927.636 409.896 960.913 366.117 994.19 336.93C1027.47 307.744 1077.38 282.206 1077.38 282.206C1077.38 282.206 1125.45 274.91 1155.03 282.206Z" fill="none" opacity="1" stroke="#000000" stroke-linecap="butt" stroke-linejoin="round" stroke-width="10"/>
<path d="M145.625 380.71C164.112 380.71 182.6 380.71 201.087 380.71C238.061 380.71 284.28 395.303 339.741 424.489C395.203 453.675 446.967 488.334 495.034 528.465C543.101 568.596 567.134 603.255 567.134 632.441C567.134 647.034 567.134 661.627 567.134 676.221C537.555 668.924 507.975 661.627 478.396 654.331C419.236 639.738 363.775 617.848 312.01 588.662C260.246 559.476 219.574 530.289 189.995 501.103C160.415 471.917 145.625 444.555 145.625 419.017C145.625 406.248 145.625 393.479 145.625 380.71Z" fill="none" opacity="1" stroke="#000000" stroke-linecap="butt" stroke-linejoin="round" stroke-width="10"/>
<path d="M1188.31 446.379C1225.28 446.379 1251.16 451.851 1265.95 462.796C1280.74 473.741 1289.99 488.334 1293.68 506.575C1297.38 524.817 1289.99 543.058 1271.5 561.3C1253.01 579.541 1216.04 595.958 1160.58 610.551C1105.11 625.145 1036.71 632.441 955.367 632.441C914.695 632.441 874.023 632.441 833.351 632.441C835.2 625.145 837.048 617.848 838.897 610.551C842.594 595.958 862.93 575.893 899.905 550.355C936.879 524.817 984.946 501.103 1044.11 479.213C1103.26 457.324 1151.33 446.379 1188.31 446.379Z" fill="none" opacity="1" stroke="#000000" stroke-linecap="butt" stroke-linejoin="round" stroke-width="10"/>
<path d="M184.448 583.189C247.305 594.134 304.616 614.2 356.38 643.386C382.262 657.979 408.144 672.572 434.026 687.165C382.262 687.165 330.498 687.165 278.733 687.165C175.205 687.165 108.651 676.221 79.0711 654.331C64.2813 643.386 49.4915 632.441 34.7017 621.496C43.9453 612.376 53.1889 603.255 62.4326 594.134C80.9198 575.893 121.592 572.245 184.448 583.189Z" fill="none" opacity="1" stroke="#000000" stroke-linecap="butt" stroke-linejoin="round" stroke-width="10"/>
<path d="M705.789 577.717C731.671 577.717 755.704 586.838 777.889 605.079C800.074 623.32 811.166 648.858 811.166 681.693C811.166 714.527 803.771 740.065 788.981 758.307C774.192 776.548 752.007 787.493 722.427 791.141C692.848 794.79 665.117 785.669 639.235 763.779C613.353 741.89 600.412 714.527 600.412 681.693C600.412 648.858 611.504 623.32 633.689 605.079C655.873 586.838 679.907 577.717 705.789 577.717Z" fill="none" opacity="1" stroke="#000000" stroke-linecap="butt" stroke-linejoin="round" stroke-width="10"/>
<path d="M1155.03 659.803C1221.58 663.452 1264.1 670.748 1282.59 681.693C1301.08 692.638 1310.32 707.231 1310.32 725.472C1310.32 743.714 1299.23 754.659 1277.04 758.307C1254.86 761.955 1228.98 754.659 1199.4 736.417C1169.82 718.176 1127.3 703.583 1071.84 692.638C1044.11 687.165 1016.37 681.693 988.644 676.221C999.736 672.572 1010.83 668.924 1021.92 665.276C1044.11 657.979 1088.47 656.155 1155.03 659.803Z" fill="none" opacity="1" stroke="#000000" stroke-linecap="butt" stroke-linejoin="round" stroke-width="10"/>
<path d="M916.543 698.11C964.61 698.11 1020.07 707.231 1082.93 725.472C1145.79 743.714 1193.85 767.428 1227.13 796.614C1260.41 825.8 1277.04 851.338 1277.04 873.228C1277.04 895.117 1264.1 909.71 1238.22 917.007C1212.34 924.304 1175.36 922.479 1127.3 911.535C1079.23 900.59 1018.22 873.228 944.274 829.448C870.325 785.669 835.2 752.834 838.897 730.945C842.594 709.055 868.477 698.11 916.543 698.11Z" fill="none" opacity="1" stroke="#000000" stroke-linecap="butt" stroke-linejoin="round" stroke-width="10"/>
<path d="M456.211 714.527C530.16 718.176 568.983 727.296 572.681 741.89C576.378 756.483 567.134 772.9 544.95 791.141C522.765 809.383 476.547 831.272 406.295 856.81C336.044 882.348 278.733 893.293 234.364 889.645C189.995 885.997 154.869 876.876 128.987 862.283C103.105 847.69 92.0122 831.272 95.7096 813.031C99.4071 794.79 110.499 778.372 128.987 763.779C147.474 749.186 188.146 736.417 251.003 725.472C313.859 714.527 382.262 710.879 456.211 714.527Z" fill="none" opacity="1" stroke="#000000" stroke-linecap="butt" stroke-linejoin="round" stroke-width="10"/>
<path d="M589.319 785.669C589.319 792.965 589.319 800.262 589.319 807.559C589.319 822.152 565.286 860.459 517.219 922.479C469.152 984.5 421.085 1028.28 373.018 1053.82C324.952 1079.36 291.674 1093.95 273.187 1097.6C254.7 1101.25 239.91 1099.42 228.818 1092.12C217.725 1084.83 214.028 1070.23 217.725 1048.35C221.423 1026.46 236.213 1002.74 262.095 977.204C287.977 951.666 330.498 927.952 389.657 906.062C448.816 884.172 496.883 858.635 533.857 829.448C552.345 814.855 570.832 800.262 589.319 785.669Z" fill="none" opacity="1" stroke="#000000" stroke-linecap="butt" stroke-linejoin="round" stroke-width="10"/>
<path d="M811.166 785.669C859.233 816.679 907.3 847.69 955.367 878.7C1051.5 940.721 1106.96 986.324 1121.75 1015.51C1136.54 1044.7 1142.09 1070.23 1138.39 1092.12C1136.54 1103.07 1134.69 1114.01 1132.84 1124.96C1123.6 1123.13 1114.36 1121.31 1105.11 1119.49C1086.63 1115.84 1064.44 1103.07 1038.56 1081.18C1012.68 1059.29 968.308 1004.57 905.451 917.007C874.023 873.228 842.594 829.448 811.166 785.669Z" fill="none" opacity="1" stroke="#000000" stroke-linecap="butt" stroke-linejoin="round" stroke-width="10"/>
<path d="M650.327 813.031C661.419 816.679 666.966 833.097 666.966 862.283C666.966 891.469 657.722 942.545 639.235 1015.51C620.747 1088.48 593.017 1148.67 556.042 1196.1C519.068 1243.53 493.185 1269.07 478.396 1272.71C463.606 1276.36 452.514 1276.36 445.119 1272.71C437.724 1269.07 434.026 1250.82 434.026 1217.99C434.026 1185.16 437.724 1157.79 445.119 1135.9C452.514 1114.01 485.791 1053.82 544.95 955.314C604.109 856.81 639.235 809.383 650.327 813.031Z" fill="none" opacity="1" stroke="#000000" stroke-linecap="butt" stroke-linejoin="round" stroke-width="10"/>
<path d="M766.797 807.559C776.04 813.031 785.284 818.503 794.528 823.976C813.015 834.921 846.292 882.348 894.359 966.259C942.426 1050.17 966.459 1119.49 966.459 1174.21C966.459 1201.57 966.459 1228.93 966.459 1256.3C957.215 1256.3 947.972 1256.3 938.728 1256.3C920.241 1256.3 896.208 1239.88 866.628 1207.05C837.048 1174.21 813.015 1124.96 794.528 1059.29C776.04 993.621 766.797 935.248 766.797 884.172C766.797 858.635 766.797 833.097 766.797 807.559Z" fill="none" opacity="1" stroke="#000000" stroke-linecap="butt" stroke-linejoin="round" stroke-width="10"/>
<path d="M700.243 829.448C705.789 834.921 711.335 840.393 716.881 845.866C727.974 856.81 735.368 887.821 739.066 938.897C742.763 989.973 750.158 1030.1 761.251 1059.29C772.343 1088.48 777.889 1126.78 777.889 1174.21C777.889 1221.64 768.645 1258.12 750.158 1283.66C731.671 1309.2 715.032 1320.14 700.243 1316.49C685.453 1312.85 674.361 1301.9 666.966 1283.66C659.571 1265.42 655.873 1228.93 655.873 1174.21C655.873 1119.49 663.268 1048.35 678.058 960.786C685.453 917.007 692.848 873.228 700.243 829.448Z" fill="none" opacity="1" stroke="#000000" stroke-linecap="butt" stroke-linejoin="round" stroke-width="10"/>
</g>
</g>
</svg>
