<?xml version="1.0" encoding="UTF-8" standalone="no"?>
<!DOCTYPE svg PUBLIC "-//W3C//DTD SVG 1.1//EN" "http://www.w3.org/Graphics/SVG/1.1/DTD/svg11.dtd">
<!-- Created with Vectornator (http://vectornator.io/) -->
<svg height="100%" stroke-miterlimit="10" style="fill-rule:nonzero;clip-rule:evenodd;stroke-linecap:round;stroke-linejoin:round;" version="1.1" viewBox="26.2279 17.9046 1322.61 1320.59" width="100%" xml:space="preserve" xmlns="http://www.w3.org/2000/svg" xmlns:xlink="http://www.w3.org/1999/xlink">
<defs/>
<g id="Layer-7">
<g opacity="1">
<path d="M526.435 109.839C521.171 138.817 515.907 167.795 510.643 196.774C491.342 181.432 472.042 166.091 452.741 150.749C414.139 120.067 386.065 103.021 368.519 99.6115C359.746 97.9069 350.973 96.2023 342.2 94.4977C345.709 125.18 349.218 155.863 352.728 186.546C356.237 217.229 359.746 247.912 363.255 278.594C340.445 276.89 317.635 275.185 294.825 273.48C249.205 270.071 208.849 273.48 173.757 283.708C156.211 288.822 138.664 293.936 121.118 299.049C135.155 317.8 149.192 336.551 163.229 355.301C177.266 374.052 191.303 392.802 205.34 411.553C180.775 418.371 156.211 425.19 131.646 432.008C82.5167 445.645 57.9521 459.282 57.9521 472.918C57.9521 486.555 73.7436 510.42 105.327 544.512C121.118 561.558 136.91 578.604 152.701 595.649C131.646 609.286 110.591 622.923 89.5352 636.56C47.4244 663.833 28.1236 684.289 31.6328 697.925C35.1421 711.562 50.9336 723.494 79.0075 733.722C93.0444 738.836 107.081 743.95 121.118 749.063C107.081 759.291 93.0444 769.518 79.0075 779.746C50.9336 800.201 36.8967 815.543 36.8967 825.77C36.8967 835.998 56.1975 846.225 94.799 856.453C114.1 861.567 133.401 866.681 152.701 871.794C143.928 893.954 135.155 916.114 126.382 938.274C117.609 960.433 108.836 982.593 100.063 1004.75C121.118 1006.46 142.174 1008.16 163.229 1009.87C184.284 1011.57 205.34 1013.28 226.395 1014.98C222.886 1030.32 219.377 1045.66 215.868 1061C212.358 1076.35 208.849 1091.69 205.34 1107.03C228.15 1103.62 250.96 1100.21 273.77 1096.8C296.58 1093.39 319.39 1089.98 342.2 1086.57C338.691 1098.51 335.182 1110.44 331.672 1122.37C324.654 1146.23 324.654 1176.92 331.672 1214.42C335.182 1233.17 338.691 1251.92 342.2 1270.67C368.519 1257.03 394.838 1243.4 421.158 1229.76C447.477 1216.12 473.796 1202.49 500.115 1188.85C501.87 1207.6 503.625 1226.35 505.379 1245.1C507.134 1263.85 508.889 1282.6 510.643 1301.35C524.68 1297.94 538.717 1294.53 552.754 1291.13C580.828 1284.31 605.392 1268.97 626.448 1245.1C636.976 1233.17 647.503 1221.24 658.031 1209.3C663.295 1224.65 668.559 1239.99 673.823 1255.33C684.35 1286.01 696.633 1308.17 710.669 1321.81C724.706 1335.44 740.498 1337.15 758.044 1326.92C775.59 1316.69 791.382 1297.94 805.419 1270.67C812.437 1257.03 819.456 1243.4 826.474 1229.76C845.775 1241.69 865.076 1253.62 884.377 1265.56C903.677 1277.49 922.978 1289.42 942.279 1301.35C949.297 1284.31 956.316 1267.26 963.334 1250.22C977.371 1216.12 984.39 1185.44 984.39 1158.17C984.39 1144.53 984.39 1130.89 984.39 1117.26C1003.69 1124.07 1022.99 1130.89 1042.29 1137.71C1080.89 1151.35 1107.21 1156.46 1121.25 1153.05C1135.29 1149.64 1137.04 1122.37 1126.51 1071.23C1121.25 1045.66 1115.99 1020.09 1110.72 994.525C1130.02 994.525 1149.32 994.525 1168.62 994.525C1207.23 994.525 1238.81 989.412 1263.37 979.184C1287.94 968.956 1296.71 951.91 1289.69 928.046C1282.67 904.182 1268.64 878.613 1247.58 851.339C1237.05 837.702 1226.53 824.066 1216 810.429C1235.3 803.61 1254.6 796.792 1273.9 789.974C1312.5 776.337 1335.31 760.995 1342.33 743.95C1349.35 726.904 1331.8 706.448 1289.69 682.584C1268.64 670.652 1247.58 658.72 1226.53 646.787C1245.83 628.037 1265.13 609.286 1284.43 590.536C1303.73 571.785 1323.03 553.035 1342.33 534.284C1321.28 525.761 1300.22 517.238 1279.17 508.715C1237.05 491.669 1217.75 462.691 1221.26 421.781C1223.02 401.325 1224.77 380.87 1226.53 360.415C1214.24 360.415 1201.96 360.415 1189.68 360.415C1177.4 360.415 1165.12 360.415 1152.83 360.415C1159.85 336.551 1166.87 312.686 1173.89 288.822C1180.91 264.957 1187.93 241.093 1194.94 217.229C1170.38 220.638 1145.81 224.047 1121.25 227.456C1096.69 230.866 1072.12 234.275 1047.56 237.684C1047.56 220.638 1047.56 203.592 1047.56 186.546C1047.56 169.5 1047.56 152.454 1047.56 135.408C1019.48 143.931 991.408 152.454 963.334 160.977C935.26 169.5 907.187 178.023 879.113 186.546C877.358 169.5 875.603 152.454 873.849 135.408C870.34 101.316 863.321 75.7471 852.793 58.7012C842.266 41.6552 824.72 39.9506 800.155 53.5874C775.59 67.2241 751.026 87.6793 726.461 114.953C714.179 128.59 701.896 142.226 689.614 155.863C679.086 138.817 668.559 121.771 658.031 104.725C636.976 70.6333 612.411 48.4736 584.337 38.246C570.3 33.1322 556.263 28.0184 542.226 22.9046C536.962 51.8828 531.699 80.8609 526.435 109.839Z" fill="none" opacity="1" stroke="#000000" stroke-linecap="butt" stroke-linejoin="round" stroke-width="10"/>
<path d="M563.282 63.8149C570.3 65.5195 577.319 67.2241 584.337 68.9287C598.374 72.3379 615.92 87.6793 636.976 114.953C658.031 142.226 661.54 186.546 647.503 247.912C640.485 278.594 633.466 309.277 626.448 339.96C612.411 321.209 598.374 302.459 584.337 283.708C556.263 246.207 545.736 200.183 552.754 145.636C556.263 118.362 559.772 91.0885 563.282 63.8149Z" fill="none" opacity="1" stroke="#000000" stroke-linecap="butt" stroke-linejoin="round" stroke-width="10"/>
<path d="M815.946 74.0425C822.965 89.3839 829.983 104.725 837.002 120.067C851.039 150.749 852.793 207.001 842.266 288.822C831.738 370.643 822.965 418.371 815.946 432.008C808.928 445.645 779.1 449.054 726.461 442.236C700.142 438.826 673.823 435.417 647.503 432.008C652.767 399.621 658.031 367.233 663.295 334.846C673.823 270.071 689.614 220.638 710.669 186.546C731.725 152.454 754.535 125.18 779.1 104.725C791.382 94.4977 803.664 84.2701 815.946 74.0425Z" fill="none" opacity="1" stroke="#000000" stroke-linecap="butt" stroke-linejoin="round" stroke-width="10"/>
<path d="M373.783 135.408C401.857 157.568 429.931 179.728 458.005 201.887C514.152 246.207 554.509 297.345 579.073 355.301C603.638 413.258 600.129 449.054 568.546 462.691C536.962 476.328 510.643 472.918 489.588 452.463C468.532 432.008 447.477 401.325 426.422 360.415C405.366 319.505 391.329 271.776 384.311 217.229C380.802 189.955 377.292 162.682 373.783 135.408Z" fill="none" opacity="1" stroke="#000000" stroke-linecap="butt" stroke-linejoin="round" stroke-width="10"/>
<path d="M1015.97 171.205C1022.99 174.614 1024.75 189.955 1021.24 217.229C1017.73 244.502 1003.69 263.253 979.126 273.48C954.561 283.708 929.997 300.754 905.432 324.618C893.15 336.551 880.867 348.483 868.585 360.415C872.094 338.255 875.603 316.095 879.113 293.936C886.131 249.616 908.941 217.229 947.543 196.774C986.144 176.318 1008.95 167.795 1015.97 171.205Z" fill="none" opacity="1" stroke="#000000" stroke-linecap="butt" stroke-linejoin="round" stroke-width="10"/>
<path d="M1147.57 253.025C1152.83 254.73 1158.1 256.435 1163.36 258.139C1154.59 276.89 1145.81 295.64 1137.04 314.391C1119.5 351.892 1093.18 389.393 1058.08 426.894C1022.99 464.395 986.144 491.669 947.543 508.715C908.941 525.761 879.113 525.761 858.057 508.715C837.002 491.669 831.738 471.214 842.266 447.349C852.793 423.485 873.849 396.212 905.432 365.529C937.015 334.846 982.635 307.572 1042.29 283.708C1101.95 259.844 1137.04 249.616 1147.57 253.025Z" fill="none" opacity="1" stroke="#000000" stroke-linecap="butt" stroke-linejoin="round" stroke-width="10"/>
<path d="M294.825 304.163C340.445 307.572 377.292 333.141 405.366 380.87C419.403 404.735 433.44 428.599 447.477 452.463C412.385 443.94 377.292 435.417 342.2 426.894C272.015 409.848 226.395 389.393 205.34 365.529C184.284 341.664 173.757 326.323 173.757 319.505C173.757 312.686 182.53 307.572 200.076 304.163C217.622 300.754 249.205 300.754 294.825 304.163Z" fill="none" opacity="1" stroke="#000000" stroke-linecap="butt" stroke-linejoin="round" stroke-width="10"/>
<path d="M1163.36 391.098C1177.4 391.098 1191.43 391.098 1205.47 391.098C1203.72 401.325 1201.96 411.553 1200.21 421.781C1196.7 442.236 1191.43 455.872 1184.42 462.691C1177.4 469.509 1154.59 472.918 1115.99 472.918C1096.69 472.918 1077.38 472.918 1058.08 472.918C1068.61 459.282 1079.14 445.645 1089.67 432.008C1110.72 404.735 1135.29 391.098 1163.36 391.098Z" fill="none" opacity="1" stroke="#000000" stroke-linecap="butt" stroke-linejoin="round" stroke-width="10"/>
<path d="M279.034 452.463C356.237 459.282 408.875 469.509 436.949 483.146C465.023 496.783 480.815 507.01 484.324 513.829C487.833 520.647 480.815 535.989 463.269 559.853C445.722 583.717 436.949 602.468 436.949 616.105C436.949 629.741 414.139 638.264 368.519 641.674C322.899 645.083 282.543 638.264 247.451 621.218C212.358 604.172 177.266 576.899 142.174 539.398C107.081 501.897 89.5352 479.737 89.5352 472.918C89.5352 466.1 101.817 459.282 126.382 452.463C150.947 445.645 201.831 445.645 279.034 452.463Z" fill="none" opacity="1" stroke="#000000" stroke-linecap="butt" stroke-linejoin="round" stroke-width="10"/>
<path d="M679.086 462.691C714.179 462.691 744.007 467.805 768.572 478.032C793.136 488.26 819.456 505.306 847.53 529.17C875.603 553.035 894.904 575.194 905.432 595.649C915.96 616.105 921.223 653.606 921.223 708.153C921.223 762.7 901.923 810.429 863.321 851.339C824.72 892.25 793.136 916.114 768.572 922.932C744.007 929.751 708.915 931.455 663.295 928.046C617.675 924.637 580.828 912.705 552.754 892.25C524.68 871.794 503.625 849.635 489.588 825.77C475.551 801.906 468.532 757.586 468.532 692.812C468.532 628.037 480.815 580.308 505.379 549.625C529.944 518.943 556.263 496.783 584.337 483.146C612.411 469.509 643.994 462.691 679.086 462.691Z" fill="none" opacity="1" stroke="#000000" stroke-linecap="butt" stroke-linejoin="round" stroke-width="10"/>
<path d="M1115.99 503.601C1175.64 503.601 1221.26 512.124 1252.85 529.17C1268.64 537.693 1284.43 546.216 1300.22 554.739C1270.39 575.194 1240.56 595.649 1210.74 616.105C1151.08 657.015 1094.93 680.879 1042.29 687.698C989.654 694.516 956.316 674.061 942.279 626.332C928.242 578.604 938.77 546.216 973.862 529.17C1008.95 512.124 1056.33 503.601 1115.99 503.601Z" fill="none" opacity="1" stroke="#000000" stroke-linecap="butt" stroke-linejoin="round" stroke-width="10"/>
<path d="M736.989 564.967C735.234 571.785 733.48 578.604 731.725 585.422C738.743 587.127 745.762 588.831 752.78 590.536C759.799 592.24 766.817 593.945 773.836 595.649C775.59 588.831 777.345 582.013 779.1 575.194C780.854 568.376 782.609 561.558 784.363 554.739C777.345 553.035 770.326 551.33 763.308 549.625C756.29 547.921 749.271 546.216 742.253 544.512C740.498 551.33 738.743 558.148 736.989 564.967Z" fill="none" opacity="1" stroke="#000000" stroke-linecap="butt" stroke-linejoin="round" stroke-width="10"/>
<path d="M542.226 600.763C538.717 609.286 535.208 617.809 531.699 626.332C538.717 628.037 545.736 629.741 552.754 631.446C566.791 634.855 577.319 628.037 584.337 610.991C587.846 602.468 591.356 593.945 594.865 585.422C587.846 583.717 580.828 582.013 573.809 580.308C559.772 576.899 549.245 583.717 542.226 600.763Z" fill="none" opacity="1" stroke="#000000" stroke-linecap="butt" stroke-linejoin="round" stroke-width="10"/>
<path d="M226.395 646.787C243.941 657.015 261.488 667.243 279.034 677.47C261.488 685.993 243.941 694.516 226.395 703.039C191.303 720.085 154.456 723.494 115.854 713.267C96.5536 708.153 77.2529 703.039 57.9521 697.925C64.9705 689.402 71.989 680.879 79.0075 672.356C93.0444 655.31 112.345 641.674 136.91 631.446C161.474 621.218 191.303 626.332 226.395 646.787Z" fill="none" opacity="1" stroke="#000000" stroke-linecap="butt" stroke-linejoin="round" stroke-width="10"/>
<path d="M652.767 651.901C649.258 668.947 654.522 679.175 668.559 682.584C675.577 684.289 682.596 685.993 689.614 687.698C689.614 677.47 689.614 667.243 689.614 657.015C689.614 646.787 689.614 636.56 689.614 626.332C684.35 626.332 679.086 626.332 673.823 626.332C663.295 626.332 656.276 634.855 652.767 651.901Z" fill="none" opacity="1" stroke="#000000" stroke-linecap="butt" stroke-linejoin="round" stroke-width="10"/>
<path d="M831.738 651.901C828.229 662.129 835.247 670.652 852.793 677.47C861.567 680.879 870.34 684.289 879.113 687.698C880.867 680.879 882.622 674.061 884.377 667.243C886.131 660.424 887.886 653.606 889.64 646.787C880.867 645.083 872.094 643.378 863.321 641.674C845.775 638.264 835.247 641.674 831.738 651.901Z" fill="none" opacity="1" stroke="#000000" stroke-linecap="butt" stroke-linejoin="round" stroke-width="10"/>
<path d="M415.894 667.243C419.403 691.107 422.912 714.971 426.422 738.836C433.44 786.564 412.385 817.247 363.255 830.884C314.126 844.521 254.469 846.225 184.284 835.998C149.192 830.884 114.1 825.77 79.0075 820.656C112.345 800.201 145.683 779.746 179.021 759.291C245.696 718.381 301.844 692.812 347.464 682.584C370.274 677.47 393.084 672.356 415.894 667.243Z" fill="none" opacity="1" stroke="#000000" stroke-linecap="butt" stroke-linejoin="round" stroke-width="10"/>
<path d="M1210.74 682.584C1242.32 685.993 1268.64 696.221 1289.69 713.267C1300.22 721.79 1310.75 730.313 1321.28 738.836C1296.71 747.359 1272.15 755.882 1247.58 764.405C1198.45 781.451 1163.36 779.746 1142.31 759.291C1121.25 738.836 1105.46 728.608 1094.93 728.608C1089.67 728.608 1084.4 728.608 1079.14 728.608C1079.14 725.199 1079.14 721.79 1079.14 718.381C1079.14 711.562 1093.18 703.039 1121.25 692.812C1149.32 682.584 1179.15 679.175 1210.74 682.584Z" fill="none" opacity="1" stroke="#000000" stroke-linecap="butt" stroke-linejoin="round" stroke-width="10"/>
<path d="M768.572 743.95C765.063 760.995 768.572 771.223 779.1 774.632C789.627 778.041 798.4 772.928 805.419 759.291C808.928 752.473 812.437 745.654 815.946 738.836C808.928 735.427 801.91 732.017 794.891 728.608C787.873 725.199 780.854 721.79 773.836 718.381C772.081 726.904 770.326 735.427 768.572 743.95Z" fill="none" opacity="1" stroke="#000000" stroke-linecap="butt" stroke-linejoin="round" stroke-width="10"/>
<path d="M1042.29 749.063C1094.93 762.7 1145.81 798.497 1194.94 856.453C1219.51 885.431 1244.07 914.409 1268.64 943.387C1242.32 946.797 1216 950.206 1189.68 953.615C1137.04 960.433 1084.4 951.91 1031.76 928.046C979.126 904.182 947.543 882.022 937.015 861.567C926.487 841.112 928.242 813.838 942.279 779.746C956.316 745.654 989.654 735.427 1042.29 749.063Z" fill="none" opacity="1" stroke="#000000" stroke-linecap="butt" stroke-linejoin="round" stroke-width="10"/>
<path d="M489.588 871.794C517.662 899.068 529.944 919.523 526.435 933.16C522.925 946.797 498.361 968.956 452.741 999.639C407.121 1030.32 361.501 1050.78 315.881 1061C293.071 1066.12 270.261 1071.23 247.451 1076.35C256.224 1055.89 264.997 1035.44 273.77 1014.98C291.316 974.07 324.654 933.16 373.783 892.25C422.912 851.339 461.514 844.521 489.588 871.794Z" fill="none" opacity="1" stroke="#000000" stroke-linecap="butt" stroke-linejoin="round" stroke-width="10"/>
<path d="M268.506 876.908C293.071 878.613 317.635 880.317 342.2 882.022C331.672 890.545 321.145 899.068 310.617 907.591C289.561 924.637 275.525 941.683 268.506 958.729C261.488 975.775 250.96 986.002 236.923 989.412C222.886 992.821 203.585 992.821 179.021 989.412C166.738 987.707 154.456 986.002 142.174 984.298C150.947 965.547 159.72 946.797 168.493 928.046C186.039 890.545 219.377 873.499 268.506 876.908Z" fill="none" opacity="1" stroke="#000000" stroke-linecap="butt" stroke-linejoin="round" stroke-width="10"/>
<path d="M879.113 882.022C886.131 888.84 893.15 895.659 900.168 902.477C914.205 916.114 928.242 946.797 942.279 994.525C956.316 1042.25 958.07 1098.51 947.543 1163.28C942.279 1195.67 937.015 1228.06 931.751 1260.44C922.978 1257.03 914.205 1253.62 905.432 1250.22C887.886 1243.4 866.83 1226.35 842.266 1199.08C817.701 1171.8 796.646 1136.01 779.1 1091.69C761.553 1047.37 752.78 1013.28 752.78 989.412C752.78 965.547 768.572 948.501 800.155 938.274C831.738 928.046 852.793 916.114 863.321 902.477C868.585 895.659 873.849 888.84 879.113 882.022Z" fill="none" opacity="1" stroke="#000000" stroke-linecap="butt" stroke-linejoin="round" stroke-width="10"/>
<path d="M952.807 922.932C973.862 933.16 994.917 943.387 1015.97 953.615C1058.08 974.07 1084.4 1008.16 1094.93 1055.89C1100.19 1079.76 1105.46 1103.62 1110.72 1127.48C1089.67 1117.26 1068.61 1107.03 1047.56 1096.8C1005.45 1076.35 979.126 1042.25 968.598 994.525C963.334 970.661 958.07 946.797 952.807 922.932Z" fill="none" opacity="1" stroke="#000000" stroke-linecap="butt" stroke-linejoin="round" stroke-width="10"/>
<path d="M636.976 948.501C686.105 958.729 710.669 967.252 710.669 974.07C710.669 980.889 698.387 1020.09 673.823 1091.69C649.258 1163.28 619.429 1211.01 584.337 1234.87C566.791 1246.81 549.245 1258.74 531.699 1270.67C529.944 1239.99 528.189 1209.3 526.435 1178.62C522.925 1117.26 528.189 1061 542.226 1009.87C556.263 958.729 587.846 938.274 636.976 948.501Z" fill="none" opacity="1" stroke="#000000" stroke-linecap="butt" stroke-linejoin="round" stroke-width="10"/>
<path d="M500.115 1004.75C498.361 1030.32 496.606 1055.89 494.852 1081.46C491.342 1132.6 468.532 1170.1 426.422 1193.96C405.366 1205.9 384.311 1217.83 363.255 1229.76C361.501 1216.12 359.746 1202.49 357.992 1188.85C354.482 1161.58 356.237 1136.01 363.255 1112.14C370.274 1088.28 394.838 1064.41 436.949 1040.55C458.005 1028.62 479.06 1016.69 500.115 1004.75Z" fill="none" opacity="1" stroke="#000000" stroke-linecap="butt" stroke-linejoin="round" stroke-width="10"/>
<path d="M721.197 1045.66C735.234 1069.53 749.271 1093.39 763.308 1117.26C791.382 1164.99 796.646 1207.6 779.1 1245.1C761.553 1282.6 747.516 1299.65 736.989 1296.24C726.461 1292.83 715.933 1277.49 705.406 1250.22C694.878 1222.94 694.878 1182.03 705.406 1127.48C710.669 1100.21 715.933 1072.94 721.197 1045.66Z" fill="none" opacity="1" stroke="#000000" stroke-linecap="butt" stroke-linejoin="round" stroke-width="10"/>
</g>
</g>
</svg>
