<?xml version="1.0" encoding="UTF-8" standalone="no"?>
<!DOCTYPE svg PUBLIC "-//W3C//DTD SVG 1.1//EN" "http://www.w3.org/Graphics/SVG/1.1/DTD/svg11.dtd">
<!-- Created with Vectornator (http://vectornator.io/) -->
<svg height="100%" stroke-miterlimit="10" style="fill-rule:nonzero;clip-rule:evenodd;stroke-linecap:round;stroke-linejoin:round;" version="1.1" viewBox="279.187 364.799 149.912 150.07" width="100%" xml:space="preserve" xmlns="http://www.w3.org/2000/svg" xmlns:xlink="http://www.w3.org/1999/xlink">
<defs/>
<g id="Layer-2">
<path d="M385.963 514.457C387.225 514.175 388.592 513.642 390.065 512.86C391.539 512.077 392.698 511.222 393.541 510.294C394.385 509.366 395.019 508.294 395.444 507.078C395.868 505.862 396.048 504.573 395.983 503.212C395.918 501.851 395.505 499.915 394.744 497.405C393.983 494.896 392.734 491.668 390.998 487.722C389.262 483.776 387.384 480.26 385.364 477.172C383.345 474.085 381.044 471.175 378.463 468.444C375.882 465.713 373.16 463.339 370.296 461.323C367.432 459.307 364.812 457.793 362.434 456.782C361.246 456.276 360.057 455.77 358.868 455.265C358.798 455.443 358.727 455.622 358.656 455.801C358.515 456.159 353.896 455.246 352.776 455.242C351.656 455.238 350.638 455.879 349.723 457.165C348.808 458.451 348.103 459.774 347.607 461.133C347.112 462.492 346.757 463.78 346.543 464.997C346.328 466.214 346.217 467.896 346.209 470.045C346.201 472.194 346.472 474.702 347.022 477.569C347.572 480.436 348.575 483.663 350.033 487.25C351.49 490.837 353.298 494.281 355.457 497.584C357.616 500.887 359.393 503.329 360.788 504.91C362.182 506.49 363.438 507.749 364.555 508.684C365.672 509.619 366.895 510.483 368.222 511.276C369.55 512.069 370.983 512.754 372.522 513.333C374.06 513.912 375.389 514.31 376.509 514.529C377.629 514.748 379.169 514.861 381.129 514.869C383.09 514.876 384.701 514.738 385.963 514.457ZM343.336 508.821C344.318 508.467 345.09 508.004 345.652 507.433C346.215 506.862 346.673 506.111 347.026 505.182C347.38 504.252 347.525 502.927 347.461 501.208C347.397 499.489 347.018 497.768 346.324 496.046C345.63 494.325 345.111 492.783 344.765 491.421C344.42 490.059 344.116 487.049 343.853 482.392C343.722 480.064 343.59 477.736 343.459 475.407C343.001 476.05 342.543 476.693 342.086 477.336C341.171 478.622 340.079 480.445 338.81 482.804C337.54 485.163 336.517 487.415 335.739 489.561C334.96 491.707 334.428 493.603 334.142 495.25C333.856 496.896 333.745 498.436 333.81 499.869C333.875 501.301 334.15 502.663 334.636 503.954C335.121 505.245 335.747 506.286 336.515 507.077C337.282 507.868 337.981 508.408 338.61 508.696C339.239 508.985 339.939 509.167 340.709 509.241C341.479 509.316 342.355 509.176 343.336 508.821ZM314.686 501.518C316.859 500.953 318.998 500.065 321.104 498.855C323.209 497.645 325.07 496.327 326.685 494.9C328.301 493.474 329.778 491.867 331.115 490.082C332.452 488.296 333.332 486.938 333.756 486.008C334.179 485.079 334.887 482.968 335.88 479.677C336.872 476.386 338.603 472.274 341.072 467.34C343.541 462.407 344.918 459.44 345.201 458.438C345.485 457.436 345.629 456.505 345.632 455.646C345.633 455.216 345.635 454.786 345.636 454.357C344.585 454.675 341.236 451.189 342.498 450.907C343.128 450.766 343.759 450.625 344.39 450.484C344.321 450.197 344.252 449.911 344.183 449.624C344.045 449.05 343.592 448.368 342.825 447.578C342.058 446.787 340.273 446.458 337.471 446.591C334.67 446.724 332.043 446.965 329.591 447.314C327.138 447.663 323.984 448.404 320.129 449.536C316.273 450.668 313.258 451.803 311.083 452.941C308.907 454.079 307.083 455.218 305.608 456.359C304.133 457.5 302.833 458.677 301.708 459.89C300.583 461.104 299.598 462.354 298.753 463.64C297.908 464.926 297.097 466.535 296.32 468.466C295.542 470.397 294.975 472.436 294.617 474.584C294.259 476.731 294.111 478.772 294.174 480.706C294.237 482.641 294.51 484.683 294.992 486.834C295.474 488.984 296.132 490.956 296.966 492.75C297.8 494.544 298.844 496.159 300.1 497.596C301.355 499.034 302.682 500.113 304.079 500.834C305.477 501.556 307.051 501.991 308.802 502.141C310.552 502.29 312.513 502.083 314.686 501.518ZM405.106 478.749C406.018 478.537 406.859 478.218 407.631 477.791C408.403 477.364 409.246 476.543 410.161 475.329C411.076 474.115 411.604 473.221 411.746 472.649C411.889 472.076 411.927 471.181 411.861 469.963C411.796 468.745 411.589 467.777 411.242 467.06C410.894 466.342 410.406 465.66 409.778 465.013C409.151 464.366 408.032 463.753 406.424 463.174C404.815 462.595 402.75 462.409 400.228 462.614C397.707 462.82 395.325 462.883 393.085 462.803C390.844 462.723 387.345 462.102 382.587 460.938C380.208 460.357 377.83 459.775 375.451 459.193C375.52 459.408 375.589 459.623 375.659 459.839C375.797 460.269 376.529 461.274 377.853 462.855C379.178 464.436 381.411 466.664 384.552 469.541C387.692 472.417 390.486 474.541 392.932 475.911C395.378 477.28 397.125 478.111 398.175 478.401C399.224 478.691 400.414 478.875 401.744 478.951C403.075 479.028 404.195 478.96 405.106 478.749ZM288.676 461.777C289.798 461.279 291.308 460.175 293.205 458.462C295.102 456.75 297.314 455.004 299.842 453.222C302.369 451.441 304.124 450.301 305.107 449.803C306.089 449.305 306.58 448.985 306.581 448.842C306.581 448.698 305.532 448.408 303.433 447.971C301.333 447.533 298.883 447.309 296.082 447.299C293.281 447.289 291.075 447.424 289.463 447.705C287.851 447.985 286.204 448.516 284.52 449.298C282.836 450.08 281.573 451.006 280.728 452.078C279.884 453.149 279.459 454.365 279.454 455.726C279.449 457.087 279.586 458.054 279.864 458.629C280.142 459.203 280.665 459.849 281.433 460.568C282.2 461.287 283.004 461.792 283.843 462.081C284.682 462.371 285.417 462.517 286.047 462.519C286.678 462.521 287.554 462.274 288.676 461.777ZM405.394 457.476C407.847 457.127 410.335 456.563 412.858 455.784C415.382 455.006 417.732 453.976 419.908 452.694C422.083 451.413 423.874 449.951 425.281 448.309C426.687 446.667 427.674 444.951 428.241 443.163C428.808 441.374 429.094 439.799 429.099 438.438C429.104 437.077 428.969 435.609 428.695 434.032C428.42 432.455 427.831 430.698 426.928 428.761C426.025 426.823 424.91 425.208 423.584 423.914C422.259 422.619 420.897 421.647 419.498 420.998C418.1 420.348 416.666 419.877 415.197 419.585C413.727 419.293 411.697 419.178 409.106 419.241C406.514 419.303 403.887 419.615 401.224 420.179C398.561 420.742 395.792 421.556 392.917 422.619C390.042 423.683 387.341 424.855 384.816 426.135C382.29 427.415 379.518 429.053 376.499 431.047C373.481 433.042 371.023 434.895 369.126 436.607C368.177 437.463 367.229 438.319 366.28 439.175C367.576 439.216 368.01 445.019 366.048 445.191C366.291 445.729 366.534 446.268 366.778 446.806C367.264 447.882 367.926 448.851 368.763 449.714C369.6 450.576 371.102 451.621 373.268 452.846C375.435 454.072 378.337 455.157 381.975 456.101C385.613 457.046 389.812 457.598 394.574 457.759C399.335 457.92 402.942 457.825 405.394 457.476ZM356.993 450.96C357.975 450.534 358.783 449.928 359.416 449.142C360.049 448.357 360.472 447.606 360.685 446.891C360.898 446.175 360.971 445.244 360.905 444.098C360.839 442.952 360.598 441.948 360.181 441.087C359.764 440.226 359.311 439.544 358.823 439.041C358.334 438.538 357.671 438.07 356.832 437.637C355.993 437.204 355.084 436.95 354.104 436.875C353.124 436.799 352.178 436.939 351.266 437.294C350.354 437.649 349.547 438.219 348.844 439.004C348.141 439.79 347.647 440.647 347.364 441.577C347.08 442.508 346.972 443.438 347.038 444.37C347.105 445.301 347.277 446.125 347.555 446.843C347.832 447.56 348.285 448.278 348.912 448.997C349.54 449.715 350.273 450.291 351.112 450.724C351.951 451.156 352.895 451.411 353.945 451.486C354.995 451.562 356.011 451.386 356.993 450.96ZM331.176 444.634C334.68 444.074 337.028 443.509 338.22 442.941C339.413 442.372 340.114 441.981 340.325 441.767C340.536 441.552 340.642 441.302 340.643 441.016C340.644 440.729 343.847 436.085 344.341 435.227C344.834 434.37 345.152 433.511 345.296 432.652C345.439 431.793 344.047 429.389 341.12 425.438C338.194 421.488 335.788 418.543 333.905 416.602C332.021 414.661 330.346 413.079 328.88 411.856C327.414 410.633 325.982 409.553 324.585 408.617C323.188 407.681 321.126 406.599 318.399 405.371C315.673 404.143 313.225 403.311 311.056 402.873C308.886 402.435 306.786 402.213 304.755 402.205C302.725 402.198 300.763 402.37 298.871 402.721C296.979 403.072 295.227 403.531 293.614 404.099C292.001 404.666 290.107 405.554 287.932 406.764C285.757 407.973 283.756 409.363 281.929 410.932C280.103 412.501 279.189 413.536 279.187 414.038C279.185 414.539 279.461 415.794 280.013 417.801C280.566 419.809 281.294 421.781 282.198 423.719C283.101 425.656 284.11 427.414 285.225 428.994C286.339 430.574 287.909 432.299 289.933 434.169C291.957 436.038 294.087 437.622 296.323 438.919C298.559 440.217 301.146 441.372 304.083 442.386C307.021 443.4 309.784 444.126 312.374 444.565C314.963 445.004 317.868 445.266 321.089 445.349C324.31 445.433 327.673 445.194 331.176 444.634ZM359.585 431.738C360.708 431.097 361.796 430.241 362.851 429.171C363.905 428.1 365.277 426.315 366.967 423.814C368.657 421.313 370.208 418.346 371.621 414.913C373.034 411.48 374.062 408.082 374.705 404.718C375.347 401.353 375.639 398.06 375.581 394.836C375.523 391.613 375.08 388.28 374.252 384.839C373.425 381.398 372.35 378.314 371.03 375.587C369.709 372.861 368.213 370.348 366.541 368.05C364.868 365.752 363.437 364.672 362.246 364.811C361.055 364.95 359.933 365.268 358.881 365.766C357.829 366.263 356.951 366.762 356.249 367.26C355.547 367.759 354.387 368.937 352.77 370.793C351.152 372.65 349.744 374.686 348.546 376.902C347.347 379.118 346.465 380.977 345.899 382.479C345.334 383.981 344.623 386.772 343.768 390.852C342.913 394.932 342.478 398.905 342.464 402.773C342.45 406.641 342.717 410.044 343.267 412.983C343.816 415.922 344.681 418.826 345.861 421.695C347.041 424.565 348.014 426.61 348.78 427.83C349.546 429.051 350.382 430.164 351.288 431.17C351.742 431.673 352.195 432.176 352.649 432.679C352.515 430.924 356.89 431.262 356.958 431.835C357.026 432.409 357.2 432.696 357.48 432.697C357.761 432.698 358.462 432.378 359.585 431.738ZM377.358 425.893C383.462 422.764 387.287 420.665 388.831 419.596C390.376 418.527 391.71 417.458 392.834 416.388C393.959 415.317 394.944 414.139 395.789 412.853C396.634 411.567 397.34 409.814 397.909 407.596C398.477 405.378 398.694 403.552 398.559 402.119C398.424 400.686 398.218 399.682 397.94 399.108C397.662 398.534 397.279 397.996 396.79 397.492C396.302 396.989 395.778 396.629 395.218 396.412C394.659 396.195 393.854 396.121 392.803 396.188C391.753 396.256 390.736 396.539 389.754 397.037C388.772 397.535 387.894 398.14 387.121 398.854C386.348 399.567 385.293 400.817 383.956 402.603C382.619 404.388 380.718 407.282 378.252 411.284C375.787 415.287 373.425 419.432 371.169 423.722C368.912 428.011 367.854 430.228 367.993 430.372C368.133 430.515 371.254 429.023 377.358 425.893ZM338.342 409.527C338.281 407.163 338.045 404.583 337.635 401.788C337.225 398.993 336.744 396.592 336.191 394.585C335.638 392.577 335.015 390.784 334.32 389.206C333.626 387.627 332.965 386.371 332.338 385.438C331.711 384.505 330.839 383.534 329.723 382.527C328.606 381.521 327.243 380.692 325.635 380.041C324.027 379.391 322.873 379.064 322.172 379.062C321.472 379.059 320.841 379.164 320.28 379.377C319.719 379.59 319.122 380.089 318.489 380.875C317.856 381.66 317.467 382.733 317.322 384.094C317.177 385.454 317.277 386.887 317.621 388.392C317.966 389.898 318.555 391.548 319.389 393.341C320.223 395.135 321.127 396.786 322.102 398.293C323.077 399.801 324.401 401.454 326.075 403.25C327.749 405.047 329.459 406.665 331.205 408.104C332.95 409.543 334.591 410.731 336.129 411.668C336.897 412.136 337.666 412.604 338.434 413.073C338.404 411.891 338.373 410.709 338.342 409.527Z" fill="#000000" fill-rule="nonzero" opacity="1" stroke="none"/>
</g>
</svg>
